<?xml version="1.0" encoding="UTF-8"?>
<svg xmlns="http://www.w3.org/2000/svg" xmlns:xlink="http://www.w3.org/1999/xlink" version="1.2" >
<font id="Rambla Bold">
<font-face  font-family="Rambla" units-per-em="1000" ascent="929" descent="-295" font-style="normal" font-weight="700" font-stretch="normal" cap-height="669" x-height="517" underline-position="-75" underline-thickness="50" />
<missing-glyph  horiz-adv-x="500" d="" />
<glyph glyph-name="space" unicode="&#x20;" horiz-adv-x="186" d="" />
<glyph glyph-name="exclam" unicode="&#x21;" horiz-adv-x="248" d="M197 702 L51 702 L70 216 L175 216 L197 702 Z M126 158 C79 158 43 121 43 77 C43 31 79 -7 126 -7 C170 -7 207 31 207 77 C207 121 170 158 126 158 L126 158 Z " />
<glyph glyph-name="quotedbl" unicode="&#x22;" horiz-adv-x="389" d="M40 700 L58 449 L148 449 L166 700 L40 700 Z M223 700 L241 449 L331 449 L349 700 L223 700 Z " />
<glyph glyph-name="numbersign" unicode="&#x23;" horiz-adv-x="642" d="M355 277 L250 277 L267 372 L372 372 L355 277 Z M601 172 L601 277 L466 277 L483 372 L601 372 L601 476 L501 476 L535 668 L425 668 L390 476 L285 476 L319 668 L209 668 L174 476 L44 476 L44 372 L156 372 L139 277 L38 277 L38 172 L120 172 L88 -13 L199 -13 L231 172 L336 172 L304 -13 L415 -13 L447 172 L601 172 Z " />
<glyph glyph-name="dollar" unicode="&#x24;" horiz-adv-x="493" d="M205 -111 L296 -111 L292 -9 C403 8 469 84 469 187 C469 303 368 358 288 402 C228 435 178 452 178 497 C179 546 214 563 262 563 C305 563 357 550 402 534 L442 643 C388 662 338 675 291 679 L295 786 L204 786 L208 677 C108 662 39 597 39 501 C39 376 115 338 205 296 C277 263 330 233 330 182 C330 128 289 110 237 110 C179 110 107 132 63 152 L26 33 C72 11 146 -6 208 -11 L205 -111 Z " />
<glyph glyph-name="uni0025" unicode="&#x25;" horiz-adv-x="810" d="M291 0 L643 691 L514 691 L161 0 L291 0 Z M175 323 C242 323 327 354 327 511 C327 667 262 700 178 700 C111 700 25 667 25 510 C25 354 90 323 175 323 L175 323 Z M176 633 C209 633 233 610 233 510 C233 409 209 389 176 389 C142 389 119 409 119 510 C119 610 142 633 176 633 L176 633 Z M634 -10 C701 -10 786 21 786 178 C786 334 721 367 637 367 C570 367 484 334 484 177 C484 21 549 -10 634 -10 L634 -10 Z M635 300 C668 300 692 277 692 177 C692 76 668 56 635 56 C601 56 578 76 578 177 C578 277 601 300 635 300 L635 300 Z " />
<glyph glyph-name="ampersand" unicode="&#x26;" horiz-adv-x="677" d="M383 139 C350 108 306 95 268 95 C195 95 162 145 162 195 C162 241 189 291 237 314 L383 139 Z M280 683 C189 683 111 632 111 542 C111 483 147 430 178 390 C96 348 35 282 35 190 C35 52 140 -13 262 -13 C330 -13 400 12 450 65 C495 29 575 -14 620 -33 L673 60 C636 78 567 117 528 151 C583 224 613 322 617 426 L509 426 C504 357 484 281 458 230 L287 436 C256 473 239 504 239 530 C239 569 266 582 300 582 C347 582 408 558 429 549 L462 646 C394 671 336 683 280 683 L280 683 Z " />
<glyph glyph-name="quotesingle" unicode="&#x27;" horiz-adv-x="206" d="M40 700 L58 449 L148 449 L166 700 L40 700 Z " />
<glyph glyph-name="parenleft" unicode="&#x28;" horiz-adv-x="302" d="M31 310 C31 155 93 9 197 -133 L284 -73 C214 45 164 169 164 310 C164 445 215 574 284 692 L197 752 C93 610 31 464 31 310 L31 310 Z " />
<glyph glyph-name="parenright" unicode="&#x29;" horiz-adv-x="302" d="M271 310 C271 464 209 610 105 752 L18 692 C87 574 138 445 138 310 C138 169 88 45 18 -73 L105 -133 C209 9 271 155 271 310 L271 310 Z " />
<glyph glyph-name="asterisk" unicode="&#x2a;" horiz-adv-x="393" d="M260 527 L358 562 L308 648 L233 580 L242 686 L148 686 L158 579 L82 649 L35 562 L132 526 L34 491 L83 407 L158 476 L148 368 L243 368 L233 473 L307 407 L358 489 L260 527 Z " />
<glyph glyph-name="plus" unicode="&#x2b;" horiz-adv-x="483" d="M297 77 L297 223 L446 223 L446 333 L297 333 L297 478 L186 478 L186 333 L37 333 L37 223 L186 223 L186 77 L297 77 Z " />
<glyph glyph-name="comma" unicode="&#x2c;" horiz-adv-x="218" d="M172 59 C172 78 166 103 160 116 L45 116 C56 91 62 65 62 44 C62 -14 31 -69 -20 -128 L83 -128 C137 -78 172 -13 172 59 L172 59 Z " />
<glyph glyph-name="hyphen" unicode="&#x2d;" horiz-adv-x="509" d="M458 332 L51 332 L51 223 L458 223 L458 332 Z " />
<glyph glyph-name="period" unicode="&#x2e;" horiz-adv-x="242" d="M122 158 C75 158 39 121 39 77 C39 31 75 -7 122 -7 C166 -7 203 31 203 77 C203 121 166 158 122 158 L122 158 Z " />
<glyph glyph-name="slash" unicode="&#x2f;" horiz-adv-x="426" d="M408 731 L303 762 L18 -89 L125 -118 L408 731 Z " />
<glyph glyph-name="zero" unicode="0" horiz-adv-x="546" d="M270 -13 C419 -13 503 66 503 335 C503 604 423 681 275 681 C127 681 43 601 43 332 C43 61 122 -13 270 -13 L270 -13 Z M273 562 C339 562 367 511 367 334 C367 156 339 105 273 105 C207 105 179 156 179 334 C179 511 207 562 273 562 L273 562 Z " />
<glyph glyph-name="one" unicode="1" horiz-adv-x="377" d="M313 1 L313 668 L205 668 L7 582 L51 483 L174 536 L174 1 L313 1 Z " />
<glyph glyph-name="two" unicode="2" horiz-adv-x="482" d="M27 0 L442 0 L451 116 L193 116 C272 204 294 229 342 293 C390 356 429 415 429 492 C429 605 356 682 230 682 C176 682 116 668 53 637 L84 537 C133 558 184 567 217 567 C273 567 305 536 305 482 C305 429 282 400 228 335 C175 271 105 190 27 105 L27 0 Z " />
<glyph glyph-name="three" unicode="3" horiz-adv-x="489" d="M286 489 C286 421 234 408 186 408 L127 408 L127 307 L196 307 C278 307 318 267 318 207 C318 128 266 104 204 104 C151 104 99 121 57 136 L27 25 C100 -1 157 -13 215 -13 C361 -13 452 72 452 209 C452 273 426 330 345 365 C399 399 420 457 420 505 C420 609 351 680 221 680 C169 680 99 665 34 635 L66 528 C93 539 146 558 199 558 C246 558 286 539 286 489 L286 489 Z " />
<glyph glyph-name="four" unicode="4" horiz-adv-x="568" d="M545 176 L545 271 L441 271 L441 669 L285 669 L19 250 L19 176 L308 176 L308 0 L441 0 L441 176 L545 176 Z M308 271 L166 271 L307 505 L308 271 Z " />
<glyph glyph-name="five" unicode="5" horiz-adv-x="483" d="M28 48 C100 4 168 -13 227 -13 C377 -13 451 97 451 230 C451 372 367 450 264 450 C240 450 206 444 182 427 L182 554 L414 554 L414 669 L65 669 L65 324 L138 289 C165 316 201 330 229 330 C277 330 317 297 317 226 C317 134 271 105 220 105 C161 105 93 136 71 147 L28 48 Z " />
<glyph glyph-name="six" unicode="6" horiz-adv-x="499" d="M253 -12 C399 -12 467 102 467 232 C467 384 391 449 285 449 C265 449 220 439 191 413 C209 518 263 558 322 558 C343 558 381 555 408 545 L439 652 C390 674 344 680 314 680 C156 680 41 546 41 283 C41 58 134 -12 253 -12 L253 -12 Z M180 311 C202 324 231 334 262 334 C302 333 333 303 333 232 C333 152 306 104 256 104 C209 104 180 146 180 311 L180 311 Z " />
<glyph glyph-name="seven" unicode="7" horiz-adv-x="433" d="M421 597 L421 669 L22 669 L22 554 L274 554 C239 476 212 417 178 340 C133 237 97 119 82 0 L213 0 C234 141 263 228 313 338 L421 597 Z " />
<glyph glyph-name="eight" unicode="8" horiz-adv-x="518" d="M263 -12 C414 -12 480 87 480 190 C480 270 438 322 362 359 C428 398 455 454 455 515 C455 621 379 681 263 681 C151 681 67 621 67 504 C67 441 93 391 147 358 C80 318 37 253 37 187 C37 66 112 -12 263 -12 L263 -12 Z M263 567 C299 567 331 548 331 505 C331 476 308 426 266 402 C226 421 191 460 191 507 C191 551 228 567 263 567 L263 567 Z M243 305 C296 284 350 258 350 194 C350 143 316 104 259 104 C207 104 167 134 167 190 C167 242 195 285 234 309 C235 308 235 308 235 308 C236 308 241 306 244 305 L243 305 Z " />
<glyph glyph-name="nine" unicode="9" horiz-adv-x="500" d="M247 679 C101 679 33 565 33 435 C33 283 109 218 215 218 C235 218 280 228 309 254 C291 150 237 110 178 110 C157 110 119 113 92 123 L61 16 C110 -6 156 -12 186 -12 C344 -12 459 122 459 384 C459 609 366 679 247 679 L247 679 Z M320 356 C298 343 269 333 238 333 C198 334 167 364 167 435 C167 515 194 563 244 563 C291 563 320 521 320 356 L320 356 Z " />
<glyph glyph-name="colon" unicode="&#x3a;" horiz-adv-x="266" d="M133 158 C86 158 50 121 50 77 C50 31 86 -7 133 -7 C177 -7 214 31 214 77 C214 121 177 158 133 158 L133 158 Z M135 455 C88 455 52 418 52 374 C52 328 88 290 135 290 C179 290 216 328 216 374 C216 418 179 455 135 455 L135 455 Z " />
<glyph glyph-name="semicolon" unicode="&#x3b;" horiz-adv-x="256" d="M194 59 C194 78 188 103 182 116 L67 116 C78 91 84 65 84 44 C84 -14 53 -69 2 -128 L105 -128 C159 -78 194 -13 194 59 L194 59 Z M127 452 C80 452 44 415 44 371 C44 325 80 287 127 287 C171 287 208 325 208 371 C208 415 171 452 127 452 L127 452 Z " />
<glyph glyph-name="less" unicode="&#x3c;" horiz-adv-x="439" d="M31 236 L387 60 L387 180 L179 281 L387 380 L387 502 L31 324 L31 236 Z " />
<glyph glyph-name="equal" unicode="&#x3d;" horiz-adv-x="488" d="M433 431 L55 431 L55 324 L433 324 L433 431 Z M433 236 L55 236 L55 128 L433 128 L433 236 Z " />
<glyph glyph-name="greater" unicode="&#x3e;" horiz-adv-x="439" d="M408 324 L52 502 L52 380 L260 281 L52 180 L52 60 L408 236 L408 324 Z " />
<glyph glyph-name="question" unicode="&#x3f;" horiz-adv-x="366" d="M121 128 C163 128 198 93 198 51 C198 7 163 -29 121 -29 C76 -29 42 7 42 51 C42 93 76 128 121 128 L121 128 Z M213 498 C209 462 181 436 150 408 C111 370 65 323 57 251 C57 234 59 196 60 184 L174 184 C174 199 176 223 176 238 C183 300 221 336 259 369 C297 402 336 436 342 500 C354 616 237 692 75 700 L50 608 C151 599 222 568 213 498 L213 498 Z " />
<glyph glyph-name="at" unicode="&#x40;" horiz-adv-x="801" d="M441 415 C449 415 456 415 463 412 L452 273 C449 227 423 192 388 192 C354 192 336 220 336 273 C336 355 381 415 441 415 L441 415 Z M614 54 C542 29 473 12 410 12 C287 12 148 67 148 282 C148 468 253 582 436 582 C594 582 667 494 667 359 C667 259 648 194 604 194 C571 194 561 204 561 230 C561 234 561 249 562 261 L580 469 C530 491 483 504 440 504 C319 504 226 409 226 266 C226 159 290 100 379 100 C420 100 465 128 488 159 C504 124 549 101 586 101 C718 101 775 191 775 358 C775 555 664 680 438 680 C185 680 36 517 36 280 C36 19 195 -86 394 -86 C474 -86 559 -67 639 -32 L614 54 Z " />
<glyph glyph-name="A" unicode="A" horiz-adv-x="568" d="M570 0 L361 668 L208 668 L-4 0 L142 0 L188 158 L381 158 L428 0 L570 0 Z M350 267 L219 267 L284 530 L350 267 Z " />
<glyph glyph-name="B" unicode="B" horiz-adv-x="549" d="M410 632 C359 665 300 668 210 668 L64 668 L64 0 L284 0 C446 0 516 82 516 204 C516 282 492 330 413 366 C466 399 478 441 478 490 C478 548 459 600 410 632 L410 632 Z M207 562 L228 562 C294 562 339 560 339 490 C339 435 315 412 274 409 L207 409 L207 562 Z M267 114 L207 114 L207 304 L255 304 C325 304 377 287 377 208 C377 152 351 114 267 114 L267 114 Z " />
<glyph glyph-name="C" unicode="C" horiz-adv-x="519" d="M474 114 C438 108 399 106 367 106 C264 106 186 157 186 339 C186 518 264 565 361 565 C394 565 431 561 467 554 L490 657 C438 672 396 679 339 679 C194 679 39 600 39 336 C40 70 177 -13 329 -13 C382 -13 435 -6 483 5 L474 114 Z " />
<glyph glyph-name="D" unicode="D" horiz-adv-x="601" d="M208 538 L258 538 C394 538 418 462 418 334 C418 206 394 129 258 129 L208 129 L208 538 Z M252 0 C326 0 383 4 429 27 C525 75 560 200 560 333 C560 467 525 591 428 641 C382 665 326 667 252 667 L64 667 L64 0 L252 0 Z " />
<glyph glyph-name="E" unicode="E" horiz-adv-x="536" d="M208 116 L208 290 L469 290 L469 402 L208 402 L208 553 L485 553 L485 669 L64 669 L64 0 L494 0 L494 116 L208 116 Z " />
<glyph glyph-name="F" unicode="F" horiz-adv-x="512" d="M485 553 L485 668 L64 668 L64 0 L209 0 L209 290 L461 290 L461 402 L209 402 L209 553 L485 553 Z " />
<glyph glyph-name="G" unicode="G" horiz-adv-x="580" d="M38 336 C43 77 173 -13 319 -13 C390 -13 466 3 536 31 L536 341 L311 341 L311 236 L405 236 L405 112 C382 108 360 106 340 106 C253 106 185 162 185 339 C185 518 263 565 360 565 C400 565 450 559 492 549 L513 653 C451 670 402 679 338 679 C193 679 38 600 38 336 L38 336 Z " />
<glyph glyph-name="H" unicode="H" horiz-adv-x="633" d="M426 404 L207 404 L207 668 L64 668 L64 0 L207 0 L207 288 L426 288 L426 0 L569 0 L569 668 L426 668 L426 404 Z " />
<glyph glyph-name="I" unicode="I" horiz-adv-x="272" d="M208 668 L64 668 L64 0 L208 0 L208 668 Z " />
<glyph glyph-name="J" unicode="J" horiz-adv-x="270" d="M4 -186 C161 -115 208 -15 208 123 L208 668 L65 668 L65 121 C65 20 47 -32 -58 -91 L4 -186 Z " />
<glyph glyph-name="K" unicode="K" horiz-adv-x="636" d="M230 341 L463 0 L638 0 L387 346 L594 668 L424 668 L230 341 Z M208 668 L64 668 L64 0 L208 0 L208 668 Z " />
<glyph glyph-name="L" unicode="L" horiz-adv-x="474" d="M209 116 L209 668 L64 668 L64 0 L464 0 L464 116 L209 116 Z " />
<glyph glyph-name="M" unicode="M" horiz-adv-x="771" d="M438 85 L575 478 L591 0 L725 0 L686 668 L530 668 L385 238 L241 668 L85 668 L46 0 L179 0 L195 479 L333 85 L438 85 Z " />
<glyph glyph-name="N" unicode="N" horiz-adv-x="682" d="M618 0 L618 668 L478 668 L478 200 L216 668 L64 668 L64 0 L203 0 L203 467 L466 0 L618 0 Z " />
<glyph glyph-name="O" unicode="O" horiz-adv-x="618" d="M310 680 C104 680 39 510 39 334 C39 158 100 -12 307 -12 C516 -12 579 159 579 334 C579 510 518 680 310 680 L310 680 Z M309 110 C204 110 178 209 178 334 C178 460 204 563 309 563 C415 563 440 460 440 334 C440 209 414 110 309 110 L309 110 Z " />
<glyph glyph-name="P" unicode="P" horiz-adv-x="540" d="M459 610 C412 653 358 668 257 668 L64 668 L64 0 L208 0 L208 244 L233 244 C345 244 405 258 452 296 C500 335 520 394 520 462 C520 521 504 570 459 610 L459 610 Z M346 371 C325 355 292 350 219 350 L208 350 L208 562 L234 562 C327 562 380 547 380 453 C380 415 371 388 346 371 L346 371 Z " />
<glyph glyph-name="Q" unicode="Q" horiz-adv-x="618" d="M307 -10 C504 -41 601 -137 601 -137 L673 -39 C621 -8 538 24 461 33 C549 95 579 213 579 334 C579 510 518 680 310 680 C104 680 39 510 39 334 C39 158 108 -10 307 -10 L307 -10 Z M309 94 C210 94 178 195 178 334 C178 460 210 563 309 563 C409 563 440 460 440 334 C440 195 408 94 309 94 L309 94 Z " />
<glyph glyph-name="R" unicode="R" horiz-adv-x="581" d="M461 -33 L569 33 L398 266 C417 273 436 283 452 296 C501 333 520 394 520 462 C520 521 504 570 459 610 C412 653 358 668 257 668 L64 668 L64 0 L208 0 L208 244 L233 244 C243 244 254 244 263 245 L461 -33 Z M346 371 C325 355 292 350 219 350 L208 350 L208 562 L234 562 C290 562 330 556 353 534 C370 518 381 489 381 453 C381 415 371 388 346 371 L346 371 Z " />
<glyph glyph-name="S" unicode="S" horiz-adv-x="499" d="M472 187 C472 303 371 358 291 402 C231 435 181 452 181 497 C182 546 217 563 265 563 C308 563 360 550 405 534 L445 643 C377 668 314 681 258 681 C134 681 42 612 42 501 C42 376 118 338 208 296 C280 263 333 233 333 182 C333 128 292 110 240 110 C182 110 110 132 66 152 L29 33 C84 7 178 -13 245 -13 C386 -13 472 70 472 187 L472 187 Z " />
<glyph glyph-name="T" unicode="T" horiz-adv-x="515" d="M184 553 L184 0 L328 0 L328 553 L505 553 L505 668 L10 668 L10 553 L184 553 Z " />
<glyph glyph-name="U" unicode="U" horiz-adv-x="606" d="M303 -12 C386 -11 459 13 500 64 C533 110 547 165 547 246 L547 667 L402 667 L402 251 C402 198 399 161 382 139 C369 118 340 108 304 108 C261 108 237 118 224 138 C207 161 204 197 204 251 L204 667 L59 667 L59 246 C59 165 74 109 105 64 C145 14 219 -12 303 -12 L303 -12 Z " />
<glyph glyph-name="V" unicode="V" horiz-adv-x="553" d="M138 668 L-4 668 L206 0 L347 0 L557 668 L415 668 C370 512 323 318 276 160 L138 668 Z " />
<glyph glyph-name="W" unicode="W" horiz-adv-x="795" d="M345 612 L204 163 L168 668 L36 668 L103 0 L253 0 L397 494 L542 0 L692 0 L759 668 L626 668 L590 164 L450 612 L345 612 Z " />
<glyph glyph-name="X" unicode="X" horiz-adv-x="600" d="M591 0 L372 340 L580 667 L424 667 L299 440 L173 667 L19 667 L224 334 L9 0 L163 0 L297 231 L430 0 L591 0 Z " />
<glyph glyph-name="Y" unicode="Y" horiz-adv-x="548" d="M138 668 L-8 668 L202 264 L202 0 L346 0 L346 264 L556 668 L410 668 L274 383 L138 668 Z " />
<glyph glyph-name="Z" unicode="Z" horiz-adv-x="525" d="M194 117 L475 575 L466 668 L33 668 L48 552 L315 552 L32 88 L43 0 L496 0 L496 117 L194 117 Z " />
<glyph glyph-name="bracketleft" unicode="&#x5b;" horiz-adv-x="346" d="M58 -131 L319 -131 L319 -30 L189 -24 L189 640 L319 648 L319 748 L58 748 L58 -131 Z " />
<glyph glyph-name="backslash" unicode="&#x5c;" horiz-adv-x="428" d="M302 -118 L409 -89 L124 762 L19 731 L302 -118 Z " />
<glyph glyph-name="bracketright" unicode="&#x5d;" horiz-adv-x="346" d="M288 748 L27 748 L27 648 L157 640 L157 -24 L27 -30 L27 -131 L288 -131 L288 748 Z " />
<glyph glyph-name="asciicircum" unicode="&#x5e;" horiz-adv-x="499" d="M204 643 L28 295 L148 295 L249 495 L348 295 L470 295 L292 643 L204 643 Z " />
<glyph glyph-name="underscore" unicode="&#x5f;" horiz-adv-x="534" d="M483 109 L51 109 L51 0 L483 0 L483 109 Z " />
<glyph glyph-name="grave" unicode="&#x60;" horiz-adv-x="343" d="M262 587 L296 665 L107 774 L58 663 L262 587 Z " />
<glyph glyph-name="a" unicode="a" horiz-adv-x="510" d="M407 -11 C428 -11 472 -7 516 17 L497 100 C485 97 472 94 460 94 C446 94 435 100 435 122 L435 332 C435 473 381 524 246 524 C205 524 119 512 64 479 L93 391 C126 402 169 412 211 412 C264 412 299 406 299 330 L299 281 C263 284 231 284 204 284 C138 284 22 262 21 134 C21 44 78 -13 169 -13 C229 -13 285 10 315 35 C333 6 361 -11 407 -11 L407 -11 Z M217 80 C180 80 151 99 151 149 C151 196 191 213 250 213 C266 213 285 212 299 211 L299 106 C273 89 241 80 217 80 L217 80 Z " />
<glyph glyph-name="b" unicode="b" horiz-adv-x="541" d="M192 701 L52 701 L52 22 C93 4 189 -13 264 -13 C440 -13 508 97 508 281 C508 441 425 522 320 522 C269 522 217 500 192 480 L192 701 Z M192 381 C215 395 245 408 279 408 C336 408 367 377 367 260 C367 168 342 100 244 100 C224 100 208 102 192 105 L192 381 Z " />
<glyph glyph-name="c" unicode="c" horiz-adv-x="438" d="M271 -13 C324 -13 363 -4 411 10 L394 101 C361 96 327 91 296 91 C223 91 165 120 165 253 C165 377 215 412 287 412 C317 412 350 406 385 398 L412 499 C364 513 324 522 271 522 C141 522 32 444 32 254 C32 65 145 -13 271 -13 L271 -13 Z " />
<glyph glyph-name="d" unicode="d" horiz-adv-x="534" d="M34 244 C34 94 94 -9 224 -9 C269 -9 319 4 357 31 L365 -7 L481 -7 L481 710 L340 710 L340 504 C319 515 276 522 251 522 C83 522 34 396 34 244 L34 244 Z M341 119 C317 104 290 96 258 96 C188 96 168 166 168 247 C168 340 191 412 265 412 C296 412 320 407 341 398 L341 119 Z " />
<glyph glyph-name="e" unicode="e" horiz-adv-x="480" d="M435 242 C442 269 448 312 448 342 C448 454 382 522 262 522 C107 522 33 403 33 266 C33 118 84 -13 270 -13 C331 -13 390 -2 441 20 L417 115 C375 99 332 92 292 92 C221 92 165 131 164 242 L435 242 Z M165 318 C170 348 188 423 266 423 C313 423 336 385 336 324 L336 318 L165 318 Z " />
<glyph glyph-name="f" unicode="f" horiz-adv-x="409" d="M474 713 C428 728 381 737 340 737 C184 737 110 679 110 540 L110 511 L15 504 L15 422 L109 416 L109 -172 L249 -186 L249 416 L393 416 L402 512 L249 512 L249 527 C249 588 260 623 349 623 C376 623 411 621 445 613 L474 713 Z " />
<glyph glyph-name="g" unicode="g" horiz-adv-x="490" d="M283 -23 C345 -23 359 -41 359 -67 C359 -118 316 -140 239 -140 C180 -140 131 -128 131 -84 C131 -61 146 -35 182 -23 L283 -23 Z M230 419 C279 419 298 391 298 329 C298 270 278 245 230 245 C182 245 161 270 161 329 C161 391 184 419 230 419 L230 419 Z M114 26 C50 -3 15 -53 15 -104 C15 -194 93 -244 227 -244 C380 -244 478 -172 478 -53 C478 28 418 77 315 77 L229 77 C189 77 172 87 172 110 C172 118 174 129 178 141 C194 137 212 136 231 136 C359 136 423 221 423 330 C423 368 411 409 388 441 C422 446 458 450 492 458 L480 535 C416 524 361 520 315 520 C287 520 255 525 227 525 C96 525 36 440 36 330 C36 263 63 201 112 166 C91 138 82 111 82 87 C82 60 94 39 114 26 L114 26 Z " />
<glyph glyph-name="h" unicode="h" horiz-adv-x="546" d="M193 706 L53 697 L53 0 L193 0 L193 371 C212 389 251 408 288 408 C348 408 350 369 350 326 L350 0 L496 0 L496 351 C496 447 469 522 343 522 C290 522 230 496 193 467 L193 706 Z " />
<glyph glyph-name="i" unicode="i" horiz-adv-x="246" d="M193 524 L53 512 L53 0 L193 0 L193 524 Z M123 759 C76 759 40 722 40 678 C40 632 76 594 123 594 C167 594 204 632 204 678 C204 722 167 759 123 759 L123 759 Z " />
<glyph glyph-name="j" unicode="j" horiz-adv-x="244" d="M192 522 L53 508 L53 60 C53 -44 17 -83 -77 -99 L-66 -207 C99 -199 192 -115 192 51 L192 522 Z M123 762 C75 762 38 724 38 679 C38 632 75 593 123 593 C168 593 206 632 206 679 C206 724 168 762 123 762 L123 762 Z " />
<glyph glyph-name="k" unicode="k" horiz-adv-x="554" d="M363 512 L193 293 L193 709 L53 699 L53 0 L193 0 L193 261 L394 0 L554 0 L330 281 L515 512 L363 512 Z " />
<glyph glyph-name="l" unicode="l" horiz-adv-x="309" d="M292 107 C264 100 248 100 235 100 C203 100 195 116 195 153 L195 700 L54 700 L54 161 C54 77 56 -13 210 -13 C227 -13 269 -10 313 9 L292 107 Z " />
<glyph glyph-name="m" unicode="m" horiz-adv-x="836" d="M343 522 C278 522 211 487 180 456 L168 513 L53 513 L53 0 L193 0 L193 371 C212 389 251 408 288 408 C348 408 350 369 350 326 L350 0 L490 0 L490 350 C490 357 490 364 489 371 C508 389 547 408 584 408 C644 408 646 369 646 326 L646 0 L786 0 L786 351 C786 447 763 522 639 522 C573 522 505 487 472 453 C452 495 423 522 343 522 L343 522 Z " />
<glyph glyph-name="n" unicode="n" horiz-adv-x="546" d="M346 522 C281 522 218 488 183 456 L171 513 L53 513 L53 0 L196 0 L196 371 C215 389 254 408 291 408 C350 408 356 369 356 326 L356 0 L496 0 L496 351 C496 447 472 522 346 522 L346 522 Z " />
<glyph glyph-name="o" unicode="o" horiz-adv-x="511" d="M250 -13 C378 -13 478 59 478 255 C478 453 384 522 256 522 C134 522 33 451 33 254 C33 57 129 -13 250 -13 L250 -13 Z M256 414 C306 414 342 389 342 254 C342 127 305 94 255 94 C206 94 168 127 168 254 C168 389 206 414 256 414 L256 414 Z " />
<glyph glyph-name="p" unicode="p" horiz-adv-x="538" d="M316 522 C250 522 203 486 185 472 L173 513 L53 513 L53 -213 L193 -197 L193 5 C218 -5 249 -13 276 -13 C453 -13 505 117 505 266 C505 418 444 522 316 522 L316 522 Z M193 383 C216 397 242 408 272 408 C350 408 367 338 367 262 C367 172 341 100 253 100 C236 100 213 102 193 107 L193 383 Z " />
<glyph glyph-name="q" unicode="q" horiz-adv-x="541" d="M349 -213 L489 -222 L489 484 C448 505 360 522 288 522 C105 522 33 412 33 228 C33 68 116 -13 221 -13 C277 -13 325 4 349 19 L349 -213 Z M349 120 C326 110 296 100 262 100 C205 100 174 132 174 249 C174 341 198 409 292 409 C312 409 333 406 349 401 L349 120 Z " />
<glyph glyph-name="r" unicode="r" horiz-adv-x="377" d="M374 519 C357 523 339 524 328 524 C254 524 206 482 180 448 L169 513 L53 513 L53 0 L193 0 L193 363 C214 393 252 410 308 410 C322 410 336 408 351 404 L374 519 Z " />
<glyph glyph-name="s" unicode="s" horiz-adv-x="419" d="M384 492 C358 507 298 523 229 523 C113 523 38 469 38 364 C38 215 260 222 260 143 C260 107 236 94 194 94 C149 94 96 107 57 120 L23 20 C53 3 128 -13 190 -13 C327 -13 391 60 391 155 C391 305 169 282 169 369 C169 397 190 414 237 414 C276 414 315 404 351 393 L384 492 Z " />
<glyph glyph-name="t" unicode="t" horiz-adv-x="403" d="M105 165 C105 79 105 -13 263 -13 C280 -13 336 -11 380 8 L359 107 C331 100 303 98 290 98 C256 98 247 115 247 152 L247 416 L386 416 L394 513 L248 513 L248 641 L108 629 L108 512 L15 504 L15 422 L105 416 L105 165 Z " />
<glyph glyph-name="u" unicode="u" horiz-adv-x="543" d="M200 -13 C265 -13 326 18 363 47 L375 -13 L490 -13 L490 513 L350 513 L350 132 C329 116 292 101 255 101 C195 101 190 140 190 183 L190 513 L50 513 L50 158 C50 62 74 -13 200 -13 L200 -13 Z " />
<glyph glyph-name="v" unicode="v" horiz-adv-x="511" d="M255 112 L151 513 L10 513 L167 0 L343 0 L503 513 L362 513 L255 112 Z " />
<glyph glyph-name="w" unicode="w" horiz-adv-x="689" d="M279 504 L210 112 L158 513 L21 513 L127 0 L283 0 L346 373 L408 0 L558 0 L673 513 L536 513 L481 115 L408 513 L279 504 Z " />
<glyph glyph-name="x" unicode="x" horiz-adv-x="527" d="M506 513 L360 513 L267 341 L174 513 L24 513 L184 266 L6 0 L156 0 L264 191 L371 0 L519 0 L347 264 L506 513 Z " />
<glyph glyph-name="y" unicode="y" horiz-adv-x="502" d="M192 13 C165 -101 138 -108 70 -108 C50 -108 1 -99 1 -98 L-20 -195 C20 -207 53 -213 85 -213 C221 -213 262 -148 328 42 L490 513 L355 513 L253 163 L138 517 L5 500 L192 13 Z " />
<glyph glyph-name="z" unicode="z" horiz-adv-x="451" d="M181 95 L407 434 L394 512 L35 512 L45 416 L250 416 L25 75 L37 0 L433 0 L421 95 L181 95 Z " />
<glyph glyph-name="braceleft" unicode="&#x7b;" horiz-adv-x="369" d="M161 312 C194 341 205 396 206 450 L208 579 C208 597 209 659 248 659 L343 659 L343 754 L254 754 C156 754 95 689 91 581 C89 533 88 476 86 430 C84 399 89 364 61 364 L18 364 L18 260 L61 260 C89 260 84 225 86 194 C88 148 89 91 91 43 C95 -65 156 -130 254 -130 L343 -130 L343 -35 L248 -35 C209 -35 208 27 208 45 L206 174 C205 228 194 283 161 312 L161 312 Z " />
<glyph glyph-name="bar" unicode="&#x7c;" horiz-adv-x="234" d="M59 -43 L175 -43 L175 694 L59 694 L59 -43 Z " />
<glyph glyph-name="braceright" unicode="&#x7d;" horiz-adv-x="369" d="M208 312 C175 283 164 228 163 174 L161 45 C161 27 160 -35 121 -35 L26 -35 L26 -130 L115 -130 C213 -130 274 -65 278 43 C280 91 281 148 283 194 C285 225 280 260 308 260 L351 260 L351 364 L308 364 C280 364 285 399 283 430 C281 476 280 533 278 581 C274 689 213 754 115 754 L26 754 L26 659 L121 659 C160 659 161 597 161 579 L163 450 C164 396 175 341 208 312 L208 312 Z " />
<glyph glyph-name="asciitilde" unicode="&#x7e;" horiz-adv-x="567" d="M398 308 C365 308 333 324 299 339 C261 357 221 375 171 375 C122 375 75 344 34 271 L97 216 C119 248 142 262 170 262 C203 262 239 246 269 231 C305 214 343 196 390 196 C439 196 493 226 534 299 L471 354 C449 322 426 308 398 308 L398 308 Z " />
<glyph glyph-name="uni007F" unicode="&#x7f;" d="" />
<glyph glyph-name="uni00A0" unicode="&#xa0;" horiz-adv-x="186" d="" />
<glyph glyph-name="exclamdown" unicode="&#xa1;" horiz-adv-x="240" d="M47 -178 L193 -178 L174 308 L69 308 L47 -178 Z M118 366 C165 366 201 403 201 447 C201 493 165 531 118 531 C74 531 37 493 37 447 C37 403 74 366 118 366 L118 366 Z " />
<glyph glyph-name="cent" unicode="&#xa2;" horiz-adv-x="440" d="M311 719 L221 719 L227 603 C114 589 26 509 26 338 C26 168 117 88 227 73 L221 -36 L311 -36 L305 72 C339 76 370 83 405 94 L388 185 C355 180 321 175 290 175 C217 175 159 204 159 337 C159 461 209 496 281 496 C311 496 344 490 379 482 L406 583 C370 593 339 601 304 604 L311 719 Z " />
<glyph glyph-name="sterling" unicode="&#xa3;" horiz-adv-x="493" d="M124 304 C130 288 132 268 132 249 C132 194 108 122 62 100 L62 0 L461 0 L461 115 L220 115 C241 155 252 204 252 244 C252 264 251 284 247 304 L355 304 L349 404 L217 404 C208 432 202 470 202 496 C202 543 230 573 284 573 C316 573 360 562 411 541 L449 641 C375 675 321 683 279 683 C159 683 80 615 80 491 C80 463 83 431 92 404 L36 404 L36 304 L124 304 Z " />
<glyph glyph-name="currency" unicode="&#xa4;" horiz-adv-x="537" d="M100 -32 C111 -18 129 5 141 21 C153 36 166 53 178 68 C205 55 237 47 274 47 C309 47 334 50 361 64 L434 -32 L503 21 C490 37 469 65 454 84 C445 95 437 104 429 115 C461 152 480 203 480 250 C480 298 460 351 426 388 L496 479 L428 532 C407 507 376 467 354 438 C330 449 302 454 274 454 C241 454 209 447 183 436 L108 532 L39 479 C48 467 65 446 76 433 C90 416 103 401 115 384 C84 346 67 297 67 250 C67 206 83 158 110 122 L31 21 L100 -32 Z M274 136 C208 136 161 186 161 250 C161 314 208 366 274 366 C339 366 386 314 386 250 C386 186 339 136 274 136 L274 136 Z " />
<glyph glyph-name="yen" unicode="&#xa5;" horiz-adv-x="606" d="M83 247 L231 247 L231 194 L83 194 L83 109 L231 109 L231 0 L375 0 L375 109 L523 109 L523 194 L375 194 L375 247 L523 247 L523 331 L410 331 L585 668 L439 668 L303 383 L167 668 L21 668 L196 331 L83 331 L83 247 Z " />
<glyph glyph-name="brokenbar" unicode="&#xa6;" horiz-adv-x="236" d="M60 407 L176 407 L176 694 L60 694 L60 407 Z M60 -43 L176 -43 L176 242 L60 242 L60 -43 Z " />
<glyph glyph-name="section" unicode="&#xa7;" horiz-adv-x="379" d="M207 479 C202 490 199 502 199 510 C199 537 218 558 254 571 L300 587 L277 686 C252 680 228 674 214 669 C131 639 88 582 88 500 C88 478 93 455 99 435 C100 433 101 430 102 427 C75 409 54 387 42 364 C30 340 24 314 24 287 C24 261 28 236 38 214 C57 171 83 139 107 101 C131 63 156 30 172 -10 C178 -20 180 -32 180 -41 C180 -67 161 -90 126 -102 L79 -117 L102 -214 C126 -211 147 -206 165 -199 C214 -180 257 -144 274 -109 C286 -85 292 -57 292 -28 C292 -6 287 19 278 39 L276 43 C303 60 324 82 337 105 C350 128 356 157 356 185 C356 208 351 233 341 256 C325 293 299 329 275 364 L273 367 C248 404 223 441 207 479 L207 479 Z M142 264 C138 274 136 286 136 297 C136 314 140 328 153 340 C198 277 223 242 237 206 C241 195 244 183 244 172 C244 157 236 139 226 128 L211 149 C185 186 159 223 142 264 L142 264 Z " />
<glyph glyph-name="dieresis" unicode="&#xa8;" horiz-adv-x="358" d="M86 735 C46 735 17 704 17 667 C17 627 46 596 86 596 C125 596 155 627 155 667 C155 704 125 735 86 735 L86 735 Z M271 735 C231 735 201 704 201 667 C201 627 231 596 271 596 C308 596 339 627 339 667 C339 704 308 735 271 735 L271 735 Z " />
<glyph glyph-name="copyright" unicode="&#xa9;" horiz-adv-x="716" d="M476 466 C446 486 409 498 368 498 C280 498 195 439 195 298 C195 157 280 98 368 98 C405 98 447 111 481 135 L459 184 C428 166 398 157 369 157 C317 157 265 194 265 298 C265 402 317 438 369 438 C400 438 425 431 452 414 L476 466 Z M678 302 C678 481 536 622 358 622 C180 622 38 481 38 302 C38 123 180 -18 358 -18 C536 -18 678 123 678 302 L678 302 Z M603 302 C603 155 499 45 358 45 C216 45 112 153 112 300 C112 447 216 555 358 555 C499 555 603 449 603 302 L603 302 Z " />
<glyph glyph-name="ordfeminine" unicode="&#xaa;" horiz-adv-x="342" d="M249 404 C259 404 285 407 310 421 L299 471 C291 468 283 467 277 467 C271 467 265 470 265 479 L265 596 C265 673 236 703 160 703 C136 703 88 696 57 677 L75 624 C94 630 119 637 140 637 C169 637 187 633 187 595 L187 569 C168 571 150 571 136 571 C100 571 35 558 34 486 C34 435 66 403 117 403 C149 403 180 415 197 428 C208 412 224 404 249 404 L249 404 Z M143 459 C125 459 110 468 110 494 C110 519 130 528 162 528 C167 528 172 527 177 527 L187 527 L187 472 C174 464 155 459 143 459 L143 459 Z " />
<glyph glyph-name="guillemotleft" unicode="&#xab;" horiz-adv-x="560" d="M525 421 L443 491 L267 306 L267 247 L443 61 L525 134 L386 276 L525 421 Z M294 421 L212 491 L36 306 L36 247 L212 61 L294 134 L154 276 L294 421 Z " />
<glyph glyph-name="logicalnot" unicode="&#xac;" horiz-adv-x="566" d="M508 225 L508 442 L51 442 L51 333 L398 333 L398 225 L508 225 Z " />
<glyph glyph-name="uni00AD" unicode="&#xad;" horiz-adv-x="509" d="" />
<glyph glyph-name="registered" unicode="&#xae;" horiz-adv-x="716" d="M678 302 C678 481 536 622 358 622 C180 622 38 481 38 302 C38 123 180 -18 358 -18 C536 -18 678 123 678 302 L678 302 Z M603 302 C603 155 499 45 358 45 C216 45 112 153 112 300 C112 447 216 555 358 555 C499 555 603 449 603 302 L603 302 Z M448 465 C421 489 389 497 331 497 L235 497 L235 111 L294 111 L294 258 L315 258 C331 258 341 259 354 260 C382 217 427 155 473 105 L515 136 C483 172 415 264 412 270 C423 274 434 280 445 289 C470 309 482 344 482 381 C482 415 473 443 448 465 L448 465 Z M396 321 C382 309 360 305 314 305 L294 305 L294 452 L323 452 C383 452 420 439 420 379 C420 351 413 333 396 321 L396 321 Z " />
<glyph glyph-name="macron" unicode="&#xaf;" horiz-adv-x="532" d="M487 650 L45 650 L45 541 L487 541 L487 650 Z " />
<glyph glyph-name="degree" unicode="&#xb0;" horiz-adv-x="311" d="M276 565 C276 627 238 683 155 683 C74 683 35 626 35 564 C35 501 72 443 154 443 C237 443 276 504 276 565 L276 565 Z M208 564 C208 536 197 507 155 507 C117 507 104 536 104 562 C104 590 117 618 155 618 C197 618 208 590 208 564 L208 564 Z " />
<glyph glyph-name="plusminus" unicode="&#xb1;" horiz-adv-x="511" d="M311 187 L311 333 L460 333 L460 443 L311 443 L311 588 L200 588 L200 443 L51 443 L51 333 L200 333 L200 187 L311 187 Z M459 110 L52 110 L52 1 L459 1 L459 110 Z " />
<glyph glyph-name="twosuperior" unicode="&#xb2;" horiz-adv-x="378" d="M46 256 L323 256 L323 344 L178 344 C190 357 196 364 204 373 C227 397 241 412 255 431 C281 466 310 512 310 556 C310 630 261 680 180 680 C146 680 106 670 59 648 L85 571 C110 580 145 595 172 595 C197 595 215 579 215 550 C215 525 199 502 171 467 C146 437 116 404 81 368 C70 356 58 343 46 331 L46 256 Z " />
<glyph glyph-name="threesuperior" unicode="&#xb3;" horiz-adv-x="367" d="M152 444 C197 444 210 421 210 388 C210 355 191 334 161 334 C138 334 103 345 70 365 L35 291 C78 264 124 249 161 249 C249 249 304 307 304 390 C304 431 294 464 255 488 C277 509 290 539 290 566 C290 637 244 680 162 680 C129 680 88 668 48 648 L74 577 C92 586 124 596 150 596 C174 596 194 587 194 562 C194 534 183 514 151 514 L103 514 L103 444 L152 444 Z " />
<glyph glyph-name="acute" unicode="&#xb4;" horiz-adv-x="342" d="M288 663 L239 774 L50 665 L84 587 L288 663 Z " />
<glyph glyph-name="mu" unicode="&#xb5;" horiz-adv-x="603" d="M374 53 C392 5 427 -11 473 -11 C494 -11 538 -7 582 17 L563 100 C551 97 538 94 526 94 C512 94 501 100 501 122 L501 513 L361 513 L361 132 C340 116 303 101 266 101 C206 101 201 140 201 183 L201 513 L61 513 L61 -201 L201 -201 L201 6 C217 -1 233 -3 249 -3 C300 -3 347 26 374 53 L374 53 Z " />
<glyph glyph-name="paragraph" unicode="&#xb6;" horiz-adv-x="506" d="M478 604 L478 668 L180 668 C92 668 21 598 21 510 C21 422 92 351 180 351 L180 -162 L258 -162 L258 604 L332 604 L332 -162 L406 -162 L406 604 L478 604 Z " />
<glyph glyph-name="periodcentered" unicode="&#xb7;" horiz-adv-x="248" d="M125 345 C78 345 42 308 42 264 C42 218 78 180 125 180 C169 180 206 218 206 264 C206 308 169 345 125 345 L125 345 Z " />
<glyph glyph-name="cedilla" unicode="&#xb8;" horiz-adv-x="276" d="M214 -57 L90 -57 C102 -88 111 -114 111 -139 C111 -170 96 -198 53 -230 L104 -295 C191 -251 232 -196 232 -133 C232 -109 226 -83 214 -57 L214 -57 Z " />
<glyph glyph-name="onesuperior" unicode="&#xb9;" horiz-adv-x="320" d="M232 251 L232 666 L155 666 L12 604 L43 523 L129 559 L129 251 L232 251 Z " />
<glyph glyph-name="ordmasculine" unicode="&#xba;" horiz-adv-x="325" d="M160 402 C232 402 288 443 288 553 C288 664 235 703 163 703 C94 703 37 663 37 552 C37 441 91 402 160 402 L160 402 Z M163 639 C190 639 209 625 209 552 C209 483 189 465 162 465 C136 465 116 483 116 552 C116 625 136 639 163 639 L163 639 Z " />
<glyph glyph-name="guillemotright" unicode="&#xbb;" horiz-adv-x="561" d="M176 278 L37 136 L119 63 L295 249 L295 308 L119 493 L37 423 L176 278 Z M408 278 L268 136 L350 63 L526 249 L526 308 L350 493 L268 423 L408 278 Z " />
<glyph glyph-name="onequarter" unicode="&#xbc;" horiz-adv-x="874" d="M847 109 L847 181 L784 181 L784 408 L665 408 L525 164 L525 109 L689 109 L689 0 L784 0 L784 109 L847 109 Z M689 181 L623 181 L689 305 L689 181 Z M239 272 L239 687 L162 687 L19 625 L50 544 L136 580 L136 272 L239 272 Z M621 765 L516 796 L231 -55 L338 -84 L621 765 Z " />
<glyph glyph-name="onehalf" unicode="&#xbd;" horiz-adv-x="841" d="M239 272 L239 687 L162 687 L19 625 L50 544 L136 580 L136 272 L239 272 Z M533 -2 L810 -2 L810 86 L665 86 C677 99 683 106 691 115 C714 139 728 154 742 173 C768 208 797 254 797 298 C797 372 748 422 667 422 C633 422 593 412 546 390 L572 313 C597 322 632 334 659 334 C684 334 702 324 702 292 C702 267 686 244 658 209 C633 179 603 146 568 110 C557 98 545 85 533 73 L533 -2 Z M605 765 L500 796 L215 -55 L322 -84 L605 765 Z " />
<glyph glyph-name="threequarters" unicode="&#xbe;" horiz-adv-x="874" d="M138 460 C177 460 200 437 200 404 C200 371 181 350 151 350 C128 350 93 361 60 381 L25 307 C68 280 114 265 151 265 C239 265 294 323 294 406 C294 447 284 480 245 504 C267 525 280 555 280 582 C280 653 234 696 152 696 C119 696 78 684 38 664 L64 593 C82 602 114 612 140 612 C164 612 184 603 184 578 C184 550 169 530 137 530 L93 530 L93 460 L138 460 Z M853 109 L853 181 L790 181 L790 408 L671 408 L531 164 L531 109 L695 109 L695 0 L790 0 L790 109 L853 109 Z M695 181 L629 181 L695 305 L695 181 Z M629 752 L524 783 L239 -68 L346 -97 L629 752 Z " />
<glyph glyph-name="questiondown" unicode="&#xbf;" horiz-adv-x="361" d="M244 371 C289 371 323 406 323 448 C323 492 289 528 244 528 C202 528 167 492 167 448 C167 406 202 371 244 371 L244 371 Z M151 -2 C155 34 183 60 214 88 C253 126 299 173 307 245 C307 262 305 300 304 312 L190 312 C190 297 188 273 188 258 C181 196 143 160 105 127 C67 94 28 60 22 -4 C10 -120 127 -196 289 -204 L314 -112 C213 -103 142 -72 151 -2 L151 -2 Z " />
<glyph glyph-name="Agrave" unicode="&#xc0;" horiz-adv-x="568" d="M357 732 L391 810 L202 919 L153 808 L357 732 Z M570 0 L361 668 L208 668 L-4 0 L142 0 L188 158 L381 158 L428 0 L570 0 Z M350 267 L219 267 L284 530 L350 267 Z " />
<glyph glyph-name="Aacute" unicode="&#xc1;" horiz-adv-x="568" d="M570 0 L361 668 L208 668 L-4 0 L142 0 L188 158 L381 158 L428 0 L570 0 Z M350 267 L219 267 L284 530 L350 267 Z M456 811 L407 922 L218 813 L252 735 L456 811 Z " />
<glyph glyph-name="Acircumflex" unicode="&#xc2;" horiz-adv-x="568" d="M570 0 L361 668 L208 668 L-4 0 L142 0 L188 158 L381 158 L428 0 L570 0 Z M350 267 L219 267 L284 530 L350 267 Z M285 796 L369 711 L433 763 L322 882 L248 882 L137 763 L201 711 L285 796 Z " />
<glyph glyph-name="Atilde" unicode="&#xc3;" horiz-adv-x="568" d="M570 0 L361 668 L208 668 L-4 0 L142 0 L188 158 L381 158 L428 0 L570 0 Z M350 267 L219 267 L284 530 L350 267 Z M353 828 C312 828 267 871 218 871 C177 871 134 833 112 796 L161 742 C183 769 201 777 216 777 C256 777 299 734 349 734 C390 734 435 772 457 809 L408 863 C386 836 368 828 353 828 L353 828 Z " />
<glyph glyph-name="Adieresis" unicode="&#xc4;" horiz-adv-x="568" d="M570 0 L361 668 L208 668 L-4 0 L142 0 L188 158 L381 158 L428 0 L570 0 Z M350 267 L219 267 L284 530 L350 267 Z M193 854 C153 854 124 823 124 786 C124 746 153 715 193 715 C232 715 262 746 262 786 C262 823 232 854 193 854 L193 854 Z M378 854 C338 854 308 823 308 786 C308 746 338 715 378 715 C415 715 446 746 446 786 C446 823 415 854 378 854 L378 854 Z " />
<glyph glyph-name="Aring" unicode="&#xc5;" horiz-adv-x="568" d="M387 816 C387 869 355 917 284 917 C214 917 181 868 181 815 C181 762 212 712 283 712 C354 712 387 764 387 816 L387 816 Z M320 815 C320 796 312 775 284 775 C258 775 249 796 249 814 C249 833 258 853 284 853 C312 853 320 833 320 815 L320 815 Z M570 0 L361 668 L208 668 L-4 0 L142 0 L188 158 L381 158 L428 0 L570 0 Z M350 267 L219 267 L284 530 L350 267 Z " />
<glyph glyph-name="AE" unicode="&#xc6;" horiz-adv-x="817" d="M361 267 L244 267 L361 571 L361 267 Z M370 -1 L775 -1 L775 115 L489 115 L489 289 L750 289 L750 401 L489 401 L489 552 L766 552 L766 668 L281 668 L-7 0 L138 0 L201 158 L370 158 L370 -1 Z " />
<glyph glyph-name="Ccedilla" unicode="&#xc7;" horiz-adv-x="519" d="M474 114 C438 108 399 106 367 106 C264 106 186 157 186 339 C186 518 264 565 361 565 C394 565 431 561 467 554 L490 657 C438 672 396 679 339 679 C194 679 39 600 39 336 C40 70 177 -13 329 -13 C382 -13 435 -6 483 5 L474 114 Z M406 -57 L282 -57 C294 -88 303 -114 303 -139 C303 -170 288 -198 245 -230 L296 -295 C383 -251 424 -196 424 -133 C424 -109 418 -83 406 -57 L406 -57 Z " />
<glyph glyph-name="Egrave" unicode="&#xc8;" horiz-adv-x="536" d="M208 116 L208 290 L469 290 L469 402 L208 402 L208 553 L485 553 L485 669 L64 669 L64 0 L494 0 L494 116 L208 116 Z M354 732 L388 810 L199 919 L150 808 L354 732 Z " />
<glyph glyph-name="Eacute" unicode="&#xc9;" horiz-adv-x="536" d="M208 116 L208 290 L469 290 L469 402 L208 402 L208 553 L485 553 L485 669 L64 669 L64 0 L494 0 L494 116 L208 116 Z M382 811 L333 922 L144 813 L178 735 L382 811 Z " />
<glyph glyph-name="Ecircumflex" unicode="&#xca;" horiz-adv-x="536" d="M208 116 L208 290 L469 290 L469 402 L208 402 L208 553 L485 553 L485 669 L64 669 L64 0 L494 0 L494 116 L208 116 Z M256 796 L340 711 L404 763 L293 882 L219 882 L108 763 L172 711 L256 796 Z " />
<glyph glyph-name="Edieresis" unicode="&#xcb;" horiz-adv-x="536" d="M208 116 L208 290 L469 290 L469 402 L208 402 L208 553 L485 553 L485 669 L64 669 L64 0 L494 0 L494 116 L208 116 Z M176 854 C136 854 107 823 107 786 C107 746 136 715 176 715 C215 715 245 746 245 786 C245 823 215 854 176 854 L176 854 Z M361 854 C321 854 291 823 291 786 C291 746 321 715 361 715 C398 715 429 746 429 786 C429 823 398 854 361 854 L361 854 Z " />
<glyph glyph-name="Igrave" unicode="&#xcc;" horiz-adv-x="272" d="M208 668 L64 668 L64 0 L208 0 L208 668 Z M182 732 L216 810 L27 919 L-22 808 L182 732 Z " />
<glyph glyph-name="Iacute" unicode="&#xcd;" horiz-adv-x="272" d="M208 668 L64 668 L64 0 L208 0 L208 668 Z M285 811 L236 922 L47 813 L81 735 L285 811 Z " />
<glyph glyph-name="Icircumflex" unicode="&#xce;" horiz-adv-x="272" d="M208 668 L64 668 L64 0 L208 0 L208 668 Z M132 796 L216 711 L280 763 L169 882 L95 882 L-16 763 L48 711 L132 796 Z " />
<glyph glyph-name="Idieresis" unicode="&#xcf;" horiz-adv-x="272" d="M208 668 L64 668 L64 0 L208 0 L208 668 Z M34 854 C-6 854 -35 823 -35 786 C-35 746 -6 715 34 715 C73 715 103 746 103 786 C103 823 73 854 34 854 L34 854 Z M219 854 C179 854 149 823 149 786 C149 746 179 715 219 715 C256 715 287 746 287 786 C287 823 256 854 219 854 L219 854 Z " />
<glyph glyph-name="Eth" unicode="&#xd0;" horiz-adv-x="653" d="M21 280 L116 280 L116 0 L304 0 C378 0 435 4 481 27 C577 75 612 200 612 333 C612 467 577 591 480 641 C434 665 378 667 304 667 L116 667 L116 392 L21 392 L21 280 Z M260 538 L310 538 C446 538 470 462 470 334 C470 206 446 129 310 129 L260 129 L260 280 L375 280 L375 392 L260 392 L260 538 Z " />
<glyph glyph-name="Ntilde" unicode="&#xd1;" horiz-adv-x="682" d="M618 0 L618 668 L478 668 L478 200 L216 668 L64 668 L64 0 L203 0 L203 467 L466 0 L618 0 Z M399 828 C358 828 313 871 264 871 C223 871 180 833 158 796 L207 742 C229 769 247 777 262 777 C302 777 345 734 395 734 C436 734 481 772 503 809 L454 863 C432 836 414 828 399 828 L399 828 Z " />
<glyph glyph-name="Ograve" unicode="&#xd2;" horiz-adv-x="618" d="M310 680 C104 680 39 510 39 334 C39 158 100 -12 307 -12 C516 -12 579 159 579 334 C579 510 518 680 310 680 L310 680 Z M309 110 C204 110 178 209 178 334 C178 460 204 563 309 563 C415 563 440 460 440 334 C440 209 414 110 309 110 L309 110 Z M386 732 L420 810 L231 919 L182 808 L386 732 Z " />
<glyph glyph-name="Oacute" unicode="&#xd3;" horiz-adv-x="618" d="M310 680 C104 680 39 510 39 334 C39 158 100 -12 307 -12 C516 -12 579 159 579 334 C579 510 518 680 310 680 L310 680 Z M309 110 C204 110 178 209 178 334 C178 460 204 563 309 563 C415 563 440 460 440 334 C440 209 414 110 309 110 L309 110 Z M431 811 L382 922 L193 813 L227 735 L431 811 Z " />
<glyph glyph-name="Ocircumflex" unicode="&#xd4;" horiz-adv-x="618" d="M310 680 C104 680 39 510 39 334 C39 158 100 -12 307 -12 C516 -12 579 159 579 334 C579 510 518 680 310 680 L310 680 Z M309 110 C204 110 178 209 178 334 C178 460 204 563 309 563 C415 563 440 460 440 334 C440 209 414 110 309 110 L309 110 Z M310 796 L394 711 L458 763 L347 882 L273 882 L162 763 L226 711 L310 796 Z " />
<glyph glyph-name="Otilde" unicode="&#xd5;" horiz-adv-x="618" d="M310 680 C104 680 39 510 39 334 C39 158 100 -12 307 -12 C516 -12 579 159 579 334 C579 510 518 680 310 680 L310 680 Z M309 110 C204 110 178 209 178 334 C178 460 204 563 309 563 C415 563 440 460 440 334 C440 209 414 110 309 110 L309 110 Z M375 825 C334 825 289 868 240 868 C199 868 156 830 134 793 L183 739 C205 766 223 774 238 774 C278 774 321 731 371 731 C412 731 457 769 479 806 L430 860 C408 833 390 825 375 825 L375 825 Z " />
<glyph glyph-name="Odieresis" unicode="&#xd6;" horiz-adv-x="618" d="M310 680 C104 680 39 510 39 334 C39 158 100 -12 307 -12 C516 -12 579 159 579 334 C579 510 518 680 310 680 L310 680 Z M309 110 C204 110 178 209 178 334 C178 460 204 563 309 563 C415 563 440 460 440 334 C440 209 414 110 309 110 L309 110 Z M211 854 C171 854 142 823 142 786 C142 746 171 715 211 715 C250 715 280 746 280 786 C280 823 250 854 211 854 L211 854 Z M396 854 C356 854 326 823 326 786 C326 746 356 715 396 715 C433 715 464 746 464 786 C464 823 433 854 396 854 L396 854 Z " />
<glyph glyph-name="multiply" unicode="&#xd7;" horiz-adv-x="516" d="M477 152 L338 292 L475 428 L395 506 L257 369 L120 506 L41 427 L179 290 L39 150 L119 73 L259 213 L399 75 L477 152 Z " />
<glyph glyph-name="Oslash" unicode="&#xd8;" horiz-adv-x="618" d="M523 740 L420 778 L377 673 C356 678 334 680 310 680 C104 680 39 510 39 334 C39 228 60 125 122 59 L67 -74 L172 -110 L217 0 C244 -8 273 -12 307 -12 C516 -12 579 159 579 334 C579 449 553 562 476 626 L523 740 Z M309 110 C292 110 278 112 265 117 L418 486 C434 446 440 392 440 334 C440 209 414 110 309 110 L309 110 Z M178 334 C178 460 204 563 309 563 C316 563 323 562 330 561 L189 220 C181 253 178 292 178 334 L178 334 Z " />
<glyph glyph-name="Ugrave" unicode="&#xd9;" horiz-adv-x="606" d="M303 -12 C386 -11 459 13 500 64 C533 110 547 165 547 246 L547 667 L402 667 L402 251 C402 198 399 161 382 139 C369 118 340 108 304 108 C261 108 237 118 224 138 C207 161 204 197 204 251 L204 667 L59 667 L59 246 C59 165 74 109 105 64 C145 14 219 -12 303 -12 L303 -12 Z M382 732 L416 810 L227 919 L178 808 L382 732 Z " />
<glyph glyph-name="Uacute" unicode="&#xda;" horiz-adv-x="606" d="M303 -12 C386 -11 459 13 500 64 C533 110 547 165 547 246 L547 667 L402 667 L402 251 C402 198 399 161 382 139 C369 118 340 108 304 108 C261 108 237 118 224 138 C207 161 204 197 204 251 L204 667 L59 667 L59 246 C59 165 74 109 105 64 C145 14 219 -12 303 -12 L303 -12 Z M440 811 L391 922 L202 813 L236 735 L440 811 Z " />
<glyph glyph-name="Ucircumflex" unicode="&#xdb;" horiz-adv-x="606" d="M303 -12 C386 -11 459 13 500 64 C533 110 547 165 547 246 L547 667 L402 667 L402 251 C402 198 399 161 382 139 C369 118 340 108 304 108 C261 108 237 118 224 138 C207 161 204 197 204 251 L204 667 L59 667 L59 246 C59 165 74 109 105 64 C145 14 219 -12 303 -12 L303 -12 Z M306 796 L390 711 L454 763 L343 882 L269 882 L158 763 L222 711 L306 796 Z " />
<glyph glyph-name="Udieresis" unicode="&#xdc;" horiz-adv-x="606" d="M303 -12 C386 -11 459 13 500 64 C533 110 547 165 547 246 L547 667 L402 667 L402 251 C402 198 399 161 382 139 C369 118 340 108 304 108 C261 108 237 118 224 138 C207 161 204 197 204 251 L204 667 L59 667 L59 246 C59 165 74 109 105 64 C145 14 219 -12 303 -12 L303 -12 Z M214 854 C174 854 145 823 145 786 C145 746 174 715 214 715 C253 715 283 746 283 786 C283 823 253 854 214 854 L214 854 Z M399 854 C359 854 329 823 329 786 C329 746 359 715 399 715 C436 715 467 746 467 786 C467 823 436 854 399 854 L399 854 Z " />
<glyph glyph-name="Yacute" unicode="&#xdd;" horiz-adv-x="548" d="M138 668 L-8 668 L202 264 L202 0 L346 0 L346 264 L556 668 L410 668 L274 383 L138 668 Z M413 811 L364 922 L175 813 L209 735 L413 811 Z " />
<glyph glyph-name="Thorn" unicode="&#xde;" horiz-adv-x="504" d="M425 542 C379 583 327 597 224 597 L168 597 L168 697 L64 697 L64 0 L168 0 L168 183 L199 183 C312 183 371 196 419 234 C465 268 484 329 484 395 C484 451 468 504 425 542 L425 542 Z M341 299 C318 283 284 276 210 276 L168 276 L168 504 L225 504 C282 504 324 497 348 474 C367 455 379 428 379 390 C379 348 368 318 341 299 L341 299 Z " />
<glyph glyph-name="germandbls" unicode="&#xdf;" horiz-adv-x="604" d="M384 373 C384 430 491 459 491 556 C491 649 430 720 290 720 C145 720 53 651 53 495 L53 -129 L191 -129 L191 493 C191 576 220 612 288 612 C335 612 357 593 357 548 C357 490 253 467 253 365 C253 206 460 220 460 145 C460 116 443 96 407 96 C369 96 323 109 261 135 L226 37 C262 12 346 -13 402 -13 C515 -13 586 50 586 153 C586 249 507 282 439 312 L440 312 C408 326 384 336 384 373 L384 373 Z " />
<glyph glyph-name="agrave" unicode="&#xe0;" horiz-adv-x="510" d="M407 -11 C428 -11 472 -7 516 17 L497 100 C485 97 472 94 460 94 C446 94 435 100 435 122 L435 332 C435 473 381 524 246 524 C205 524 119 512 64 479 L93 391 C126 402 169 412 211 412 C264 412 299 406 299 330 L299 281 C263 284 231 284 204 284 C138 284 22 262 21 134 C21 44 78 -13 169 -13 C229 -13 285 10 315 35 C333 6 361 -11 407 -11 L407 -11 Z M217 80 C180 80 151 99 151 149 C151 196 191 213 250 213 C266 213 285 212 299 211 L299 106 C273 89 241 80 217 80 L217 80 Z M320 587 L354 665 L165 774 L116 663 L320 587 Z " />
<glyph glyph-name="aacute" unicode="&#xe1;" horiz-adv-x="510" d="M407 -11 C428 -11 472 -7 516 17 L497 100 C485 97 472 94 460 94 C446 94 435 100 435 122 L435 332 C435 473 381 524 246 524 C205 524 119 512 64 479 L93 391 C126 402 169 412 211 412 C264 412 299 406 299 330 L299 281 C263 284 231 284 204 284 C138 284 22 262 21 134 C21 44 78 -13 169 -13 C229 -13 285 10 315 35 C333 6 361 -11 407 -11 L407 -11 Z M217 80 C180 80 151 99 151 149 C151 196 191 213 250 213 C266 213 285 212 299 211 L299 106 C273 89 241 80 217 80 L217 80 Z M359 663 L310 774 L121 665 L155 587 L359 663 Z " />
<glyph glyph-name="acircumflex" unicode="&#xe2;" horiz-adv-x="510" d="M239 676 L323 591 L387 643 L276 762 L202 762 L91 643 L155 591 L239 676 Z M407 -11 C428 -11 472 -7 516 17 L497 100 C485 97 472 94 460 94 C446 94 435 100 435 122 L435 332 C435 473 381 524 246 524 C205 524 119 512 64 479 L93 391 C126 402 169 412 211 412 C264 412 299 406 299 330 L299 281 C263 284 231 284 204 284 C138 284 22 262 21 134 C21 44 78 -13 169 -13 C229 -13 285 10 315 35 C333 6 361 -11 407 -11 L407 -11 Z M217 80 C180 80 151 99 151 149 C151 196 191 213 250 213 C266 213 285 212 299 211 L299 106 C273 89 241 80 217 80 L217 80 Z " />
<glyph glyph-name="atilde" unicode="&#xe3;" horiz-adv-x="510" d="M407 -11 C428 -11 472 -7 516 17 L497 100 C485 97 472 94 460 94 C446 94 435 100 435 122 L435 332 C435 473 381 524 246 524 C205 524 119 512 64 479 L93 391 C126 402 169 412 211 412 C264 412 299 406 299 330 L299 281 C263 284 231 284 204 284 C138 284 22 262 21 134 C21 44 78 -13 169 -13 C229 -13 285 10 315 35 C333 6 361 -11 407 -11 L407 -11 Z M217 80 C180 80 151 99 151 149 C151 196 191 213 250 213 C266 213 285 212 299 211 L299 106 C273 89 241 80 217 80 L217 80 Z M306 685 C265 685 220 728 171 728 C130 728 87 690 65 653 L114 599 C136 626 154 634 169 634 C209 634 252 591 302 591 C343 591 388 629 410 666 L361 720 C339 693 321 685 306 685 L306 685 Z " />
<glyph glyph-name="adieresis" unicode="&#xe4;" horiz-adv-x="510" d="M407 -11 C428 -11 472 -7 516 17 L497 100 C485 97 472 94 460 94 C446 94 435 100 435 122 L435 332 C435 473 381 524 246 524 C205 524 119 512 64 479 L93 391 C126 402 169 412 211 412 C264 412 299 406 299 330 L299 281 C263 284 231 284 204 284 C138 284 22 262 21 134 C21 44 78 -13 169 -13 C229 -13 285 10 315 35 C333 6 361 -11 407 -11 L407 -11 Z M217 80 C180 80 151 99 151 149 C151 196 191 213 250 213 C266 213 285 212 299 211 L299 106 C273 89 241 80 217 80 L217 80 Z M156 735 C116 735 87 704 87 667 C87 627 116 596 156 596 C195 596 225 627 225 667 C225 704 195 735 156 735 L156 735 Z M341 735 C301 735 271 704 271 667 C271 627 301 596 341 596 C378 596 409 627 409 667 C409 704 378 735 341 735 L341 735 Z " />
<glyph glyph-name="aring" unicode="&#xe5;" horiz-adv-x="510" d="M407 -11 C428 -11 472 -7 516 17 L497 100 C485 97 472 94 460 94 C446 94 435 100 435 122 L435 332 C435 473 381 524 246 524 C205 524 119 512 64 479 L93 391 C126 402 169 412 211 412 C264 412 299 406 299 330 L299 281 C263 284 231 284 204 284 C138 284 22 262 21 134 C21 44 78 -13 169 -13 C229 -13 285 10 315 35 C333 6 361 -11 407 -11 L407 -11 Z M217 80 C180 80 151 99 151 149 C151 196 191 213 250 213 C266 213 285 212 299 211 L299 106 C273 89 241 80 217 80 L217 80 Z M346 701 C346 754 314 802 243 802 C173 802 140 753 140 700 C140 647 171 597 242 597 C313 597 346 649 346 701 L346 701 Z M279 700 C279 681 271 660 243 660 C217 660 208 681 208 699 C208 718 217 738 243 738 C271 738 279 718 279 700 L279 700 Z " />
<glyph glyph-name="ae" unicode="&#xe6;" horiz-adv-x="746" d="M701 242 C707 269 714 312 714 342 C714 454 648 522 528 522 C470 522 423 505 388 457 C361 511 316 524 246 524 C205 524 119 512 64 479 L93 391 C126 402 176 412 218 412 C271 412 306 406 306 330 L306 281 C270 284 231 284 204 284 C138 284 22 262 21 134 C21 44 81 -13 195 -13 C268 -13 345 18 379 43 C415 8 461 -13 536 -13 C597 -13 656 -2 707 20 L683 115 C641 99 598 92 558 92 C487 92 431 131 430 242 L701 242 Z M242 80 C180 80 151 99 151 149 C151 196 191 213 257 213 C273 213 302 212 316 211 C320 173 328 137 342 106 C316 89 266 80 242 80 L242 80 Z M427 318 C432 348 450 423 529 423 C579 423 602 385 602 324 L602 318 L427 318 Z " />
<glyph glyph-name="ccedilla" unicode="&#xe7;" horiz-adv-x="438" d="M335 -57 L211 -57 C223 -88 232 -114 232 -139 C232 -170 217 -198 174 -230 L225 -295 C312 -251 353 -196 353 -133 C353 -109 347 -83 335 -57 L335 -57 Z M271 -13 C324 -13 363 -4 411 10 L394 101 C361 96 327 91 296 91 C223 91 165 120 165 253 C165 377 215 412 287 412 C317 412 350 406 385 398 L412 499 C364 513 324 522 271 522 C141 522 32 444 32 254 C32 65 145 -13 271 -13 L271 -13 Z " />
<glyph glyph-name="egrave" unicode="&#xe8;" horiz-adv-x="480" d="M334 587 L368 665 L179 774 L130 663 L334 587 Z M435 242 C442 269 448 312 448 342 C448 454 382 522 262 522 C107 522 33 403 33 266 C33 118 84 -13 270 -13 C331 -13 390 -2 441 20 L417 115 C375 99 332 92 292 92 C221 92 165 131 164 242 L435 242 Z M165 318 C170 348 188 423 266 423 C313 423 336 385 336 324 L336 318 L165 318 Z " />
<glyph glyph-name="eacute" unicode="&#xe9;" horiz-adv-x="480" d="M377 663 L328 774 L139 665 L173 587 L377 663 Z M435 242 C442 269 448 312 448 342 C448 454 382 522 262 522 C107 522 33 403 33 266 C33 118 84 -13 270 -13 C331 -13 390 -2 441 20 L417 115 C375 99 332 92 292 92 C221 92 165 131 164 242 L435 242 Z M165 318 C170 348 188 423 266 423 C313 423 336 385 336 324 L336 318 L165 318 Z " />
<glyph glyph-name="ecircumflex" unicode="&#xea;" horiz-adv-x="480" d="M164 242 C165 131 221 92 292 92 C332 92 375 99 417 115 L441 20 C390 -2 331 -13 270 -13 C84 -13 33 118 33 266 C33 403 107 522 262 522 C382 522 448 454 448 342 C448 312 442 269 435 242 L164 242 Z M336 318 L336 324 C336 385 313 423 266 423 C188 423 170 348 165 318 L336 318 Z M256 676 L340 591 L404 643 L293 762 L219 762 L108 643 L172 591 L256 676 Z " />
<glyph glyph-name="edieresis" unicode="&#xeb;" horiz-adv-x="480" d="M165 735 C125 735 96 704 96 667 C96 627 125 596 165 596 C204 596 234 627 234 667 C234 704 204 735 165 735 L165 735 Z M350 735 C310 735 280 704 280 667 C280 627 310 596 350 596 C387 596 418 627 418 667 C418 704 387 735 350 735 L350 735 Z M435 242 C442 269 448 312 448 342 C448 454 382 522 262 522 C107 522 33 403 33 266 C33 118 84 -13 270 -13 C331 -13 390 -2 441 20 L417 115 C375 99 332 92 292 92 C221 92 165 131 164 242 L435 242 Z M165 318 C170 348 188 423 266 423 C313 423 336 385 336 324 L336 318 L165 318 Z " />
<glyph glyph-name="igrave" unicode="&#xec;" horiz-adv-x="246" d="M185 587 L219 665 L30 774 L-19 663 L185 587 Z M193 524 L53 512 L53 0 L193 0 L193 524 Z " />
<glyph glyph-name="iacute" unicode="&#xed;" horiz-adv-x="246" d="M276 663 L227 774 L38 665 L72 587 L276 663 Z M193 524 L53 512 L53 0 L193 0 L193 524 Z " />
<glyph glyph-name="icircumflex" unicode="&#xee;" horiz-adv-x="246" d="M127 676 L211 591 L275 643 L164 762 L90 762 L-21 643 L43 591 L127 676 Z M193 0 L53 0 L53 512 L193 524 L193 0 Z " />
<glyph glyph-name="idieresis" unicode="&#xef;" horiz-adv-x="246" d="M37 735 C-3 735 -32 704 -32 667 C-32 627 -3 596 37 596 C76 596 106 627 106 667 C106 704 76 735 37 735 L37 735 Z M222 735 C182 735 152 704 152 667 C152 627 182 596 222 596 C259 596 290 627 290 667 C290 704 259 735 222 735 L222 735 Z M193 524 L53 512 L53 0 L193 0 L193 524 Z " />
<glyph glyph-name="eth" unicode="&#xf0;" horiz-adv-x="499" d="M249 -12 C368 -12 461 58 461 307 C461 486 418 595 332 656 L379 704 L321 764 L254 694 C203 711 142 719 71 719 L53 627 C92 625 133 622 171 611 L114 553 L174 495 L248 571 C279 543 303 500 311 437 C282 454 242 459 217 459 C111 459 35 394 35 244 C35 102 103 -12 249 -12 L249 -12 Z M322 335 C322 146 293 104 246 104 C196 104 169 152 169 244 C169 320 200 350 240 351 C271 351 300 346 322 335 L322 335 Z " />
<glyph glyph-name="ntilde" unicode="&#xf1;" horiz-adv-x="546" d="M335 685 C294 685 249 728 200 728 C159 728 116 690 94 653 L143 599 C165 626 183 634 198 634 C238 634 281 591 331 591 C372 591 417 629 439 666 L390 720 C368 693 350 685 335 685 L335 685 Z M346 522 C281 522 218 488 183 456 L171 513 L53 513 L53 0 L196 0 L196 371 C215 389 254 408 291 408 C350 408 356 369 356 326 L356 0 L496 0 L496 351 C496 447 472 522 346 522 L346 522 Z " />
<glyph glyph-name="ograve" unicode="&#xf2;" horiz-adv-x="511" d="M250 -13 C378 -13 478 59 478 255 C478 453 384 522 256 522 C134 522 33 451 33 254 C33 57 129 -13 250 -13 L250 -13 Z M256 414 C306 414 342 389 342 254 C342 127 305 94 255 94 C206 94 168 127 168 254 C168 389 206 414 256 414 L256 414 Z M335 587 L369 665 L180 774 L131 663 L335 587 Z " />
<glyph glyph-name="oacute" unicode="&#xf3;" horiz-adv-x="511" d="M250 -13 C378 -13 478 59 478 255 C478 453 384 522 256 522 C134 522 33 451 33 254 C33 57 129 -13 250 -13 L250 -13 Z M256 414 C306 414 342 389 342 254 C342 127 305 94 255 94 C206 94 168 127 168 254 C168 389 206 414 256 414 L256 414 Z M408 663 L359 774 L170 665 L204 587 L408 663 Z " />
<glyph glyph-name="ocircumflex" unicode="&#xf4;" horiz-adv-x="511" d="M250 -13 C129 -13 33 57 33 254 C33 451 134 522 256 522 C384 522 478 453 478 255 C478 59 378 -13 250 -13 L250 -13 Z M256 414 C206 414 168 389 168 254 C168 127 206 94 255 94 C305 94 342 127 342 254 C342 389 306 414 256 414 L256 414 Z M253 676 L337 591 L401 643 L290 762 L216 762 L105 643 L169 591 L253 676 Z " />
<glyph glyph-name="otilde" unicode="&#xf5;" horiz-adv-x="511" d="M250 -13 C378 -13 478 59 478 255 C478 453 384 522 256 522 C134 522 33 451 33 254 C33 57 129 -13 250 -13 L250 -13 Z M256 414 C306 414 342 389 342 254 C342 127 305 94 255 94 C206 94 168 127 168 254 C168 389 206 414 256 414 L256 414 Z M322 685 C281 685 236 728 187 728 C146 728 103 690 81 653 L130 599 C152 626 170 634 185 634 C225 634 268 591 318 591 C359 591 404 629 426 666 L377 720 C355 693 337 685 322 685 L322 685 Z " />
<glyph glyph-name="odieresis" unicode="&#xf6;" horiz-adv-x="511" d="M250 -13 C378 -13 478 59 478 255 C478 453 384 522 256 522 C134 522 33 451 33 254 C33 57 129 -13 250 -13 L250 -13 Z M256 414 C306 414 342 389 342 254 C342 127 305 94 255 94 C206 94 168 127 168 254 C168 389 206 414 256 414 L256 414 Z M161 735 C121 735 92 704 92 667 C92 627 121 596 161 596 C200 596 230 627 230 667 C230 704 200 735 161 735 L161 735 Z M346 735 C306 735 276 704 276 667 C276 627 306 596 346 596 C383 596 414 627 414 667 C414 704 383 735 346 735 L346 735 Z " />
<glyph glyph-name="divide" unicode="&#xf7;" horiz-adv-x="537" d="M270 501 C232 501 203 473 203 439 C203 403 232 372 270 372 C305 372 333 403 333 439 C333 473 305 501 270 501 L270 501 Z M497 332 L40 332 L40 223 L497 223 L497 332 Z M270 180 C232 180 203 152 203 118 C203 82 232 51 270 51 C305 51 333 82 333 118 C333 152 305 180 270 180 L270 180 Z " />
<glyph glyph-name="oslash" unicode="&#xf8;" horiz-adv-x="511" d="M169 0 C194 -8 221 -13 250 -13 C378 -13 478 59 478 255 C478 365 449 435 401 476 L442 561 L367 597 L327 514 C305 519 281 522 256 522 C134 522 33 451 33 254 C33 154 58 87 97 45 L54 -43 L131 -78 L169 0 Z M255 94 C242 94 230 96 219 102 L335 340 C340 318 342 290 342 254 C342 127 305 94 255 94 L255 94 Z M256 414 C263 414 270 413 277 412 L172 197 C170 213 168 232 168 254 C168 389 206 414 256 414 L256 414 Z " />
<glyph glyph-name="ugrave" unicode="&#xf9;" horiz-adv-x="543" d="M200 -13 C265 -13 326 18 363 47 L375 -13 L490 -13 L490 513 L350 513 L350 132 C329 116 292 101 255 101 C195 101 190 140 190 183 L190 513 L50 513 L50 158 C50 62 74 -13 200 -13 L200 -13 Z M310 587 L344 665 L155 774 L106 663 L310 587 Z " />
<glyph glyph-name="uacute" unicode="&#xfa;" horiz-adv-x="543" d="M200 -13 C265 -13 326 18 363 47 L375 -13 L490 -13 L490 513 L350 513 L350 132 C329 116 292 101 255 101 C195 101 190 140 190 183 L190 513 L50 513 L50 158 C50 62 74 -13 200 -13 L200 -13 Z M427 663 L378 774 L189 665 L223 587 L427 663 Z " />
<glyph glyph-name="ucircumflex" unicode="&#xfb;" horiz-adv-x="543" d="M200 -13 C265 -13 326 18 363 47 L375 -13 L490 -13 L490 513 L350 513 L350 132 C329 116 292 101 255 101 C195 101 190 140 190 183 L190 513 L50 513 L50 158 C50 62 74 -13 200 -13 L200 -13 Z M270 676 L354 591 L418 643 L307 762 L233 762 L122 643 L186 591 L270 676 Z " />
<glyph glyph-name="udieresis" unicode="&#xfc;" horiz-adv-x="543" d="M200 -13 C265 -13 326 18 363 47 L375 -13 L490 -13 L490 513 L350 513 L350 132 C329 116 292 101 255 101 C195 101 190 140 190 183 L190 513 L50 513 L50 158 C50 62 74 -13 200 -13 L200 -13 Z M181 735 C141 735 112 704 112 667 C112 627 141 596 181 596 C220 596 250 627 250 667 C250 704 220 735 181 735 L181 735 Z M366 735 C326 735 296 704 296 667 C296 627 326 596 366 596 C403 596 434 627 434 667 C434 704 403 735 366 735 L366 735 Z " />
<glyph glyph-name="yacute" unicode="&#xfd;" horiz-adv-x="502" d="M192 13 C165 -101 138 -108 70 -108 C50 -108 1 -99 1 -98 L-20 -195 C20 -207 53 -213 85 -213 C221 -213 262 -148 328 42 L490 513 L355 513 L253 163 L138 517 L5 500 L192 13 Z M414 663 L365 774 L176 665 L210 587 L414 663 Z " />
<glyph glyph-name="thorn" unicode="&#xfe;" horiz-adv-x="542" d="M193 3 C214 -6 234 -13 269 -13 C439 -13 509 97 509 281 C509 441 426 522 321 522 C270 522 218 500 193 480 L193 701 L53 701 L53 -212 L193 -212 L193 3 Z M193 381 C216 395 246 408 280 408 C337 408 368 377 368 260 C368 168 343 100 245 100 C225 100 209 102 193 105 L193 381 Z " />
<glyph glyph-name="ydieresis" unicode="&#xff;" horiz-adv-x="502" d="M192 13 C165 -101 138 -108 70 -108 C50 -108 1 -99 1 -98 L-20 -195 C20 -207 53 -213 85 -213 C221 -213 262 -148 328 42 L490 513 L355 513 L253 163 L138 517 L5 500 L192 13 Z M156 735 C116 735 87 704 87 667 C87 627 116 596 156 596 C195 596 225 627 225 667 C225 704 195 735 156 735 L156 735 Z M341 735 C301 735 271 704 271 667 C271 627 301 596 341 596 C378 596 409 627 409 667 C409 704 378 735 341 735 L341 735 Z " />
<glyph glyph-name="dotlessi" unicode="&#x131;" horiz-adv-x="246" d="M193 524 L53 512 L53 0 L193 0 L193 524 Z " />
<glyph glyph-name="Lslash" unicode="&#x141;" horiz-adv-x="516" d="M419 383 L251 383 L251 668 L106 668 L106 383 L17 383 L17 274 L106 274 L106 0 L506 0 L506 116 L251 116 L251 274 L419 274 L419 383 Z " />
<glyph glyph-name="lslash" unicode="&#x142;" horiz-adv-x="440" d="M343 107 C315 100 299 100 286 100 C254 100 246 116 246 153 L246 274 L426 274 L426 383 L246 383 L246 700 L105 700 L105 383 L24 383 L24 274 L105 274 L105 161 C105 77 107 -13 261 -13 C278 -13 320 -10 364 9 L343 107 Z " />
<glyph glyph-name="OE" unicode="&#x152;" horiz-adv-x="913" d="M310 680 C104 680 39 510 39 334 C39 158 100 -12 307 -12 C371 -12 422 4 461 31 L461 0 L871 0 L871 116 L571 116 L571 290 L846 290 L846 402 L571 402 L571 553 L862 553 L862 669 L461 669 L461 638 C422 664 373 680 310 680 L310 680 Z M309 110 C204 110 178 209 178 334 C178 460 204 563 309 563 C415 563 440 460 440 334 C440 209 414 110 309 110 L309 110 Z " />
<glyph glyph-name="oe" unicode="&#x153;" horiz-adv-x="803" d="M758 242 C765 269 771 312 771 342 C771 454 705 522 585 522 C512 522 457 496 419 441 C380 502 322 522 256 522 C134 522 33 451 33 254 C33 57 129 -13 250 -13 C316 -13 375 7 416 67 C453 14 509 -13 593 -13 C654 -13 713 -2 764 20 L740 115 C698 99 655 92 615 92 C539 92 483 131 482 242 L758 242 Z M256 414 C310 414 346 389 346 254 C346 127 309 94 255 94 C206 94 168 127 168 254 C168 389 206 414 256 414 L256 414 Z M483 318 C488 348 506 423 589 423 C636 423 659 385 659 324 L659 318 L483 318 Z " />
<glyph glyph-name="Scaron" unicode="&#x160;" horiz-adv-x="500" d="M472 187 C472 303 371 358 291 402 C231 435 181 452 181 497 C182 546 217 563 265 563 C308 563 360 550 405 534 L445 643 C377 668 314 681 258 681 C134 681 42 612 42 501 C42 376 118 338 208 296 C280 263 333 233 333 182 C333 128 292 110 240 110 C182 110 110 132 66 152 L29 33 C84 7 178 -13 245 -13 C386 -13 472 70 472 187 L472 187 Z M152 896 L88 844 L199 725 L273 725 L384 844 L320 896 L236 811 L152 896 Z " />
<glyph glyph-name="scaron" unicode="&#x161;" horiz-adv-x="419" d="M132 743 L68 691 L179 572 L253 572 L364 691 L300 743 L216 658 L132 743 Z M384 492 C358 507 298 523 229 523 C113 523 38 469 38 364 C38 215 260 222 260 143 C260 107 236 94 194 94 C149 94 96 107 57 120 L23 20 C53 3 128 -13 190 -13 C327 -13 391 60 391 155 C391 305 169 282 169 369 C169 397 190 414 237 414 C276 414 315 404 351 393 L384 492 Z " />
<glyph glyph-name="Ydieresis" unicode="&#x178;" horiz-adv-x="548" d="M138 668 L-8 668 L202 264 L202 0 L346 0 L346 264 L556 668 L410 668 L274 383 L138 668 Z M177 854 C137 854 108 823 108 786 C108 746 137 715 177 715 C216 715 246 746 246 786 C246 823 216 854 177 854 L177 854 Z M362 854 C322 854 292 823 292 786 C292 746 322 715 362 715 C399 715 430 746 430 786 C430 823 399 854 362 854 L362 854 Z " />
<glyph glyph-name="Zcaron" unicode="&#x17d;" horiz-adv-x="525" d="M194 117 L475 575 L466 668 L33 668 L48 552 L315 552 L32 88 L43 0 L496 0 L496 117 L194 117 Z M185 896 L121 844 L232 725 L306 725 L417 844 L353 896 L269 811 L185 896 Z " />
<glyph glyph-name="zcaron" unicode="&#x17e;" horiz-adv-x="451" d="M181 95 L407 434 L394 512 L35 512 L45 416 L250 416 L25 75 L37 0 L433 0 L421 95 L181 95 Z M142 742 L78 690 L189 571 L263 571 L374 690 L310 742 L226 657 L142 742 Z " />
<glyph glyph-name="florin" unicode="&#x192;" horiz-adv-x="624" d="M242 -33 C242 -94 231 -129 142 -129 C115 -129 80 -127 46 -119 L17 -219 C63 -234 110 -243 151 -243 C307 -243 382 -185 382 -46 L382 416 L526 416 L535 512 L382 512 L382 527 C382 588 393 623 482 623 C509 623 544 621 578 613 L607 713 C561 728 514 737 473 737 C317 737 243 679 243 540 L243 511 L148 504 L148 422 L242 416 L242 -33 Z " />
<glyph glyph-name="circumflex" unicode="&#x2c6;" horiz-adv-x="380" d="M190 676 L274 591 L338 643 L227 762 L153 762 L42 643 L106 591 L190 676 Z " />
<glyph glyph-name="caron" unicode="&#x2c7;" horiz-adv-x="408" d="M125 742 L61 690 L172 571 L246 571 L357 690 L293 742 L209 657 L125 742 Z " />
<glyph glyph-name="breve" unicode="&#x2d8;" horiz-adv-x="300" d="M110 658 C110 658 42 658 42 658 C42 602 73 548 149 548 C225 548 258 603 258 658 C258 658 191 658 191 658 C191 639 183 611 150 611 C119 611 110 640 110 658 L110 658 Z " />
<glyph glyph-name="dotaccent" unicode="&#x2d9;" horiz-adv-x="220" d="M111 680 C64 680 28 643 28 599 C28 553 64 515 111 515 C155 515 192 553 192 599 C192 643 155 680 111 680 L111 680 Z " />
<glyph glyph-name="ring" unicode="&#x2da;" horiz-adv-x="297" d="M248 701 C248 754 216 802 145 802 C75 802 42 753 42 700 C42 647 73 597 144 597 C215 597 248 649 248 701 L248 701 Z M181 700 C181 681 173 660 145 660 C119 660 110 681 110 699 C110 718 119 738 145 738 C173 738 181 718 181 700 L181 700 Z " />
<glyph glyph-name="ogonek" unicode="&#x2db;" horiz-adv-x="309" d="M106 -13 C68 -45 45 -96 45 -142 C45 -196 77 -243 158 -243 C193 -243 228 -232 262 -218 L244 -125 C225 -131 209 -134 197 -134 C172 -134 160 -122 160 -105 C160 -81 178 -47 216 -13 L106 -13 Z " />
<glyph glyph-name="tilde" unicode="&#x2dc;" horiz-adv-x="474" d="M307 685 C266 685 221 728 172 728 C131 728 88 690 66 653 L115 599 C137 626 155 634 170 634 C210 634 253 591 303 591 C344 591 389 629 411 666 L362 720 C340 693 322 685 307 685 L307 685 Z " />
<glyph glyph-name="hungarumlaut" unicode="&#x2dd;" horiz-adv-x="534" d="M266 644 L177 726 L47 552 L109 494 L266 644 Z M487 644 L398 726 L268 552 L330 494 L487 644 Z " />
<glyph glyph-name="endash" unicode="&#x2013;" horiz-adv-x="559" d="M508 332 L51 332 L51 223 L508 223 L508 332 Z " />
<glyph glyph-name="emdash" unicode="&#x2014;" horiz-adv-x="709" d="M658 332 L51 332 L51 223 L658 223 L658 332 Z " />
<glyph glyph-name="quoteleft" unicode="&#x2018;" horiz-adv-x="221" d="M41 533 C41 514 47 489 53 476 L168 476 C157 501 151 527 151 548 C151 606 182 661 233 720 L130 720 C76 670 41 605 41 533 L41 533 Z " />
<glyph glyph-name="quoteright" unicode="&#x2019;" horiz-adv-x="254" d="M224 642 C224 661 218 686 212 699 L97 699 C108 674 114 648 114 627 C114 569 83 514 32 455 L135 455 C189 505 224 570 224 642 L224 642 Z " />
<glyph glyph-name="quotesinglbase" unicode="&#x201a;" horiz-adv-x="218" d="M172 59 C172 78 166 103 160 116 L45 116 C56 91 62 65 62 44 C62 -14 31 -69 -20 -128 L83 -128 C137 -78 172 -13 172 59 L172 59 Z " />
<glyph glyph-name="quotedblleft" unicode="&#x201c;" horiz-adv-x="411" d="M41 533 C41 514 47 489 53 476 L168 476 C157 501 151 527 151 548 C151 606 182 661 233 720 L130 720 C76 670 41 605 41 533 L41 533 Z M231 533 C231 514 237 489 243 476 L358 476 C347 501 341 527 341 548 C341 606 372 661 423 720 L320 720 C266 670 231 605 231 533 L231 533 Z " />
<glyph glyph-name="quotedblright" unicode="&#x201d;" horiz-adv-x="444" d="M414 642 C414 661 408 686 402 699 L287 699 C298 674 304 648 304 627 C304 569 273 514 222 455 L325 455 C379 505 414 570 414 642 L414 642 Z M224 642 C224 661 218 686 212 699 L97 699 C108 674 114 648 114 627 C114 569 83 514 32 455 L135 455 C189 505 224 570 224 642 L224 642 Z " />
<glyph glyph-name="quotedblbase" unicode="&#x201e;" horiz-adv-x="408" d="M172 59 C172 78 166 103 160 116 L45 116 C56 91 62 65 62 44 C62 -14 31 -69 -20 -128 L83 -128 C137 -78 172 -13 172 59 L172 59 Z M362 59 C362 78 356 103 350 116 L235 116 C246 91 252 65 252 44 C252 -14 221 -69 170 -128 L273 -128 C327 -78 362 -13 362 59 L362 59 Z " />
<glyph glyph-name="dagger" unicode="&#x2020;" horiz-adv-x="418" d="M394 480 L232 465 L259 669 L149 669 L176 465 L24 480 L24 392 L176 407 L151 0 L257 0 L232 407 L394 392 L394 480 Z " />
<glyph glyph-name="daggerdbl" unicode="&#x2021;" horiz-adv-x="419" d="M254 341 L233 459 L376 446 L376 525 L233 511 L257 674 L163 674 L186 511 L43 525 L43 446 L186 459 L166 341 L186 215 L43 228 L43 150 L186 163 L163 0 L257 0 L233 163 L376 150 L376 228 L233 215 L254 341 Z " />
<glyph glyph-name="bullet" unicode="&#x2022;" horiz-adv-x="357" d="M62 314 C62 248 112 197 178 197 C245 197 295 248 295 314 C295 380 245 431 178 431 C112 431 62 380 62 314 L62 314 Z " />
<glyph glyph-name="ellipsis" unicode="&#x2026;" horiz-adv-x="702" d="M122 158 C75 158 39 121 39 77 C39 31 75 -7 122 -7 C166 -7 203 31 203 77 C203 121 166 158 122 158 L122 158 Z M353 158 C306 158 270 121 270 77 C270 31 306 -7 353 -7 C397 -7 434 31 434 77 C434 121 397 158 353 158 L353 158 Z M583 158 C536 158 500 121 500 77 C500 31 536 -7 583 -7 C627 -7 664 31 664 77 C664 121 627 158 583 158 L583 158 Z " />
<glyph glyph-name="perthousand" unicode="&#x2030;" horiz-adv-x="1158" d="M173 315 C240 315 325 346 325 508 C325 669 260 702 176 702 C109 702 23 669 23 507 C23 346 88 315 173 315 L173 315 Z M174 635 C207 635 231 612 231 507 C231 401 207 381 174 381 C140 381 117 401 117 507 C117 612 140 635 174 635 L174 635 Z M641 -12 C708 -12 793 19 793 181 C793 342 728 375 644 375 C577 375 491 342 491 180 C491 19 556 -12 641 -12 L641 -12 Z M642 308 C675 308 699 285 699 180 C699 74 675 54 642 54 C608 54 585 74 585 180 C585 285 608 308 642 308 L642 308 Z M983 -12 C1050 -12 1135 19 1135 181 C1135 342 1070 375 986 375 C919 375 833 342 833 180 C833 19 898 -12 983 -12 L983 -12 Z M984 308 C1017 308 1041 285 1041 180 C1041 74 1017 54 984 54 C950 54 927 74 927 180 C927 285 950 308 984 308 L984 308 Z M592 753 L487 784 L202 -67 L309 -96 L592 753 Z " />
<glyph glyph-name="guilsinglleft" unicode="&#x2039;" horiz-adv-x="330" d="M293 423 L211 493 L35 308 L35 249 L211 63 L293 136 L153 278 L293 423 Z " />
<glyph glyph-name="guilsinglright" unicode="&#x203a;" horiz-adv-x="330" d="M177 278 L37 136 L119 63 L295 249 L295 308 L119 493 L37 423 L177 278 Z " />
<glyph glyph-name="fraction" unicode="&#x2044;" horiz-adv-x="387" d="M388 765 L283 796 L-2 -55 L105 -84 L388 765 Z " />
<glyph glyph-name="Euro" unicode="&#x20ac;" horiz-adv-x="581" d="M407 451 L261 451 C287 539 349 565 422 565 C455 565 492 561 528 554 L551 657 C499 672 457 679 400 679 C278 679 150 623 112 451 L33 451 L33 377 L101 377 C100 364 100 350 100 336 C100 324 100 312 101 301 L33 301 L33 227 L109 227 C143 47 261 -13 390 -13 C443 -13 496 -6 544 5 L535 114 C499 108 460 106 428 106 C350 106 287 135 260 227 L407 227 L407 301 L248 301 C247 313 247 325 247 339 C247 352 247 365 248 377 L407 377 L407 451 Z " />
<glyph glyph-name="trademark" unicode="&#x2122;" horiz-adv-x="795" d="M142 604 L142 292 L222 292 L222 604 L322 604 L322 668 L44 668 L44 604 L142 604 Z M523 339 L445 561 L436 292 L361 292 L382 668 L470 668 L552 426 L633 668 L721 668 L743 292 L668 292 L658 561 L581 339 L523 339 Z " />
<glyph glyph-name="minus" unicode="&#x2212;" horiz-adv-x="522" d="M467 332 L55 332 L55 223 L467 223 L467 332 Z " />
<glyph glyph-name="fi" unicode="&#xfb01;" horiz-adv-x="616" d="M564 524 L424 512 L249 512 L249 527 C249 588 260 623 356 623 C383 623 433 621 467 613 L496 713 C450 728 388 737 347 737 C184 737 110 679 110 540 L110 511 L15 504 L15 422 L109 416 L109 -172 L249 -186 L249 416 L424 416 L424 0 L564 0 L564 524 Z " />
<glyph glyph-name="fl" unicode="&#xfb02;" horiz-adv-x="727" d="M710 107 C682 100 666 100 653 100 C621 100 613 116 613 153 L613 700 C540 724 444 745 360 745 C225 745 110 704 110 540 L110 511 L15 504 L15 422 L109 416 L109 -172 L249 -186 L249 416 L383 416 L392 512 L249 512 L249 527 C249 594 260 629 365 629 C391 629 438 627 472 614 L472 161 C472 77 474 -13 628 -13 C645 -13 687 -10 731 9 L710 107 Z " />
</font>
</svg>
