<?xml version="1.0" encoding="UTF-8"?>
<svg xmlns="http://www.w3.org/2000/svg" xmlns:xlink="http://www.w3.org/1999/xlink" version="1.2" >
<font id="Source Sans Pro Light">
<font-face  font-family="Source Sans Pro" units-per-em="1000" ascent="750" descent="-250" font-style="normal" font-weight="300" font-stretch="normal" cap-height="660" x-height="480" underline-position="-75" underline-thickness="50" />
<missing-glyph  horiz-adv-x="632" d="M94 0 L538 0 L538 660 L94 660 L94 0 Z M139 84 L139 600 L286 340 L139 84 Z M346 340 L491 600 L491 84 L346 340 Z M158 39 L253 203 L314 308 L318 308 L377 203 L470 39 L158 39 Z M314 372 L260 464 L173 619 L457 619 L371 464 L318 372 L314 372 Z " />
<glyph glyph-name="NULL" d="" />
<glyph glyph-name="CR" unicode="&#xd;" horiz-adv-x="250" d="" />
<glyph glyph-name="space" unicode="&#x20;" horiz-adv-x="199" d="" />
<glyph glyph-name="exclam" unicode="&#x21;" horiz-adv-x="259" d="M113 179 L146 179 L152 599 L153 670 L107 670 L107 599 L113 179 Z M87 33 C87 5 108 -12 130 -12 C152 -12 172 5 172 33 C172 62 152 79 130 79 C108 79 87 62 87 33 L87 33 Z " />
<glyph glyph-name="quotedbl" unicode="&#x22;" horiz-adv-x="360" d="M92 477 L125 477 L134 624 L134 693 L83 693 L84 624 L92 477 Z M234 477 L266 477 L275 624 L276 693 L224 693 L225 624 L234 477 Z " />
<glyph glyph-name="numbersign" unicode="&#x23;" horiz-adv-x="479" d="M93 0 L128 0 L154 214 L303 214 L278 0 L313 0 L338 214 L429 214 L429 250 L343 250 L364 420 L449 420 L449 456 L367 456 L392 650 L358 650 L332 456 L183 456 L208 650 L173 650 L148 456 L56 456 L56 420 L144 420 L123 250 L36 250 L36 214 L119 214 L93 0 Z M158 250 L179 420 L329 420 L308 250 L158 250 Z " />
<glyph glyph-name="dollar" unicode="&#x24;" horiz-adv-x="479" d="M402 580 C368 616 330 646 265 650 L265 749 L226 749 L226 650 C144 641 85 579 85 495 C85 292 374 347 374 150 C374 77 328 27 244 27 C175 27 121 63 83 97 L59 66 C98 29 157 -6 226 -11 L226 -110 L265 -110 L265 -11 C354 -3 419 58 419 153 C419 381 130 322 130 497 C130 563 177 612 246 612 C308 612 338 589 376 552 L402 580 Z " />
<glyph glyph-name="percent" unicode="&#x25;" horiz-adv-x="805" d="M181 257 C268 257 322 331 322 465 C322 597 268 671 181 671 C94 671 40 597 40 465 C40 331 94 257 181 257 L181 257 Z M181 290 C119 290 79 354 79 465 C79 576 119 638 181 638 C243 638 283 576 283 465 C283 354 243 290 181 290 L181 290 Z M236 -12 L604 671 L566 671 L198 -12 L236 -12 Z M624 -12 C711 -12 765 62 765 196 C765 328 711 402 624 402 C537 402 483 328 483 196 C483 62 537 -12 624 -12 L624 -12 Z M624 21 C562 21 522 85 522 196 C522 307 562 369 624 369 C686 369 726 307 726 196 C726 85 686 21 624 21 L624 21 Z " />
<glyph glyph-name="ampersand" unicode="&#x26;" horiz-adv-x="575" d="M230 26 C149 26 81 83 81 170 C81 235 130 283 189 329 C236 244 306 161 376 97 C335 55 284 26 230 26 L230 26 Z M168 526 C168 586 203 635 261 635 C314 635 333 592 333 549 C333 481 272 434 205 386 C182 434 168 482 168 526 L168 526 Z M562 27 C524 41 480 66 434 103 C487 170 525 255 551 345 L508 345 C485 261 451 187 404 128 C336 188 267 270 221 354 C296 410 373 466 373 551 C373 620 334 671 263 671 C183 671 127 609 127 524 C127 473 144 417 171 361 C102 310 36 254 36 167 C36 58 121 -12 226 -12 C300 -12 358 22 406 71 C458 30 505 3 547 -12 L562 27 Z " />
<glyph glyph-name="quotesingle" unicode="&#x27;" horiz-adv-x="219" d="M92 477 L125 477 L134 624 L134 693 L83 693 L84 624 L92 477 Z " />
<glyph glyph-name="parenleft" unicode="&#x28;" horiz-adv-x="279" d="M220 -175 L247 -159 C168 -33 127 120 127 278 C127 436 168 589 247 715 L220 731 C138 598 88 454 88 278 C88 102 138 -42 220 -175 L220 -175 Z " />
<glyph glyph-name="parenright" unicode="&#x29;" horiz-adv-x="279" d="M32 -159 L59 -175 C141 -42 191 102 191 278 C191 454 141 598 59 731 L32 715 C111 589 152 436 152 278 C152 120 111 -33 32 -159 L32 -159 Z " />
<glyph glyph-name="asterisk" unicode="&#x2a;" horiz-adv-x="395" d="M132 462 L198 545 L262 462 L289 482 L235 570 L325 606 L315 636 L220 611 L213 712 L181 712 L174 610 L79 636 L70 606 L160 570 L105 482 L132 462 Z " />
<glyph glyph-name="plus" unicode="&#x2b;" horiz-adv-x="479" d="M219 110 L260 110 L260 311 L445 311 L445 349 L260 349 L260 550 L219 550 L219 349 L34 349 L34 311 L219 311 L219 110 Z " />
<glyph glyph-name="comma" unicode="&#x2c;" horiz-adv-x="219" d="M62 -155 C122 -123 165 -65 165 8 C165 52 144 79 114 79 C92 79 71 64 71 37 C71 10 90 -5 113 -5 C117 -5 121 -5 125 -4 C124 -59 93 -101 48 -125 L62 -155 Z " />
<glyph glyph-name="hyphen" unicode="&#x2d;" horiz-adv-x="299" d="M40 230 L260 230 L260 269 L40 269 L40 230 Z " />
<glyph glyph-name="period" unicode="&#x2e;" horiz-adv-x="219" d="M67 33 C67 5 88 -12 110 -12 C132 -12 152 5 152 33 C152 62 132 79 110 79 C88 79 67 62 67 33 L67 33 Z " />
<glyph glyph-name="slash" unicode="&#x2f;" horiz-adv-x="357" d="M9 -160 L48 -160 L352 710 L314 710 L9 -160 Z " />
<glyph glyph-name="zero" unicode="0" horiz-adv-x="479" d="M239 -12 C361 -12 430 109 430 322 C430 534 361 651 239 651 C117 651 48 534 48 322 C48 109 117 -12 239 -12 L239 -12 Z M239 26 C151 26 93 127 93 322 C93 517 151 613 239 613 C328 613 385 517 385 322 C385 127 328 26 239 26 L239 26 Z " />
<glyph glyph-name="one" unicode="1" horiz-adv-x="479" d="M84 0 L418 0 L418 39 L279 39 L279 639 L243 639 C213 622 172 608 120 599 L120 569 L234 569 L234 39 L84 39 L84 0 Z " />
<glyph glyph-name="two" unicode="2" horiz-adv-x="479" d="M41 0 L433 0 L433 40 L215 40 C180 40 143 37 108 35 C285 223 401 345 401 472 C401 580 335 651 221 651 C143 651 87 610 39 557 L68 529 C107 577 159 613 217 613 C313 613 356 551 356 471 C356 360 251 241 41 28 L41 0 Z " />
<glyph glyph-name="three" unicode="3" horiz-adv-x="479" d="M29 78 C70 35 130 -12 232 -12 C342 -12 427 58 427 169 C427 259 361 318 282 335 L282 339 C352 363 404 413 404 497 C404 595 328 651 229 651 C155 651 100 616 56 573 L82 543 C119 582 170 613 229 613 C307 613 358 566 358 494 C358 417 306 355 158 355 L158 316 C317 316 381 256 381 168 C381 83 318 27 232 27 C144 27 93 67 55 109 L29 78 Z " />
<glyph glyph-name="four" unicode="4" horiz-adv-x="479" d="M70 229 L258 493 C276 522 294 546 310 573 L314 573 C312 544 310 492 310 463 L310 229 L70 229 Z M448 229 L353 229 L353 639 L313 639 L16 217 L16 191 L310 191 L310 0 L353 0 L353 191 L448 191 L448 229 Z " />
<glyph glyph-name="five" unicode="5" horiz-adv-x="479" d="M26 74 C67 33 125 -12 227 -12 C330 -12 431 65 431 201 C431 341 344 403 236 403 C189 403 155 389 122 369 L142 600 L397 600 L397 639 L102 639 L79 340 L110 321 C148 347 180 364 229 364 C324 364 385 302 385 199 C385 96 311 27 226 27 C139 27 89 66 51 105 L26 74 Z " />
<glyph glyph-name="six" unicode="6" horiz-adv-x="479" d="M262 26 C158 26 106 117 98 252 C150 322 208 348 253 348 C350 348 391 280 391 188 C391 97 336 26 262 26 L262 26 Z M422 589 C389 626 347 651 287 651 C164 651 52 558 52 290 C52 96 133 -12 261 -12 C356 -12 436 72 436 188 C436 317 370 386 258 386 C199 386 141 351 97 297 C99 532 186 612 287 612 C328 612 367 594 395 559 L422 589 Z " />
<glyph glyph-name="seven" unicode="7" horiz-adv-x="479" d="M188 0 L236 0 C246 250 284 410 437 613 L437 639 L44 639 L44 600 L381 600 C252 420 198 258 188 0 L188 0 Z " />
<glyph glyph-name="eight" unicode="8" horiz-adv-x="479" d="M84 166 C84 236 132 289 197 327 C296 288 392 254 392 156 C392 83 333 25 243 25 C151 25 84 87 84 166 L84 166 Z M290 335 C206 368 120 404 120 495 C120 564 172 614 243 614 C326 614 374 554 374 483 C374 428 344 379 290 335 L290 335 Z M40 164 C40 63 126 -12 243 -12 C359 -12 437 62 437 155 C437 241 380 284 325 318 L325 322 C362 352 416 414 416 484 C416 580 352 651 243 651 C150 651 76 587 76 495 C76 427 121 379 168 348 L168 344 C108 312 40 250 40 164 L40 164 Z " />
<glyph glyph-name="nine" unicode="9" horiz-adv-x="479" d="M226 291 C128 291 87 359 87 452 C87 543 143 613 216 613 C320 613 373 523 381 388 C329 319 271 291 226 291 L226 291 Z M56 50 C88 13 132 -12 191 -12 C315 -12 426 82 426 350 C426 544 345 651 218 651 C123 651 43 568 43 452 C43 323 109 254 220 254 C280 254 338 289 382 342 C380 107 293 27 192 27 C150 27 111 45 83 80 L56 50 Z " />
<glyph glyph-name="colon" unicode="&#x3a;" horiz-adv-x="219" d="M67 415 C67 387 88 370 110 370 C132 370 152 387 152 415 C152 444 132 461 110 461 C88 461 67 444 67 415 L67 415 Z M67 33 C67 5 88 -12 110 -12 C132 -12 152 5 152 33 C152 62 132 79 110 79 C88 79 67 62 67 33 L67 33 Z " />
<glyph glyph-name="semicolon" unicode="&#x3b;" horiz-adv-x="219" d="M110 370 C132 370 152 387 152 415 C152 444 132 461 110 461 C88 461 67 444 67 415 C67 387 88 370 110 370 L110 370 Z M62 -155 C122 -123 165 -65 165 8 C165 52 144 79 114 79 C92 79 71 64 71 37 C71 10 90 -5 113 -5 C117 -5 121 -5 125 -4 C124 -59 93 -101 48 -125 L62 -155 Z " />
<glyph glyph-name="less" unicode="&#x3c;" horiz-adv-x="479" d="M34 310 L445 146 L445 189 L213 279 L80 330 L80 334 L213 385 L445 475 L445 518 L34 354 L34 310 Z " />
<glyph glyph-name="equal" unicode="&#x3d;" horiz-adv-x="479" d="M34 413 L445 413 L445 451 L34 451 L34 413 Z M34 209 L445 209 L445 247 L34 247 L34 209 Z " />
<glyph glyph-name="greater" unicode="&#x3e;" horiz-adv-x="479" d="M445 354 L34 518 L34 475 L266 385 L399 334 L399 330 L266 279 L34 189 L34 146 L445 310 L445 354 Z " />
<glyph glyph-name="question" unicode="&#x3f;" horiz-adv-x="402" d="M163 179 L203 179 C184 332 352 393 352 529 C352 616 294 682 196 682 C127 682 76 648 37 604 L64 579 C97 620 144 643 193 643 C271 643 306 588 306 526 C306 403 141 345 163 179 L163 179 Z M144 33 C144 5 164 -12 186 -12 C208 -12 229 5 229 33 C229 62 208 79 186 79 C164 79 144 62 144 33 L144 33 Z " />
<glyph glyph-name="at" unicode="&#x40;" horiz-adv-x="814" d="M52 202 C52 -18 195 -146 388 -146 C456 -146 518 -128 575 -92 L559 -62 C511 -91 457 -110 391 -110 C212 -110 90 10 90 205 C90 443 263 598 446 598 C619 598 725 485 725 313 C725 172 646 91 582 91 C521 91 499 135 522 226 L558 415 L524 415 L515 375 L513 375 C493 407 466 423 430 423 C312 423 244 295 244 198 C244 108 296 62 358 62 C404 62 445 93 480 132 L482 132 C487 80 526 56 579 56 C662 56 763 146 763 316 C763 506 642 633 449 633 C238 633 52 463 52 202 L52 202 Z M284 201 C284 285 339 387 429 387 C459 387 479 375 503 338 L472 165 C432 119 396 98 364 98 C319 98 284 125 284 201 L284 201 Z " />
<glyph glyph-name="A" unicode="A" horiz-adv-x="519" d="M142 265 L184 388 C211 466 234 535 257 616 L261 616 C284 535 308 466 334 388 L376 265 L142 265 Z M466 0 L515 0 L283 659 L237 659 L4 0 L51 0 L128 226 L389 226 L466 0 Z " />
<glyph glyph-name="B" unicode="B" horiz-adv-x="571" d="M94 0 L285 0 C434 0 530 65 530 192 C530 283 469 337 372 351 L372 355 C450 375 489 430 489 499 C489 609 404 659 272 659 L94 659 L94 0 Z M140 369 L140 621 L259 621 C380 621 443 585 443 500 C443 413 389 369 253 369 L140 369 Z M140 38 L140 332 L273 332 C407 332 484 286 484 192 C484 86 404 38 273 38 L140 38 Z " />
<glyph glyph-name="C" unicode="C" horiz-adv-x="557" d="M51 331 C51 121 165 -12 327 -12 C413 -12 473 24 523 82 L496 111 C448 57 397 30 329 30 C188 30 99 148 99 331 C99 514 189 629 333 629 C393 629 441 602 477 562 L504 592 C469 633 410 671 333 671 C165 671 51 540 51 331 L51 331 Z " />
<glyph glyph-name="D" unicode="D" horiz-adv-x="599" d="M94 0 L247 0 C449 0 546 132 546 332 C546 531 449 659 246 659 L94 659 L94 0 Z M140 39 L140 620 L241 620 C420 620 498 503 498 332 C498 160 420 39 241 39 L140 39 Z " />
<glyph glyph-name="E" unicode="E" horiz-adv-x="507" d="M94 0 L464 0 L464 40 L140 40 L140 330 L404 330 L404 370 L140 370 L140 619 L454 619 L454 659 L94 659 L94 0 Z " />
<glyph glyph-name="F" unicode="F" horiz-adv-x="469" d="M94 0 L140 0 L140 317 L404 317 L404 357 L140 357 L140 619 L453 619 L453 659 L94 659 L94 0 Z " />
<glyph glyph-name="G" unicode="G" horiz-adv-x="597" d="M51 331 C51 121 165 -12 334 -12 C420 -12 488 19 529 63 L529 324 L328 324 L328 285 L485 285 L485 80 C453 48 397 30 338 30 C188 30 99 148 99 331 C99 514 192 629 343 629 C415 629 461 599 495 562 L522 592 C487 629 432 671 343 671 C169 671 51 540 51 331 L51 331 Z " />
<glyph glyph-name="H" unicode="H" horiz-adv-x="632" d="M94 0 L140 0 L140 330 L492 330 L492 0 L538 0 L538 659 L492 659 L492 370 L140 370 L140 659 L94 659 L94 0 Z " />
<glyph glyph-name="I" unicode="I" horiz-adv-x="233" d="M94 0 L140 0 L140 659 L94 659 L94 0 Z " />
<glyph glyph-name="J" unicode="J" horiz-adv-x="455" d="M37 85 C71 23 126 -12 200 -12 C319 -12 364 73 364 179 L364 659 L318 659 L318 184 C318 77 279 30 199 30 C144 30 105 52 72 108 L37 85 Z " />
<glyph glyph-name="K" unicode="K" horiz-adv-x="551" d="M94 0 L140 0 L140 227 L274 380 L491 0 L544 0 L305 415 L515 659 L461 659 L142 293 L140 293 L140 659 L94 659 L94 0 Z " />
<glyph glyph-name="L" unicode="L" horiz-adv-x="460" d="M94 0 L443 0 L443 40 L140 40 L140 659 L94 659 L94 0 Z " />
<glyph glyph-name="M" unicode="M" horiz-adv-x="699" d="M94 0 L136 0 L136 433 C136 487 133 556 131 611 L135 611 L187 466 L329 72 L369 72 L511 466 L562 611 L566 611 C563 556 560 487 560 433 L560 0 L605 0 L605 659 L540 659 L403 272 L352 126 L348 126 L296 272 L158 659 L94 659 L94 0 Z " />
<glyph glyph-name="N" unicode="N" horiz-adv-x="629" d="M94 0 L137 0 L137 409 C137 473 134 533 131 596 L135 596 L210 465 L487 0 L535 0 L535 659 L492 659 L492 255 C492 191 495 127 498 63 L494 63 L419 194 L142 659 L94 659 L94 0 Z " />
<glyph glyph-name="O" unicode="O" horiz-adv-x="645" d="M323 -12 C481 -12 594 123 594 332 C594 540 481 671 323 671 C164 671 51 540 51 332 C51 123 164 -12 323 -12 L323 -12 Z M323 30 C189 30 99 149 99 332 C99 514 189 629 323 629 C456 629 546 514 546 332 C546 149 456 30 323 30 L323 30 Z " />
<glyph glyph-name="P" unicode="P" horiz-adv-x="551" d="M94 0 L140 0 L140 283 L274 283 C420 283 508 346 508 475 C508 611 421 659 274 659 L94 659 L94 0 Z M140 322 L140 620 L262 620 C396 620 461 586 461 475 C461 367 397 322 262 322 L140 322 Z " />
<glyph glyph-name="Q" unicode="Q" horiz-adv-x="645" d="M99 332 C99 514 188 629 322 629 C456 629 545 514 545 332 C545 149 456 30 322 30 C188 30 99 149 99 332 L99 332 Z M586 -104 C569 -109 549 -113 519 -113 C437 -113 377 -77 347 -11 C493 3 594 134 594 332 C594 540 481 671 322 671 C164 671 51 540 51 332 C51 135 152 3 296 -11 C329 -94 404 -155 515 -155 C548 -155 579 -149 596 -144 L586 -104 Z " />
<glyph glyph-name="R" unicode="R" horiz-adv-x="553" d="M140 341 L140 620 L270 620 C387 620 451 584 451 485 C451 388 387 341 270 341 L140 341 Z M511 0 L330 306 C433 320 499 380 499 485 C499 611 413 659 282 659 L94 659 L94 0 L140 0 L140 303 L280 303 L458 0 L511 0 Z " />
<glyph glyph-name="S" unicode="S" horiz-adv-x="514" d="M43 87 C95 29 169 -12 265 -12 C393 -12 476 64 476 165 C476 266 411 307 338 340 L238 384 C190 406 124 435 124 511 C124 583 182 629 269 629 C335 629 388 602 426 561 L453 592 C413 635 349 671 269 671 C160 671 78 604 78 509 C78 411 154 370 211 345 L311 300 C376 271 430 244 430 162 C430 84 366 30 266 30 C189 30 120 65 72 119 L43 87 Z " />
<glyph glyph-name="T" unicode="T" horiz-adv-x="517" d="M236 0 L282 0 L282 619 L491 619 L491 659 L26 659 L26 619 L236 619 L236 0 Z " />
<glyph glyph-name="U" unicode="U" horiz-adv-x="627" d="M91 253 C91 47 199 -12 313 -12 C426 -12 536 47 536 253 L536 659 L492 659 L492 258 C492 83 408 30 313 30 C220 30 137 83 137 258 L137 659 L91 659 L91 253 Z " />
<glyph glyph-name="V" unicode="V" horiz-adv-x="484" d="M218 0 L268 0 L483 659 L437 659 L315 274 C290 194 272 133 245 53 L241 53 C214 133 197 194 172 274 L50 659 L1 659 L218 0 Z " />
<glyph glyph-name="W" unicode="W" horiz-adv-x="763" d="M174 0 L225 0 L343 452 C355 504 368 549 379 601 L383 601 C395 549 406 504 418 452 L538 0 L589 0 L737 659 L691 659 L609 271 C594 199 580 128 565 56 L561 56 C544 128 526 199 509 271 L405 659 L359 659 L255 271 C238 199 220 127 205 56 L201 56 C186 127 171 199 155 271 L73 659 L24 659 L174 0 Z " />
<glyph glyph-name="X" unicode="X" horiz-adv-x="475" d="M14 0 L61 0 L175 202 C193 235 211 267 232 307 L236 307 C259 267 278 235 296 202 L411 0 L461 0 L263 339 L447 659 L400 659 L292 465 C275 435 262 411 243 375 L239 375 C217 411 203 435 186 465 L77 659 L27 659 L211 341 L14 0 Z " />
<glyph glyph-name="Y" unicode="Y" horiz-adv-x="440" d="M197 0 L243 0 L243 267 L441 659 L394 659 L294 453 C272 405 247 359 222 311 L218 311 C193 359 171 405 148 453 L48 659 L-1 659 L197 267 L197 0 Z " />
<glyph glyph-name="Z" unicode="Z" horiz-adv-x="531" d="M46 0 L487 0 L487 40 L104 40 L483 632 L483 659 L80 659 L80 619 L426 619 L46 27 L46 0 Z " />
<glyph glyph-name="bracketleft" unicode="&#x5b;" horiz-adv-x="279" d="M98 -152 L258 -152 L258 -123 L133 -123 L133 677 L258 677 L258 708 L98 708 L98 -152 Z " />
<glyph glyph-name="backslash" unicode="&#x5c;" horiz-adv-x="357" d="M309 -160 L349 -160 L43 710 L5 710 L309 -160 Z " />
<glyph glyph-name="bracketright" unicode="&#x5d;" horiz-adv-x="279" d="M21 -123 L21 -152 L181 -152 L181 708 L21 708 L21 677 L146 677 L146 -123 L21 -123 Z " />
<glyph glyph-name="asciicircum" unicode="&#x5e;" horiz-adv-x="479" d="M66 290 L109 290 L186 493 L237 626 L241 626 L293 493 L370 290 L413 290 L262 670 L216 670 L66 290 Z " />
<glyph glyph-name="underscore" unicode="&#x5f;" horiz-adv-x="500" d="M12 -79 L12 -117 L488 -117 L488 -79 L12 -79 Z " />
<glyph glyph-name="grave" unicode="&#x60;" horiz-adv-x="535" d="M285 572 L323 572 L231 708 L179 708 L285 572 Z " />
<glyph glyph-name="a" unicode="a" horiz-adv-x="499" d="M65 120 C65 29 129 -12 205 -12 C268 -12 326 23 375 62 L377 62 L382 0 L419 0 L419 307 C419 410 381 492 267 492 C189 492 123 454 89 430 L109 397 C141 421 197 453 262 453 C356 453 377 374 375 301 C162 277 65 226 65 120 L65 120 Z M111 122 C111 198 178 244 375 267 L375 104 C316 53 267 26 212 26 C157 26 111 53 111 122 L111 122 Z " />
<glyph glyph-name="b" unicode="b" horiz-adv-x="544" d="M92 0 L129 0 L134 45 L136 45 C181 10 234 -12 280 -12 C393 -12 492 84 492 247 C492 396 428 492 300 492 C241 492 183 458 134 417 L136 511 L136 719 L92 719 L92 0 Z M136 89 L136 374 C193 425 245 453 293 453 C403 453 445 365 445 247 C445 117 375 27 278 27 C241 27 189 44 136 89 L136 89 Z " />
<glyph glyph-name="c" unicode="c" horiz-adv-x="449" d="M52 239 C52 80 146 -12 270 -12 C331 -12 382 15 423 52 L400 82 C367 52 323 27 272 27 C167 27 98 113 98 239 C98 366 174 453 272 453 C319 453 355 431 386 402 L412 433 C380 463 337 492 271 492 C154 492 52 400 52 239 L52 239 Z " />
<glyph glyph-name="d" unicode="d" horiz-adv-x="544" d="M52 239 C52 77 130 -12 251 -12 C315 -12 368 23 407 62 L410 62 L414 0 L452 0 L452 719 L408 719 L408 521 L410 433 C362 470 323 492 265 492 C151 492 52 394 52 239 L52 239 Z M99 239 C99 360 172 453 268 453 C315 453 357 436 408 391 L408 106 C357 55 310 27 257 27 C155 27 99 112 99 239 L99 239 Z " />
<glyph glyph-name="e" unicode="e" horiz-adv-x="483" d="M52 239 C52 82 151 -12 274 -12 C344 -12 387 12 425 35 L407 69 C371 43 330 26 278 26 C170 26 99 113 97 234 L443 234 C445 246 445 258 445 270 C445 411 375 492 261 492 C154 492 52 396 52 239 L52 239 Z M97 268 C107 383 180 454 262 454 C348 454 403 391 403 268 L97 268 Z " />
<glyph glyph-name="f" unicode="f" horiz-adv-x="263" d="M288 715 C266 725 240 731 218 731 C142 731 99 682 99 587 L99 480 L33 476 L33 442 L99 442 L99 0 L143 0 L143 442 L254 442 L254 480 L143 480 L143 584 C143 653 167 693 218 693 C236 693 256 689 276 679 L288 715 Z " />
<glyph glyph-name="g" unicode="g" horiz-adv-x="487" d="M94 -94 C94 -60 113 -23 157 7 C182 1 207 -1 217 -1 L320 -1 C392 -1 431 -21 431 -74 C431 -134 362 -195 254 -195 C152 -195 94 -154 94 -94 L94 -94 Z M52 -98 C52 -179 128 -231 249 -231 C387 -231 476 -152 476 -69 C476 7 426 41 318 41 L215 41 C143 41 123 69 123 104 C123 136 141 156 162 173 C184 160 215 153 242 153 C336 153 409 224 409 322 C409 373 387 416 356 443 L468 443 L468 480 L305 480 C290 486 268 492 242 492 C148 492 73 422 73 323 C73 265 103 217 133 191 L133 187 C112 172 81 142 81 99 C81 62 99 36 123 22 L123 18 C79 -14 52 -56 52 -98 L52 -98 Z M242 188 C175 188 117 242 117 323 C117 405 174 456 242 456 C310 456 366 404 366 323 C366 242 308 188 242 188 L242 188 Z " />
<glyph glyph-name="h" unicode="h" horiz-adv-x="528" d="M92 0 L136 0 L136 362 C195 422 236 452 293 452 C371 452 403 404 403 302 L403 0 L447 0 L447 308 C447 432 401 492 302 492 C236 492 186 455 136 405 L136 511 L136 719 L92 719 L92 0 Z " />
<glyph glyph-name="i" unicode="i" horiz-adv-x="229" d="M115 596 C137 596 155 612 155 635 C155 660 137 675 115 675 C93 675 75 660 75 635 C75 612 93 596 115 596 L115 596 Z M92 0 L136 0 L136 480 L92 480 L92 0 Z " />
<glyph glyph-name="j" unicode="j" horiz-adv-x="229" d="M92 -86 C92 -147 82 -191 28 -191 C9 -191 -10 -185 -22 -181 L-33 -217 C-18 -223 6 -229 29 -229 C103 -229 137 -183 137 -89 L137 480 L92 480 L92 -86 Z M115 596 C137 596 156 612 156 635 C156 660 137 675 115 675 C94 675 75 660 75 635 C75 612 94 596 115 596 L115 596 Z " />
<glyph glyph-name="k" unicode="k" horiz-adv-x="464" d="M92 0 L136 0 L136 131 L244 257 L403 0 L452 0 L270 290 L426 480 L375 480 L138 189 L136 189 L136 719 L92 719 L92 0 Z " />
<glyph glyph-name="l" unicode="l" horiz-adv-x="237" d="M92 64 C92 12 112 -12 151 -12 C165 -12 174 -10 183 -7 L175 29 C165 27 161 27 157 27 C145 27 136 37 136 58 L136 719 L92 719 L92 64 Z " />
<glyph glyph-name="m" unicode="m" horiz-adv-x="812" d="M92 0 L136 0 L136 362 C189 422 237 452 280 452 C354 452 388 404 388 302 L388 0 L432 0 L432 362 C485 422 531 452 576 452 C649 452 683 404 683 302 L683 0 L728 0 L728 308 C728 432 680 492 584 492 C529 492 476 454 421 394 C404 453 365 492 288 492 C235 492 180 455 137 406 L134 406 L130 480 L92 480 L92 0 Z " />
<glyph glyph-name="n" unicode="n" horiz-adv-x="532" d="M92 0 L136 0 L136 362 C195 422 236 452 293 452 C371 452 403 404 403 302 L403 0 L447 0 L447 308 C447 432 401 492 302 492 C236 492 186 455 137 406 L134 406 L130 480 L92 480 L92 0 Z " />
<glyph glyph-name="o" unicode="o" horiz-adv-x="535" d="M52 239 C52 80 152 -12 267 -12 C383 -12 483 80 483 239 C483 400 383 492 267 492 C152 492 52 400 52 239 L52 239 Z M98 239 C98 366 170 453 267 453 C364 453 437 366 437 239 C437 113 364 27 267 27 C170 27 98 113 98 239 L98 239 Z " />
<glyph glyph-name="p" unicode="p" horiz-adv-x="544" d="M136 47 C186 10 235 -12 280 -12 C393 -12 492 84 492 247 C492 396 428 492 300 492 C241 492 184 457 137 420 L134 420 L130 480 L92 480 L92 -217 L136 -217 L136 -42 L136 47 Z M136 89 L136 374 C194 425 245 453 293 453 C403 453 445 365 445 247 C445 117 375 27 278 27 C241 27 191 44 136 89 L136 89 Z " />
<glyph glyph-name="q" unicode="q" horiz-adv-x="537" d="M52 239 C52 77 130 -12 251 -12 C314 -12 367 22 410 61 L408 -32 L408 -217 L452 -217 L452 480 L415 480 L410 436 L408 436 C363 471 323 492 265 492 C151 492 52 394 52 239 L52 239 Z M99 239 C99 360 172 453 268 453 C315 453 357 436 408 391 L408 106 C357 55 310 27 257 27 C155 27 99 112 99 239 L99 239 Z " />
<glyph glyph-name="r" unicode="r" horiz-adv-x="317" d="M92 0 L136 0 L136 327 C173 417 224 450 267 450 C286 450 295 448 311 442 L321 482 C305 490 291 492 273 492 C216 492 169 450 137 391 L134 391 L130 480 L92 480 L92 0 Z " />
<glyph glyph-name="s" unicode="s" horiz-adv-x="405" d="M32 54 C75 18 137 -12 208 -12 C312 -12 370 51 370 123 C370 217 288 242 213 270 C156 291 100 314 100 367 C100 411 134 454 208 454 C257 454 291 435 323 411 L347 442 C312 471 261 492 210 492 C110 492 55 434 55 364 C55 282 135 253 208 227 C263 207 325 181 325 121 C325 70 286 26 211 26 C142 26 99 53 58 87 L32 54 Z " />
<glyph glyph-name="t" unicode="t" horiz-adv-x="312" d="M103 133 C103 47 130 -12 223 -12 C243 -12 273 -4 301 6 L289 42 C272 34 247 27 229 27 C163 27 148 68 148 129 L148 442 L287 442 L287 480 L148 480 L148 619 L110 619 L104 480 L28 476 L28 442 L103 442 L103 133 Z " />
<glyph glyph-name="u" unicode="u" horiz-adv-x="529" d="M85 172 C85 48 131 -12 230 -12 C296 -12 346 25 393 80 L395 80 L400 0 L437 0 L437 480 L393 480 L393 126 C337 58 295 28 238 28 C161 28 129 76 129 178 L129 480 L85 480 L85 172 Z " />
<glyph glyph-name="v" unicode="v" horiz-adv-x="434" d="M192 0 L244 0 L422 480 L377 480 L269 179 C253 133 236 85 220 41 L216 41 C201 85 183 133 168 179 L60 480 L12 480 L192 0 Z " />
<glyph glyph-name="w" unicode="w" horiz-adv-x="685" d="M166 0 L219 0 L302 296 C317 342 329 388 340 435 L344 435 C358 388 367 344 381 298 L465 0 L523 0 L661 480 L616 480 L531 169 C520 125 508 84 497 41 L493 41 C481 84 469 125 457 169 L370 480 L317 480 L230 169 C218 125 206 84 195 41 L191 41 C181 84 170 125 158 169 L72 480 L24 480 L166 0 Z " />
<glyph glyph-name="x" unicode="x" horiz-adv-x="407" d="M14 0 L61 0 L143 131 C162 161 179 191 198 219 L202 219 C222 191 241 161 259 131 L344 0 L393 0 L230 247 L379 480 L333 480 L258 358 C241 332 226 305 209 279 L205 279 C187 305 170 332 154 358 L76 480 L27 480 L177 251 L14 0 Z " />
<glyph glyph-name="y" unicode="y" horiz-adv-x="436" d="M34 -170 L24 -209 C37 -215 55 -219 73 -219 C159 -219 207 -140 234 -60 L424 480 L379 480 L276 178 C263 138 247 86 232 44 L228 44 C210 86 191 138 176 178 L60 480 L12 480 L209 -9 L196 -51 C172 -124 132 -178 73 -178 C59 -178 44 -174 34 -170 L34 -170 Z " />
<glyph glyph-name="z" unicode="z" horiz-adv-x="404" d="M27 0 L378 0 L378 39 L85 39 L368 457 L368 480 L58 480 L58 442 L311 442 L27 24 L27 0 Z " />
<glyph glyph-name="braceleft" unicode="&#x7b;" horiz-adv-x="279" d="M113 -24 C113 -125 150 -152 222 -152 L258 -152 L258 -123 L225 -123 C166 -123 150 -90 150 -20 C150 45 156 100 156 172 C156 229 145 264 105 276 L105 280 C145 292 156 325 156 384 C156 447 150 515 150 576 C150 646 166 677 225 677 L258 677 L258 708 L222 708 C150 708 113 679 113 580 C113 512 121 437 121 373 C121 334 105 294 35 294 L35 262 C105 262 121 222 121 181 C121 112 113 50 113 -24 L113 -24 Z " />
<glyph glyph-name="bar" unicode="&#x7c;" horiz-adv-x="226" d="M95 -250 L131 -250 L131 750 L95 750 L95 -250 Z " />
<glyph glyph-name="braceright" unicode="&#x7d;" horiz-adv-x="279" d="M21 -123 L21 -152 L55 -152 C129 -152 166 -125 166 -24 C166 50 158 112 158 181 C158 222 174 262 244 262 L244 294 C174 294 158 334 158 373 C158 437 166 512 166 580 C166 679 129 708 55 708 L21 708 L21 677 L52 677 C113 677 129 646 129 576 C129 515 123 447 123 384 C123 325 135 292 174 280 L174 276 C135 264 123 229 123 172 C123 100 129 45 129 -20 C129 -90 113 -123 52 -123 L21 -123 Z " />
<glyph glyph-name="asciitilde" unicode="&#x7e;" horiz-adv-x="479" d="M69 293 C93 340 118 356 148 356 C206 356 252 266 329 266 C368 266 410 293 438 347 L410 367 C386 320 361 304 331 304 C273 304 227 394 150 394 C111 394 69 367 40 311 L69 293 Z " />
<glyph glyph-name="uni00A0" unicode="&#xa0;" horiz-adv-x="199" d="" />
<glyph glyph-name="exclamdown" unicode="&#xa1;" horiz-adv-x="259" d="M146 301 L113 301 L107 -119 L107 -190 L153 -190 L152 -119 L146 301 Z M172 448 C172 475 152 492 130 492 C108 492 87 475 87 448 C87 418 108 401 130 401 C152 401 172 418 172 448 L172 448 Z " />
<glyph glyph-name="cent" unicode="&#xa2;" horiz-adv-x="479" d="M255 121 C164 134 107 207 107 311 C107 416 169 488 255 502 L255 121 Z M412 173 C380 144 338 121 289 119 L289 504 C334 502 370 482 400 455 L424 483 C393 513 352 541 289 543 L289 652 L255 652 L255 541 C148 530 62 449 62 311 C62 174 142 92 255 81 L255 -28 L289 -28 L289 80 C347 82 396 108 435 144 L412 173 Z " />
<glyph glyph-name="sterling" unicode="&#xa3;" horiz-adv-x="479" d="M133 40 L133 44 C179 88 205 138 205 221 C205 247 202 270 197 293 L354 293 L354 329 L189 329 C175 381 157 428 157 481 C157 554 200 612 282 612 C335 612 369 586 397 553 L426 580 C396 618 351 651 282 651 C177 651 112 586 112 481 C112 429 130 379 144 329 L120 329 L54 326 L54 293 L154 293 C159 270 163 246 163 221 C163 144 131 69 57 27 L57 0 L428 0 L428 40 L133 40 Z " />
<glyph glyph-name="currency" unicode="&#xa4;" horiz-adv-x="479" d="M57 114 L123 182 C155 153 196 137 239 137 C282 137 324 153 355 182 L422 114 L448 142 L383 209 C406 241 420 282 420 328 C420 376 406 418 382 450 L448 518 L422 546 L355 477 C324 505 282 521 239 521 C196 521 154 505 123 477 L57 546 L30 518 L96 450 C72 418 58 376 58 328 C58 282 72 241 96 209 L30 142 L57 114 Z M102 328 C102 420 165 484 239 484 C314 484 376 420 376 328 C376 237 314 174 239 174 C165 174 102 237 102 328 L102 328 Z " />
<glyph glyph-name="yen" unicode="&#xa5;" horiz-adv-x="479" d="M30 639 L202 303 L50 303 L50 270 L216 270 L216 199 L50 199 L50 165 L216 165 L216 0 L261 0 L261 165 L429 165 L429 199 L261 199 L261 270 L429 270 L429 303 L275 303 L449 639 L403 639 L309 446 C286 402 267 358 242 309 L238 309 C214 358 193 402 172 446 L78 639 L30 639 Z " />
<glyph glyph-name="brokenbar" unicode="&#xa6;" horiz-adv-x="226" d="M95 279 L131 279 L131 750 L95 750 L95 279 Z M95 220 L95 -250 L131 -250 L131 220 L95 220 Z " />
<glyph glyph-name="section" unicode="&#xa7;" horiz-adv-x="479" d="M312 181 C228 236 92 250 92 355 C92 406 123 433 168 459 C251 405 387 389 387 281 C387 227 360 203 312 181 L312 181 Z M381 628 C344 658 296 681 241 681 C149 681 106 621 106 564 C106 529 119 503 139 483 C89 456 50 416 50 352 C50 170 333 206 333 70 C333 24 294 -15 233 -15 C172 -15 136 7 102 39 L72 11 C111 -26 164 -52 233 -52 C310 -52 376 0 376 72 C376 108 363 135 342 156 C393 184 429 218 429 284 C429 469 148 436 148 567 C148 605 175 643 242 643 C292 643 325 623 357 597 L381 628 Z " />
<glyph glyph-name="dieresis" unicode="&#xa8;" horiz-adv-x="535" d="M189 598 C209 598 225 614 225 635 C225 655 209 671 189 671 C168 671 152 655 152 635 C152 614 168 598 189 598 L189 598 Z M346 598 C367 598 383 614 383 635 C383 655 367 671 346 671 C325 671 310 655 310 635 C310 614 325 598 346 598 L346 598 Z " />
<glyph glyph-name="copyright" unicode="&#xa9;" horiz-adv-x="741" d="M51 322 C51 120 198 -12 371 -12 C543 -12 690 120 690 322 C690 523 543 652 371 652 C198 652 51 523 51 322 L51 322 Z M86 322 C86 502 217 622 371 622 C524 622 655 502 655 322 C655 141 524 19 371 19 C217 19 86 141 86 322 L86 322 Z M201 322 C201 197 281 124 376 124 C440 124 477 151 513 183 L493 211 C462 183 426 161 378 161 C297 161 244 223 244 322 C244 412 301 472 380 472 C420 472 447 457 478 428 L501 454 C469 486 434 509 381 509 C286 509 201 438 201 322 L201 322 Z " />
<glyph glyph-name="ordfeminine" unicode="&#xaa;" horiz-adv-x="337" d="M139 252 C182 252 217 275 245 299 L249 299 L255 260 L285 260 L285 460 C285 536 259 586 182 586 C130 586 82 561 56 543 L71 516 C94 532 138 553 178 553 C233 553 247 512 248 461 C105 448 42 413 42 343 C42 286 82 252 139 252 L139 252 Z M148 284 C107 284 81 303 81 346 C81 391 124 422 248 435 L248 333 C212 300 179 284 148 284 L148 284 Z " />
<glyph glyph-name="guillemotleft" unicode="&#xab;" horiz-adv-x="399" d="M180 72 L205 91 L82 252 L205 411 L180 432 L43 271 L43 233 L180 72 Z M321 72 L345 91 L223 252 L345 411 L321 432 L183 271 L183 233 L321 72 Z " />
<glyph glyph-name="logicalnot" unicode="&#xac;" horiz-adv-x="479" d="M34 311 L404 311 L404 110 L445 110 L445 349 L34 349 L34 311 Z " />
<glyph glyph-name="uni00AD" unicode="&#xad;" horiz-adv-x="299" d="M40 230 L260 230 L260 269 L40 269 L40 230 Z " />
<glyph glyph-name="registered" unicode="&#xae;" horiz-adv-x="401" d="M200 324 C300 324 382 401 382 517 C382 634 300 712 200 712 C101 712 18 634 18 517 C18 401 101 324 200 324 L200 324 Z M200 353 C116 353 49 422 49 517 C49 613 116 684 200 684 C284 684 351 613 351 517 C351 422 284 353 200 353 L200 353 Z M132 418 L164 418 L164 494 L211 494 L250 418 L287 418 L238 504 C261 511 278 535 278 560 C278 610 240 624 201 624 L132 624 L132 418 Z M164 521 L164 596 L196 596 C232 596 244 581 244 558 C244 532 223 521 193 521 L164 521 Z " />
<glyph glyph-name="macron" unicode="&#xaf;" horiz-adv-x="535" d="M154 606 L381 606 L381 642 L154 642 L154 606 Z " />
<glyph glyph-name="degree" unicode="&#xb0;" horiz-adv-x="311" d="M156 447 C215 447 270 491 270 565 C270 640 215 684 156 684 C97 684 42 640 42 565 C42 491 97 447 156 447 L156 447 Z M156 479 C109 479 76 516 76 565 C76 616 109 653 156 653 C203 653 236 616 236 565 C236 516 203 479 156 479 L156 479 Z " />
<glyph glyph-name="plusminus" unicode="&#xb1;" horiz-adv-x="479" d="M219 109 L260 109 L260 310 L445 310 L445 347 L260 347 L260 550 L219 550 L219 347 L34 347 L34 310 L219 310 L219 109 Z M34 0 L445 0 L445 37 L34 37 L34 0 Z " />
<glyph glyph-name="two.sups" unicode="&#xb2;" horiz-adv-x="362" d="M56 440 L311 440 L311 474 L119 474 C219 573 288 637 288 719 C288 801 239 842 167 842 C118 842 71 809 47 769 L72 746 C94 780 127 808 163 808 C215 808 249 772 249 715 C249 649 190 589 56 465 L56 440 Z " />
<glyph glyph-name="three.sups" unicode="&#xb3;" horiz-adv-x="362" d="M40 503 C67 463 116 428 177 428 C250 428 308 471 308 543 C308 598 264 631 217 640 C260 657 292 690 292 739 C292 804 239 842 174 842 C124 842 84 815 56 779 L81 757 C106 788 139 809 170 809 C221 809 253 779 253 736 C253 691 209 652 131 652 L131 624 C216 624 269 595 269 544 C269 491 227 461 178 461 C133 461 93 487 69 525 L40 503 Z " />
<glyph glyph-name="acute" unicode="&#xb4;" horiz-adv-x="535" d="M356 708 L303 708 L212 572 L249 572 L356 708 Z " />
<glyph glyph-name="uni00B5" unicode="&#xb5;" horiz-adv-x="537" d="M92 -200 L136 -200 L136 -46 L134 44 C160 0 194 -11 243 -11 C306 -11 355 25 400 80 L403 80 L407 0 L445 0 L445 480 L401 480 L401 126 C344 58 303 28 246 28 C169 28 136 76 136 178 L136 480 L92 480 L92 -200 Z " />
<glyph glyph-name="paragraph" unicode="&#xb6;" horiz-adv-x="515" d="M373 -80 L419 -80 L419 659 L373 659 L373 -80 Z M291 244 L319 244 L319 659 L275 659 C138 659 42 601 42 451 C42 302 144 244 291 244 L291 244 Z " />
<glyph glyph-name="periodcentered" unicode="&#xb7;" horiz-adv-x="219" d="M67 322 C67 294 88 277 110 277 C132 277 152 294 152 322 C152 351 132 368 110 368 C88 368 67 351 67 322 L67 322 Z " />
<glyph glyph-name="cedilla" unicode="&#xb8;" horiz-adv-x="535" d="M228 -74 C267 -84 295 -97 295 -127 C295 -155 257 -170 202 -178 L209 -208 C273 -200 334 -175 334 -123 C334 -83 307 -65 274 -54 L303 2 L268 2 L228 -74 Z " />
<glyph glyph-name="one.sups" unicode="&#xb9;" horiz-adv-x="362" d="M176 440 L214 440 L214 830 L181 830 C158 811 132 799 94 791 L94 764 L176 764 L176 440 Z " />
<glyph glyph-name="ordmasculine" unicode="&#xba;" horiz-adv-x="360" d="M179 252 C260 252 325 314 325 419 C325 525 260 586 179 586 C98 586 33 525 33 419 C33 314 98 252 179 252 L179 252 Z M179 285 C115 285 72 340 72 419 C72 499 115 553 179 553 C243 553 286 499 286 419 C286 340 243 285 179 285 L179 285 Z " />
<glyph glyph-name="guillemotright" unicode="&#xbb;" horiz-adv-x="399" d="M54 91 L78 72 L216 233 L216 271 L78 432 L54 411 L176 252 L54 91 Z M195 91 L219 72 L356 233 L356 271 L219 432 L195 411 L317 252 L195 91 Z " />
<glyph glyph-name="onequarter" unicode="&#xbc;" horiz-adv-x="764" d="M193 269 L193 659 L160 659 C136 640 111 628 72 620 L72 593 L155 593 L155 269 L193 269 Z M545 671 L177 -12 L216 -12 L583 671 L545 671 Z M496 146 L569 254 L625 337 L629 337 L625 233 L625 146 L496 146 Z M719 146 L661 146 L661 390 L626 390 L449 135 L449 114 L625 114 L625 0 L661 0 L661 114 L719 114 L719 146 Z " />
<glyph glyph-name="onehalf" unicode="&#xbd;" horiz-adv-x="786" d="M155 269 L193 269 L193 659 L160 659 C136 640 111 628 72 620 L72 593 L155 593 L155 269 Z M193 -12 L560 671 L522 671 L154 -12 L193 -12 Z M481 0 L735 0 L735 34 L544 34 C643 133 713 197 713 279 C713 361 663 402 591 402 C542 402 496 369 471 329 L496 306 C518 340 551 368 588 368 C639 368 674 332 674 275 C674 209 614 149 481 25 L481 0 Z " />
<glyph glyph-name="threequarters" unicode="&#xbe;" horiz-adv-x="783" d="M81 586 C106 617 138 638 169 638 C220 638 253 608 253 565 C253 520 208 481 131 481 L131 453 C215 453 268 424 268 373 C268 320 227 290 177 290 C133 290 93 316 69 354 L40 332 C67 292 116 257 177 257 C250 257 308 300 308 372 C308 427 263 460 216 469 C259 486 292 519 292 568 C292 633 238 671 173 671 C124 671 84 644 56 608 L81 586 Z M592 671 L224 -12 L262 -12 L630 671 L592 671 Z M514 146 L588 254 L644 337 L648 337 L644 233 L644 146 L514 146 Z M738 146 L680 146 L680 390 L644 390 L467 135 L467 114 L644 114 L644 0 L680 0 L680 114 L738 114 L738 146 Z " />
<glyph glyph-name="questiondown" unicode="&#xbf;" horiz-adv-x="402" d="M240 301 L199 301 C218 149 51 87 51 -49 C51 -136 109 -202 207 -202 C275 -202 327 -167 366 -124 L338 -99 C305 -139 258 -163 210 -163 C131 -163 96 -107 96 -46 C96 77 261 135 240 301 L240 301 Z M258 448 C258 475 238 492 216 492 C194 492 174 475 174 448 C174 418 194 401 216 401 C238 401 258 418 258 448 L258 448 Z " />
<glyph glyph-name="Agrave" unicode="&#xc0;" horiz-adv-x="519" d="M296 709 L204 815 L146 815 L256 709 L296 709 Z M142 265 L184 388 C211 466 234 535 257 616 L261 616 C284 535 308 466 334 388 L376 265 L142 265 Z M466 0 L515 0 L283 659 L237 659 L4 0 L51 0 L128 226 L389 226 L466 0 Z " />
<glyph glyph-name="Aacute" unicode="&#xc1;" horiz-adv-x="519" d="M372 815 L314 815 L222 709 L263 709 L372 815 Z M142 265 L184 388 C211 466 234 535 257 616 L261 616 C284 535 308 466 334 388 L376 265 L142 265 Z M466 0 L515 0 L283 659 L237 659 L4 0 L51 0 L128 226 L389 226 L466 0 Z " />
<glyph glyph-name="Acircumflex" unicode="&#xc2;" horiz-adv-x="519" d="M257 781 L261 781 L336 709 L376 709 L280 815 L238 815 L142 709 L182 709 L257 781 Z M142 265 L184 388 C211 466 234 535 257 616 L261 616 C284 535 308 466 334 388 L376 265 L142 265 Z M466 0 L515 0 L283 659 L237 659 L4 0 L51 0 L128 226 L389 226 L466 0 Z " />
<glyph glyph-name="Atilde" unicode="&#xc3;" horiz-adv-x="519" d="M360 808 C356 774 340 752 319 752 C278 752 253 808 201 808 C156 808 133 761 130 716 L158 716 C162 750 178 773 200 773 C240 773 266 716 318 716 C363 716 386 764 389 808 L360 808 Z M142 265 L184 388 C211 466 234 535 257 616 L261 616 C284 535 308 466 334 388 L376 265 L142 265 Z M466 0 L515 0 L283 659 L237 659 L4 0 L51 0 L128 226 L389 226 L466 0 Z " />
<glyph glyph-name="Adieresis" unicode="&#xc4;" horiz-adv-x="519" d="M338 725 C359 725 375 739 375 761 C375 784 359 798 338 798 C317 798 301 784 301 761 C301 739 317 725 338 725 L338 725 Z M180 725 C201 725 217 739 217 761 C217 784 201 798 180 798 C160 798 144 784 144 761 C144 739 160 725 180 725 L180 725 Z M142 265 L184 388 C211 466 234 535 257 616 L261 616 C284 535 308 466 334 388 L376 265 L142 265 Z M466 0 L515 0 L283 659 L237 659 L4 0 L51 0 L128 226 L389 226 L466 0 Z " />
<glyph glyph-name="Aring" unicode="&#xc5;" horiz-adv-x="519" d="M259 838 C287 838 310 817 310 782 C310 745 287 726 259 726 C230 726 207 745 207 782 C207 817 230 838 259 838 L259 838 Z M259 700 C304 700 341 732 341 782 C341 831 304 864 259 864 C212 864 177 831 177 782 C177 732 212 700 259 700 L259 700 Z M142 265 L184 388 C211 466 234 535 257 616 L261 616 C284 535 308 466 334 388 L376 265 L142 265 Z M466 0 L515 0 L283 659 L237 659 L4 0 L51 0 L128 226 L389 226 L466 0 Z " />
<glyph glyph-name="AE" unicode="&#xc6;" horiz-adv-x="802" d="M204 255 L277 388 C319 467 363 545 403 619 L407 619 L407 255 L204 255 Z M453 40 L453 330 L698 330 L698 370 L453 370 L453 619 L749 619 L749 659 L382 659 L18 0 L64 0 L183 217 L407 217 L407 0 L759 0 L759 40 L453 40 Z " />
<glyph glyph-name="Ccedilla" unicode="&#xc7;" horiz-adv-x="557" d="M496 111 C448 57 397 30 329 30 C188 30 99 148 99 331 C99 514 189 629 333 629 C393 629 441 602 477 562 L504 592 C469 633 410 671 333 671 C165 671 51 540 51 331 C51 124 162 -9 321 -12 L288 -74 C326 -84 354 -97 354 -127 C354 -155 317 -170 262 -178 L268 -208 C333 -200 394 -175 394 -123 C394 -83 366 -65 334 -54 L357 -11 C427 -3 479 31 523 82 L496 111 Z " />
<glyph glyph-name="Egrave" unicode="&#xc8;" horiz-adv-x="507" d="M94 0 L464 0 L464 40 L140 40 L140 330 L404 330 L404 370 L140 370 L140 619 L454 619 L454 659 L94 659 L94 0 Z M275 709 L316 709 L223 815 L165 815 L275 709 Z " />
<glyph glyph-name="Eacute" unicode="&#xc9;" horiz-adv-x="507" d="M94 0 L464 0 L464 40 L140 40 L140 330 L404 330 L404 370 L140 370 L140 619 L454 619 L454 659 L94 659 L94 0 Z M391 815 L333 815 L241 709 L282 709 L391 815 Z " />
<glyph glyph-name="Ecircumflex" unicode="&#xca;" horiz-adv-x="507" d="M94 0 L464 0 L464 40 L140 40 L140 330 L404 330 L404 370 L140 370 L140 619 L454 619 L454 659 L94 659 L94 0 Z M201 709 L276 781 L280 781 L355 709 L395 709 L299 815 L257 815 L161 709 L201 709 Z " />
<glyph glyph-name="Edieresis" unicode="&#xcb;" horiz-adv-x="507" d="M94 0 L464 0 L464 40 L140 40 L140 330 L404 330 L404 370 L140 370 L140 619 L454 619 L454 659 L94 659 L94 0 Z M199 725 C220 725 236 739 236 761 C236 784 220 798 199 798 C179 798 163 784 163 761 C163 739 179 725 199 725 L199 725 Z M357 725 C378 725 394 739 394 761 C394 784 378 798 357 798 C336 798 320 784 320 761 C320 739 336 725 357 725 L357 725 Z " />
<glyph glyph-name="Igrave" unicode="&#xcc;" horiz-adv-x="233" d="M94 0 L140 0 L140 659 L94 659 L94 0 Z M113 709 L154 709 L61 815 L4 815 L113 709 Z " />
<glyph glyph-name="Iacute" unicode="&#xcd;" horiz-adv-x="233" d="M94 0 L140 0 L140 659 L94 659 L94 0 Z M229 815 L172 815 L79 709 L120 709 L229 815 Z " />
<glyph glyph-name="Icircumflex" unicode="&#xce;" horiz-adv-x="233" d="M94 0 L140 0 L140 659 L94 659 L94 0 Z M40 709 L115 781 L119 781 L194 709 L234 709 L138 815 L96 815 L0 709 L40 709 Z " />
<glyph glyph-name="Idieresis" unicode="&#xcf;" horiz-adv-x="233" d="M94 0 L140 0 L140 659 L94 659 L94 0 Z M38 725 C59 725 74 739 74 761 C74 784 59 798 38 798 C17 798 1 784 1 761 C1 739 17 725 38 725 L38 725 Z M195 725 C216 725 232 739 232 761 C232 784 216 798 195 798 C175 798 159 784 159 761 C159 739 175 725 195 725 L195 725 Z " />
<glyph glyph-name="Eth" unicode="&#xd0;" horiz-adv-x="616" d="M157 39 L157 332 L323 332 L323 365 L157 365 L157 620 L258 620 C437 620 515 503 515 332 C515 160 437 39 258 39 L157 39 Z M111 659 L111 365 L33 363 L33 332 L111 332 L111 0 L264 0 C466 0 563 132 563 332 C563 531 466 659 263 659 L111 659 Z " />
<glyph glyph-name="Ntilde" unicode="&#xd1;" horiz-adv-x="629" d="M94 0 L137 0 L137 409 C137 473 134 533 131 596 L135 596 L210 465 L487 0 L535 0 L535 659 L492 659 L492 255 C492 191 495 127 498 63 L494 63 L419 194 L142 659 L94 659 L94 0 Z M378 716 C423 716 446 764 449 808 L420 808 C416 774 400 752 379 752 C338 752 313 808 260 808 C215 808 192 761 189 716 L218 716 C222 750 238 773 259 773 C300 773 325 716 378 716 L378 716 Z " />
<glyph glyph-name="Ograve" unicode="&#xd2;" horiz-adv-x="645" d="M323 -12 C481 -12 594 123 594 332 C594 540 481 671 323 671 C164 671 51 540 51 332 C51 123 164 -12 323 -12 L323 -12 Z M323 30 C189 30 99 149 99 332 C99 514 189 629 323 629 C456 629 546 514 546 332 C546 149 456 30 323 30 L323 30 Z M319 709 L360 709 L267 815 L210 815 L319 709 Z " />
<glyph glyph-name="Oacute" unicode="&#xd3;" horiz-adv-x="645" d="M323 -12 C481 -12 594 123 594 332 C594 540 481 671 323 671 C164 671 51 540 51 332 C51 123 164 -12 323 -12 L323 -12 Z M323 30 C189 30 99 149 99 332 C99 514 189 629 323 629 C456 629 546 514 546 332 C546 149 456 30 323 30 L323 30 Z M435 815 L378 815 L285 709 L326 709 L435 815 Z " />
<glyph glyph-name="Ocircumflex" unicode="&#xd4;" horiz-adv-x="645" d="M323 -12 C481 -12 594 123 594 332 C594 540 481 671 323 671 C164 671 51 540 51 332 C51 123 164 -12 323 -12 L323 -12 Z M323 30 C189 30 99 149 99 332 C99 514 189 629 323 629 C456 629 546 514 546 332 C546 149 456 30 323 30 L323 30 Z M246 709 L321 781 L325 781 L400 709 L440 709 L344 815 L302 815 L206 709 L246 709 Z " />
<glyph glyph-name="Otilde" unicode="&#xd5;" horiz-adv-x="645" d="M323 -12 C481 -12 594 123 594 332 C594 540 481 671 323 671 C164 671 51 540 51 332 C51 123 164 -12 323 -12 L323 -12 Z M323 30 C189 30 99 149 99 332 C99 514 189 629 323 629 C456 629 546 514 546 332 C546 149 456 30 323 30 L323 30 Z M381 716 C426 716 449 764 452 808 L424 808 C419 774 404 752 382 752 C342 752 316 808 264 808 C219 808 196 761 193 716 L221 716 C226 750 242 773 263 773 C304 773 329 716 381 716 L381 716 Z " />
<glyph glyph-name="Odieresis" unicode="&#xd6;" horiz-adv-x="645" d="M323 -12 C481 -12 594 123 594 332 C594 540 481 671 323 671 C164 671 51 540 51 332 C51 123 164 -12 323 -12 L323 -12 Z M323 30 C189 30 99 149 99 332 C99 514 189 629 323 629 C456 629 546 514 546 332 C546 149 456 30 323 30 L323 30 Z M244 725 C265 725 280 739 280 761 C280 784 265 798 244 798 C223 798 207 784 207 761 C207 739 223 725 244 725 L244 725 Z M401 725 C422 725 438 739 438 761 C438 784 422 798 401 798 C381 798 365 784 365 761 C365 739 381 725 401 725 L401 725 Z " />
<glyph glyph-name="multiply" unicode="&#xd7;" horiz-adv-x="479" d="M78 135 L239 303 L401 135 L427 163 L266 330 L427 497 L401 525 L239 356 L78 525 L51 497 L213 330 L51 163 L78 135 Z " />
<glyph glyph-name="Oslash" unicode="&#xd8;" horiz-adv-x="645" d="M496 532 C528 482 546 414 546 332 C546 149 456 30 323 30 C262 30 210 55 172 99 L496 532 Z M149 129 C117 180 99 250 99 332 C99 514 189 629 323 629 C383 629 435 605 473 562 L149 129 Z M591 660 L563 682 L501 599 C454 645 393 671 323 671 C164 671 51 540 51 332 C51 233 77 150 120 91 L52 -1 L81 -23 L145 62 C191 14 253 -12 323 -12 C481 -12 594 123 594 332 C594 431 568 513 524 571 L591 660 Z " />
<glyph glyph-name="Ugrave" unicode="&#xd9;" horiz-adv-x="627" d="M91 253 C91 47 199 -12 313 -12 C426 -12 536 47 536 253 L536 659 L492 659 L492 258 C492 83 408 30 313 30 C220 30 137 83 137 258 L137 659 L91 659 L91 253 Z M310 709 L351 709 L258 815 L201 815 L310 709 Z " />
<glyph glyph-name="Uacute" unicode="&#xda;" horiz-adv-x="627" d="M91 253 C91 47 199 -12 313 -12 C426 -12 536 47 536 253 L536 659 L492 659 L492 258 C492 83 408 30 313 30 C220 30 137 83 137 258 L137 659 L91 659 L91 253 Z M426 815 L369 815 L276 709 L317 709 L426 815 Z " />
<glyph glyph-name="Ucircumflex" unicode="&#xdb;" horiz-adv-x="627" d="M91 253 C91 47 199 -12 313 -12 C426 -12 536 47 536 253 L536 659 L492 659 L492 258 C492 83 408 30 313 30 C220 30 137 83 137 258 L137 659 L91 659 L91 253 Z M237 709 L312 781 L316 781 L390 709 L431 709 L335 815 L292 815 L196 709 L237 709 Z " />
<glyph glyph-name="Udieresis" unicode="&#xdc;" horiz-adv-x="627" d="M91 253 C91 47 199 -12 313 -12 C426 -12 536 47 536 253 L536 659 L492 659 L492 258 C492 83 408 30 313 30 C220 30 137 83 137 258 L137 659 L91 659 L91 253 Z M235 725 C256 725 271 739 271 761 C271 784 256 798 235 798 C214 798 198 784 198 761 C198 739 214 725 235 725 L235 725 Z M392 725 C413 725 429 739 429 761 C429 784 413 798 392 798 C372 798 356 784 356 761 C356 739 372 725 392 725 L392 725 Z " />
<glyph glyph-name="Yacute" unicode="&#xdd;" horiz-adv-x="440" d="M197 0 L243 0 L243 267 L441 659 L394 659 L294 453 C272 405 247 359 222 311 L218 311 C193 359 171 405 148 453 L48 659 L-1 659 L197 267 L197 0 Z M333 815 L275 815 L183 709 L223 709 L333 815 Z " />
<glyph glyph-name="Thorn" unicode="&#xde;" horiz-adv-x="562" d="M94 0 L140 0 L140 166 L274 166 C421 166 509 229 509 358 C509 493 421 542 274 542 L140 542 L140 659 L94 659 L94 0 Z M140 205 L140 503 L262 503 C397 503 461 468 461 358 C461 250 397 205 262 205 L140 205 Z " />
<glyph glyph-name="germandbls" unicode="&#xdf;" horiz-adv-x="542" d="M92 0 L136 0 L136 517 C136 636 186 691 262 691 C325 691 357 649 357 591 C357 501 259 470 259 373 C259 229 468 264 468 125 C468 74 434 26 367 26 C324 26 291 41 253 72 L231 39 C269 8 315 -12 367 -12 C452 -12 513 48 513 127 C513 295 303 262 303 377 C303 457 402 492 402 595 C402 670 350 729 263 729 C159 729 92 655 92 532 L92 0 Z " />
<glyph glyph-name="agrave" unicode="&#xe0;" horiz-adv-x="499" d="M65 120 C65 29 129 -12 205 -12 C268 -12 326 23 375 62 L377 62 L382 0 L419 0 L419 307 C419 410 381 492 267 492 C189 492 123 454 89 430 L109 397 C141 421 197 453 262 453 C356 453 377 374 375 301 C162 277 65 226 65 120 L65 120 Z M111 122 C111 198 178 244 375 267 L375 104 C316 53 267 26 212 26 C157 26 111 53 111 122 L111 122 Z M280 572 L318 572 L227 708 L174 708 L280 572 Z " />
<glyph glyph-name="aacute" unicode="&#xe1;" horiz-adv-x="499" d="M65 120 C65 29 129 -12 205 -12 C268 -12 326 23 375 62 L377 62 L382 0 L419 0 L419 307 C419 410 381 492 267 492 C189 492 123 454 89 430 L109 397 C141 421 197 453 262 453 C356 453 377 374 375 301 C162 277 65 226 65 120 L65 120 Z M111 122 C111 198 178 244 375 267 L375 104 C316 53 267 26 212 26 C157 26 111 53 111 122 L111 122 Z M351 708 L298 708 L207 572 L245 572 L351 708 Z " />
<glyph glyph-name="acircumflex" unicode="&#xe2;" horiz-adv-x="499" d="M65 120 C65 29 129 -12 205 -12 C268 -12 326 23 375 62 L377 62 L382 0 L419 0 L419 307 C419 410 381 492 267 492 C189 492 123 454 89 430 L109 397 C141 421 197 453 262 453 C356 453 377 374 375 301 C162 277 65 226 65 120 L65 120 Z M111 122 C111 198 178 244 375 267 L375 104 C316 53 267 26 212 26 C157 26 111 53 111 122 L111 122 Z M149 572 L186 572 L261 671 L265 671 L339 572 L376 572 L282 708 L243 708 L149 572 Z " />
<glyph glyph-name="atilde" unicode="&#xe3;" horiz-adv-x="499" d="M65 120 C65 29 129 -12 205 -12 C268 -12 326 23 375 62 L377 62 L382 0 L419 0 L419 307 C419 410 381 492 267 492 C189 492 123 454 89 430 L109 397 C141 421 197 453 262 453 C356 453 377 374 375 301 C162 277 65 226 65 120 L65 120 Z M111 122 C111 198 178 244 375 267 L375 104 C316 53 267 26 212 26 C157 26 111 53 111 122 L111 122 Z M139 581 L169 581 C173 616 185 636 207 636 C243 636 269 581 318 581 C365 581 383 628 386 670 L356 670 C352 636 340 615 319 615 C284 615 256 670 208 670 C160 670 142 624 139 581 L139 581 Z " />
<glyph glyph-name="adieresis" unicode="&#xe4;" horiz-adv-x="499" d="M65 120 C65 29 129 -12 205 -12 C268 -12 326 23 375 62 L377 62 L382 0 L419 0 L419 307 C419 410 381 492 267 492 C189 492 123 454 89 430 L109 397 C141 421 197 453 262 453 C356 453 377 374 375 301 C162 277 65 226 65 120 L65 120 Z M111 122 C111 198 178 244 375 267 L375 104 C316 53 267 26 212 26 C157 26 111 53 111 122 L111 122 Z M184 598 C205 598 220 614 220 635 C220 655 205 671 184 671 C163 671 147 655 147 635 C147 614 163 598 184 598 L184 598 Z M341 598 C362 598 378 614 378 635 C378 655 362 671 341 671 C321 671 305 655 305 635 C305 614 321 598 341 598 L341 598 Z " />
<glyph glyph-name="aring" unicode="&#xe5;" horiz-adv-x="499" d="M65 120 C65 29 129 -12 205 -12 C268 -12 326 23 375 62 L377 62 L382 0 L419 0 L419 307 C419 410 381 492 267 492 C189 492 123 454 89 430 L109 397 C141 421 197 453 262 453 C356 453 377 374 375 301 C162 277 65 226 65 120 L65 120 Z M111 122 C111 198 178 244 375 267 L375 104 C316 53 267 26 212 26 C157 26 111 53 111 122 L111 122 Z M263 539 C309 539 345 574 345 625 C345 677 309 712 263 712 C216 712 180 677 180 625 C180 574 216 539 263 539 L263 539 Z M263 565 C233 565 210 589 210 625 C210 662 233 686 263 686 C292 686 315 662 315 625 C315 589 292 565 263 565 L263 565 Z " />
<glyph glyph-name="ae" unicode="&#xe6;" horiz-adv-x="784" d="M111 122 C111 198 182 244 369 267 L370 240 C370 195 377 148 391 119 C336 60 264 26 212 26 C157 26 111 53 111 122 L111 122 Z M109 397 C141 421 197 453 257 453 C351 453 371 374 370 301 C163 277 65 226 65 119 C65 29 129 -12 205 -12 C265 -12 344 26 407 87 C442 37 493 -12 579 -12 C649 -12 689 12 727 35 L708 70 C672 44 635 27 583 27 C486 27 412 113 412 234 L744 234 C746 246 746 258 746 270 C746 411 680 492 568 492 C497 492 436 445 401 372 C385 445 339 492 261 492 C189 492 123 454 89 430 L109 397 Z M412 268 C422 378 488 454 567 454 C653 454 705 391 705 268 L412 268 Z " />
<glyph glyph-name="ccedilla" unicode="&#xe7;" horiz-adv-x="449" d="M285 -11 C339 -7 385 18 423 52 L400 82 C367 52 323 27 272 27 C167 27 98 113 98 239 C98 366 174 453 272 453 C319 453 355 431 386 402 L412 433 C380 463 337 492 271 492 C154 492 52 400 52 239 C52 89 136 -2 250 -11 L217 -74 C256 -84 284 -97 284 -127 C284 -155 246 -170 191 -178 L198 -208 C262 -200 323 -175 323 -123 C323 -83 296 -65 263 -54 L285 -11 Z " />
<glyph glyph-name="egrave" unicode="&#xe8;" horiz-adv-x="483" d="M52 239 C52 82 151 -12 274 -12 C344 -12 387 12 425 35 L407 69 C371 43 330 26 278 26 C170 26 99 113 97 234 L443 234 C445 246 445 258 445 270 C445 411 375 492 261 492 C154 492 52 396 52 239 L52 239 Z M97 268 C107 383 180 454 262 454 C348 454 403 391 403 268 L97 268 Z M279 572 L317 572 L225 708 L173 708 L279 572 Z " />
<glyph glyph-name="eacute" unicode="&#xe9;" horiz-adv-x="483" d="M52 239 C52 82 151 -12 274 -12 C344 -12 387 12 425 35 L407 69 C371 43 330 26 278 26 C170 26 99 113 97 234 L443 234 C445 246 445 258 445 270 C445 411 375 492 261 492 C154 492 52 396 52 239 L52 239 Z M97 268 C107 383 180 454 262 454 C348 454 403 391 403 268 L97 268 Z M350 708 L297 708 L206 572 L243 572 L350 708 Z " />
<glyph glyph-name="ecircumflex" unicode="&#xea;" horiz-adv-x="483" d="M52 239 C52 82 151 -12 274 -12 C344 -12 387 12 425 35 L407 69 C371 43 330 26 278 26 C170 26 99 113 97 234 L443 234 C445 246 445 258 445 270 C445 411 375 492 261 492 C154 492 52 396 52 239 L52 239 Z M97 268 C107 383 180 454 262 454 C348 454 403 391 403 268 L97 268 Z M148 572 L184 572 L259 671 L263 671 L338 572 L375 572 L281 708 L242 708 L148 572 Z " />
<glyph glyph-name="edieresis" unicode="&#xeb;" horiz-adv-x="483" d="M52 239 C52 82 151 -12 274 -12 C344 -12 387 12 425 35 L407 69 C371 43 330 26 278 26 C170 26 99 113 97 234 L443 234 C445 246 445 258 445 270 C445 411 375 492 261 492 C154 492 52 396 52 239 L52 239 Z M97 268 C107 383 180 454 262 454 C348 454 403 391 403 268 L97 268 Z M182 598 C203 598 219 614 219 635 C219 655 203 671 182 671 C162 671 146 655 146 635 C146 614 162 598 182 598 L182 598 Z M340 598 C361 598 377 614 377 635 C377 655 361 671 340 671 C319 671 303 655 303 635 C303 614 319 598 340 598 L340 598 Z " />
<glyph glyph-name="igrave" unicode="&#xec;" horiz-adv-x="229" d="M92 0 L136 0 L136 480 L92 480 L92 0 Z M132 572 L170 572 L78 708 L26 708 L132 572 Z " />
<glyph glyph-name="iacute" unicode="&#xed;" horiz-adv-x="229" d="M92 0 L136 0 L136 480 L92 480 L92 0 Z M203 708 L150 708 L59 572 L96 572 L203 708 Z " />
<glyph glyph-name="icircumflex" unicode="&#xee;" horiz-adv-x="229" d="M92 0 L136 0 L136 480 L92 480 L92 0 Z M1 572 L37 572 L112 671 L116 671 L191 572 L228 572 L134 708 L95 708 L1 572 Z " />
<glyph glyph-name="idieresis" unicode="&#xef;" horiz-adv-x="229" d="M92 0 L136 0 L136 480 L92 480 L92 0 Z M36 598 C56 598 72 614 72 635 C72 655 56 671 36 671 C15 671 -1 655 -1 635 C-1 614 15 598 36 598 L36 598 Z M193 598 C214 598 230 614 230 635 C230 655 214 671 193 671 C172 671 157 655 157 635 C157 614 172 598 193 598 L193 598 Z " />
<glyph glyph-name="eth" unicode="&#xf0;" horiz-adv-x="535" d="M267 27 C178 27 104 106 104 219 C104 318 161 404 269 404 C319 404 371 388 422 313 C424 293 425 273 425 251 C425 126 376 27 267 27 L267 27 Z M468 676 L453 703 L311 629 C269 667 222 698 173 724 L151 694 C195 669 237 642 274 610 L142 542 L157 514 L299 588 C355 533 397 464 415 366 C376 417 324 442 267 442 C144 442 60 351 60 219 C60 75 160 -12 267 -12 C387 -12 470 92 470 252 C470 415 414 526 335 607 L468 676 Z " />
<glyph glyph-name="ntilde" unicode="&#xf1;" horiz-adv-x="532" d="M92 0 L136 0 L136 362 C195 422 236 452 293 452 C371 452 403 404 403 302 L403 0 L447 0 L447 308 C447 432 401 492 302 492 C236 492 186 455 137 406 L134 406 L130 480 L92 480 L92 0 Z M159 581 L189 581 C193 616 205 636 227 636 C263 636 289 581 338 581 C385 581 403 628 406 670 L376 670 C372 636 360 615 339 615 C304 615 276 670 228 670 C180 670 162 624 159 581 L159 581 Z " />
<glyph glyph-name="ograve" unicode="&#xf2;" horiz-adv-x="535" d="M52 239 C52 80 152 -12 267 -12 C383 -12 483 80 483 239 C483 400 383 492 267 492 C152 492 52 400 52 239 L52 239 Z M98 239 C98 366 170 453 267 453 C364 453 437 366 437 239 C437 113 364 27 267 27 C170 27 98 113 98 239 L98 239 Z M285 572 L323 572 L231 708 L179 708 L285 572 Z " />
<glyph glyph-name="oacute" unicode="&#xf3;" horiz-adv-x="535" d="M52 239 C52 80 152 -12 267 -12 C383 -12 483 80 483 239 C483 400 383 492 267 492 C152 492 52 400 52 239 L52 239 Z M98 239 C98 366 170 453 267 453 C364 453 437 366 437 239 C437 113 364 27 267 27 C170 27 98 113 98 239 L98 239 Z M356 708 L303 708 L212 572 L249 572 L356 708 Z " />
<glyph glyph-name="ocircumflex" unicode="&#xf4;" horiz-adv-x="535" d="M52 239 C52 80 152 -12 267 -12 C383 -12 483 80 483 239 C483 400 383 492 267 492 C152 492 52 400 52 239 L52 239 Z M98 239 C98 366 170 453 267 453 C364 453 437 366 437 239 C437 113 364 27 267 27 C170 27 98 113 98 239 L98 239 Z M154 572 L190 572 L265 671 L269 671 L344 572 L381 572 L287 708 L248 708 L154 572 Z " />
<glyph glyph-name="otilde" unicode="&#xf5;" horiz-adv-x="535" d="M52 239 C52 80 152 -12 267 -12 C383 -12 483 80 483 239 C483 400 383 492 267 492 C152 492 52 400 52 239 L52 239 Z M98 239 C98 366 170 453 267 453 C364 453 437 366 437 239 C437 113 364 27 267 27 C170 27 98 113 98 239 L98 239 Z M144 581 L174 581 C178 616 190 636 211 636 C248 636 274 581 322 581 C370 581 388 628 391 670 L361 670 C357 636 345 615 323 615 C289 615 261 670 212 670 C165 670 147 624 144 581 L144 581 Z " />
<glyph glyph-name="odieresis" unicode="&#xf6;" horiz-adv-x="535" d="M52 239 C52 80 152 -12 267 -12 C383 -12 483 80 483 239 C483 400 383 492 267 492 C152 492 52 400 52 239 L52 239 Z M98 239 C98 366 170 453 267 453 C364 453 437 366 437 239 C437 113 364 27 267 27 C170 27 98 113 98 239 L98 239 Z M189 598 C209 598 225 614 225 635 C225 655 209 671 189 671 C168 671 152 655 152 635 C152 614 168 598 189 598 L189 598 Z M346 598 C367 598 383 614 383 635 C383 655 367 671 346 671 C325 671 310 655 310 635 C310 614 325 598 346 598 L346 598 Z " />
<glyph glyph-name="divide" unicode="&#xf7;" horiz-adv-x="479" d="M239 469 C261 469 277 485 277 510 C277 533 261 549 239 549 C218 549 201 533 201 510 C201 485 218 469 239 469 L239 469 Z M201 150 C201 125 218 109 239 109 C261 109 277 125 277 150 C277 173 261 189 239 189 C218 189 201 173 201 150 L201 150 Z M34 311 L445 311 L445 349 L34 349 L34 311 Z " />
<glyph glyph-name="oslash" unicode="&#xf8;" horiz-adv-x="535" d="M402 376 C425 340 438 293 438 238 C438 112 364 26 267 26 C223 26 183 44 153 76 L402 376 Z M133 103 C110 139 97 186 97 240 C97 366 170 454 267 454 C312 454 352 436 382 403 L133 103 Z M489 480 L463 501 L409 436 C370 473 320 492 267 492 C152 492 52 400 52 239 C52 168 72 111 104 69 L46 -1 L72 -22 L126 44 C165 7 214 -12 267 -12 C383 -12 483 80 483 239 C483 310 463 368 431 411 L489 480 Z " />
<glyph glyph-name="ugrave" unicode="&#xf9;" horiz-adv-x="529" d="M85 172 C85 48 131 -12 230 -12 C296 -12 346 25 393 80 L395 80 L400 0 L437 0 L437 480 L393 480 L393 126 C337 58 295 28 238 28 C161 28 129 76 129 178 L129 480 L85 480 L85 172 Z M283 572 L320 572 L229 708 L176 708 L283 572 Z " />
<glyph glyph-name="uacute" unicode="&#xfa;" horiz-adv-x="529" d="M85 172 C85 48 131 -12 230 -12 C296 -12 346 25 393 80 L395 80 L400 0 L437 0 L437 480 L393 480 L393 126 C337 58 295 28 238 28 C161 28 129 76 129 178 L129 480 L85 480 L85 172 Z M353 708 L301 708 L209 572 L247 572 L353 708 Z " />
<glyph glyph-name="ucircumflex" unicode="&#xfb;" horiz-adv-x="529" d="M85 172 C85 48 131 -12 230 -12 C296 -12 346 25 393 80 L395 80 L400 0 L437 0 L437 480 L393 480 L393 126 C337 58 295 28 238 28 C161 28 129 76 129 178 L129 480 L85 480 L85 172 Z M151 572 L188 572 L263 671 L267 671 L342 572 L378 572 L284 708 L245 708 L151 572 Z " />
<glyph glyph-name="udieresis" unicode="&#xfc;" horiz-adv-x="529" d="M85 172 C85 48 131 -12 230 -12 C296 -12 346 25 393 80 L395 80 L400 0 L437 0 L437 480 L393 480 L393 126 C337 58 295 28 238 28 C161 28 129 76 129 178 L129 480 L85 480 L85 172 Z M186 598 C207 598 223 614 223 635 C223 655 207 671 186 671 C165 671 149 655 149 635 C149 614 165 598 186 598 L186 598 Z M344 598 C364 598 380 614 380 635 C380 655 364 671 344 671 C323 671 307 655 307 635 C307 614 323 598 344 598 L344 598 Z " />
<glyph glyph-name="yacute" unicode="&#xfd;" horiz-adv-x="436" d="M34 -170 L24 -209 C37 -215 55 -219 73 -219 C159 -219 207 -140 234 -60 L424 480 L379 480 L276 178 C263 138 247 86 232 44 L228 44 C210 86 191 138 176 178 L60 480 L12 480 L209 -9 L196 -51 C172 -124 132 -178 73 -178 C59 -178 44 -174 34 -170 L34 -170 Z M318 708 L265 708 L174 572 L211 572 L318 708 Z " />
<glyph glyph-name="thorn" unicode="&#xfe;" horiz-adv-x="544" d="M136 -42 L136 46 C186 9 234 -12 280 -12 C393 -12 492 84 492 247 C492 396 428 492 299 492 C240 492 184 458 136 421 L136 512 L136 719 L92 719 L92 -217 L136 -217 L136 -42 Z M136 89 L136 374 C194 425 245 453 293 453 C403 453 445 365 445 247 C445 117 375 27 278 27 C241 27 191 44 136 89 L136 89 Z " />
<glyph glyph-name="ydieresis" unicode="&#xff;" horiz-adv-x="436" d="M34 -170 L24 -209 C37 -215 55 -219 73 -219 C159 -219 207 -140 234 -60 L424 480 L379 480 L276 178 C263 138 247 86 232 44 L228 44 C210 86 191 138 176 178 L60 480 L12 480 L209 -9 L196 -51 C172 -124 132 -178 73 -178 C59 -178 44 -174 34 -170 L34 -170 Z M150 598 C171 598 187 614 187 635 C187 655 171 671 150 671 C130 671 114 655 114 635 C114 614 130 598 150 598 L150 598 Z M308 598 C329 598 345 614 345 635 C345 655 329 671 308 671 C287 671 271 655 271 635 C271 614 287 598 308 598 L308 598 Z " />
<glyph glyph-name="Amacron" unicode="&#x100;" horiz-adv-x="519" d="M373 770 L145 770 L145 734 L373 734 L373 770 Z M142 265 L184 388 C211 466 234 535 257 616 L261 616 C284 535 308 466 334 388 L376 265 L142 265 Z M466 0 L515 0 L283 659 L237 659 L4 0 L51 0 L128 226 L389 226 L466 0 Z " />
<glyph glyph-name="amacron" unicode="&#x101;" horiz-adv-x="499" d="M65 120 C65 29 129 -12 205 -12 C268 -12 326 23 375 62 L377 62 L382 0 L419 0 L419 307 C419 410 381 492 267 492 C189 492 123 454 89 430 L109 397 C141 421 197 453 262 453 C356 453 377 374 375 301 C162 277 65 226 65 120 L65 120 Z M111 122 C111 198 178 244 375 267 L375 104 C316 53 267 26 212 26 C157 26 111 53 111 122 L111 122 Z M149 606 L376 606 L376 642 L149 642 L149 606 Z " />
<glyph glyph-name="Abreve" unicode="&#x102;" horiz-adv-x="519" d="M342 815 C336 780 311 743 259 743 C208 743 183 780 177 815 L144 815 C150 769 184 711 259 711 C335 711 368 769 374 815 L342 815 Z M142 265 L184 388 C211 466 234 535 257 616 L261 616 C284 535 308 466 334 388 L376 265 L142 265 Z M466 0 L515 0 L283 659 L237 659 L4 0 L51 0 L128 226 L389 226 L466 0 Z " />
<glyph glyph-name="abreve" unicode="&#x103;" horiz-adv-x="499" d="M65 120 C65 29 129 -12 205 -12 C268 -12 326 23 375 62 L377 62 L382 0 L419 0 L419 307 C419 410 381 492 267 492 C189 492 123 454 89 430 L109 397 C141 421 197 453 262 453 C356 453 377 374 375 301 C162 277 65 226 65 120 L65 120 Z M111 122 C111 198 178 244 375 267 L375 104 C316 53 267 26 212 26 C157 26 111 53 111 122 L111 122 Z M263 576 C344 576 376 644 381 695 L348 695 C343 652 316 608 263 608 C209 608 182 652 177 695 L144 695 C149 644 181 576 263 576 L263 576 Z " />
<glyph glyph-name="Aogonek" unicode="&#x104;" horiz-adv-x="519" d="M142 265 L184 388 C211 466 234 535 257 616 L261 616 C284 535 308 466 334 388 L376 265 L142 265 Z M534 -154 C521 -164 509 -168 491 -168 C466 -168 441 -151 441 -116 C441 -75 473 -27 515 0 L283 659 L237 659 L4 0 L51 0 L128 226 L389 226 L466 0 L473 0 C437 -25 401 -73 401 -123 C401 -178 439 -205 485 -205 C507 -205 535 -194 551 -181 L534 -154 Z " />
<glyph glyph-name="aogonek" unicode="&#x105;" horiz-adv-x="499" d="M111 122 C111 198 178 244 375 267 L375 104 C316 53 267 26 212 26 C157 26 111 53 111 122 L111 122 Z M65 119 C65 29 129 -12 205 -12 C268 -12 326 23 375 62 L377 62 L382 7 C335 -22 295 -71 295 -122 C295 -176 330 -203 376 -203 C398 -203 426 -193 441 -180 L425 -154 C412 -164 400 -168 382 -168 C357 -168 333 -151 333 -116 C333 -73 369 -25 419 0 L419 307 C419 410 381 492 267 492 C189 492 123 454 89 430 L109 397 C141 421 197 453 262 453 C356 453 377 374 375 301 C162 277 65 226 65 119 L65 119 Z " />
<glyph glyph-name="Cacute" unicode="&#x106;" horiz-adv-x="557" d="M51 331 C51 121 165 -12 327 -12 C413 -12 473 24 523 82 L496 111 C448 57 397 30 329 30 C188 30 99 148 99 331 C99 514 189 629 333 629 C393 629 441 602 477 562 L504 592 C469 633 410 671 333 671 C165 671 51 540 51 331 L51 331 Z M432 815 L374 815 L282 709 L323 709 L432 815 Z " />
<glyph glyph-name="cacute" unicode="&#x107;" horiz-adv-x="449" d="M52 239 C52 80 146 -12 270 -12 C331 -12 382 15 423 52 L400 82 C367 52 323 27 272 27 C167 27 98 113 98 239 C98 366 174 453 272 453 C319 453 355 431 386 402 L412 433 C380 463 337 492 271 492 C154 492 52 400 52 239 L52 239 Z M360 708 L308 708 L216 572 L254 572 L360 708 Z " />
<glyph glyph-name="Ccircumflex" unicode="&#x108;" horiz-adv-x="557" d="M51 331 C51 121 165 -12 327 -12 C413 -12 473 24 523 82 L496 111 C448 57 397 30 329 30 C188 30 99 148 99 331 C99 514 189 629 333 629 C393 629 441 602 477 562 L504 592 C469 633 410 671 333 671 C165 671 51 540 51 331 L51 331 Z M242 709 L317 781 L321 781 L396 709 L436 709 L340 815 L298 815 L202 709 L242 709 Z " />
<glyph glyph-name="ccircumflex" unicode="&#x109;" horiz-adv-x="449" d="M52 239 C52 80 146 -12 270 -12 C331 -12 382 15 423 52 L400 82 C367 52 323 27 272 27 C167 27 98 113 98 239 C98 366 174 453 272 453 C319 453 355 431 386 402 L412 433 C380 463 337 492 271 492 C154 492 52 400 52 239 L52 239 Z M158 572 L195 572 L270 671 L274 671 L349 572 L385 572 L291 708 L252 708 L158 572 Z " />
<glyph glyph-name="Cdotaccent" unicode="&#x10a;" horiz-adv-x="557" d="M51 331 C51 121 165 -12 327 -12 C413 -12 473 24 523 82 L496 111 C448 57 397 30 329 30 C188 30 99 148 99 331 C99 514 189 629 333 629 C393 629 441 602 477 562 L504 592 C469 633 410 671 333 671 C165 671 51 540 51 331 L51 331 Z M319 721 C341 721 359 737 359 762 C359 785 341 801 319 801 C297 801 279 785 279 762 C279 737 297 721 319 721 L319 721 Z " />
<glyph glyph-name="cdotaccent" unicode="&#x10b;" horiz-adv-x="449" d="M52 239 C52 80 146 -12 270 -12 C331 -12 382 15 423 52 L400 82 C367 52 323 27 272 27 C167 27 98 113 98 239 C98 366 174 453 272 453 C319 453 355 431 386 402 L412 433 C380 463 337 492 271 492 C154 492 52 400 52 239 L52 239 Z M272 596 C293 596 310 612 310 637 C310 660 293 676 272 676 C250 676 234 660 234 637 C234 612 250 596 272 596 L272 596 Z " />
<glyph glyph-name="Ccaron" unicode="&#x10c;" horiz-adv-x="557" d="M51 331 C51 121 165 -12 327 -12 C413 -12 473 24 523 82 L496 111 C448 57 397 30 329 30 C188 30 99 148 99 331 C99 514 189 629 333 629 C393 629 441 602 477 562 L504 592 C469 633 410 671 333 671 C165 671 51 540 51 331 L51 331 Z M396 815 L321 743 L317 743 L242 815 L202 815 L298 709 L340 709 L436 815 L396 815 Z " />
<glyph glyph-name="ccaron" unicode="&#x10d;" horiz-adv-x="449" d="M52 239 C52 80 146 -12 270 -12 C331 -12 382 15 423 52 L400 82 C367 52 323 27 272 27 C167 27 98 113 98 239 C98 366 174 453 272 453 C319 453 355 431 386 402 L412 433 C380 463 337 492 271 492 C154 492 52 400 52 239 L52 239 Z M252 572 L291 572 L385 708 L349 708 L274 609 L270 609 L195 708 L158 708 L252 572 Z " />
<glyph glyph-name="Dcaron" unicode="&#x10e;" horiz-adv-x="599" d="M94 0 L247 0 C449 0 546 132 546 332 C546 531 449 659 246 659 L94 659 L94 0 Z M140 39 L140 620 L241 620 C420 620 498 503 498 332 C498 160 420 39 241 39 L140 39 Z M376 815 L301 743 L297 743 L222 815 L182 815 L278 709 L320 709 L416 815 L376 815 Z " />
<glyph glyph-name="dcaron" unicode="&#x10f;" horiz-adv-x="549" d="M52 239 C52 77 130 -12 251 -12 C315 -12 368 23 407 62 L410 62 L414 0 L452 0 L452 719 L408 719 L408 521 L410 433 C362 470 323 492 265 492 C151 492 52 394 52 239 L52 239 Z M99 239 C99 360 172 453 268 453 C315 453 357 436 408 391 L408 106 C357 55 310 27 257 27 C155 27 99 112 99 239 L99 239 Z M544 548 L552 704 L552 754 L514 754 L517 548 L544 548 Z " />
<glyph glyph-name="Dcroat" unicode="&#x110;" horiz-adv-x="616" d="M157 39 L157 332 L323 332 L323 365 L157 365 L157 620 L258 620 C437 620 515 503 515 332 C515 160 437 39 258 39 L157 39 Z M111 659 L111 365 L33 363 L33 332 L111 332 L111 0 L264 0 C466 0 563 132 563 332 C563 531 466 659 263 659 L111 659 Z " />
<glyph glyph-name="dcroat" unicode="&#x111;" horiz-adv-x="544" d="M408 106 C357 55 310 27 257 27 C155 27 99 108 99 229 C99 344 172 433 268 433 C315 433 357 416 408 371 L408 106 Z M527 614 L452 614 L452 719 L408 719 L408 614 L238 614 L238 581 L408 581 L408 501 L410 413 C362 450 323 472 265 472 C151 472 52 378 52 229 C52 73 130 -12 251 -12 C315 -12 368 22 407 62 L409 62 L414 0 L452 0 L452 581 L527 585 L527 614 Z " />
<glyph glyph-name="Emacron" unicode="&#x112;" horiz-adv-x="507" d="M94 0 L464 0 L464 40 L140 40 L140 330 L404 330 L404 370 L140 370 L140 619 L454 619 L454 659 L94 659 L94 0 Z M164 734 L392 734 L392 770 L164 770 L164 734 Z " />
<glyph glyph-name="emacron" unicode="&#x113;" horiz-adv-x="483" d="M52 239 C52 82 151 -12 274 -12 C344 -12 387 12 425 35 L407 69 C371 43 330 26 278 26 C170 26 99 113 97 234 L443 234 C445 246 445 258 445 270 C445 411 375 492 261 492 C154 492 52 396 52 239 L52 239 Z M97 268 C107 383 180 454 262 454 C348 454 403 391 403 268 L97 268 Z M148 606 L375 606 L375 642 L148 642 L148 606 Z " />
<glyph glyph-name="Ebreve" unicode="&#x114;" horiz-adv-x="507" d="M94 0 L464 0 L464 40 L140 40 L140 330 L404 330 L404 370 L140 370 L140 619 L454 619 L454 659 L94 659 L94 0 Z M278 711 C354 711 387 769 393 815 L361 815 C355 780 330 743 278 743 C227 743 202 780 196 815 L163 815 C169 769 203 711 278 711 L278 711 Z " />
<glyph glyph-name="ebreve" unicode="&#x115;" horiz-adv-x="483" d="M52 239 C52 82 151 -12 274 -12 C344 -12 387 12 425 35 L407 69 C371 43 330 26 278 26 C170 26 99 113 97 234 L443 234 C445 246 445 258 445 270 C445 411 375 492 261 492 C154 492 52 396 52 239 L52 239 Z M97 268 C107 383 180 454 262 454 C348 454 403 391 403 268 L97 268 Z M261 576 C343 576 374 644 380 695 L347 695 C341 652 315 608 261 608 C208 608 181 652 175 695 L142 695 C148 644 180 576 261 576 L261 576 Z " />
<glyph glyph-name="Edotaccent" unicode="&#x116;" horiz-adv-x="507" d="M94 0 L464 0 L464 40 L140 40 L140 330 L404 330 L404 370 L140 370 L140 619 L454 619 L454 659 L94 659 L94 0 Z M278 721 C300 721 319 737 319 762 C319 785 300 801 278 801 C256 801 238 785 238 762 C238 737 256 721 278 721 L278 721 Z " />
<glyph glyph-name="edotaccent" unicode="&#x117;" horiz-adv-x="483" d="M52 239 C52 82 151 -12 274 -12 C344 -12 387 12 425 35 L407 69 C371 43 330 26 278 26 C170 26 99 113 97 234 L443 234 C445 246 445 258 445 270 C445 411 375 492 261 492 C154 492 52 396 52 239 L52 239 Z M97 268 C107 383 180 454 262 454 C348 454 403 391 403 268 L97 268 Z M261 596 C283 596 299 612 299 637 C299 660 283 676 261 676 C240 676 223 660 223 637 C223 612 240 596 261 596 L261 596 Z " />
<glyph glyph-name="Eogonek" unicode="&#x118;" horiz-adv-x="507" d="M94 0 L400 0 C361 -25 328 -71 328 -123 C328 -178 365 -205 412 -205 C434 -205 462 -194 477 -181 L461 -154 C447 -164 435 -168 418 -168 C392 -168 367 -151 367 -116 C367 -58 417 -9 462 0 L464 0 L464 40 L140 40 L140 330 L404 330 L404 370 L140 370 L140 619 L454 619 L454 659 L94 659 L94 0 Z " />
<glyph glyph-name="eogonek" unicode="&#x119;" horiz-adv-x="483" d="M52 239 C52 82 151 -12 274 -12 C296 -12 316 -10 337 -3 C309 -27 274 -72 274 -122 C274 -176 309 -203 355 -203 C376 -203 405 -193 420 -180 L404 -154 C391 -164 379 -168 361 -168 C335 -168 312 -150 312 -116 C312 -72 339 -28 425 35 L407 69 C371 43 330 26 278 26 C170 26 99 113 97 234 L443 234 C445 246 445 256 445 270 C445 411 375 492 261 492 C154 492 52 396 52 239 L52 239 Z M97 268 C107 384 180 454 262 454 C349 454 403 391 403 268 L97 268 Z " />
<glyph glyph-name="Ecaron" unicode="&#x11a;" horiz-adv-x="507" d="M94 0 L464 0 L464 40 L140 40 L140 330 L404 330 L404 370 L140 370 L140 619 L454 619 L454 659 L94 659 L94 0 Z M355 815 L280 743 L276 743 L201 815 L161 815 L257 709 L299 709 L395 815 L355 815 Z " />
<glyph glyph-name="ecaron" unicode="&#x11b;" horiz-adv-x="483" d="M52 239 C52 82 151 -12 274 -12 C344 -12 387 12 425 35 L407 69 C371 43 330 26 278 26 C170 26 99 113 97 234 L443 234 C445 246 445 258 445 270 C445 411 375 492 261 492 C154 492 52 396 52 239 L52 239 Z M97 268 C107 383 180 454 262 454 C348 454 403 391 403 268 L97 268 Z M242 572 L281 572 L375 708 L338 708 L263 609 L259 609 L184 708 L148 708 L242 572 Z " />
<glyph glyph-name="Gcircumflex" unicode="&#x11c;" horiz-adv-x="597" d="M51 331 C51 121 165 -12 334 -12 C420 -12 488 19 529 63 L529 324 L328 324 L328 285 L485 285 L485 80 C453 48 397 30 338 30 C188 30 99 148 99 331 C99 514 192 629 343 629 C415 629 461 599 495 562 L522 592 C487 629 432 671 343 671 C169 671 51 540 51 331 L51 331 Z M265 709 L340 781 L344 781 L419 709 L459 709 L363 815 L321 815 L225 709 L265 709 Z " />
<glyph glyph-name="gcircumflex" unicode="&#x11d;" horiz-adv-x="487" d="M94 -94 C94 -60 113 -23 157 7 C182 1 207 -1 217 -1 L320 -1 C392 -1 431 -21 431 -74 C431 -134 362 -195 254 -195 C152 -195 94 -154 94 -94 L94 -94 Z M52 -98 C52 -179 128 -231 249 -231 C387 -231 476 -152 476 -69 C476 7 426 41 318 41 L215 41 C143 41 123 69 123 104 C123 136 141 156 162 173 C184 160 215 153 242 153 C336 153 409 224 409 322 C409 373 387 416 356 443 L468 443 L468 480 L305 480 C290 486 268 492 242 492 C148 492 73 422 73 323 C73 265 103 217 133 191 L133 187 C112 172 81 142 81 99 C81 62 99 36 123 22 L123 18 C79 -14 52 -56 52 -98 L52 -98 Z M242 188 C175 188 117 242 117 323 C117 405 174 456 242 456 C310 456 366 404 366 323 C366 242 308 188 242 188 L242 188 Z M119 572 L156 572 L231 671 L235 671 L310 572 L346 572 L252 708 L213 708 L119 572 Z " />
<glyph glyph-name="Gbreve" unicode="&#x11e;" horiz-adv-x="597" d="M51 331 C51 121 165 -12 334 -12 C420 -12 488 19 529 63 L529 324 L328 324 L328 285 L485 285 L485 80 C453 48 397 30 338 30 C188 30 99 148 99 331 C99 514 192 629 343 629 C415 629 461 599 495 562 L522 592 C487 629 432 671 343 671 C169 671 51 540 51 331 L51 331 Z M342 711 C418 711 451 769 457 815 L425 815 C419 780 394 743 342 743 C291 743 266 780 260 815 L227 815 C234 769 267 711 342 711 L342 711 Z " />
<glyph glyph-name="gbreve" unicode="&#x11f;" horiz-adv-x="487" d="M94 -94 C94 -60 113 -23 157 7 C182 1 207 -1 217 -1 L320 -1 C392 -1 431 -21 431 -74 C431 -134 362 -195 254 -195 C152 -195 94 -154 94 -94 L94 -94 Z M52 -98 C52 -179 128 -231 249 -231 C387 -231 476 -152 476 -69 C476 7 426 41 318 41 L215 41 C143 41 123 69 123 104 C123 136 141 156 162 173 C184 160 215 153 242 153 C336 153 409 224 409 322 C409 373 387 416 356 443 L468 443 L468 480 L305 480 C290 486 268 492 242 492 C148 492 73 422 73 323 C73 265 103 217 133 191 L133 187 C112 172 81 142 81 99 C81 62 99 36 123 22 L123 18 C79 -14 52 -56 52 -98 L52 -98 Z M242 188 C175 188 117 242 117 323 C117 405 174 456 242 456 C310 456 366 404 366 323 C366 242 308 188 242 188 L242 188 Z M233 576 C314 576 346 644 351 695 L319 695 C313 652 286 608 233 608 C179 608 152 652 147 695 L114 695 C119 644 151 576 233 576 L233 576 Z " />
<glyph glyph-name="Gdotaccent" unicode="&#x120;" horiz-adv-x="597" d="M51 331 C51 121 165 -12 334 -12 C420 -12 488 19 529 63 L529 324 L328 324 L328 285 L485 285 L485 80 C453 48 397 30 338 30 C188 30 99 148 99 331 C99 514 192 629 343 629 C415 629 461 599 495 562 L522 592 C487 629 432 671 343 671 C169 671 51 540 51 331 L51 331 Z M342 721 C364 721 383 737 383 762 C383 785 364 801 342 801 C320 801 302 785 302 762 C302 737 320 721 342 721 L342 721 Z " />
<glyph glyph-name="gdotaccent" unicode="&#x121;" horiz-adv-x="487" d="M94 -94 C94 -60 113 -23 157 7 C182 1 207 -1 217 -1 L320 -1 C392 -1 431 -21 431 -74 C431 -134 362 -195 254 -195 C152 -195 94 -154 94 -94 L94 -94 Z M52 -98 C52 -179 128 -231 249 -231 C387 -231 476 -152 476 -69 C476 7 426 41 318 41 L215 41 C143 41 123 69 123 104 C123 136 141 156 162 173 C184 160 215 153 242 153 C336 153 409 224 409 322 C409 373 387 416 356 443 L468 443 L468 480 L305 480 C290 486 268 492 242 492 C148 492 73 422 73 323 C73 265 103 217 133 191 L133 187 C112 172 81 142 81 99 C81 62 99 36 123 22 L123 18 C79 -14 52 -56 52 -98 L52 -98 Z M242 188 C175 188 117 242 117 323 C117 405 174 456 242 456 C310 456 366 404 366 323 C366 242 308 188 242 188 L242 188 Z M233 596 C254 596 271 612 271 637 C271 660 254 676 233 676 C211 676 195 660 195 637 C195 612 211 596 233 596 L233 596 Z " />
<glyph glyph-name="uni0122" unicode="&#x122;" horiz-adv-x="597" d="M51 331 C51 121 165 -12 334 -12 C420 -12 488 19 529 63 L529 324 L328 324 L328 285 L485 285 L485 80 C453 48 397 30 338 30 C188 30 99 148 99 331 C99 514 192 629 343 629 C415 629 461 599 495 562 L522 592 C487 629 432 671 343 671 C169 671 51 540 51 331 L51 331 Z M311 -51 L299 -80 C327 -86 355 -98 355 -129 C355 -156 317 -171 262 -179 L269 -209 C333 -201 394 -176 394 -124 C394 -83 366 -62 311 -51 L311 -51 Z " />
<glyph glyph-name="uni0123" unicode="&#x123;" horiz-adv-x="487" d="M94 -94 C94 -60 113 -23 157 7 C182 1 207 -1 217 -1 L320 -1 C392 -1 431 -21 431 -74 C431 -134 362 -195 254 -195 C152 -195 94 -154 94 -94 L94 -94 Z M52 -98 C52 -179 128 -231 249 -231 C387 -231 476 -152 476 -69 C476 7 426 41 318 41 L215 41 C143 41 123 69 123 104 C123 136 141 156 162 173 C184 160 215 153 242 153 C336 153 409 224 409 322 C409 373 387 416 356 443 L468 443 L468 480 L305 480 C290 486 268 492 242 492 C148 492 73 422 73 323 C73 265 103 217 133 191 L133 187 C112 172 81 142 81 99 C81 62 99 36 123 22 L123 18 C79 -14 52 -56 52 -98 L52 -98 Z M242 188 C175 188 117 242 117 323 C117 405 174 456 242 456 C310 456 366 404 366 323 C366 242 308 188 242 188 L242 188 Z M256 539 L268 568 C240 574 212 586 212 617 C212 644 250 659 305 667 L298 697 C234 689 173 664 173 612 C173 571 201 550 256 539 L256 539 Z " />
<glyph glyph-name="Hcircumflex" unicode="&#x124;" horiz-adv-x="632" d="M94 0 L140 0 L140 330 L492 330 L492 0 L538 0 L538 659 L492 659 L492 370 L140 370 L140 659 L94 659 L94 0 Z M239 709 L314 781 L318 781 L393 709 L433 709 L337 815 L295 815 L199 709 L239 709 Z " />
<glyph glyph-name="hcircumflex" unicode="&#x125;" horiz-adv-x="528" d="M92 0 L136 0 L136 362 C195 422 236 452 293 452 C371 452 403 404 403 302 L403 0 L447 0 L447 308 C447 432 401 492 302 492 C236 492 186 455 136 405 L136 511 L136 719 L92 719 L92 0 Z M39 748 L114 821 L118 821 L193 748 L233 748 L137 854 L95 854 L-1 748 L39 748 Z " />
<glyph glyph-name="Hbar" unicode="&#x126;" horiz-adv-x="664" d="M508 370 L156 370 L156 495 L508 495 L508 370 Z M632 528 L554 528 L554 659 L508 659 L508 528 L156 528 L156 659 L110 659 L110 528 L33 524 L33 495 L110 495 L110 0 L156 0 L156 330 L508 330 L508 0 L554 0 L554 495 L632 495 L632 528 Z " />
<glyph glyph-name="hbar" unicode="&#x127;" horiz-adv-x="528" d="M136 491 L136 581 L326 581 L326 614 L136 614 L136 719 L92 719 L92 614 L15 610 L15 581 L92 581 L92 0 L136 0 L136 342 C195 402 236 432 293 432 C371 432 403 384 403 282 L403 0 L447 0 L447 288 C447 412 401 472 302 472 C236 472 186 435 136 385 L136 491 Z " />
<glyph glyph-name="Itilde" unicode="&#x128;" horiz-adv-x="233" d="M94 0 L140 0 L140 659 L94 659 L94 0 Z M175 716 C220 716 243 764 246 808 L218 808 C213 774 198 752 176 752 C136 752 110 808 58 808 C13 808 -10 761 -13 716 L15 716 C20 750 36 773 57 773 C98 773 123 716 175 716 L175 716 Z " />
<glyph glyph-name="itilde" unicode="&#x129;" horiz-adv-x="229" d="M92 0 L136 0 L136 480 L92 480 L92 0 Z M-10 581 L21 581 C25 616 37 636 58 636 C94 636 121 581 169 581 C217 581 235 628 238 670 L208 670 C204 636 192 615 170 615 C136 615 108 670 59 670 C12 670 -7 624 -10 581 L-10 581 Z " />
<glyph glyph-name="Imacron" unicode="&#x12a;" horiz-adv-x="233" d="M94 0 L140 0 L140 659 L94 659 L94 0 Z M3 734 L230 734 L230 770 L3 770 L3 734 Z " />
<glyph glyph-name="imacron" unicode="&#x12b;" horiz-adv-x="229" d="M92 0 L136 0 L136 480 L92 480 L92 0 Z M1 606 L228 606 L228 642 L1 642 L1 606 Z " />
<glyph glyph-name="uni012C" unicode="&#x12c;" horiz-adv-x="233" d="M94 0 L140 0 L140 659 L94 659 L94 0 Z M117 711 C192 711 225 769 232 815 L199 815 C193 780 168 743 117 743 C65 743 40 780 34 815 L2 815 C8 769 41 711 117 711 L117 711 Z " />
<glyph glyph-name="uni012D" unicode="&#x12d;" horiz-adv-x="229" d="M92 0 L136 0 L136 480 L92 480 L92 0 Z M115 576 C197 576 228 644 234 695 L201 695 C195 652 169 608 115 608 C62 608 35 652 29 695 L-4 695 C2 644 34 576 115 576 L115 576 Z " />
<glyph glyph-name="Iogonek" unicode="&#x12e;" horiz-adv-x="233" d="M94 0 L102 0 C69 -34 40 -69 40 -123 C40 -178 78 -205 124 -205 C146 -205 174 -194 190 -181 L173 -154 C160 -164 148 -168 130 -168 C105 -168 80 -151 80 -116 C80 -72 105 -38 140 0 L140 659 L94 659 L94 0 Z " />
<glyph glyph-name="iogonek" unicode="&#x12f;" horiz-adv-x="229" d="M92 0 L99 0 C70 -32 37 -71 37 -122 C37 -176 72 -203 118 -203 C139 -203 168 -193 183 -180 L167 -154 C153 -164 141 -168 124 -168 C99 -168 75 -150 75 -116 C75 -73 104 -34 136 0 L136 480 L92 480 L92 0 Z M113 596 C135 596 154 612 154 635 C154 660 135 675 113 675 C92 675 73 660 73 635 C73 612 92 596 113 596 L113 596 Z " />
<glyph glyph-name="Idotaccent" unicode="&#x130;" horiz-adv-x="233" d="M94 0 L140 0 L140 659 L94 659 L94 0 Z M117 721 C138 721 157 737 157 762 C157 785 138 801 117 801 C95 801 76 785 76 762 C76 737 95 721 117 721 L117 721 Z " />
<glyph glyph-name="dotlessi" unicode="&#x131;" horiz-adv-x="229" d="M92 0 L136 0 L136 480 L92 480 L92 0 Z " />
<glyph glyph-name="Jcircumflex" unicode="&#x134;" horiz-adv-x="455" d="M37 85 C71 23 126 -12 200 -12 C319 -12 364 73 364 179 L364 659 L318 659 L318 184 C318 77 279 30 199 30 C144 30 105 52 72 108 L37 85 Z M260 709 L335 781 L339 781 L414 709 L454 709 L358 815 L316 815 L220 709 L260 709 Z " />
<glyph glyph-name="jcircumflex" unicode="&#x135;" horiz-adv-x="229" d="M92 -86 C92 -147 82 -191 28 -191 C9 -191 -10 -185 -22 -181 L-33 -217 C-18 -223 6 -229 29 -229 C103 -229 137 -183 137 -89 L137 480 L92 480 L92 -86 Z M1 572 L38 572 L113 671 L117 671 L192 572 L228 572 L134 708 L95 708 L1 572 Z " />
<glyph glyph-name="uni0136" unicode="&#x136;" horiz-adv-x="551" d="M94 0 L140 0 L140 227 L274 380 L491 0 L544 0 L305 415 L515 659 L461 659 L142 293 L140 293 L140 659 L94 659 L94 0 Z M293 -51 L281 -80 C309 -86 337 -98 337 -129 C337 -156 300 -171 245 -179 L251 -209 C316 -201 377 -176 377 -124 C377 -83 348 -62 293 -51 L293 -51 Z " />
<glyph glyph-name="uni0137" unicode="&#x137;" horiz-adv-x="464" d="M92 0 L136 0 L136 131 L244 257 L403 0 L452 0 L270 290 L426 480 L375 480 L138 189 L136 189 L136 719 L92 719 L92 0 Z M232 -51 L220 -80 C248 -86 276 -98 276 -129 C276 -156 238 -171 183 -179 L190 -209 C254 -201 315 -176 315 -124 C315 -83 287 -62 232 -51 L232 -51 Z " />
<glyph glyph-name="kgreenlandic" unicode="&#x138;" horiz-adv-x="464" d="M92 0 L136 0 L136 130 L244 257 L403 0 L452 0 L270 290 L426 480 L375 480 L139 189 L136 189 L136 480 L92 480 L92 0 Z " />
<glyph glyph-name="Lacute" unicode="&#x139;" horiz-adv-x="460" d="M94 0 L443 0 L443 40 L140 40 L140 659 L94 659 L94 0 Z M232 815 L174 815 L82 709 L122 709 L232 815 Z " />
<glyph glyph-name="lacute" unicode="&#x13a;" horiz-adv-x="237" d="M92 64 C92 12 112 -12 151 -12 C165 -12 174 -10 183 -7 L175 29 C165 27 161 27 157 27 C145 27 136 37 136 58 L136 719 L92 719 L92 64 Z M220 866 L162 866 L69 760 L110 760 L220 866 Z " />
<glyph glyph-name="uni013B" unicode="&#x13b;" horiz-adv-x="460" d="M94 0 L443 0 L443 40 L140 40 L140 659 L94 659 L94 0 Z M257 -51 L245 -80 C273 -86 301 -98 301 -129 C301 -156 264 -171 209 -179 L215 -209 C280 -201 341 -176 341 -124 C341 -83 312 -62 257 -51 L257 -51 Z " />
<glyph glyph-name="uni013C" unicode="&#x13c;" horiz-adv-x="237" d="M92 64 C92 12 112 -12 151 -12 C165 -12 174 -10 183 -7 L175 29 C165 27 161 27 157 27 C145 27 136 37 136 58 L136 719 L92 719 L92 64 Z M133 -51 L121 -80 C149 -86 177 -98 177 -129 C177 -156 139 -171 84 -179 L91 -209 C155 -201 216 -176 216 -124 C216 -83 188 -62 133 -51 L133 -51 Z " />
<glyph glyph-name="Lcaron" unicode="&#x13d;" horiz-adv-x="460" d="M94 0 L443 0 L443 40 L140 40 L140 659 L94 659 L94 0 Z M346 517 L354 673 L354 723 L316 723 L319 517 L346 517 Z " />
<glyph glyph-name="lcaron" unicode="&#x13e;" horiz-adv-x="234" d="M92 64 C92 12 112 -12 151 -12 C165 -12 174 -10 183 -7 L175 29 C165 27 161 27 157 27 C145 27 136 37 136 58 L136 719 L92 719 L92 64 Z M228 548 L237 704 L237 754 L199 754 L201 548 L228 548 Z " />
<glyph glyph-name="Ldot" unicode="&#x13f;" horiz-adv-x="460" d="M94 0 L443 0 L443 40 L140 40 L140 659 L94 659 L94 0 Z M311 323 C311 295 332 278 354 278 C376 278 396 295 396 323 C396 352 376 369 354 369 C332 369 311 352 311 323 L311 323 Z " />
<glyph glyph-name="ldot" unicode="&#x140;" horiz-adv-x="308" d="M92 64 C92 12 112 -12 151 -12 C165 -12 174 -10 183 -7 L175 29 C165 27 161 27 157 27 C145 27 136 37 136 58 L136 719 L92 719 L92 64 Z M225 323 C225 295 245 278 267 278 C289 278 310 295 310 323 C310 352 289 369 267 369 C245 369 225 352 225 323 L225 323 Z " />
<glyph glyph-name="Lslash" unicode="&#x141;" horiz-adv-x="461" d="M140 40 L140 276 L337 379 L337 419 L140 316 L140 659 L94 659 L94 293 L10 250 L10 210 L94 253 L94 0 L444 0 L444 40 L140 40 Z " />
<glyph glyph-name="lslash" unicode="&#x142;" horiz-adv-x="239" d="M211 437 L211 480 L138 432 L138 719 L93 719 L93 406 L28 363 L28 321 L93 364 L93 64 C93 12 113 -12 152 -12 C167 -12 175 -10 184 -7 L176 29 C167 27 163 27 158 27 C146 27 138 37 138 58 L138 389 L211 437 Z " />
<glyph glyph-name="Nacute" unicode="&#x143;" horiz-adv-x="629" d="M94 0 L137 0 L137 409 C137 473 134 533 131 596 L135 596 L210 465 L487 0 L535 0 L535 659 L492 659 L492 255 C492 191 495 127 498 63 L494 63 L419 194 L142 659 L94 659 L94 0 Z M432 815 L374 815 L282 709 L322 709 L432 815 Z " />
<glyph glyph-name="nacute" unicode="&#x144;" horiz-adv-x="532" d="M92 0 L136 0 L136 362 C195 422 236 452 293 452 C371 452 403 404 403 302 L403 0 L447 0 L447 308 C447 432 401 492 302 492 C236 492 186 455 137 406 L134 406 L130 480 L92 480 L92 0 Z M371 708 L318 708 L227 572 L265 572 L371 708 Z " />
<glyph glyph-name="uni0145" unicode="&#x145;" horiz-adv-x="629" d="M94 0 L137 0 L137 409 C137 473 134 533 131 596 L135 596 L210 465 L487 0 L535 0 L535 659 L492 659 L492 255 C492 191 495 127 498 63 L494 63 L419 194 L142 659 L94 659 L94 0 Z M290 -51 L277 -80 C306 -86 333 -98 333 -129 C333 -156 296 -171 241 -179 L248 -209 C312 -201 373 -176 373 -124 C373 -83 344 -62 290 -51 L290 -51 Z " />
<glyph glyph-name="uni0146" unicode="&#x146;" horiz-adv-x="532" d="M92 0 L136 0 L136 362 C195 422 236 452 293 452 C371 452 403 404 403 302 L403 0 L447 0 L447 308 C447 432 401 492 302 492 C236 492 186 455 137 406 L134 406 L130 480 L92 480 L92 0 Z M246 -51 L234 -80 C262 -86 290 -98 290 -129 C290 -156 253 -171 198 -179 L204 -209 C269 -201 330 -176 330 -124 C330 -83 301 -62 246 -51 L246 -51 Z " />
<glyph glyph-name="Ncaron" unicode="&#x147;" horiz-adv-x="629" d="M94 0 L137 0 L137 409 C137 473 134 533 131 596 L135 596 L210 465 L487 0 L535 0 L535 659 L492 659 L492 255 C492 191 495 127 498 63 L494 63 L419 194 L142 659 L94 659 L94 0 Z M396 815 L321 743 L317 743 L242 815 L202 815 L298 709 L340 709 L436 815 L396 815 Z " />
<glyph glyph-name="ncaron" unicode="&#x148;" horiz-adv-x="532" d="M92 0 L136 0 L136 362 C195 422 236 452 293 452 C371 452 403 404 403 302 L403 0 L447 0 L447 308 C447 432 401 492 302 492 C236 492 186 455 137 406 L134 406 L130 480 L92 480 L92 0 Z M263 572 L302 572 L396 708 L360 708 L285 609 L281 609 L206 708 L169 708 L263 572 Z " />
<glyph glyph-name="napostrophe" unicode="&#x149;" horiz-adv-x="729" d="M76 477 C130 512 162 562 162 633 C162 676 144 700 117 700 C94 700 78 685 78 660 C78 635 98 623 117 623 C120 623 123 623 125 624 C125 567 102 536 58 500 L76 477 Z M324 406 L319 480 L282 480 L282 0 L326 0 L326 362 C384 422 426 452 483 452 C560 452 592 404 592 302 L592 0 L636 0 L636 308 C636 432 590 492 491 492 C425 492 375 455 326 406 L324 406 Z " />
<glyph glyph-name="Omacron" unicode="&#x14c;" horiz-adv-x="645" d="M323 -12 C481 -12 594 123 594 332 C594 540 481 671 323 671 C164 671 51 540 51 332 C51 123 164 -12 323 -12 L323 -12 Z M323 30 C189 30 99 149 99 332 C99 514 189 629 323 629 C456 629 546 514 546 332 C546 149 456 30 323 30 L323 30 Z M209 734 L436 734 L436 770 L209 770 L209 734 Z " />
<glyph glyph-name="omacron" unicode="&#x14d;" horiz-adv-x="535" d="M52 239 C52 80 152 -12 267 -12 C383 -12 483 80 483 239 C483 400 383 492 267 492 C152 492 52 400 52 239 L52 239 Z M98 239 C98 366 170 453 267 453 C364 453 437 366 437 239 C437 113 364 27 267 27 C170 27 98 113 98 239 L98 239 Z M154 606 L381 606 L381 642 L154 642 L154 606 Z " />
<glyph glyph-name="uni014E" unicode="&#x14e;" horiz-adv-x="645" d="M323 -12 C481 -12 594 123 594 332 C594 540 481 671 323 671 C164 671 51 540 51 332 C51 123 164 -12 323 -12 L323 -12 Z M323 30 C189 30 99 149 99 332 C99 514 189 629 323 629 C456 629 546 514 546 332 C546 149 456 30 323 30 L323 30 Z M323 711 C398 711 431 769 438 815 L405 815 C399 780 374 743 323 743 C271 743 246 780 240 815 L208 815 C214 769 247 711 323 711 L323 711 Z " />
<glyph glyph-name="uni014F" unicode="&#x14f;" horiz-adv-x="535" d="M52 239 C52 80 152 -12 267 -12 C383 -12 483 80 483 239 C483 400 383 492 267 492 C152 492 52 400 52 239 L52 239 Z M98 239 C98 366 170 453 267 453 C364 453 437 366 437 239 C437 113 364 27 267 27 C170 27 98 113 98 239 L98 239 Z M267 576 C349 576 381 644 386 695 L353 695 C348 652 321 608 267 608 C214 608 187 652 181 695 L149 695 C154 644 186 576 267 576 L267 576 Z " />
<glyph glyph-name="Ohungarumlaut" unicode="&#x150;" horiz-adv-x="645" d="M323 -12 C481 -12 594 123 594 332 C594 540 481 671 323 671 C164 671 51 540 51 332 C51 123 164 -12 323 -12 L323 -12 Z M323 30 C189 30 99 149 99 332 C99 514 189 629 323 629 C456 629 546 514 546 332 C546 149 456 30 323 30 L323 30 Z M267 709 L346 815 L298 815 L230 709 L267 709 Z M375 709 L412 709 L491 815 L443 815 L375 709 Z " />
<glyph glyph-name="ohungarumlaut" unicode="&#x151;" horiz-adv-x="535" d="M52 239 C52 80 152 -12 267 -12 C383 -12 483 80 483 239 C483 400 383 492 267 492 C152 492 52 400 52 239 L52 239 Z M98 239 C98 366 170 453 267 453 C364 453 437 366 437 239 C437 113 364 27 267 27 C170 27 98 113 98 239 L98 239 Z M185 570 L219 570 L303 708 L257 708 L185 570 Z M319 570 L352 570 L436 708 L390 708 L319 570 Z " />
<glyph glyph-name="OE" unicode="&#x152;" horiz-adv-x="826" d="M51 332 C51 132 156 0 363 0 L783 0 L783 40 L477 40 L477 330 L722 330 L722 370 L477 370 L477 619 L773 619 L773 659 L364 659 C156 659 51 531 51 332 L51 332 Z M99 332 C99 504 185 620 369 620 L431 620 L431 39 L369 39 C185 39 99 160 99 332 L99 332 Z " />
<glyph glyph-name="oe" unicode="&#x153;" horiz-adv-x="848" d="M98 239 C98 366 169 453 263 453 C359 453 428 366 428 239 C428 113 359 27 263 27 C169 27 98 113 98 239 L98 239 Z M52 239 C52 80 151 -12 263 -12 C347 -12 413 36 450 129 C484 43 555 -12 639 -12 C710 -12 753 12 791 35 L772 70 C736 44 696 27 644 27 C547 27 471 113 471 234 L808 234 C810 246 811 258 811 270 C811 411 741 492 628 492 C551 492 484 437 449 350 C415 444 340 492 263 492 C151 492 52 400 52 239 L52 239 Z M471 268 C481 378 548 454 628 454 C713 454 769 391 769 268 L471 268 Z " />
<glyph glyph-name="Racute" unicode="&#x154;" horiz-adv-x="553" d="M394 815 L336 815 L244 709 L284 709 L394 815 Z M140 341 L140 620 L270 620 C387 620 451 584 451 485 C451 388 387 341 270 341 L140 341 Z M511 0 L330 306 C433 320 499 380 499 485 C499 611 413 659 282 659 L94 659 L94 0 L140 0 L140 303 L280 303 L458 0 L511 0 Z " />
<glyph glyph-name="racute" unicode="&#x155;" horiz-adv-x="317" d="M92 0 L136 0 L136 327 C173 417 224 450 267 450 C286 450 295 448 311 442 L321 482 C305 490 291 492 273 492 C216 492 169 450 137 391 L134 391 L130 480 L92 480 L92 0 Z M289 708 L236 708 L145 572 L182 572 L289 708 Z " />
<glyph glyph-name="uni0156" unicode="&#x156;" horiz-adv-x="553" d="M258 -80 C286 -86 314 -98 314 -129 C314 -156 276 -171 221 -179 L228 -209 C292 -201 353 -176 353 -124 C353 -83 325 -62 270 -51 L258 -80 Z M140 341 L140 620 L270 620 C387 620 451 584 451 485 C451 388 387 341 270 341 L140 341 Z M330 306 C433 320 499 380 499 485 C499 611 413 659 282 659 L94 659 L94 0 L140 0 L140 303 L280 303 L458 0 L511 0 L330 306 Z " />
<glyph glyph-name="uni0157" unicode="&#x157;" horiz-adv-x="317" d="M92 0 L136 0 L136 327 C173 417 224 450 267 450 C286 450 295 448 311 442 L321 482 C305 490 291 492 273 492 C216 492 169 450 137 391 L134 391 L130 480 L92 480 L92 0 Z M86 -51 L74 -80 C102 -86 130 -98 130 -129 C130 -156 93 -171 38 -179 L44 -209 C108 -201 169 -176 169 -124 C169 -83 141 -62 86 -51 L86 -51 Z " />
<glyph glyph-name="Rcaron" unicode="&#x158;" horiz-adv-x="553" d="M302 709 L398 815 L358 815 L283 743 L279 743 L204 815 L164 815 L260 709 L302 709 Z M140 341 L140 620 L270 620 C387 620 451 584 451 485 C451 388 387 341 270 341 L140 341 Z M511 0 L330 306 C433 320 499 380 499 485 C499 611 413 659 282 659 L94 659 L94 0 L140 0 L140 303 L280 303 L458 0 L511 0 Z " />
<glyph glyph-name="rcaron" unicode="&#x159;" horiz-adv-x="317" d="M92 0 L136 0 L136 327 C173 417 224 450 267 450 C286 450 295 448 311 442 L321 482 C305 490 291 492 273 492 C216 492 169 450 137 391 L134 391 L130 480 L92 480 L92 0 Z M181 572 L220 572 L314 708 L277 708 L202 609 L198 609 L123 708 L87 708 L181 572 Z " />
<glyph glyph-name="Sacute" unicode="&#x15a;" horiz-adv-x="514" d="M43 87 C95 29 169 -12 265 -12 C393 -12 476 64 476 165 C476 266 411 307 338 340 L238 384 C190 406 124 435 124 511 C124 583 182 629 269 629 C335 629 388 602 426 561 L453 592 C413 635 349 671 269 671 C160 671 78 604 78 509 C78 411 154 370 211 345 L311 300 C376 271 430 244 430 162 C430 84 366 30 266 30 C189 30 120 65 72 119 L43 87 Z M381 815 L323 815 L231 709 L272 709 L381 815 Z " />
<glyph glyph-name="sacute" unicode="&#x15b;" horiz-adv-x="405" d="M32 54 C75 18 137 -12 208 -12 C312 -12 370 51 370 123 C370 217 288 242 213 270 C156 291 100 314 100 367 C100 411 134 454 208 454 C257 454 291 435 323 411 L347 442 C312 471 261 492 210 492 C110 492 55 434 55 364 C55 282 135 253 208 227 C263 207 325 181 325 121 C325 70 286 26 211 26 C142 26 99 53 58 87 L32 54 Z M299 708 L246 708 L155 572 L193 572 L299 708 Z " />
<glyph glyph-name="Scircumflex" unicode="&#x15c;" horiz-adv-x="514" d="M43 87 C95 29 169 -12 265 -12 C393 -12 476 64 476 165 C476 266 411 307 338 340 L238 384 C190 406 124 435 124 511 C124 583 182 629 269 629 C335 629 388 602 426 561 L453 592 C413 635 349 671 269 671 C160 671 78 604 78 509 C78 411 154 370 211 345 L311 300 C376 271 430 244 430 162 C430 84 366 30 266 30 C189 30 120 65 72 119 L43 87 Z M191 709 L266 781 L270 781 L345 709 L385 709 L289 815 L247 815 L151 709 L191 709 Z " />
<glyph glyph-name="scircumflex" unicode="&#x15d;" horiz-adv-x="405" d="M32 54 C75 18 137 -12 208 -12 C312 -12 370 51 370 123 C370 217 288 242 213 270 C156 291 100 314 100 367 C100 411 134 454 208 454 C257 454 291 435 323 411 L347 442 C312 471 261 492 210 492 C110 492 55 434 55 364 C55 282 135 253 208 227 C263 207 325 181 325 121 C325 70 286 26 211 26 C142 26 99 53 58 87 L32 54 Z M97 572 L134 572 L209 671 L213 671 L288 572 L324 572 L230 708 L191 708 L97 572 Z " />
<glyph glyph-name="uni015E" unicode="&#x15e;" horiz-adv-x="514" d="M238 384 C190 406 124 435 124 511 C124 583 182 629 269 629 C335 629 388 602 426 561 L453 592 C413 635 349 671 269 671 C160 671 78 604 78 509 C78 411 154 370 211 345 L311 300 C376 271 430 244 430 162 C430 84 366 30 266 30 C189 30 120 65 72 119 L43 87 C92 32 161 -8 250 -12 L217 -74 C255 -84 283 -97 283 -127 C283 -155 246 -170 191 -178 L197 -208 C262 -200 323 -175 323 -123 C323 -83 295 -65 263 -54 L285 -11 C402 -4 476 69 476 165 C476 266 411 307 338 340 L238 384 Z " />
<glyph glyph-name="uni015F" unicode="&#x15f;" horiz-adv-x="405" d="M347 442 C312 471 261 492 210 492 C110 492 55 434 55 364 C55 282 135 253 208 227 C263 207 325 181 325 121 C325 70 286 26 211 26 C142 26 99 53 58 87 L32 54 C73 20 132 -9 199 -12 L166 -74 C205 -84 233 -97 233 -127 C233 -155 195 -170 140 -178 L147 -208 C211 -200 272 -175 272 -123 C272 -83 244 -65 212 -54 L234 -11 C322 -1 370 57 370 123 C370 217 288 242 213 270 C156 291 100 314 100 367 C100 411 134 454 208 454 C257 454 291 435 323 411 L347 442 Z " />
<glyph glyph-name="Scaron" unicode="&#x160;" horiz-adv-x="514" d="M43 87 C95 29 169 -12 265 -12 C393 -12 476 64 476 165 C476 266 411 307 338 340 L238 384 C190 406 124 435 124 511 C124 583 182 629 269 629 C335 629 388 602 426 561 L453 592 C413 635 349 671 269 671 C160 671 78 604 78 509 C78 411 154 370 211 345 L311 300 C376 271 430 244 430 162 C430 84 366 30 266 30 C189 30 120 65 72 119 L43 87 Z M345 815 L270 743 L266 743 L191 815 L151 815 L247 709 L289 709 L385 815 L345 815 Z " />
<glyph glyph-name="scaron" unicode="&#x161;" horiz-adv-x="405" d="M32 54 C75 18 137 -12 208 -12 C312 -12 370 51 370 123 C370 217 288 242 213 270 C156 291 100 314 100 367 C100 411 134 454 208 454 C257 454 291 435 323 411 L347 442 C312 471 261 492 210 492 C110 492 55 434 55 364 C55 282 135 253 208 227 C263 207 325 181 325 121 C325 70 286 26 211 26 C142 26 99 53 58 87 L32 54 Z M191 572 L230 572 L324 708 L288 708 L213 609 L209 609 L134 708 L97 708 L191 572 Z " />
<glyph glyph-name="uni0162" unicode="&#x162;" horiz-adv-x="517" d="M282 0 L282 619 L491 619 L491 659 L26 659 L26 619 L236 619 L236 0 L243 0 L204 -74 C242 -84 270 -97 270 -127 C270 -155 233 -170 178 -178 L184 -208 C249 -200 310 -175 310 -123 C310 -83 282 -65 250 -54 L278 0 L282 0 Z " />
<glyph glyph-name="uni0163" unicode="&#x163;" horiz-adv-x="312" d="M222 -12 C222 -12 223 -12 223 -12 C243 -12 273 -4 301 6 L289 42 C272 34 247 27 229 27 C163 27 148 68 148 129 L148 442 L287 442 L287 480 L148 480 L148 619 L110 619 L104 480 L28 476 L28 442 L103 442 L103 133 C103 59 123 5 188 -9 L154 -74 C193 -84 221 -97 221 -127 C221 -155 183 -170 128 -178 L135 -208 C199 -200 260 -175 260 -123 C260 -83 233 -65 200 -54 L222 -12 Z " />
<glyph glyph-name="Tcaron" unicode="&#x164;" horiz-adv-x="517" d="M236 0 L282 0 L282 619 L491 619 L491 659 L26 659 L26 619 L236 619 L236 0 Z M335 815 L260 743 L256 743 L181 815 L141 815 L237 709 L279 709 L375 815 L335 815 Z " />
<glyph glyph-name="tcaron" unicode="&#x165;" horiz-adv-x="312" d="M103 133 C103 47 130 -12 223 -12 C243 -12 273 -4 301 6 L289 42 C272 34 247 27 229 27 C163 27 148 68 148 129 L148 442 L287 442 L287 480 L148 480 L148 619 L110 619 L104 480 L28 476 L28 442 L103 442 L103 133 Z M270 548 L278 704 L278 754 L241 754 L243 548 L270 548 Z " />
<glyph glyph-name="Utilde" unicode="&#x168;" horiz-adv-x="627" d="M91 253 C91 47 199 -12 313 -12 C426 -12 536 47 536 253 L536 659 L492 659 L492 258 C492 83 408 30 313 30 C220 30 137 83 137 258 L137 659 L91 659 L91 253 Z M372 716 C417 716 440 764 443 808 L415 808 C410 774 395 752 373 752 C333 752 307 808 255 808 C210 808 187 761 184 716 L212 716 C217 750 233 773 254 773 C295 773 320 716 372 716 L372 716 Z " />
<glyph glyph-name="utilde" unicode="&#x169;" horiz-adv-x="529" d="M85 172 C85 48 131 -12 230 -12 C296 -12 346 25 393 80 L395 80 L400 0 L437 0 L437 480 L393 480 L393 126 C337 58 295 28 238 28 C161 28 129 76 129 178 L129 480 L85 480 L85 172 Z M141 581 L171 581 C176 616 187 636 209 636 C245 636 271 581 320 581 C368 581 386 628 389 670 L358 670 C354 636 342 615 321 615 C287 615 258 670 210 670 C162 670 144 624 141 581 L141 581 Z " />
<glyph glyph-name="Umacron" unicode="&#x16a;" horiz-adv-x="627" d="M91 253 C91 47 199 -12 313 -12 C426 -12 536 47 536 253 L536 659 L492 659 L492 258 C492 83 408 30 313 30 C220 30 137 83 137 258 L137 659 L91 659 L91 253 Z M200 734 L427 734 L427 770 L200 770 L200 734 Z " />
<glyph glyph-name="umacron" unicode="&#x16b;" horiz-adv-x="529" d="M85 172 C85 48 131 -12 230 -12 C296 -12 346 25 393 80 L395 80 L400 0 L437 0 L437 480 L393 480 L393 126 C337 58 295 28 238 28 C161 28 129 76 129 178 L129 480 L85 480 L85 172 Z M147 606 L374 606 L374 642 L147 642 L147 606 Z " />
<glyph glyph-name="Ubreve" unicode="&#x16c;" horiz-adv-x="627" d="M91 253 C91 47 199 -12 313 -12 C426 -12 536 47 536 253 L536 659 L492 659 L492 258 C492 83 408 30 313 30 C220 30 137 83 137 258 L137 659 L91 659 L91 253 Z M314 711 C389 711 422 769 429 815 L396 815 C390 780 365 743 314 743 C262 743 237 780 231 815 L198 815 C205 769 238 711 314 711 L314 711 Z " />
<glyph glyph-name="ubreve" unicode="&#x16d;" horiz-adv-x="529" d="M85 172 C85 48 131 -12 230 -12 C296 -12 346 25 393 80 L395 80 L400 0 L437 0 L437 480 L393 480 L393 126 C337 58 295 28 238 28 C161 28 129 76 129 178 L129 480 L85 480 L85 172 Z M265 576 C346 576 378 644 384 695 L351 695 C345 652 318 608 265 608 C211 608 185 652 179 695 L146 695 C152 644 183 576 265 576 L265 576 Z " />
<glyph glyph-name="Uring" unicode="&#x16e;" horiz-adv-x="627" d="M91 253 C91 47 199 -12 313 -12 C426 -12 536 47 536 253 L536 659 L492 659 L492 258 C492 83 408 30 313 30 C220 30 137 83 137 258 L137 659 L91 659 L91 253 Z M314 700 C359 700 396 732 396 782 C396 831 359 864 314 864 C267 864 231 831 231 782 C231 732 267 700 314 700 L314 700 Z M314 726 C284 726 261 745 261 782 C261 817 284 838 314 838 C341 838 364 817 364 782 C364 745 341 726 314 726 L314 726 Z " />
<glyph glyph-name="uring" unicode="&#x16f;" horiz-adv-x="529" d="M85 172 C85 48 131 -12 230 -12 C296 -12 346 25 393 80 L395 80 L400 0 L437 0 L437 480 L393 480 L393 126 C337 58 295 28 238 28 C161 28 129 76 129 178 L129 480 L85 480 L85 172 Z M265 539 C312 539 347 574 347 625 C347 677 312 712 265 712 C218 712 183 677 183 625 C183 574 218 539 265 539 L265 539 Z M265 565 C236 565 212 589 212 625 C212 662 236 686 265 686 C294 686 317 662 317 625 C317 589 294 565 265 565 L265 565 Z " />
<glyph glyph-name="Uhungarumlaut" unicode="&#x170;" horiz-adv-x="627" d="M91 253 C91 47 199 -12 313 -12 C426 -12 536 47 536 253 L536 659 L492 659 L492 258 C492 83 408 30 313 30 C220 30 137 83 137 258 L137 659 L91 659 L91 253 Z M258 709 L337 815 L289 815 L221 709 L258 709 Z M366 709 L403 709 L482 815 L434 815 L366 709 Z " />
<glyph glyph-name="uhungarumlaut" unicode="&#x171;" horiz-adv-x="529" d="M85 172 C85 48 131 -12 230 -12 C296 -12 346 25 393 80 L395 80 L400 0 L437 0 L437 480 L393 480 L393 126 C337 58 295 28 238 28 C161 28 129 76 129 178 L129 480 L85 480 L85 172 Z M183 570 L217 570 L300 708 L254 708 L183 570 Z M316 570 L350 570 L433 708 L388 708 L316 570 Z " />
<glyph glyph-name="Uogonek" unicode="&#x172;" horiz-adv-x="627" d="M91 253 C91 52 193 -12 322 -12 C292 -42 258 -71 258 -123 C258 -178 296 -205 342 -205 C364 -205 392 -194 407 -181 L391 -154 C378 -164 365 -168 348 -168 C323 -168 297 -151 297 -116 C297 -81 328 -35 381 -8 C463 32 536 81 536 253 L536 659 L492 659 L492 258 C492 83 408 30 313 30 C220 30 137 83 137 258 L137 659 L91 659 L91 253 Z " />
<glyph glyph-name="uogonek" unicode="&#x173;" horiz-adv-x="529" d="M85 172 C85 48 131 -12 230 -12 C296 -12 346 25 393 80 L395 80 L400 7 C348 -31 313 -71 313 -122 C313 -176 348 -203 394 -203 C415 -203 444 -193 459 -180 L443 -154 C430 -164 417 -168 400 -168 C375 -168 351 -150 351 -116 C351 -73 382 -34 437 0 L437 480 L393 480 L393 126 C337 58 295 28 238 28 C160 28 129 76 129 178 L129 480 L85 480 L85 172 Z " />
<glyph glyph-name="Wcircumflex" unicode="&#x174;" horiz-adv-x="763" d="M174 0 L225 0 L343 452 C355 504 368 549 379 601 L383 601 C395 549 406 504 418 452 L538 0 L589 0 L737 659 L691 659 L609 271 C594 199 580 128 565 56 L561 56 C544 128 526 199 509 271 L405 659 L359 659 L255 271 C238 199 220 127 205 56 L201 56 C186 127 171 199 155 271 L73 659 L24 659 L174 0 Z M304 709 L379 781 L383 781 L458 709 L498 709 L402 815 L360 815 L264 709 L304 709 Z " />
<glyph glyph-name="wcircumflex" unicode="&#x175;" horiz-adv-x="685" d="M166 0 L219 0 L302 296 C317 342 329 388 340 435 L344 435 C358 388 367 344 381 298 L465 0 L523 0 L661 480 L616 480 L531 169 C520 125 508 84 497 41 L493 41 C481 84 469 125 457 169 L370 480 L317 480 L230 169 C218 125 206 84 195 41 L191 41 C181 84 170 125 158 169 L72 480 L24 480 L166 0 Z M230 572 L266 572 L341 671 L345 671 L420 572 L457 572 L363 708 L324 708 L230 572 Z " />
<glyph glyph-name="Ycircumflex" unicode="&#x176;" horiz-adv-x="440" d="M197 0 L243 0 L243 267 L441 659 L394 659 L294 453 C272 405 247 359 222 311 L218 311 C193 359 171 405 148 453 L48 659 L-1 659 L197 267 L197 0 Z M143 709 L218 781 L222 781 L297 709 L337 709 L241 815 L199 815 L103 709 L143 709 Z " />
<glyph glyph-name="ycircumflex" unicode="&#x177;" horiz-adv-x="436" d="M34 -170 L24 -209 C37 -215 55 -219 73 -219 C159 -219 207 -140 234 -60 L424 480 L379 480 L276 178 C263 138 247 86 232 44 L228 44 C210 86 191 138 176 178 L60 480 L12 480 L209 -9 L196 -51 C172 -124 132 -178 73 -178 C59 -178 44 -174 34 -170 L34 -170 Z M116 572 L152 572 L227 671 L231 671 L306 572 L343 572 L249 708 L210 708 L116 572 Z " />
<glyph glyph-name="Ydieresis" unicode="&#x178;" horiz-adv-x="440" d="M197 0 L243 0 L243 267 L441 659 L394 659 L294 453 C272 405 247 359 222 311 L218 311 C193 359 171 405 148 453 L48 659 L-1 659 L197 267 L197 0 Z M141 725 C162 725 178 739 178 761 C178 784 162 798 141 798 C120 798 104 784 104 761 C104 739 120 725 141 725 L141 725 Z M299 725 C319 725 335 739 335 761 C335 784 319 798 299 798 C278 798 262 784 262 761 C262 739 278 725 299 725 L299 725 Z " />
<glyph glyph-name="Zacute" unicode="&#x179;" horiz-adv-x="531" d="M46 0 L487 0 L487 40 L104 40 L483 632 L483 659 L80 659 L80 619 L426 619 L46 27 L46 0 Z M389 815 L331 815 L239 709 L279 709 L389 815 Z " />
<glyph glyph-name="zacute" unicode="&#x17a;" horiz-adv-x="404" d="M27 0 L378 0 L378 39 L85 39 L368 457 L368 480 L58 480 L58 442 L311 442 L27 24 L27 0 Z M307 708 L255 708 L163 572 L201 572 L307 708 Z " />
<glyph glyph-name="Zdotaccent" unicode="&#x17b;" horiz-adv-x="531" d="M46 0 L487 0 L487 40 L104 40 L483 632 L483 659 L80 659 L80 619 L426 619 L46 27 L46 0 Z M276 721 C298 721 316 737 316 762 C316 785 298 801 276 801 C254 801 236 785 236 762 C236 737 254 721 276 721 L276 721 Z " />
<glyph glyph-name="zdotaccent" unicode="&#x17c;" horiz-adv-x="404" d="M27 0 L378 0 L378 39 L85 39 L368 457 L368 480 L58 480 L58 442 L311 442 L27 24 L27 0 Z M219 596 C240 596 257 612 257 637 C257 660 240 676 219 676 C197 676 181 660 181 637 C181 612 197 596 219 596 L219 596 Z " />
<glyph glyph-name="Zcaron" unicode="&#x17d;" horiz-adv-x="531" d="M46 0 L487 0 L487 40 L104 40 L483 632 L483 659 L80 659 L80 619 L426 619 L46 27 L46 0 Z M353 815 L278 743 L274 743 L199 815 L159 815 L255 709 L297 709 L393 815 L353 815 Z " />
<glyph glyph-name="zcaron" unicode="&#x17e;" horiz-adv-x="404" d="M27 0 L378 0 L378 39 L85 39 L368 457 L368 480 L58 480 L58 442 L311 442 L27 24 L27 0 Z M199 572 L238 572 L332 708 L296 708 L221 609 L217 609 L142 708 L105 708 L199 572 Z " />
<glyph glyph-name="uni0180" unicode="&#x180;" horiz-adv-x="528" d="M136 354 C193 405 245 433 293 433 C403 433 445 349 445 237 C445 113 375 27 278 27 C241 27 189 44 136 89 L136 354 Z M136 491 L136 581 L326 581 L326 614 L136 614 L136 719 L92 719 L92 614 L15 610 L15 581 L92 581 L92 0 L129 0 L134 45 L136 45 C181 10 234 -12 280 -12 C393 -12 492 80 492 237 C492 380 428 472 300 472 C241 472 183 438 134 397 L136 491 Z " />
<glyph glyph-name="uni018F" unicode="&#x18f;" horiz-adv-x="644" d="M545 299 C535 135 448 28 321 28 C200 28 116 134 108 299 L545 299 Z M154 565 C196 605 257 631 325 631 C464 631 544 516 546 337 L62 337 C61 333 61 329 61 326 C61 130 161 -12 321 -12 C481 -12 592 123 592 331 C592 540 491 671 325 671 C242 671 174 639 131 596 L154 565 Z " />
<glyph glyph-name="uni0192" unicode="&#x192;" horiz-adv-x="479" d="M443 653 C425 661 402 671 369 671 C278 671 237 593 223 468 L216 405 L184 405 L117 401 L117 368 L212 368 L184 106 C174 11 147 -59 76 -59 C57 -59 39 -55 24 -48 L11 -82 C28 -92 50 -98 76 -98 C173 -98 214 -21 227 102 L256 368 L398 368 L398 405 L260 405 L267 472 C276 553 300 632 369 632 C397 632 415 623 431 617 L443 653 Z " />
<glyph glyph-name="Ohorn" unicode="&#x1a0;" horiz-adv-x="645" d="M323 30 C189 30 99 149 99 332 C99 514 189 629 323 629 C456 629 546 514 546 332 C546 149 456 30 323 30 L323 30 Z M528 747 C537 733 542 721 542 708 C542 670 512 648 447 639 C411 660 369 671 323 671 C164 671 51 540 51 332 C51 123 164 -12 323 -12 C481 -12 594 123 594 332 C594 458 552 557 484 614 C545 628 582 658 582 711 C582 731 575 748 563 766 L528 747 Z " />
<glyph glyph-name="ohorn" unicode="&#x1a1;" horiz-adv-x="535" d="M267 27 C170 27 98 113 98 239 C98 366 170 453 267 453 C364 453 437 366 437 239 C437 113 364 27 267 27 L267 27 Z M431 578 C441 565 446 552 446 539 C446 501 416 478 359 471 C331 485 300 492 267 492 C152 492 52 400 52 239 C52 80 152 -12 267 -12 C383 -12 483 80 483 239 C483 334 448 405 396 447 C442 460 486 485 486 542 C486 562 479 580 466 598 L431 578 Z " />
<glyph glyph-name="Uhorn" unicode="&#x1af;" horiz-adv-x="638" d="M582 767 C592 753 597 741 597 728 C597 687 567 668 506 659 L492 659 L492 258 C492 83 408 30 313 30 C220 30 137 83 137 258 L137 659 L91 659 L91 253 C91 47 199 -12 313 -12 C426 -12 536 47 536 253 L536 633 C588 645 637 669 637 731 C637 751 630 768 617 786 L582 767 Z " />
<glyph glyph-name="uhorn" unicode="&#x1b0;" horiz-adv-x="529" d="M472 588 C481 575 486 562 486 549 C486 508 452 487 400 480 L393 480 L393 126 C337 58 295 28 238 28 C161 28 129 76 129 178 L129 480 L85 480 L85 172 C85 48 131 -12 230 -12 C296 -12 346 25 393 80 L395 80 L400 0 L437 0 L437 457 C477 468 526 492 526 552 C526 572 519 590 507 608 L472 588 Z " />
<glyph glyph-name="uni01CD" unicode="&#x1cd;" horiz-adv-x="519" d="M280 709 L376 815 L336 815 L261 743 L257 743 L182 815 L142 815 L238 709 L280 709 Z M142 265 L184 388 C211 466 234 535 257 616 L261 616 C284 535 308 466 334 388 L376 265 L142 265 Z M466 0 L515 0 L283 659 L237 659 L4 0 L51 0 L128 226 L389 226 L466 0 Z " />
<glyph glyph-name="uni01CE" unicode="&#x1ce;" horiz-adv-x="499" d="M65 120 C65 29 129 -12 205 -12 C268 -12 326 23 375 62 L377 62 L382 0 L419 0 L419 307 C419 410 381 492 267 492 C189 492 123 454 89 430 L109 397 C141 421 197 453 262 453 C356 453 377 374 375 301 C162 277 65 226 65 120 L65 120 Z M111 122 C111 198 178 244 375 267 L375 104 C316 53 267 26 212 26 C157 26 111 53 111 122 L111 122 Z M243 572 L282 572 L376 708 L339 708 L265 609 L261 609 L186 708 L149 708 L243 572 Z " />
<glyph glyph-name="uni01CF" unicode="&#x1cf;" horiz-adv-x="233" d="M94 0 L140 0 L140 659 L94 659 L94 0 Z M194 815 L119 743 L115 743 L40 815 L0 815 L96 709 L138 709 L234 815 L194 815 Z " />
<glyph glyph-name="uni01D0" unicode="&#x1d0;" horiz-adv-x="229" d="M92 0 L136 0 L136 480 L92 480 L92 0 Z M95 572 L134 572 L228 708 L191 708 L116 609 L112 609 L37 708 L1 708 L95 572 Z " />
<glyph glyph-name="uni01D1" unicode="&#x1d1;" horiz-adv-x="645" d="M323 -12 C481 -12 594 123 594 332 C594 540 481 671 323 671 C164 671 51 540 51 332 C51 123 164 -12 323 -12 L323 -12 Z M323 30 C189 30 99 149 99 332 C99 514 189 629 323 629 C456 629 546 514 546 332 C546 149 456 30 323 30 L323 30 Z M400 815 L325 743 L321 743 L246 815 L206 815 L302 709 L344 709 L440 815 L400 815 Z " />
<glyph glyph-name="uni01D2" unicode="&#x1d2;" horiz-adv-x="535" d="M52 239 C52 80 152 -12 267 -12 C383 -12 483 80 483 239 C483 400 383 492 267 492 C152 492 52 400 52 239 L52 239 Z M98 239 C98 366 170 453 267 453 C364 453 437 366 437 239 C437 113 364 27 267 27 C170 27 98 113 98 239 L98 239 Z M248 572 L287 572 L381 708 L344 708 L269 609 L265 609 L190 708 L154 708 L248 572 Z " />
<glyph glyph-name="uni01D3" unicode="&#x1d3;" horiz-adv-x="627" d="M91 253 C91 47 199 -12 313 -12 C426 -12 536 47 536 253 L536 659 L492 659 L492 258 C492 83 408 30 313 30 C220 30 137 83 137 258 L137 659 L91 659 L91 253 Z M390 815 L316 743 L312 743 L237 815 L196 815 L292 709 L335 709 L431 815 L390 815 Z " />
<glyph glyph-name="uni01D4" unicode="&#x1d4;" horiz-adv-x="529" d="M85 172 C85 48 131 -12 230 -12 C296 -12 346 25 393 80 L395 80 L400 0 L437 0 L437 480 L393 480 L393 126 C337 58 295 28 238 28 C161 28 129 76 129 178 L129 480 L85 480 L85 172 Z M245 572 L284 572 L378 708 L342 708 L267 609 L263 609 L188 708 L151 708 L245 572 Z " />
<glyph glyph-name="uni01D5" unicode="&#x1d5;" horiz-adv-x="627" d="M91 253 C91 47 199 -12 313 -12 C426 -12 536 47 536 253 L536 659 L492 659 L492 258 C492 83 408 30 313 30 C220 30 137 83 137 258 L137 659 L91 659 L91 253 Z M200 854 L427 854 L427 887 L200 887 L200 854 Z M235 725 C255 725 270 738 270 760 C270 782 255 796 235 796 C214 796 199 782 199 760 C199 738 214 725 235 725 L235 725 Z M392 725 C413 725 428 738 428 760 C428 782 413 796 392 796 C372 796 357 782 357 760 C357 738 372 725 392 725 L392 725 Z " />
<glyph glyph-name="uni01D6" unicode="&#x1d6;" horiz-adv-x="529" d="M85 172 C85 48 131 -12 230 -12 C296 -12 346 25 393 80 L395 80 L400 0 L437 0 L437 480 L393 480 L393 126 C337 58 295 28 238 28 C161 28 129 76 129 178 L129 480 L85 480 L85 172 Z M186 598 C206 598 222 614 222 634 C222 654 206 669 186 669 C166 669 150 654 150 634 C150 614 166 598 186 598 L186 598 Z M344 598 C364 598 379 614 379 634 C379 654 364 669 344 669 C323 669 308 654 308 634 C308 614 323 598 344 598 L344 598 Z M150 747 L378 747 L378 780 L150 780 L150 747 Z " />
<glyph glyph-name="uni01D7" unicode="&#x1d7;" horiz-adv-x="627" d="M91 253 C91 47 199 -12 313 -12 C426 -12 536 47 536 253 L536 659 L492 659 L492 258 C492 83 408 30 313 30 C220 30 137 83 137 258 L137 659 L91 659 L91 253 Z M276 829 L315 829 L424 935 L370 935 L276 829 Z M235 725 C255 725 270 738 270 760 C270 782 255 796 235 796 C214 796 199 782 199 760 C199 738 214 725 235 725 L235 725 Z M392 725 C413 725 428 738 428 760 C428 782 413 796 392 796 C372 796 357 782 357 760 C357 738 372 725 392 725 L392 725 Z " />
<glyph glyph-name="uni01D8" unicode="&#x1d8;" horiz-adv-x="529" d="M85 172 C85 48 131 -12 230 -12 C296 -12 346 25 393 80 L395 80 L400 0 L437 0 L437 480 L393 480 L393 126 C337 58 295 28 238 28 C161 28 129 76 129 178 L129 480 L85 480 L85 172 Z M221 710 L257 710 L354 808 L302 808 L221 710 Z M186 598 C206 598 222 614 222 634 C222 654 206 669 186 669 C166 669 150 654 150 634 C150 614 166 598 186 598 L186 598 Z M344 598 C364 598 379 614 379 634 C379 654 364 669 344 669 C323 669 308 654 308 634 C308 614 323 598 344 598 L344 598 Z " />
<glyph glyph-name="uni01D9" unicode="&#x1d9;" horiz-adv-x="627" d="M91 253 C91 47 199 -12 313 -12 C426 -12 536 47 536 253 L536 659 L492 659 L492 258 C492 83 408 30 313 30 C220 30 137 83 137 258 L137 659 L91 659 L91 253 Z M235 725 C255 725 270 738 270 760 C270 782 255 796 235 796 C214 796 199 782 199 760 C199 738 214 725 235 725 L235 725 Z M392 725 C413 725 428 738 428 760 C428 782 413 796 392 796 C372 796 357 782 357 760 C357 738 372 725 392 725 L392 725 Z M390 935 L316 863 L312 863 L237 935 L196 935 L292 829 L335 829 L431 935 L390 935 Z " />
<glyph glyph-name="uni01DA" unicode="&#x1da;" horiz-adv-x="529" d="M85 172 C85 48 131 -12 230 -12 C296 -12 346 25 393 80 L395 80 L400 0 L437 0 L437 480 L393 480 L393 126 C337 58 295 28 238 28 C161 28 129 76 129 178 L129 480 L85 480 L85 172 Z M245 710 L285 710 L378 808 L339 808 L267 741 L263 741 L190 808 L152 808 L245 710 Z M186 598 C206 598 222 614 222 634 C222 654 206 669 186 669 C166 669 150 654 150 634 C150 614 166 598 186 598 L186 598 Z M344 598 C364 598 379 614 379 634 C379 654 364 669 344 669 C323 669 308 654 308 634 C308 614 323 598 344 598 L344 598 Z " />
<glyph glyph-name="uni01DB" unicode="&#x1db;" horiz-adv-x="627" d="M91 253 C91 47 199 -12 313 -12 C426 -12 536 47 536 253 L536 659 L492 659 L492 258 C492 83 408 30 313 30 C220 30 137 83 137 258 L137 659 L91 659 L91 253 Z M257 935 L203 935 L312 829 L351 829 L257 935 Z M392 725 C413 725 428 738 428 760 C428 782 413 796 392 796 C372 796 357 782 357 760 C357 738 372 725 392 725 L392 725 Z M235 725 C255 725 270 738 270 760 C270 782 255 796 235 796 C214 796 199 782 199 760 C199 738 214 725 235 725 L235 725 Z " />
<glyph glyph-name="uni01DC" unicode="&#x1dc;" horiz-adv-x="529" d="M85 172 C85 48 131 -12 230 -12 C296 -12 346 25 393 80 L395 80 L400 0 L437 0 L437 480 L393 480 L393 126 C337 58 295 28 238 28 C161 28 129 76 129 178 L129 480 L85 480 L85 172 Z M228 808 L176 808 L272 710 L308 710 L228 808 Z M344 598 C364 598 379 614 379 634 C379 654 364 669 344 669 C323 669 308 654 308 634 C308 614 323 598 344 598 L344 598 Z M186 598 C206 598 222 614 222 634 C222 654 206 669 186 669 C166 669 150 654 150 634 C150 614 166 598 186 598 L186 598 Z " />
<glyph glyph-name="Gcaron" unicode="&#x1e6;" horiz-adv-x="597" d="M51 331 C51 121 165 -12 334 -12 C420 -12 488 19 529 63 L529 324 L328 324 L328 285 L485 285 L485 80 C453 48 397 30 338 30 C188 30 99 148 99 331 C99 514 192 629 343 629 C415 629 461 599 495 562 L522 592 C487 629 432 671 343 671 C169 671 51 540 51 331 L51 331 Z M419 815 L344 743 L340 743 L265 815 L225 815 L321 709 L363 709 L459 815 L419 815 Z " />
<glyph glyph-name="gcaron" unicode="&#x1e7;" horiz-adv-x="487" d="M94 -94 C94 -60 113 -23 157 7 C182 1 207 -1 217 -1 L320 -1 C392 -1 431 -21 431 -74 C431 -134 362 -195 254 -195 C152 -195 94 -154 94 -94 L94 -94 Z M52 -98 C52 -179 128 -231 249 -231 C387 -231 476 -152 476 -69 C476 7 426 41 318 41 L215 41 C143 41 123 69 123 104 C123 136 141 156 162 173 C184 160 215 153 242 153 C336 153 409 224 409 322 C409 373 387 416 356 443 L468 443 L468 480 L305 480 C290 486 268 492 242 492 C148 492 73 422 73 323 C73 265 103 217 133 191 L133 187 C112 172 81 142 81 99 C81 62 99 36 123 22 L123 18 C79 -14 52 -56 52 -98 L52 -98 Z M242 188 C175 188 117 242 117 323 C117 405 174 456 242 456 C310 456 366 404 366 323 C366 242 308 188 242 188 L242 188 Z M213 572 L252 572 L346 708 L310 708 L235 609 L231 609 L156 708 L119 708 L213 572 Z " />
<glyph glyph-name="uni01EA" unicode="&#x1ea;" horiz-adv-x="645" d="M270 -123 C270 -178 307 -205 354 -205 C376 -205 404 -194 419 -181 L403 -154 C389 -164 377 -168 360 -168 C334 -168 309 -151 309 -116 C309 -80 334 -33 391 -8 C523 52 594 156 594 332 C594 540 481 671 323 671 C164 671 51 540 51 332 C51 125 159 -12 330 -12 C291 -43 270 -83 270 -123 L270 -123 Z M323 30 C189 30 99 149 99 332 C99 514 189 629 323 629 C456 629 546 514 546 332 C546 149 456 30 323 30 L323 30 Z " />
<glyph glyph-name="uni01EB" unicode="&#x1eb;" horiz-adv-x="535" d="M213 -122 C213 -176 249 -203 294 -203 C316 -203 344 -193 359 -180 L343 -154 C330 -164 318 -168 300 -168 C275 -168 251 -151 251 -116 C251 -74 282 -27 326 -7 C419 35 483 102 483 239 C483 400 383 492 267 492 C152 492 52 400 52 239 C52 82 150 -10 269 -12 C247 -30 213 -72 213 -122 L213 -122 Z M98 239 C98 366 170 453 267 453 C364 453 437 366 437 239 C437 113 364 27 267 27 C170 27 98 113 98 239 L98 239 Z " />
<glyph glyph-name="uni0218" unicode="&#x218;" horiz-adv-x="514" d="M43 87 C95 29 169 -12 265 -12 C393 -12 476 64 476 165 C476 266 411 307 338 340 L238 384 C190 406 124 435 124 511 C124 583 182 629 269 629 C335 629 388 602 426 561 L453 592 C413 635 349 671 269 671 C160 671 78 604 78 509 C78 411 154 370 211 345 L311 300 C376 271 430 244 430 162 C430 84 366 30 266 30 C189 30 120 65 72 119 L43 87 Z M240 -51 L227 -80 C255 -86 283 -98 283 -129 C283 -156 246 -171 191 -179 L197 -209 C262 -201 323 -176 323 -124 C323 -83 294 -62 240 -51 L240 -51 Z " />
<glyph glyph-name="uni0219" unicode="&#x219;" horiz-adv-x="405" d="M32 54 C75 18 137 -12 208 -12 C312 -12 370 51 370 123 C370 217 288 242 213 270 C156 291 100 314 100 367 C100 411 134 454 208 454 C257 454 291 435 323 411 L347 442 C312 471 261 492 210 492 C110 492 55 434 55 364 C55 282 135 253 208 227 C263 207 325 181 325 121 C325 70 286 26 211 26 C142 26 99 53 58 87 L32 54 Z M192 -51 L179 -80 C208 -86 236 -98 236 -129 C236 -156 198 -171 143 -179 L150 -209 C214 -201 275 -176 275 -124 C275 -83 247 -62 192 -51 L192 -51 Z " />
<glyph glyph-name="uni021A" unicode="&#x21a;" horiz-adv-x="517" d="M236 0 L282 0 L282 619 L491 619 L491 659 L26 659 L26 619 L236 619 L236 0 Z M234 -51 L222 -80 C250 -86 278 -98 278 -129 C278 -156 240 -171 185 -179 L192 -209 C256 -201 317 -176 317 -124 C317 -83 289 -62 234 -51 L234 -51 Z " />
<glyph glyph-name="uni021B" unicode="&#x21b;" horiz-adv-x="312" d="M103 133 C103 47 130 -12 223 -12 C243 -12 273 -4 301 6 L289 42 C272 34 247 27 229 27 C163 27 148 68 148 129 L148 442 L287 442 L287 480 L148 480 L148 619 L110 619 L104 480 L28 476 L28 442 L103 442 L103 133 Z M175 -51 L162 -80 C191 -86 218 -98 218 -129 C218 -156 181 -171 126 -179 L133 -209 C197 -201 258 -176 258 -124 C258 -83 229 -62 175 -51 L175 -51 Z " />
<glyph glyph-name="uni0237" unicode="&#x237;" horiz-adv-x="229" d="M92 -86 C92 -147 82 -191 28 -191 C9 -191 -10 -185 -22 -181 L-33 -217 C-18 -223 6 -229 29 -229 C103 -229 137 -183 137 -89 L137 480 L92 480 L92 -86 Z " />
<glyph glyph-name="uni0243" unicode="&#x243;" horiz-adv-x="588" d="M157 37 L157 178 L323 178 L323 211 L157 211 L157 335 L290 335 C424 335 502 289 502 193 C502 86 421 37 290 37 L157 37 Z M157 622 L276 622 C397 622 461 586 461 501 C461 414 406 370 270 370 L157 370 L157 622 Z M389 357 C467 377 506 431 506 499 C506 609 421 659 289 659 L111 659 L111 211 L33 208 L33 178 L111 178 L111 0 L302 0 C451 0 547 65 547 193 C547 285 486 339 389 353 L389 357 Z " />
<glyph glyph-name="uni0251" unicode="&#x251;" horiz-adv-x="544" d="M99 239 C99 360 172 453 268 453 C315 453 357 436 408 391 L408 106 C357 55 310 27 257 27 C155 27 99 112 99 239 L99 239 Z M52 239 C52 77 130 -12 251 -12 C315 -12 368 23 407 62 L410 62 L414 0 L452 0 L452 480 L413 480 L410 434 L408 434 C363 471 323 492 266 492 C151 492 52 394 52 239 L52 239 Z " />
<glyph glyph-name="uni0259" unicode="&#x259;" horiz-adv-x="483" d="M38 219 C38 69 119 -12 231 -12 C346 -12 431 84 431 241 C431 401 345 492 227 492 C156 492 108 469 68 441 L86 408 C125 435 167 454 222 454 C325 454 384 369 386 255 L40 255 C38 243 38 231 38 219 L38 219 Z M79 221 L386 221 C377 100 320 26 230 26 C142 26 79 87 79 221 L79 221 Z " />
<glyph glyph-name="uni0261" unicode="&#x261;" horiz-adv-x="545" d="M110 -142 L90 -177 C137 -209 194 -229 258 -229 C382 -229 452 -156 452 -42 L452 480 L413 480 L409 436 L406 436 C363 471 323 492 266 492 C152 492 53 398 53 246 C53 88 131 0 251 0 C315 0 369 35 409 74 L408 -35 C408 -132 357 -191 258 -191 C208 -191 158 -177 110 -142 L110 -142 Z M258 39 C156 39 99 122 99 246 C99 363 173 453 268 453 C315 453 358 436 408 391 L408 118 C358 67 311 39 258 39 L258 39 Z " />
<glyph glyph-name="h.sups" unicode="&#x2b0;" horiz-adv-x="356" d="M58 260 L95 260 L95 496 C134 535 166 552 195 552 C255 552 268 515 268 457 L268 260 L306 260 L306 464 C306 535 281 586 205 586 C163 586 123 560 94 529 L95 599 L95 733 L58 733 L58 260 Z " />
<glyph glyph-name="j.sups" unicode="&#x2b2;" horiz-adv-x="157" d="M21 110 C72 110 97 142 97 213 L97 578 L60 578 L60 209 C60 169 52 144 17 144 C3 144 -3 146 -12 150 L-22 118 C-6 112 3 110 21 110 L21 110 Z M80 650 C98 650 112 663 112 681 C112 699 98 712 80 712 C62 712 48 699 48 681 C48 663 62 650 80 650 L80 650 Z " />
<glyph glyph-name="r.sups" unicode="&#x2b3;" horiz-adv-x="221" d="M58 260 L97 260 L97 473 C122 529 154 548 185 548 C195 548 207 546 214 544 L223 579 C215 583 201 586 188 586 C150 586 122 562 97 521 L94 521 L87 578 L58 578 L58 260 Z " />
<glyph glyph-name="w.sups" unicode="&#x2b7;" horiz-adv-x="466" d="M109 260 L156 260 L209 446 L232 538 L234 538 L259 446 L310 260 L358 260 L450 578 L412 578 L361 380 L336 293 L332 293 L309 380 L253 578 L213 578 L159 380 L136 293 L132 293 L109 380 L57 578 L16 578 L109 260 Z " />
<glyph glyph-name="y.sups" unicode="&#x2b8;" horiz-adv-x="299" d="M27 160 L18 126 C29 122 41 120 54 120 C115 120 149 173 169 230 L291 578 L253 578 L191 389 C181 359 169 329 160 297 L156 297 C144 329 131 362 121 389 L47 578 L8 578 L140 257 L132 233 C117 186 90 154 53 154 C44 154 36 156 27 160 L27 160 Z " />
<glyph glyph-name="uni02BB" unicode="&#x2bb;" horiz-adv-x="219" d="M143 703 C90 668 58 618 58 547 C58 504 76 480 102 480 C125 480 142 495 142 520 C142 545 122 557 102 557 C99 557 96 557 94 556 C94 613 117 644 161 680 L143 703 Z " />
<glyph glyph-name="uni02BC" unicode="&#x2bc;" horiz-adv-x="219" d="M76 477 C130 512 162 562 162 633 C162 676 144 700 117 700 C94 700 78 685 78 660 C78 635 98 623 117 623 C120 623 123 623 125 624 C125 567 102 536 58 500 L76 477 Z " />
<glyph glyph-name="uni02BE" unicode="&#x2be;" horiz-adv-x="141" d="M33 539 C95 537 133 570 133 625 C133 680 95 714 33 712 L33 687 C80 687 101 662 101 625 C101 589 80 563 33 563 L33 539 Z " />
<glyph glyph-name="uni02BF" unicode="&#x2bf;" horiz-adv-x="159" d="M124 712 C63 714 24 680 24 625 C24 570 63 537 124 539 L124 563 C77 563 56 589 56 625 C56 662 77 687 124 687 L124 712 Z " />
<glyph glyph-name="circumflex" unicode="&#x2c6;" horiz-adv-x="535" d="M154 572 L190 572 L265 671 L269 671 L344 572 L381 572 L287 708 L248 708 L154 572 Z " />
<glyph glyph-name="caron" unicode="&#x2c7;" horiz-adv-x="535" d="M248 572 L287 572 L381 708 L344 708 L269 609 L265 609 L190 708 L154 708 L248 572 Z " />
<glyph glyph-name="uni02C8" unicode="&#x2c8;" horiz-adv-x="95" d="M32 529 L63 529 L69 701 L26 701 L32 529 Z " />
<glyph glyph-name="uni02C9" unicode="&#x2c9;" horiz-adv-x="259" d="M16 606 L243 606 L243 642 L16 642 L16 606 Z " />
<glyph glyph-name="uni02CA" unicode="&#x2ca;" horiz-adv-x="218" d="M196 708 L143 708 L52 572 L89 572 L196 708 Z " />
<glyph glyph-name="uni02CB" unicode="&#x2cb;" horiz-adv-x="218" d="M125 572 L163 572 L71 708 L19 708 L125 572 Z " />
<glyph glyph-name="uni02CC" unicode="&#x2cc;" horiz-adv-x="95" d="M32 -75 L26 -247 L69 -247 L63 -75 L32 -75 Z " />
<glyph glyph-name="breve" unicode="&#x2d8;" horiz-adv-x="535" d="M267 576 C349 576 381 644 386 695 L353 695 C348 652 321 608 267 608 C214 608 187 652 181 695 L149 695 C154 644 186 576 267 576 L267 576 Z " />
<glyph glyph-name="dotaccent" unicode="&#x2d9;" horiz-adv-x="535" d="M267 596 C289 596 305 612 305 637 C305 660 289 676 267 676 C246 676 229 660 229 637 C229 612 246 596 267 596 L267 596 Z " />
<glyph glyph-name="ring" unicode="&#x2da;" horiz-adv-x="535" d="M267 539 C314 539 350 574 350 625 C350 677 314 712 267 712 C221 712 185 677 185 625 C185 574 221 539 267 539 L267 539 Z M267 565 C238 565 215 589 215 625 C215 662 238 686 267 686 C297 686 320 662 320 625 C320 589 297 565 267 565 L267 565 Z " />
<glyph glyph-name="ogonek" unicode="&#x2db;" horiz-adv-x="535" d="M213 -122 C213 -176 249 -203 294 -203 C316 -203 344 -193 359 -180 L343 -154 C330 -164 318 -168 300 -168 C275 -168 251 -151 251 -116 C251 -73 282 -30 328 4 L285 4 C248 -25 213 -71 213 -122 L213 -122 Z " />
<glyph glyph-name="tilde" unicode="&#x2dc;" horiz-adv-x="535" d="M144 581 L174 581 C178 616 190 636 211 636 C248 636 274 581 322 581 C370 581 388 628 391 670 L361 670 C357 636 345 615 323 615 C289 615 261 670 212 670 C165 670 147 624 144 581 L144 581 Z " />
<glyph glyph-name="hungarumlaut" unicode="&#x2dd;" horiz-adv-x="535" d="M185 570 L219 570 L303 708 L257 708 L185 570 Z M319 570 L352 570 L436 708 L390 708 L319 570 Z " />
<glyph glyph-name="l.sups" unicode="&#x2e1;" horiz-adv-x="162" d="M58 313 C58 273 71 252 106 252 C118 252 125 254 132 257 L125 287 C119 285 115 285 111 285 C101 285 95 291 95 308 L95 733 L58 733 L58 313 Z " />
<glyph glyph-name="s.sups" unicode="&#x2e2;" horiz-adv-x="275" d="M21 296 C52 272 95 252 144 252 C207 252 252 291 252 346 C252 406 199 421 150 440 C111 456 75 467 75 503 C75 528 96 554 139 554 C174 554 192 543 216 526 L238 552 C213 571 180 586 139 586 C73 586 37 543 37 501 C37 445 90 424 137 406 C175 392 214 377 214 342 C214 310 188 284 144 284 C102 284 71 301 42 323 L21 296 Z " />
<glyph glyph-name="x.sups" unicode="&#x2e3;" horiz-adv-x="283" d="M8 260 L49 260 L100 340 L138 397 L142 397 L179 340 L230 260 L273 260 L166 423 L266 578 L224 578 L178 503 L147 451 L143 451 L110 503 L61 578 L18 578 L119 427 L8 260 Z " />
<glyph glyph-name="uni0300" unicode="&#x300;" d="M18 572 L56 572 L-36 708 L-88 708 L18 572 Z " />
<glyph glyph-name="uni0301" unicode="&#x301;" d="M88 708 L36 708 L-56 572 L-18 572 L88 708 Z " />
<glyph glyph-name="uni0302" unicode="&#x302;" d="M-114 572 L-77 572 L-2 671 L2 671 L77 572 L114 572 L19 708 L-19 708 L-114 572 Z " />
<glyph glyph-name="uni0303" unicode="&#x303;" d="M-124 581 L-94 581 C-89 616 -77 636 -56 636 C-20 636 6 581 55 581 C103 581 121 628 124 670 L94 670 C89 636 77 615 56 615 C22 615 -6 670 -55 670 C-103 670 -121 624 -124 581 L-124 581 Z " />
<glyph glyph-name="uni0304" unicode="&#x304;" d="M-113 606 L113 606 L113 642 L-113 642 L-113 606 Z " />
<glyph glyph-name="uni0306" unicode="&#x306;" d="M0 576 C82 576 113 644 119 695 L86 695 C80 652 53 608 0 608 C-53 608 -80 652 -86 695 L-119 695 C-113 644 -82 576 0 576 L0 576 Z " />
<glyph glyph-name="uni0307" unicode="&#x307;" d="M0 596 C22 596 38 612 38 637 C38 660 22 676 0 676 C-22 676 -38 660 -38 637 C-38 612 -22 596 0 596 L0 596 Z " />
<glyph glyph-name="uni0308" unicode="&#x308;" d="M-79 598 C-58 598 -42 614 -42 635 C-42 655 -58 671 -79 671 C-100 671 -115 655 -115 635 C-115 614 -100 598 -79 598 L-79 598 Z M79 598 C100 598 115 614 115 635 C115 655 100 671 79 671 C58 671 42 655 42 635 C42 614 58 598 79 598 L79 598 Z " />
<glyph glyph-name="uni0309" unicode="&#x309;" d="M-24 551 C24 564 71 585 71 637 C71 688 16 709 -50 712 L-54 680 C1 678 31 662 31 632 C31 603 4 588 -32 577 L-24 551 Z " />
<glyph glyph-name="uni030A" unicode="&#x30a;" d="M0 539 C47 539 82 574 82 625 C82 677 47 712 0 712 C-47 712 -82 677 -82 625 C-82 574 -47 539 0 539 L0 539 Z M0 565 C-29 565 -52 589 -52 625 C-52 662 -29 686 0 686 C29 686 52 662 52 625 C52 589 29 565 0 565 L0 565 Z " />
<glyph glyph-name="uni030B" unicode="&#x30b;" d="M-82 570 L-48 570 L35 708 L-10 708 L-82 570 Z M51 570 L85 570 L169 708 L123 708 L51 570 Z " />
<glyph glyph-name="uni030C" unicode="&#x30c;" d="M-19 572 L19 572 L114 708 L77 708 L2 609 L-2 609 L-77 708 L-114 708 L-19 572 Z " />
<glyph glyph-name="uni030F" unicode="&#x30f;" d="M10 708 L-35 708 L48 570 L82 570 L10 708 Z M-123 708 L-169 708 L-85 570 L-51 570 L-123 708 Z " />
<glyph glyph-name="uni0312" unicode="&#x312;" d="M27 717 C-24 691 -43 649 -43 607 C-43 567 -28 546 -2 546 C16 546 31 557 31 583 C31 606 12 615 -4 615 C-7 615 -9 615 -12 614 C-11 645 4 672 42 693 L27 717 Z " />
<glyph glyph-name="uni0313" unicode="&#x313;" d="M-27 545 C23 571 43 614 43 656 C43 696 28 717 2 717 C-16 717 -31 706 -31 680 C-31 657 -12 648 3 648 C6 648 9 648 11 649 C10 618 -5 590 -42 570 L-27 545 Z " />
<glyph glyph-name="uni031B" unicode="&#x31b;" d="M-2 440 C73 450 126 479 126 542 C126 562 119 580 107 598 L72 578 C81 565 86 552 86 539 C86 499 56 478 -8 470 L-2 440 Z " />
<glyph glyph-name="uni0323" unicode="&#x323;" d="M0 -194 C22 -194 38 -178 38 -153 C38 -130 22 -114 0 -114 C-22 -114 -38 -130 -38 -153 C-38 -178 -22 -194 0 -194 L0 -194 Z " />
<glyph glyph-name="uni0324" unicode="&#x324;" d="M-79 -191 C-58 -191 -42 -175 -42 -155 C-42 -134 -58 -118 -79 -118 C-100 -118 -115 -134 -115 -155 C-115 -175 -100 -191 -79 -191 L-79 -191 Z M79 -191 C100 -191 115 -175 115 -155 C115 -134 100 -118 79 -118 C58 -118 42 -134 42 -155 C42 -175 58 -191 79 -191 L79 -191 Z " />
<glyph glyph-name="uni0326" unicode="&#x326;" d="M-25 -51 L-38 -80 C-9 -86 19 -98 19 -129 C19 -156 -19 -171 -74 -179 L-67 -209 C-3 -201 58 -176 58 -124 C58 -83 29 -62 -25 -51 L-25 -51 Z " />
<glyph glyph-name="uni0327" unicode="&#x327;" d="M-48 -74 C-9 -84 19 -97 19 -127 C19 -155 -19 -170 -74 -178 L-67 -208 C-3 -200 58 -175 58 -123 C58 -83 30 -65 -2 -54 L27 2 L-8 2 L-48 -74 Z " />
<glyph glyph-name="uni0328" unicode="&#x328;" d="M-54 -122 C-54 -176 -19 -203 27 -203 C48 -203 77 -193 92 -180 L76 -154 C63 -164 50 -168 33 -168 C8 -168 -16 -151 -16 -116 C-16 -73 14 -30 61 4 L17 4 C-19 -25 -54 -71 -54 -122 L-54 -122 Z " />
<glyph glyph-name="uni032E" unicode="&#x32e;" d="M0 -203 C82 -203 113 -135 119 -84 L86 -84 C80 -127 53 -170 0 -170 C-53 -170 -80 -127 -86 -84 L-119 -84 C-113 -135 -82 -203 0 -203 L0 -203 Z " />
<glyph glyph-name="uni0331" unicode="&#x331;" d="M113 -124 L-115 -124 L-115 -160 L113 -160 L113 -124 Z " />
<glyph glyph-name="pi" unicode="&#x3c0;" horiz-adv-x="534" d="M113 0 L157 0 L157 440 L378 440 L378 86 C378 24 398 -12 451 -12 C466 -12 478 -10 494 -3 L486 33 C475 29 467 27 459 27 C433 27 422 50 422 80 L422 440 L501 440 L501 480 L94 480 L27 476 L27 440 L113 440 L113 0 Z " />
<glyph glyph-name="a.sups" unicode="&#x1d43;" horiz-adv-x="337" d="M139 252 C182 252 217 275 245 299 L249 299 L255 260 L285 260 L285 460 C285 536 259 586 182 586 C130 586 82 561 56 543 L71 516 C94 532 138 553 178 553 C233 553 247 512 248 461 C105 448 42 413 42 343 C42 286 82 252 139 252 L139 252 Z M148 284 C107 284 81 303 81 346 C81 391 124 422 248 435 L248 333 C212 300 179 284 148 284 L148 284 Z " />
<glyph glyph-name="b.sups" unicode="&#x1d47;" horiz-adv-x="367" d="M58 260 L87 260 L91 291 L95 291 C125 266 160 252 190 252 C266 252 330 316 330 425 C330 523 287 586 200 586 C159 586 126 563 93 535 L95 598 L95 733 L58 733 L58 260 Z M95 324 L95 502 C129 534 164 553 195 553 C262 553 291 500 291 425 C291 339 247 285 189 285 C162 285 127 296 95 324 L95 324 Z " />
<glyph glyph-name="d.sups" unicode="&#x1d48;" horiz-adv-x="367" d="M174 252 C214 252 242 273 269 297 L273 297 L279 260 L309 260 L309 733 L272 733 L272 605 L274 548 C243 572 214 586 178 586 C103 586 37 523 37 425 C37 314 89 252 174 252 L174 252 Z M180 285 C108 285 76 339 76 425 C76 498 123 553 179 553 C208 553 240 542 272 513 L272 334 C238 303 210 285 180 285 L180 285 Z " />
<glyph glyph-name="e.sups" unicode="&#x1d49;" horiz-adv-x="330" d="M182 252 C229 252 262 269 289 286 L273 313 C251 297 220 284 185 284 C115 284 70 336 69 412 L299 412 C301 428 301 432 301 443 C301 496 277 586 175 586 C96 586 31 521 31 419 C31 311 98 252 182 252 L182 252 Z M69 442 C77 510 117 553 175 553 C243 553 266 493 266 442 L69 442 Z " />
<glyph glyph-name="g.sups" unicode="&#x1d4d;" horiz-adv-x="332" d="M69 202 C69 223 82 244 108 261 C122 257 140 257 149 257 L213 257 C259 257 285 245 285 213 C285 176 239 140 171 140 C106 140 69 163 69 202 L69 202 Z M34 197 C34 142 84 110 165 110 C262 110 322 161 322 217 C322 270 288 292 214 292 L147 292 C102 292 87 307 87 330 C87 349 98 362 111 372 C127 362 146 359 163 359 C227 359 279 405 279 472 C279 500 266 529 248 544 L318 544 L318 576 L213 576 C198 582 184 586 163 586 C98 586 46 540 46 473 C46 435 66 404 87 387 L87 383 C71 372 52 352 52 326 C52 302 64 284 80 274 L80 270 C50 250 34 225 34 197 L34 197 Z M163 389 C116 389 82 423 82 473 C82 524 116 554 163 554 C206 554 244 523 244 473 C244 423 206 389 163 389 L163 389 Z " />
<glyph glyph-name="k.sups" unicode="&#x1d4f;" horiz-adv-x="317" d="M58 260 L95 260 L95 342 L163 423 L268 260 L312 260 L187 450 L295 578 L250 578 L99 397 L95 397 L95 733 L58 733 L58 260 Z " />
<glyph glyph-name="m.sups" unicode="&#x1d50;" horiz-adv-x="548" d="M58 260 L95 260 L95 496 C133 535 159 552 187 552 C242 552 257 515 257 457 L257 260 L295 260 L295 496 C332 535 359 552 387 552 C442 552 457 515 457 457 L457 260 L494 260 L494 464 C494 535 467 586 397 586 C355 586 317 556 286 523 C273 566 242 586 197 586 C155 586 123 562 96 530 L92 530 L87 578 L58 578 L58 260 Z " />
<glyph glyph-name="o.sups" unicode="&#x1d52;" horiz-adv-x="360" d="M179 252 C260 252 325 314 325 419 C325 525 260 586 179 586 C98 586 33 525 33 419 C33 314 98 252 179 252 L179 252 Z M179 285 C115 285 72 340 72 419 C72 499 115 553 179 553 C243 553 286 499 286 419 C286 340 243 285 179 285 L179 285 Z " />
<glyph glyph-name="p.sups" unicode="&#x1d56;" horiz-adv-x="367" d="M58 121 L95 121 L95 231 L93 290 C122 266 160 252 190 252 C266 252 330 316 330 425 C330 523 287 586 200 586 C159 586 125 562 97 538 L93 538 L87 578 L58 578 L58 121 Z M95 324 L95 502 C129 534 164 553 195 553 C262 553 291 500 291 425 C291 339 247 285 189 285 C162 285 127 296 95 324 L95 324 Z " />
<glyph glyph-name="t.sups" unicode="&#x1d57;" horiz-adv-x="216" d="M68 354 C68 294 88 252 153 252 C169 252 193 258 210 264 L200 294 C187 288 173 285 160 285 C120 285 106 311 106 352 L106 545 L199 545 L199 578 L106 578 L106 671 L74 671 L69 578 L18 575 L18 545 L68 545 L68 354 Z " />
<glyph glyph-name="u.sups" unicode="&#x1d58;" horiz-adv-x="363" d="M158 252 C200 252 238 276 267 307 L271 307 L276 260 L305 260 L305 578 L268 578 L268 342 C229 302 197 285 166 285 C108 285 95 323 95 380 L95 578 L57 578 L57 374 C57 302 82 252 158 252 L158 252 Z " />
<glyph glyph-name="v.sups" unicode="&#x1d5b;" horiz-adv-x="301" d="M127 260 L173 260 L293 578 L255 578 L187 387 L152 294 L148 294 L115 387 L47 578 L8 578 L127 260 Z " />
<glyph glyph-name="c.sups" unicode="&#x1d9c;" horiz-adv-x="302" d="M183 252 C231 252 260 270 284 290 L267 316 C246 298 221 285 184 285 C118 285 72 340 72 419 C72 497 120 553 183 553 C218 553 236 543 259 524 L278 550 C257 568 228 586 183 586 C104 586 33 525 33 419 C33 312 96 252 183 252 L183 252 Z " />
<glyph glyph-name="f.sups" unicode="&#x1da0;" horiz-adv-x="183" d="M201 731 C183 739 170 741 151 741 C96 741 67 700 67 637 L67 578 L21 575 L21 547 L67 547 L67 260 L104 260 L104 547 L178 547 L178 578 L104 578 L104 641 C104 680 120 709 153 709 C170 709 182 705 192 701 L201 731 Z " />
<glyph glyph-name="z.sups" unicode="&#x1dbb;" horiz-adv-x="277" d="M19 260 L259 260 L259 293 L68 293 L253 555 L253 578 L40 578 L40 545 L204 545 L19 281 L19 260 Z " />
<glyph glyph-name="uni1E0C" unicode="&#x1e0c;" horiz-adv-x="599" d="M94 0 L247 0 C449 0 546 132 546 332 C546 531 449 659 246 659 L94 659 L94 0 Z M140 39 L140 620 L241 620 C420 620 498 503 498 332 C498 160 420 39 241 39 L140 39 Z M296 -194 C318 -194 334 -178 334 -153 C334 -130 318 -114 296 -114 C275 -114 258 -130 258 -153 C258 -178 275 -194 296 -194 L296 -194 Z " />
<glyph glyph-name="uni1E0D" unicode="&#x1e0d;" horiz-adv-x="544" d="M52 239 C52 77 130 -12 251 -12 C315 -12 368 23 407 62 L410 62 L414 0 L452 0 L452 719 L408 719 L408 521 L410 433 C362 470 323 492 265 492 C151 492 52 394 52 239 L52 239 Z M99 239 C99 360 172 453 268 453 C315 453 357 436 408 391 L408 106 C357 55 310 27 257 27 C155 27 99 112 99 239 L99 239 Z M296 -194 C318 -194 334 -178 334 -153 C334 -130 318 -114 296 -114 C275 -114 258 -130 258 -153 C258 -178 275 -194 296 -194 L296 -194 Z " />
<glyph glyph-name="uni1E0E" unicode="&#x1e0e;" horiz-adv-x="599" d="M94 0 L247 0 C449 0 546 132 546 332 C546 531 449 659 246 659 L94 659 L94 0 Z M140 39 L140 620 L241 620 C420 620 498 503 498 332 C498 160 420 39 241 39 L140 39 Z M410 -124 L181 -124 L181 -160 L410 -160 L410 -124 Z " />
<glyph glyph-name="uni1E0F" unicode="&#x1e0f;" horiz-adv-x="544" d="M52 239 C52 77 130 -12 251 -12 C315 -12 368 23 407 62 L410 62 L414 0 L452 0 L452 719 L408 719 L408 521 L410 433 C362 470 323 492 265 492 C151 492 52 394 52 239 L52 239 Z M99 239 C99 360 172 453 268 453 C315 453 357 436 408 391 L408 106 C357 55 310 27 257 27 C155 27 99 112 99 239 L99 239 Z M409 -124 L180 -124 L180 -160 L409 -160 L409 -124 Z " />
<glyph glyph-name="uni1E20" unicode="&#x1e20;" horiz-adv-x="597" d="M51 331 C51 121 165 -12 334 -12 C420 -12 488 19 529 63 L529 324 L328 324 L328 285 L485 285 L485 80 C453 48 397 30 338 30 C188 30 99 148 99 331 C99 514 192 629 343 629 C415 629 461 599 495 562 L522 592 C487 629 432 671 343 671 C169 671 51 540 51 331 L51 331 Z M228 734 L456 734 L456 770 L228 770 L228 734 Z " />
<glyph glyph-name="uni1E21" unicode="&#x1e21;" horiz-adv-x="487" d="M94 -94 C94 -60 113 -23 157 7 C182 1 207 -1 217 -1 L320 -1 C392 -1 431 -21 431 -74 C431 -134 362 -195 254 -195 C152 -195 94 -154 94 -94 L94 -94 Z M52 -98 C52 -179 128 -231 249 -231 C387 -231 476 -152 476 -69 C476 7 426 41 318 41 L215 41 C143 41 123 69 123 104 C123 136 141 156 162 173 C184 160 215 153 242 153 C336 153 409 224 409 322 C409 373 387 416 356 443 L468 443 L468 480 L305 480 C290 486 268 492 242 492 C148 492 73 422 73 323 C73 265 103 217 133 191 L133 187 C112 172 81 142 81 99 C81 62 99 36 123 22 L123 18 C79 -14 52 -56 52 -98 L52 -98 Z M242 188 C175 188 117 242 117 323 C117 405 174 456 242 456 C310 456 366 404 366 323 C366 242 308 188 242 188 L242 188 Z M119 606 L346 606 L346 642 L119 642 L119 606 Z " />
<glyph glyph-name="uni1E24" unicode="&#x1e24;" horiz-adv-x="632" d="M94 0 L140 0 L140 330 L492 330 L492 0 L538 0 L538 659 L492 659 L492 370 L140 370 L140 659 L94 659 L94 0 Z M316 -194 C337 -194 354 -178 354 -153 C354 -130 337 -114 316 -114 C294 -114 278 -130 278 -153 C278 -178 294 -194 316 -194 L316 -194 Z " />
<glyph glyph-name="uni1E25" unicode="&#x1e25;" horiz-adv-x="528" d="M92 0 L136 0 L136 362 C195 422 236 452 293 452 C371 452 403 404 403 302 L403 0 L447 0 L447 308 C447 432 401 492 302 492 C236 492 186 455 136 405 L136 511 L136 719 L92 719 L92 0 Z M282 -194 C303 -194 320 -178 320 -153 C320 -130 303 -114 282 -114 C260 -114 244 -130 244 -153 C244 -178 260 -194 282 -194 L282 -194 Z " />
<glyph glyph-name="uni1E2A" unicode="&#x1e2a;" horiz-adv-x="632" d="M94 0 L140 0 L140 330 L492 330 L492 0 L538 0 L538 659 L492 659 L492 370 L140 370 L140 659 L94 659 L94 0 Z M316 -203 C397 -203 429 -135 435 -84 L402 -84 C396 -127 369 -170 316 -170 C262 -170 236 -127 230 -84 L197 -84 C202 -135 234 -203 316 -203 L316 -203 Z " />
<glyph glyph-name="uni1E2B" unicode="&#x1e2b;" horiz-adv-x="528" d="M92 0 L136 0 L136 362 C195 422 236 452 293 452 C371 452 403 404 403 302 L403 0 L447 0 L447 308 C447 432 401 492 302 492 C236 492 186 455 136 405 L136 511 L136 719 L92 719 L92 0 Z M281 -203 C362 -203 394 -135 400 -84 L367 -84 C361 -127 334 -170 281 -170 C227 -170 201 -127 195 -84 L162 -84 C167 -135 199 -203 281 -203 L281 -203 Z " />
<glyph glyph-name="uni1E36" unicode="&#x1e36;" horiz-adv-x="460" d="M94 0 L443 0 L443 40 L140 40 L140 659 L94 659 L94 0 Z M283 -194 C305 -194 321 -178 321 -153 C321 -130 305 -114 283 -114 C261 -114 245 -130 245 -153 C245 -178 261 -194 283 -194 L283 -194 Z " />
<glyph glyph-name="uni1E37" unicode="&#x1e37;" horiz-adv-x="237" d="M92 64 C92 12 112 -12 151 -12 C165 -12 174 -10 183 -7 L175 29 C165 27 161 27 157 27 C145 27 136 37 136 58 L136 719 L92 719 L92 64 Z M158 -194 C180 -194 196 -178 196 -153 C196 -130 180 -114 158 -114 C137 -114 120 -130 120 -153 C120 -178 137 -194 158 -194 L158 -194 Z " />
<glyph glyph-name="uni1E38" unicode="&#x1e38;" horiz-adv-x="460" d="M94 0 L443 0 L443 40 L140 40 L140 659 L94 659 L94 0 Z M5 734 L233 734 L233 770 L5 770 L5 734 Z M283 -194 C305 -194 321 -178 321 -153 C321 -130 305 -114 283 -114 C261 -114 245 -130 245 -153 C245 -178 261 -194 283 -194 L283 -194 Z " />
<glyph glyph-name="uni1E39" unicode="&#x1e39;" horiz-adv-x="237" d="M92 64 C92 12 112 -12 151 -12 C165 -12 174 -10 183 -7 L175 29 C165 27 161 27 157 27 C145 27 136 37 136 58 L136 719 L92 719 L92 64 Z M0 832 L227 832 L227 868 L0 868 L0 832 Z M158 -194 C180 -194 196 -178 196 -153 C196 -130 180 -114 158 -114 C137 -114 120 -130 120 -153 C120 -178 137 -194 158 -194 L158 -194 Z " />
<glyph glyph-name="uni1E3A" unicode="&#x1e3a;" horiz-adv-x="460" d="M94 0 L443 0 L443 40 L140 40 L140 659 L94 659 L94 0 Z M396 -124 L168 -124 L168 -160 L396 -160 L396 -124 Z " />
<glyph glyph-name="uni1E3B" unicode="&#x1e3b;" horiz-adv-x="237" d="M92 64 C92 12 112 -12 151 -12 C165 -12 174 -10 183 -7 L175 29 C165 27 161 27 157 27 C145 27 136 37 136 58 L136 719 L92 719 L92 64 Z M272 -124 L43 -124 L43 -160 L272 -160 L272 -124 Z " />
<glyph glyph-name="uni1E42" unicode="&#x1e42;" horiz-adv-x="699" d="M94 0 L136 0 L136 433 C136 487 133 556 131 611 L135 611 L187 466 L329 72 L369 72 L511 466 L562 611 L566 611 C563 556 560 487 560 433 L560 0 L605 0 L605 659 L540 659 L403 272 L352 126 L348 126 L296 272 L158 659 L94 659 L94 0 Z M350 -194 C372 -194 388 -178 388 -153 C388 -130 372 -114 350 -114 C329 -114 312 -130 312 -153 C312 -178 329 -194 350 -194 L350 -194 Z " />
<glyph glyph-name="uni1E43" unicode="&#x1e43;" horiz-adv-x="812" d="M92 0 L136 0 L136 362 C189 422 237 452 280 452 C354 452 388 404 388 302 L388 0 L432 0 L432 362 C485 422 531 452 576 452 C649 452 683 404 683 302 L683 0 L728 0 L728 308 C728 432 680 492 584 492 C529 492 476 454 421 394 C404 453 365 492 288 492 C235 492 180 455 137 406 L134 406 L130 480 L92 480 L92 0 Z M419 -194 C440 -194 457 -178 457 -153 C457 -130 440 -114 419 -114 C397 -114 381 -130 381 -153 C381 -178 397 -194 419 -194 L419 -194 Z " />
<glyph glyph-name="uni1E44" unicode="&#x1e44;" horiz-adv-x="629" d="M94 0 L137 0 L137 409 C137 473 134 533 131 596 L135 596 L210 465 L487 0 L535 0 L535 659 L492 659 L492 255 C492 191 495 127 498 63 L494 63 L419 194 L142 659 L94 659 L94 0 Z M319 721 C341 721 359 737 359 762 C359 785 341 801 319 801 C297 801 279 785 279 762 C279 737 297 721 319 721 L319 721 Z " />
<glyph glyph-name="uni1E45" unicode="&#x1e45;" horiz-adv-x="532" d="M92 0 L136 0 L136 362 C195 422 236 452 293 452 C371 452 403 404 403 302 L403 0 L447 0 L447 308 C447 432 401 492 302 492 C236 492 186 455 137 406 L134 406 L130 480 L92 480 L92 0 Z M283 596 C304 596 321 612 321 637 C321 660 304 676 283 676 C261 676 244 660 244 637 C244 612 261 596 283 596 L283 596 Z " />
<glyph glyph-name="uni1E46" unicode="&#x1e46;" horiz-adv-x="629" d="M94 0 L137 0 L137 409 C137 473 134 533 131 596 L135 596 L210 465 L487 0 L535 0 L535 659 L492 659 L492 255 C492 191 495 127 498 63 L494 63 L419 194 L142 659 L94 659 L94 0 Z M315 -194 C337 -194 353 -178 353 -153 C353 -130 337 -114 315 -114 C293 -114 277 -130 277 -153 C277 -178 293 -194 315 -194 L315 -194 Z " />
<glyph glyph-name="uni1E47" unicode="&#x1e47;" horiz-adv-x="532" d="M92 0 L136 0 L136 362 C195 422 236 452 293 452 C371 452 403 404 403 302 L403 0 L447 0 L447 308 C447 432 401 492 302 492 C236 492 186 455 137 406 L134 406 L130 480 L92 480 L92 0 Z M273 -194 C294 -194 311 -178 311 -153 C311 -130 294 -114 273 -114 C251 -114 235 -130 235 -153 C235 -178 251 -194 273 -194 L273 -194 Z " />
<glyph glyph-name="uni1E48" unicode="&#x1e48;" horiz-adv-x="629" d="M94 0 L137 0 L137 409 C137 473 134 533 131 596 L135 596 L210 465 L487 0 L535 0 L535 659 L492 659 L492 255 C492 191 495 127 498 63 L494 63 L419 194 L142 659 L94 659 L94 0 Z M428 -124 L200 -124 L200 -160 L428 -160 L428 -124 Z " />
<glyph glyph-name="uni1E49" unicode="&#x1e49;" horiz-adv-x="532" d="M92 0 L136 0 L136 362 C195 422 236 452 293 452 C371 452 403 404 403 302 L403 0 L447 0 L447 308 C447 432 401 492 302 492 C236 492 186 455 137 406 L134 406 L130 480 L92 480 L92 0 Z M385 -124 L156 -124 L156 -160 L385 -160 L385 -124 Z " />
<glyph glyph-name="uni1E5A" unicode="&#x1e5a;" horiz-adv-x="553" d="M295 -114 C274 -114 257 -130 257 -153 C257 -178 274 -194 295 -194 C317 -194 333 -178 333 -153 C333 -130 317 -114 295 -114 L295 -114 Z M140 341 L140 620 L270 620 C387 620 451 584 451 485 C451 388 387 341 270 341 L140 341 Z M330 306 C433 320 499 380 499 485 C499 611 413 659 282 659 L94 659 L94 0 L140 0 L140 303 L280 303 L458 0 L511 0 L330 306 Z " />
<glyph glyph-name="uni1E5B" unicode="&#x1e5b;" horiz-adv-x="317" d="M92 0 L136 0 L136 327 C173 417 224 450 267 450 C286 450 295 448 311 442 L321 482 C305 490 291 492 273 492 C216 492 169 450 137 391 L134 391 L130 480 L92 480 L92 0 Z M113 -194 C134 -194 151 -178 151 -153 C151 -130 134 -114 113 -114 C91 -114 74 -130 74 -153 C74 -178 91 -194 113 -194 L113 -194 Z " />
<glyph glyph-name="uni1E5C" unicode="&#x1e5c;" horiz-adv-x="553" d="M395 770 L167 770 L167 734 L395 734 L395 770 Z M295 -114 C274 -114 257 -130 257 -153 C257 -178 274 -194 295 -194 C317 -194 333 -178 333 -153 C333 -130 317 -114 295 -114 L295 -114 Z M140 341 L140 620 L270 620 C387 620 451 584 451 485 C451 388 387 341 270 341 L140 341 Z M330 306 C433 320 499 380 499 485 C499 611 413 659 282 659 L94 659 L94 0 L140 0 L140 303 L280 303 L458 0 L511 0 L330 306 Z " />
<glyph glyph-name="uni1E5D" unicode="&#x1e5d;" horiz-adv-x="317" d="M92 0 L136 0 L136 327 C173 417 224 450 267 450 C286 450 295 448 311 442 L321 482 C305 490 291 492 273 492 C216 492 169 450 137 391 L134 391 L130 480 L92 480 L92 0 Z M87 606 L314 606 L314 642 L87 642 L87 606 Z M113 -194 C134 -194 151 -178 151 -153 C151 -130 134 -114 113 -114 C91 -114 74 -130 74 -153 C74 -178 91 -194 113 -194 L113 -194 Z " />
<glyph glyph-name="uni1E5E" unicode="&#x1e5e;" horiz-adv-x="553" d="M180 -160 L409 -160 L409 -124 L180 -124 L180 -160 Z M140 341 L140 620 L270 620 C387 620 451 584 451 485 C451 388 387 341 270 341 L140 341 Z M330 306 C433 320 499 380 499 485 C499 611 413 659 282 659 L94 659 L94 0 L140 0 L140 303 L280 303 L458 0 L511 0 L330 306 Z " />
<glyph glyph-name="uni1E5F" unicode="&#x1e5f;" horiz-adv-x="317" d="M92 0 L136 0 L136 327 C173 417 224 450 267 450 C286 450 295 448 311 442 L321 482 C305 490 291 492 273 492 C216 492 169 450 137 391 L134 391 L130 480 L92 480 L92 0 Z M225 -124 L-4 -124 L-4 -160 L225 -160 L225 -124 Z " />
<glyph glyph-name="uni1E60" unicode="&#x1e60;" horiz-adv-x="514" d="M43 87 C95 29 169 -12 265 -12 C393 -12 476 64 476 165 C476 266 411 307 338 340 L238 384 C190 406 124 435 124 511 C124 583 182 629 269 629 C335 629 388 602 426 561 L453 592 C413 635 349 671 269 671 C160 671 78 604 78 509 C78 411 154 370 211 345 L311 300 C376 271 430 244 430 162 C430 84 366 30 266 30 C189 30 120 65 72 119 L43 87 Z M268 721 C290 721 308 737 308 762 C308 785 290 801 268 801 C246 801 228 785 228 762 C228 737 246 721 268 721 L268 721 Z " />
<glyph glyph-name="uni1E61" unicode="&#x1e61;" horiz-adv-x="405" d="M32 54 C75 18 137 -12 208 -12 C312 -12 370 51 370 123 C370 217 288 242 213 270 C156 291 100 314 100 367 C100 411 134 454 208 454 C257 454 291 435 323 411 L347 442 C312 471 261 492 210 492 C110 492 55 434 55 364 C55 282 135 253 208 227 C263 207 325 181 325 121 C325 70 286 26 211 26 C142 26 99 53 58 87 L32 54 Z M211 596 C232 596 249 612 249 637 C249 660 232 676 211 676 C189 676 172 660 172 637 C172 612 189 596 211 596 L211 596 Z " />
<glyph glyph-name="uni1E62" unicode="&#x1e62;" horiz-adv-x="514" d="M43 87 C95 29 169 -12 265 -12 C393 -12 476 64 476 165 C476 266 411 307 338 340 L238 384 C190 406 124 435 124 511 C124 583 182 629 269 629 C335 629 388 602 426 561 L453 592 C413 635 349 671 269 671 C160 671 78 604 78 509 C78 411 154 370 211 345 L311 300 C376 271 430 244 430 162 C430 84 366 30 266 30 C189 30 120 65 72 119 L43 87 Z M265 -194 C287 -194 303 -178 303 -153 C303 -130 287 -114 265 -114 C243 -114 227 -130 227 -153 C227 -178 243 -194 265 -194 L265 -194 Z " />
<glyph glyph-name="uni1E63" unicode="&#x1e63;" horiz-adv-x="405" d="M32 54 C75 18 137 -12 208 -12 C312 -12 370 51 370 123 C370 217 288 242 213 270 C156 291 100 314 100 367 C100 411 134 454 208 454 C257 454 291 435 323 411 L347 442 C312 471 261 492 210 492 C110 492 55 434 55 364 C55 282 135 253 208 227 C263 207 325 181 325 121 C325 70 286 26 211 26 C142 26 99 53 58 87 L32 54 Z M218 -194 C240 -194 256 -178 256 -153 C256 -130 240 -114 218 -114 C196 -114 180 -130 180 -153 C180 -178 196 -194 218 -194 L218 -194 Z " />
<glyph glyph-name="uni1E6C" unicode="&#x1e6c;" horiz-adv-x="517" d="M236 0 L282 0 L282 619 L491 619 L491 659 L26 659 L26 619 L236 619 L236 0 Z M260 -194 C281 -194 298 -178 298 -153 C298 -130 281 -114 260 -114 C238 -114 221 -130 221 -153 C221 -178 238 -194 260 -194 L260 -194 Z " />
<glyph glyph-name="uni1E6D" unicode="&#x1e6d;" horiz-adv-x="312" d="M103 133 C103 47 130 -12 223 -12 C243 -12 273 -4 301 6 L289 42 C272 34 247 27 229 27 C163 27 148 68 148 129 L148 442 L287 442 L287 480 L148 480 L148 619 L110 619 L104 480 L28 476 L28 442 L103 442 L103 133 Z M201 -194 C222 -194 239 -178 239 -153 C239 -130 222 -114 201 -114 C179 -114 163 -130 163 -153 C163 -178 179 -194 201 -194 L201 -194 Z " />
<glyph glyph-name="uni1E6E" unicode="&#x1e6e;" horiz-adv-x="517" d="M236 0 L282 0 L282 619 L491 619 L491 659 L26 659 L26 619 L236 619 L236 0 Z M373 -124 L144 -124 L144 -160 L373 -160 L373 -124 Z " />
<glyph glyph-name="uni1E6F" unicode="&#x1e6f;" horiz-adv-x="312" d="M103 133 C103 47 130 -12 223 -12 C243 -12 273 -4 301 6 L289 42 C272 34 247 27 229 27 C163 27 148 68 148 129 L148 442 L287 442 L287 480 L148 480 L148 619 L110 619 L104 480 L28 476 L28 442 L103 442 L103 133 Z M313 -124 L85 -124 L85 -160 L313 -160 L313 -124 Z " />
<glyph glyph-name="Wgrave" unicode="&#x1e80;" horiz-adv-x="763" d="M174 0 L225 0 L343 452 C355 504 368 549 379 601 L383 601 C395 549 406 504 418 452 L538 0 L589 0 L737 659 L691 659 L609 271 C594 199 580 128 565 56 L561 56 C544 128 526 199 509 271 L405 659 L359 659 L255 271 C238 199 220 127 205 56 L201 56 C186 127 171 199 155 271 L73 659 L24 659 L174 0 Z M378 709 L419 709 L326 815 L269 815 L378 709 Z " />
<glyph glyph-name="wgrave" unicode="&#x1e81;" horiz-adv-x="685" d="M166 0 L219 0 L302 296 C317 342 329 388 340 435 L344 435 C358 388 367 344 381 298 L465 0 L523 0 L661 480 L616 480 L531 169 C520 125 508 84 497 41 L493 41 C481 84 469 125 457 169 L370 480 L317 480 L230 169 C218 125 206 84 195 41 L191 41 C181 84 170 125 158 169 L72 480 L24 480 L166 0 Z M361 572 L399 572 L307 708 L255 708 L361 572 Z " />
<glyph glyph-name="Wacute" unicode="&#x1e82;" horiz-adv-x="763" d="M174 0 L225 0 L343 452 C355 504 368 549 379 601 L383 601 C395 549 406 504 418 452 L538 0 L589 0 L737 659 L691 659 L609 271 C594 199 580 128 565 56 L561 56 C544 128 526 199 509 271 L405 659 L359 659 L255 271 C238 199 220 127 205 56 L201 56 C186 127 171 199 155 271 L73 659 L24 659 L174 0 Z M494 815 L437 815 L344 709 L385 709 L494 815 Z " />
<glyph glyph-name="wacute" unicode="&#x1e83;" horiz-adv-x="685" d="M166 0 L219 0 L302 296 C317 342 329 388 340 435 L344 435 C358 388 367 344 381 298 L465 0 L523 0 L661 480 L616 480 L531 169 C520 125 508 84 497 41 L493 41 C481 84 469 125 457 169 L370 480 L317 480 L230 169 C218 125 206 84 195 41 L191 41 C181 84 170 125 158 169 L72 480 L24 480 L166 0 Z M432 708 L379 708 L288 572 L325 572 L432 708 Z " />
<glyph glyph-name="Wdieresis" unicode="&#x1e84;" horiz-adv-x="763" d="M174 0 L225 0 L343 452 C355 504 368 549 379 601 L383 601 C395 549 406 504 418 452 L538 0 L589 0 L737 659 L691 659 L609 271 C594 199 580 128 565 56 L561 56 C544 128 526 199 509 271 L405 659 L359 659 L255 271 C238 199 220 127 205 56 L201 56 C186 127 171 199 155 271 L73 659 L24 659 L174 0 Z M303 725 C323 725 339 739 339 761 C339 784 323 798 303 798 C282 798 266 784 266 761 C266 739 282 725 303 725 L303 725 Z M460 725 C481 725 497 739 497 761 C497 784 481 798 460 798 C439 798 424 784 424 761 C424 739 439 725 460 725 L460 725 Z " />
<glyph glyph-name="wdieresis" unicode="&#x1e85;" horiz-adv-x="685" d="M166 0 L219 0 L302 296 C317 342 329 388 340 435 L344 435 C358 388 367 344 381 298 L465 0 L523 0 L661 480 L616 480 L531 169 C520 125 508 84 497 41 L493 41 C481 84 469 125 457 169 L370 480 L317 480 L230 169 C218 125 206 84 195 41 L191 41 C181 84 170 125 158 169 L72 480 L24 480 L166 0 Z M265 598 C285 598 301 614 301 635 C301 655 285 671 265 671 C244 671 228 655 228 635 C228 614 244 598 265 598 L265 598 Z M422 598 C443 598 459 614 459 635 C459 655 443 671 422 671 C401 671 386 655 386 635 C386 614 401 598 422 598 L422 598 Z " />
<glyph glyph-name="uni1E8E" unicode="&#x1e8e;" horiz-adv-x="440" d="M197 0 L243 0 L243 267 L441 659 L394 659 L294 453 C272 405 247 359 222 311 L218 311 C193 359 171 405 148 453 L48 659 L-1 659 L197 267 L197 0 Z M220 721 C242 721 260 737 260 762 C260 785 242 801 220 801 C198 801 180 785 180 762 C180 737 198 721 220 721 L220 721 Z " />
<glyph glyph-name="uni1E8F" unicode="&#x1e8f;" horiz-adv-x="436" d="M34 -170 L24 -209 C37 -215 55 -219 73 -219 C159 -219 207 -140 234 -60 L424 480 L379 480 L276 178 C263 138 247 86 232 44 L228 44 C210 86 191 138 176 178 L60 480 L12 480 L209 -9 L196 -51 C172 -124 132 -178 73 -178 C59 -178 44 -174 34 -170 L34 -170 Z M229 596 C251 596 267 612 267 637 C267 660 251 676 229 676 C208 676 191 660 191 637 C191 612 208 596 229 596 L229 596 Z " />
<glyph glyph-name="uni1E92" unicode="&#x1e92;" horiz-adv-x="531" d="M46 0 L487 0 L487 40 L104 40 L483 632 L483 659 L80 659 L80 619 L426 619 L46 27 L46 0 Z M278 -194 C299 -194 316 -178 316 -153 C316 -130 299 -114 278 -114 C256 -114 239 -130 239 -153 C239 -178 256 -194 278 -194 L278 -194 Z " />
<glyph glyph-name="uni1E93" unicode="&#x1e93;" horiz-adv-x="404" d="M27 0 L378 0 L378 39 L85 39 L368 457 L368 480 L58 480 L58 442 L311 442 L27 24 L27 0 Z M218 -194 C239 -194 256 -178 256 -153 C256 -130 239 -114 218 -114 C196 -114 180 -130 180 -153 C180 -178 196 -194 218 -194 L218 -194 Z " />
<glyph glyph-name="uni1E97" unicode="&#x1e97;" horiz-adv-x="312" d="M103 133 C103 47 130 -12 223 -12 C243 -12 273 -4 301 6 L289 42 C272 34 247 27 229 27 C163 27 148 68 148 129 L148 442 L287 442 L287 480 L148 480 L148 619 L110 619 L104 480 L28 476 L28 442 L103 442 L103 133 Z M51 731 C72 731 88 747 88 768 C88 788 72 804 51 804 C30 804 15 788 15 768 C15 747 30 731 51 731 L51 731 Z M209 731 C230 731 246 747 246 768 C246 788 230 804 209 804 C188 804 172 788 172 768 C172 747 188 731 209 731 L209 731 Z " />
<glyph glyph-name="uni1E9E" unicode="&#x1e9e;" horiz-adv-x="637" d="M94 0 L140 0 L140 409 C140 562 216 630 333 630 C408 630 456 588 481 535 L328 365 L331 330 C509 302 547 241 547 166 C547 87 498 29 412 29 C353 29 308 51 266 99 L236 67 C278 17 343 -12 413 -12 C518 -12 596 65 596 167 C596 260 542 337 379 363 L534 533 C495 616 436 671 335 671 C176 671 94 564 94 422 L94 0 Z " />
<glyph glyph-name="uni1EA0" unicode="&#x1ea0;" horiz-adv-x="519" d="M259 -114 C238 -114 221 -130 221 -153 C221 -178 238 -194 259 -194 C281 -194 297 -178 297 -153 C297 -130 281 -114 259 -114 L259 -114 Z M142 265 L184 388 C211 466 234 535 257 616 L261 616 C284 535 308 466 334 388 L376 265 L142 265 Z M515 0 L283 659 L237 659 L4 0 L51 0 L128 226 L389 226 L466 0 L515 0 Z " />
<glyph glyph-name="uni1EA1" unicode="&#x1ea1;" horiz-adv-x="499" d="M65 120 C65 29 129 -12 205 -12 C268 -12 326 23 375 62 L377 62 L382 0 L419 0 L419 307 C419 410 381 492 267 492 C189 492 123 454 89 430 L109 397 C141 421 197 453 262 453 C356 453 377 374 375 301 C162 277 65 226 65 120 L65 120 Z M111 122 C111 198 178 244 375 267 L375 104 C316 53 267 26 212 26 C157 26 111 53 111 122 L111 122 Z M246 -194 C268 -194 284 -178 284 -153 C284 -130 268 -114 246 -114 C225 -114 208 -130 208 -153 C208 -178 225 -194 246 -194 L246 -194 Z " />
<glyph glyph-name="uni1EA2" unicode="&#x1ea2;" horiz-adv-x="519" d="M236 702 C283 715 330 737 330 789 C330 839 275 861 209 863 L205 831 C260 829 291 814 291 783 C291 755 264 740 227 729 L236 702 Z M142 265 L184 388 C211 466 234 535 257 616 L261 616 C284 535 308 466 334 388 L376 265 L142 265 Z M466 0 L515 0 L283 659 L237 659 L4 0 L51 0 L128 226 L389 226 L466 0 Z " />
<glyph glyph-name="uni1EA3" unicode="&#x1ea3;" horiz-adv-x="499" d="M65 120 C65 29 129 -12 205 -12 C268 -12 326 23 375 62 L377 62 L382 0 L419 0 L419 307 C419 410 381 492 267 492 C189 492 123 454 89 430 L109 397 C141 421 197 453 262 453 C356 453 377 374 375 301 C162 277 65 226 65 120 L65 120 Z M111 122 C111 198 178 244 375 267 L375 104 C316 53 267 26 212 26 C157 26 111 53 111 122 L111 122 Z M239 551 C287 564 333 585 333 637 C333 688 279 709 213 712 L209 680 C263 678 294 662 294 632 C294 603 267 588 231 577 L239 551 Z " />
<glyph glyph-name="uni1EA4" unicode="&#x1ea4;" horiz-adv-x="519" d="M457 876 L410 876 L338 770 L371 770 L457 876 Z M257 775 L261 775 L331 709 L370 709 L279 809 L239 809 L149 709 L188 709 L257 775 Z M142 265 L184 388 C211 466 234 535 257 616 L261 616 C284 535 308 466 334 388 L376 265 L142 265 Z M466 0 L515 0 L283 659 L237 659 L4 0 L51 0 L128 226 L389 226 L466 0 Z " />
<glyph glyph-name="uni1EA5" unicode="&#x1ea5;" horiz-adv-x="499" d="M65 120 C65 29 129 -12 205 -12 C268 -12 326 23 375 62 L377 62 L382 0 L419 0 L419 307 C419 410 381 492 267 492 C189 492 123 454 89 430 L109 397 C141 421 197 453 262 453 C356 453 377 374 375 301 C162 277 65 226 65 120 L65 120 Z M111 122 C111 198 178 244 375 267 L375 104 C316 53 267 26 212 26 C157 26 111 53 111 122 L111 122 Z M159 572 L195 572 L261 650 L265 650 L330 572 L366 572 L282 686 L243 686 L159 572 Z M341 637 L373 637 L464 748 L417 748 L341 637 Z " />
<glyph glyph-name="uni1EA6" unicode="&#x1ea6;" horiz-adv-x="519" d="M411 770 L340 876 L292 876 L378 770 L411 770 Z M257 775 L261 775 L331 709 L370 709 L279 809 L239 809 L149 709 L188 709 L257 775 Z M142 265 L184 388 C211 466 234 535 257 616 L261 616 C284 535 308 466 334 388 L376 265 L142 265 Z M466 0 L515 0 L283 659 L237 659 L4 0 L51 0 L128 226 L389 226 L466 0 Z " />
<glyph glyph-name="uni1EA7" unicode="&#x1ea7;" horiz-adv-x="499" d="M65 120 C65 29 129 -12 205 -12 C268 -12 326 23 375 62 L377 62 L382 0 L419 0 L419 307 C419 410 381 492 267 492 C189 492 123 454 89 430 L109 397 C141 421 197 453 262 453 C356 453 377 374 375 301 C162 277 65 226 65 120 L65 120 Z M111 122 C111 198 178 244 375 267 L375 104 C316 53 267 26 212 26 C157 26 111 53 111 122 L111 122 Z M159 572 L195 572 L261 650 L265 650 L330 572 L366 572 L282 686 L243 686 L159 572 Z M358 748 L312 748 L402 637 L435 637 L358 748 Z " />
<glyph glyph-name="uni1EA8" unicode="&#x1ea8;" horiz-adv-x="519" d="M361 757 C399 766 440 785 440 831 C440 878 394 896 335 899 L329 868 C378 866 402 856 402 826 C402 803 380 791 351 784 L361 757 Z M257 775 L261 775 L331 709 L370 709 L279 809 L239 809 L149 709 L188 709 L257 775 Z M142 265 L184 388 C211 466 234 535 257 616 L261 616 C284 535 308 466 334 388 L376 265 L142 265 Z M466 0 L515 0 L283 659 L237 659 L4 0 L51 0 L128 226 L389 226 L466 0 Z " />
<glyph glyph-name="uni1EA9" unicode="&#x1ea9;" horiz-adv-x="499" d="M65 120 C65 29 129 -12 205 -12 C268 -12 326 23 375 62 L377 62 L382 0 L419 0 L419 307 C419 410 381 492 267 492 C189 492 123 454 89 430 L109 397 C141 421 197 453 262 453 C356 453 377 374 375 301 C162 277 65 226 65 120 L65 120 Z M111 122 C111 198 178 244 375 267 L375 104 C316 53 267 26 212 26 C157 26 111 53 111 122 L111 122 Z M159 572 L195 572 L261 650 L265 650 L330 572 L366 572 L282 686 L243 686 L159 572 Z M365 628 C403 640 445 658 445 704 C445 752 398 772 339 774 L335 745 C384 743 407 729 407 699 C407 676 386 663 357 653 L365 628 Z " />
<glyph glyph-name="uni1EAA" unicode="&#x1eaa;" horiz-adv-x="519" d="M352 924 C348 894 332 875 311 875 C276 875 256 924 208 924 C162 924 140 881 137 843 L166 843 C171 873 186 892 208 892 C243 892 262 843 310 843 C357 843 378 886 381 924 L352 924 Z M239 809 L149 709 L188 709 L257 775 L261 775 L331 709 L370 709 L279 809 L239 809 Z M142 265 L184 388 C211 466 234 535 257 616 L261 616 C284 535 308 466 334 388 L376 265 L142 265 Z M466 0 L515 0 L283 659 L237 659 L4 0 L51 0 L128 226 L389 226 L466 0 Z " />
<glyph glyph-name="uni1EAB" unicode="&#x1eab;" horiz-adv-x="499" d="M65 120 C65 29 129 -12 205 -12 C268 -12 326 23 375 62 L377 62 L382 0 L419 0 L419 307 C419 410 381 492 267 492 C189 492 123 454 89 430 L109 397 C141 421 197 453 262 453 C356 453 377 374 375 301 C162 277 65 226 65 120 L65 120 Z M111 122 C111 198 178 244 375 267 L375 104 C316 53 267 26 212 26 C157 26 111 53 111 122 L111 122 Z M151 570 L188 570 L261 639 L265 639 L337 570 L374 570 L283 670 L242 670 L151 570 Z M170 706 C174 736 190 751 211 751 C246 751 265 706 313 706 C360 706 381 745 384 783 L355 783 C351 753 335 738 314 738 C279 738 261 783 212 783 C165 783 144 744 141 706 L170 706 Z " />
<glyph glyph-name="uni1EAC" unicode="&#x1eac;" horiz-adv-x="519" d="M257 781 L261 781 L336 709 L376 709 L280 815 L238 815 L142 709 L182 709 L257 781 Z M259 -114 C238 -114 221 -130 221 -153 C221 -178 238 -194 259 -194 C281 -194 297 -178 297 -153 C297 -130 281 -114 259 -114 L259 -114 Z M142 265 L184 388 C211 466 234 535 257 616 L261 616 C284 535 308 466 334 388 L376 265 L142 265 Z M515 0 L283 659 L237 659 L4 0 L51 0 L128 226 L389 226 L466 0 L515 0 Z " />
<glyph glyph-name="uni1EAD" unicode="&#x1ead;" horiz-adv-x="499" d="M65 120 C65 29 129 -12 205 -12 C268 -12 326 23 375 62 L377 62 L382 0 L419 0 L419 307 C419 410 381 492 267 492 C189 492 123 454 89 430 L109 397 C141 421 197 453 262 453 C356 453 377 374 375 301 C162 277 65 226 65 120 L65 120 Z M111 122 C111 198 178 244 375 267 L375 104 C316 53 267 26 212 26 C157 26 111 53 111 122 L111 122 Z M149 572 L186 572 L261 671 L265 671 L339 572 L376 572 L282 708 L243 708 L149 572 Z M246 -194 C268 -194 284 -178 284 -153 C284 -130 268 -114 246 -114 C225 -114 208 -130 208 -153 C208 -178 225 -194 246 -194 L246 -194 Z " />
<glyph glyph-name="uni1EAE" unicode="&#x1eae;" horiz-adv-x="519" d="M352 896 L304 896 L224 799 L258 799 L352 896 Z M341 811 C333 776 310 742 259 742 C208 742 185 776 177 811 L146 811 C152 766 187 711 259 711 C331 711 366 766 372 811 L341 811 Z M142 265 L184 388 C211 466 234 535 257 616 L261 616 C284 535 308 466 334 388 L376 265 L142 265 Z M466 0 L515 0 L283 659 L237 659 L4 0 L51 0 L128 226 L389 226 L466 0 Z " />
<glyph glyph-name="uni1EAF" unicode="&#x1eaf;" horiz-adv-x="499" d="M65 120 C65 29 129 -12 205 -12 C268 -12 326 23 375 62 L377 62 L382 0 L419 0 L419 307 C419 410 381 492 267 492 C189 492 123 454 89 430 L109 397 C141 421 197 453 262 453 C356 453 377 374 375 301 C162 277 65 226 65 120 L65 120 Z M111 122 C111 198 178 244 375 267 L375 104 C316 53 267 26 212 26 C157 26 111 53 111 122 L111 122 Z M231 667 L264 667 L351 777 L304 777 L231 667 Z M263 576 C344 576 376 644 381 695 L351 695 C345 651 317 607 263 607 C208 607 181 651 175 695 L144 695 C149 644 181 576 263 576 L263 576 Z " />
<glyph glyph-name="uni1EB0" unicode="&#x1eb0;" horiz-adv-x="519" d="M295 799 L215 896 L166 896 L261 799 L295 799 Z M341 811 C333 776 310 742 259 742 C208 742 185 776 177 811 L146 811 C152 766 187 711 259 711 C331 711 366 766 372 811 L341 811 Z M142 265 L184 388 C211 466 234 535 257 616 L261 616 C284 535 308 466 334 388 L376 265 L142 265 Z M466 0 L515 0 L283 659 L237 659 L4 0 L51 0 L128 226 L389 226 L466 0 Z " />
<glyph glyph-name="uni1EB1" unicode="&#x1eb1;" horiz-adv-x="499" d="M65 120 C65 29 129 -12 205 -12 C268 -12 326 23 375 62 L377 62 L382 0 L419 0 L419 307 C419 410 381 492 267 492 C189 492 123 454 89 430 L109 397 C141 421 197 453 262 453 C356 453 377 374 375 301 C162 277 65 226 65 120 L65 120 Z M111 122 C111 198 178 244 375 267 L375 104 C316 53 267 26 212 26 C157 26 111 53 111 122 L111 122 Z M221 777 L174 777 L261 667 L295 667 L221 777 Z M263 576 C344 576 376 644 381 695 L351 695 C345 651 317 607 263 607 C208 607 181 651 175 695 L144 695 C149 644 181 576 263 576 L263 576 Z " />
<glyph glyph-name="uni1EB2" unicode="&#x1eb2;" horiz-adv-x="519" d="M242 797 C280 807 321 825 321 871 C321 919 275 937 216 939 L210 909 C259 906 283 896 283 866 C283 843 260 832 232 824 L242 797 Z M341 811 C333 776 310 742 259 742 C208 742 185 776 177 811 L146 811 C152 766 187 711 259 711 C331 711 366 766 372 811 L341 811 Z M142 265 L184 388 C211 466 234 535 257 616 L261 616 C284 535 308 466 334 388 L376 265 L142 265 Z M466 0 L515 0 L283 659 L237 659 L4 0 L51 0 L128 226 L389 226 L466 0 Z " />
<glyph glyph-name="uni1EB3" unicode="&#x1eb3;" horiz-adv-x="499" d="M65 120 C65 29 129 -12 205 -12 C268 -12 326 23 375 62 L377 62 L382 0 L419 0 L419 307 C419 410 381 492 267 492 C189 492 123 454 89 430 L109 397 C141 421 197 453 262 453 C356 453 377 374 375 301 C162 277 65 226 65 120 L65 120 Z M111 122 C111 198 178 244 375 267 L375 104 C316 53 267 26 212 26 C157 26 111 53 111 122 L111 122 Z M263 576 C344 576 376 644 381 695 L351 695 C345 651 317 607 263 607 C208 607 181 651 175 695 L144 695 C149 644 181 576 263 576 L263 576 Z M241 675 C278 687 320 705 320 752 C320 799 273 819 214 821 L211 792 C259 790 282 777 282 746 C282 723 261 710 233 701 L241 675 Z " />
<glyph glyph-name="uni1EB4" unicode="&#x1eb4;" horiz-adv-x="519" d="M352 924 C348 894 332 875 311 875 C276 875 256 924 208 924 C162 924 140 881 137 843 L166 843 C171 873 186 892 208 892 C243 892 262 843 310 843 C357 843 378 886 381 924 L352 924 Z M146 811 C152 766 187 711 259 711 C331 711 366 766 372 811 L341 811 C333 776 310 742 259 742 C208 742 185 776 177 811 L146 811 Z M142 265 L184 388 C211 466 234 535 257 616 L261 616 C284 535 308 466 334 388 L376 265 L142 265 Z M466 0 L515 0 L283 659 L237 659 L4 0 L51 0 L128 226 L389 226 L466 0 Z " />
<glyph glyph-name="uni1EB5" unicode="&#x1eb5;" horiz-adv-x="499" d="M65 120 C65 29 129 -12 205 -12 C268 -12 326 23 375 62 L377 62 L382 0 L419 0 L419 307 C419 410 381 492 267 492 C189 492 123 454 89 430 L109 397 C141 421 197 453 262 453 C356 453 377 374 375 301 C162 277 65 226 65 120 L65 120 Z M111 122 C111 198 178 244 375 267 L375 104 C316 53 267 26 212 26 C157 26 111 53 111 122 L111 122 Z M263 576 C344 576 374 628 380 675 L348 675 C342 640 315 607 263 607 C210 607 183 640 177 675 L145 675 C151 628 181 576 263 576 L263 576 Z M141 706 L170 706 C174 736 190 751 211 751 C246 751 265 706 313 706 C360 706 381 745 384 783 L355 783 C351 753 335 738 314 738 C279 738 261 783 212 783 C165 783 144 744 141 706 L141 706 Z " />
<glyph glyph-name="uni1EB6" unicode="&#x1eb6;" horiz-adv-x="519" d="M342 815 C336 780 311 743 259 743 C208 743 183 780 177 815 L144 815 C150 769 184 711 259 711 C335 711 368 769 374 815 L342 815 Z M259 -114 C238 -114 221 -130 221 -153 C221 -178 238 -194 259 -194 C281 -194 297 -178 297 -153 C297 -130 281 -114 259 -114 L259 -114 Z M142 265 L184 388 C211 466 234 535 257 616 L261 616 C284 535 308 466 334 388 L376 265 L142 265 Z M515 0 L283 659 L237 659 L4 0 L51 0 L128 226 L389 226 L466 0 L515 0 Z " />
<glyph glyph-name="uni1EB7" unicode="&#x1eb7;" horiz-adv-x="499" d="M65 120 C65 29 129 -12 205 -12 C268 -12 326 23 375 62 L377 62 L382 0 L419 0 L419 307 C419 410 381 492 267 492 C189 492 123 454 89 430 L109 397 C141 421 197 453 262 453 C356 453 377 374 375 301 C162 277 65 226 65 120 L65 120 Z M111 122 C111 198 178 244 375 267 L375 104 C316 53 267 26 212 26 C157 26 111 53 111 122 L111 122 Z M263 576 C344 576 376 644 381 695 L348 695 C343 652 316 608 263 608 C209 608 182 652 177 695 L144 695 C149 644 181 576 263 576 L263 576 Z M246 -194 C268 -194 284 -178 284 -153 C284 -130 268 -114 246 -114 C225 -114 208 -130 208 -153 C208 -178 225 -194 246 -194 L246 -194 Z " />
<glyph glyph-name="uni1EB8" unicode="&#x1eb8;" horiz-adv-x="507" d="M94 0 L464 0 L464 40 L140 40 L140 330 L404 330 L404 370 L140 370 L140 619 L454 619 L454 659 L94 659 L94 0 Z M293 -194 C315 -194 331 -178 331 -153 C331 -130 315 -114 293 -114 C271 -114 255 -130 255 -153 C255 -178 271 -194 293 -194 L293 -194 Z " />
<glyph glyph-name="uni1EB9" unicode="&#x1eb9;" horiz-adv-x="483" d="M52 239 C52 82 151 -12 274 -12 C344 -12 387 12 425 35 L407 69 C371 43 330 26 278 26 C170 26 99 113 97 234 L443 234 C445 246 445 258 445 270 C445 411 375 492 261 492 C154 492 52 396 52 239 L52 239 Z M97 268 C107 383 180 454 262 454 C348 454 403 391 403 268 L97 268 Z M259 -194 C280 -194 297 -178 297 -153 C297 -130 280 -114 259 -114 C237 -114 220 -130 220 -153 C220 -178 237 -194 259 -194 L259 -194 Z " />
<glyph glyph-name="uni1EBA" unicode="&#x1eba;" horiz-adv-x="507" d="M94 0 L464 0 L464 40 L140 40 L140 330 L404 330 L404 370 L140 370 L140 619 L454 619 L454 659 L94 659 L94 0 Z M255 702 C303 715 349 737 349 789 C349 839 294 861 228 863 L224 831 C279 829 310 814 310 783 C310 755 283 740 246 729 L255 702 Z " />
<glyph glyph-name="uni1EBB" unicode="&#x1ebb;" horiz-adv-x="483" d="M52 239 C52 82 151 -12 274 -12 C344 -12 387 12 425 35 L407 69 C371 43 330 26 278 26 C170 26 99 113 97 234 L443 234 C445 246 445 258 445 270 C445 411 375 492 261 492 C154 492 52 396 52 239 L52 239 Z M97 268 C107 383 180 454 262 454 C348 454 403 391 403 268 L97 268 Z M238 551 C285 564 332 585 332 637 C332 688 277 709 211 712 L207 680 C262 678 293 662 293 632 C293 603 266 588 229 577 L238 551 Z " />
<glyph glyph-name="uni1EBC" unicode="&#x1ebc;" horiz-adv-x="507" d="M94 0 L464 0 L464 40 L140 40 L140 330 L404 330 L404 370 L140 370 L140 619 L454 619 L454 659 L94 659 L94 0 Z M337 716 C382 716 405 764 408 808 L380 808 C375 774 359 752 338 752 C297 752 272 808 220 808 C175 808 152 761 149 716 L177 716 C182 750 197 773 219 773 C259 773 285 716 337 716 L337 716 Z " />
<glyph glyph-name="uni1EBD" unicode="&#x1ebd;" horiz-adv-x="483" d="M52 239 C52 82 151 -12 274 -12 C344 -12 387 12 425 35 L407 69 C371 43 330 26 278 26 C170 26 99 113 97 234 L443 234 C445 246 445 258 445 270 C445 411 375 492 261 492 C154 492 52 396 52 239 L52 239 Z M97 268 C107 383 180 454 262 454 C348 454 403 391 403 268 L97 268 Z M137 581 L168 581 C172 616 184 636 205 636 C241 636 268 581 316 581 C364 581 382 628 385 670 L355 670 C350 636 339 615 317 615 C283 615 255 670 206 670 C158 670 140 624 137 581 L137 581 Z " />
<glyph glyph-name="uni1EBE" unicode="&#x1ebe;" horiz-adv-x="507" d="M94 0 L464 0 L464 40 L140 40 L140 330 L404 330 L404 370 L140 370 L140 619 L454 619 L454 659 L94 659 L94 0 Z M357 770 L390 770 L476 876 L429 876 L357 770 Z M168 709 L207 709 L276 775 L280 775 L350 709 L389 709 L298 809 L258 809 L168 709 Z " />
<glyph glyph-name="uni1EBF" unicode="&#x1ebf;" horiz-adv-x="483" d="M52 239 C52 82 151 -12 274 -12 C344 -12 387 12 425 35 L407 69 C371 43 330 26 278 26 C170 26 99 113 97 234 L443 234 C445 246 445 258 445 270 C445 411 375 492 261 492 C154 492 52 396 52 239 L52 239 Z M97 268 C107 383 180 454 262 454 C348 454 403 391 403 268 L97 268 Z M158 572 L194 572 L259 650 L263 650 L329 572 L364 572 L281 686 L242 686 L158 572 Z M339 637 L372 637 L463 748 L416 748 L339 637 Z " />
<glyph glyph-name="uni1EC0" unicode="&#x1ec0;" horiz-adv-x="507" d="M94 0 L464 0 L464 40 L140 40 L140 330 L404 330 L404 370 L140 370 L140 619 L454 619 L454 659 L94 659 L94 0 Z M359 876 L311 876 L397 770 L430 770 L359 876 Z M168 709 L207 709 L276 775 L280 775 L350 709 L389 709 L298 809 L258 809 L168 709 Z " />
<glyph glyph-name="uni1EC1" unicode="&#x1ec1;" horiz-adv-x="483" d="M52 239 C52 82 151 -12 274 -12 C344 -12 387 12 425 35 L407 69 C371 43 330 26 278 26 C170 26 99 113 97 234 L443 234 C445 246 445 258 445 270 C445 411 375 492 261 492 C154 492 52 396 52 239 L52 239 Z M97 268 C107 383 180 454 262 454 C348 454 403 391 403 268 L97 268 Z M158 572 L194 572 L259 650 L263 650 L329 572 L364 572 L281 686 L242 686 L158 572 Z M357 748 L310 748 L401 637 L434 637 L357 748 Z " />
<glyph glyph-name="uni1EC2" unicode="&#x1ec2;" horiz-adv-x="507" d="M94 0 L464 0 L464 40 L140 40 L140 330 L404 330 L404 370 L140 370 L140 619 L454 619 L454 659 L94 659 L94 0 Z M380 757 C418 766 459 785 459 831 C459 878 413 896 354 899 L348 868 C397 866 421 856 421 826 C421 803 399 791 370 784 L380 757 Z M168 709 L207 709 L276 775 L280 775 L350 709 L389 709 L298 809 L258 809 L168 709 Z " />
<glyph glyph-name="uni1EC3" unicode="&#x1ec3;" horiz-adv-x="483" d="M52 239 C52 82 151 -12 274 -12 C344 -12 387 12 425 35 L407 69 C371 43 330 26 278 26 C170 26 99 113 97 234 L443 234 C445 246 445 258 445 270 C445 411 375 492 261 492 C154 492 52 396 52 239 L52 239 Z M97 268 C107 383 180 454 262 454 C348 454 403 391 403 268 L97 268 Z M158 572 L194 572 L259 650 L263 650 L329 572 L364 572 L281 686 L242 686 L158 572 Z M364 628 C402 640 443 658 443 704 C443 752 396 772 337 774 L334 745 C382 743 405 729 405 699 C405 676 384 663 356 653 L364 628 Z " />
<glyph glyph-name="uni1EC4" unicode="&#x1ec4;" horiz-adv-x="507" d="M94 0 L464 0 L464 40 L140 40 L140 330 L404 330 L404 370 L140 370 L140 619 L454 619 L454 659 L94 659 L94 0 Z M168 709 L207 709 L276 775 L280 775 L350 709 L389 709 L298 809 L258 809 L168 709 Z M186 843 C190 873 205 892 227 892 C262 892 281 843 329 843 C376 843 397 886 400 924 L371 924 C367 894 351 875 330 875 C295 875 276 924 228 924 C181 924 159 881 156 843 L186 843 Z " />
<glyph glyph-name="uni1EC5" unicode="&#x1ec5;" horiz-adv-x="483" d="M52 239 C52 82 151 -12 274 -12 C344 -12 387 12 425 35 L407 69 C371 43 330 26 278 26 C170 26 99 113 97 234 L443 234 C445 246 445 258 445 270 C445 411 375 492 261 492 C154 492 52 396 52 239 L52 239 Z M97 268 C107 383 180 454 262 454 C348 454 403 391 403 268 L97 268 Z M150 570 L186 570 L259 639 L263 639 L336 570 L372 570 L282 670 L241 670 L150 570 Z M169 706 C173 736 188 751 210 751 C245 751 263 706 312 706 C359 706 380 745 383 783 L354 783 C350 753 334 738 313 738 C278 738 259 783 211 783 C164 783 143 744 140 706 L169 706 Z " />
<glyph glyph-name="uni1EC6" unicode="&#x1ec6;" horiz-adv-x="507" d="M94 0 L464 0 L464 40 L140 40 L140 330 L404 330 L404 370 L140 370 L140 619 L454 619 L454 659 L94 659 L94 0 Z M201 709 L276 781 L280 781 L355 709 L395 709 L299 815 L257 815 L161 709 L201 709 Z M293 -194 C315 -194 331 -178 331 -153 C331 -130 315 -114 293 -114 C271 -114 255 -130 255 -153 C255 -178 271 -194 293 -194 L293 -194 Z " />
<glyph glyph-name="uni1EC7" unicode="&#x1ec7;" horiz-adv-x="483" d="M52 239 C52 82 151 -12 274 -12 C344 -12 387 12 425 35 L407 69 C371 43 330 26 278 26 C170 26 99 113 97 234 L443 234 C445 246 445 258 445 270 C445 411 375 492 261 492 C154 492 52 396 52 239 L52 239 Z M97 268 C107 383 180 454 262 454 C348 454 403 391 403 268 L97 268 Z M148 572 L184 572 L259 671 L263 671 L338 572 L375 572 L281 708 L242 708 L148 572 Z M258 -194 C279 -194 296 -178 296 -153 C296 -130 279 -114 258 -114 C236 -114 220 -130 220 -153 C220 -178 236 -194 258 -194 L258 -194 Z " />
<glyph glyph-name="uni1EC8" unicode="&#x1ec8;" horiz-adv-x="233" d="M94 0 L140 0 L140 659 L94 659 L94 0 Z M93 702 C141 715 187 737 187 789 C187 839 133 861 67 863 L63 831 C117 829 148 814 148 783 C148 755 121 740 85 729 L93 702 Z " />
<glyph glyph-name="uni1EC9" unicode="&#x1ec9;" horiz-adv-x="229" d="M92 0 L136 0 L136 480 L92 480 L92 0 Z M91 551 C139 564 185 585 185 637 C185 688 130 709 64 712 L60 680 C115 678 146 662 146 632 C146 603 119 588 82 577 L91 551 Z " />
<glyph glyph-name="uni1ECA" unicode="&#x1eca;" horiz-adv-x="233" d="M94 0 L140 0 L140 659 L94 659 L94 0 Z M118 -194 C139 -194 156 -178 156 -153 C156 -130 139 -114 118 -114 C96 -114 79 -130 79 -153 C79 -178 96 -194 118 -194 L118 -194 Z " />
<glyph glyph-name="uni1ECB" unicode="&#x1ecb;" horiz-adv-x="229" d="M115 596 C137 596 155 612 155 635 C155 660 137 675 115 675 C93 675 75 660 75 635 C75 612 93 596 115 596 L115 596 Z M92 0 L136 0 L136 480 L92 480 L92 0 Z M115 -194 C137 -194 153 -178 153 -153 C153 -130 137 -114 115 -114 C94 -114 77 -130 77 -153 C77 -178 94 -194 115 -194 L115 -194 Z " />
<glyph glyph-name="uni1ECC" unicode="&#x1ecc;" horiz-adv-x="645" d="M323 -12 C481 -12 594 123 594 332 C594 540 481 671 323 671 C164 671 51 540 51 332 C51 123 164 -12 323 -12 L323 -12 Z M323 30 C189 30 99 149 99 332 C99 514 189 629 323 629 C456 629 546 514 546 332 C546 149 456 30 323 30 L323 30 Z M323 -194 C344 -194 361 -178 361 -153 C361 -130 344 -114 323 -114 C301 -114 285 -130 285 -153 C285 -178 301 -194 323 -194 L323 -194 Z " />
<glyph glyph-name="uni1ECD" unicode="&#x1ecd;" horiz-adv-x="535" d="M52 239 C52 80 152 -12 267 -12 C383 -12 483 80 483 239 C483 400 383 492 267 492 C152 492 52 400 52 239 L52 239 Z M98 239 C98 366 170 453 267 453 C364 453 437 366 437 239 C437 113 364 27 267 27 C170 27 98 113 98 239 L98 239 Z M268 -194 C290 -194 306 -178 306 -153 C306 -130 290 -114 268 -114 C247 -114 230 -130 230 -153 C230 -178 247 -194 268 -194 L268 -194 Z " />
<glyph glyph-name="uni1ECE" unicode="&#x1ece;" horiz-adv-x="645" d="M323 -12 C481 -12 594 123 594 332 C594 540 481 671 323 671 C164 671 51 540 51 332 C51 123 164 -12 323 -12 L323 -12 Z M323 30 C189 30 99 149 99 332 C99 514 189 629 323 629 C456 629 546 514 546 332 C546 149 456 30 323 30 L323 30 Z M299 702 C347 715 393 737 393 789 C393 839 339 861 273 863 L269 831 C323 829 354 814 354 783 C354 755 327 740 291 729 L299 702 Z " />
<glyph glyph-name="uni1ECF" unicode="&#x1ecf;" horiz-adv-x="535" d="M52 239 C52 80 152 -12 267 -12 C383 -12 483 80 483 239 C483 400 383 492 267 492 C152 492 52 400 52 239 L52 239 Z M98 239 C98 366 170 453 267 453 C364 453 437 366 437 239 C437 113 364 27 267 27 C170 27 98 113 98 239 L98 239 Z M244 551 C292 564 338 585 338 637 C338 688 283 709 217 712 L214 680 C268 678 299 662 299 632 C299 603 272 588 235 577 L244 551 Z " />
<glyph glyph-name="uni1ED0" unicode="&#x1ed0;" horiz-adv-x="645" d="M323 -12 C481 -12 594 123 594 332 C594 540 481 671 323 671 C164 671 51 540 51 332 C51 123 164 -12 323 -12 L323 -12 Z M323 30 C189 30 99 149 99 332 C99 514 189 629 323 629 C456 629 546 514 546 332 C546 149 456 30 323 30 L323 30 Z M401 770 L434 770 L520 876 L473 876 L401 770 Z M212 709 L251 709 L321 775 L325 775 L394 709 L433 709 L343 809 L303 809 L212 709 Z " />
<glyph glyph-name="uni1ED1" unicode="&#x1ed1;" horiz-adv-x="535" d="M52 239 C52 80 152 -12 267 -12 C383 -12 483 80 483 239 C483 400 383 492 267 492 C152 492 52 400 52 239 L52 239 Z M98 239 C98 366 170 453 267 453 C364 453 437 366 437 239 C437 113 364 27 267 27 C170 27 98 113 98 239 L98 239 Z M164 572 L200 572 L265 650 L269 650 L335 572 L370 572 L287 686 L248 686 L164 572 Z M345 637 L378 637 L469 748 L422 748 L345 637 Z " />
<glyph glyph-name="uni1ED2" unicode="&#x1ed2;" horiz-adv-x="645" d="M323 -12 C481 -12 594 123 594 332 C594 540 481 671 323 671 C164 671 51 540 51 332 C51 123 164 -12 323 -12 L323 -12 Z M323 30 C189 30 99 149 99 332 C99 514 189 629 323 629 C456 629 546 514 546 332 C546 149 456 30 323 30 L323 30 Z M403 876 L356 876 L442 770 L475 770 L403 876 Z M212 709 L251 709 L321 775 L325 775 L394 709 L433 709 L343 809 L303 809 L212 709 Z " />
<glyph glyph-name="uni1ED3" unicode="&#x1ed3;" horiz-adv-x="535" d="M52 239 C52 80 152 -12 267 -12 C383 -12 483 80 483 239 C483 400 383 492 267 492 C152 492 52 400 52 239 L52 239 Z M98 239 C98 366 170 453 267 453 C364 453 437 366 437 239 C437 113 364 27 267 27 C170 27 98 113 98 239 L98 239 Z M164 572 L200 572 L265 650 L269 650 L335 572 L370 572 L287 686 L248 686 L164 572 Z M363 748 L317 748 L407 637 L440 637 L363 748 Z " />
<glyph glyph-name="uni1ED4" unicode="&#x1ed4;" horiz-adv-x="645" d="M323 -12 C481 -12 594 123 594 332 C594 540 481 671 323 671 C164 671 51 540 51 332 C51 123 164 -12 323 -12 L323 -12 Z M323 30 C189 30 99 149 99 332 C99 514 189 629 323 629 C456 629 546 514 546 332 C546 149 456 30 323 30 L323 30 Z M425 757 C462 766 504 785 504 831 C504 878 457 896 398 899 L393 868 C441 866 466 856 466 826 C466 803 443 791 414 784 L425 757 Z M212 709 L251 709 L321 775 L325 775 L394 709 L433 709 L343 809 L303 809 L212 709 Z " />
<glyph glyph-name="uni1ED5" unicode="&#x1ed5;" horiz-adv-x="535" d="M52 239 C52 80 152 -12 267 -12 C383 -12 483 80 483 239 C483 400 383 492 267 492 C152 492 52 400 52 239 L52 239 Z M98 239 C98 366 170 453 267 453 C364 453 437 366 437 239 C437 113 364 27 267 27 C170 27 98 113 98 239 L98 239 Z M164 572 L200 572 L265 650 L269 650 L335 572 L370 572 L287 686 L248 686 L164 572 Z M370 628 C408 640 449 658 449 704 C449 752 403 772 344 774 L340 745 C389 743 411 729 411 699 C411 676 391 663 362 653 L370 628 Z " />
<glyph glyph-name="uni1ED6" unicode="&#x1ed6;" horiz-adv-x="645" d="M323 -12 C481 -12 594 123 594 332 C594 540 481 671 323 671 C164 671 51 540 51 332 C51 123 164 -12 323 -12 L323 -12 Z M323 30 C189 30 99 149 99 332 C99 514 189 629 323 629 C456 629 546 514 546 332 C546 149 456 30 323 30 L323 30 Z M212 709 L251 709 L321 775 L325 775 L394 709 L433 709 L343 809 L303 809 L212 709 Z M230 843 C234 873 250 892 271 892 C306 892 325 843 373 843 C420 843 442 886 444 924 L415 924 C411 894 396 875 374 875 C339 875 320 924 272 924 C225 924 204 881 201 843 L230 843 Z " />
<glyph glyph-name="uni1ED7" unicode="&#x1ed7;" horiz-adv-x="535" d="M52 239 C52 80 152 -12 267 -12 C383 -12 483 80 483 239 C483 400 383 492 267 492 C152 492 52 400 52 239 L52 239 Z M98 239 C98 366 170 453 267 453 C364 453 437 366 437 239 C437 113 364 27 267 27 C170 27 98 113 98 239 L98 239 Z M156 570 L193 570 L265 639 L269 639 L342 570 L378 570 L288 670 L247 670 L156 570 Z M175 706 C179 736 195 751 216 751 C251 751 269 706 318 706 C365 706 386 745 389 783 L360 783 C356 753 340 738 319 738 C284 738 265 783 217 783 C170 783 149 744 146 706 L175 706 Z " />
<glyph glyph-name="uni1ED8" unicode="&#x1ed8;" horiz-adv-x="645" d="M323 -12 C481 -12 594 123 594 332 C594 540 481 671 323 671 C164 671 51 540 51 332 C51 123 164 -12 323 -12 L323 -12 Z M323 30 C189 30 99 149 99 332 C99 514 189 629 323 629 C456 629 546 514 546 332 C546 149 456 30 323 30 L323 30 Z M246 709 L321 781 L325 781 L400 709 L440 709 L344 815 L302 815 L206 709 L246 709 Z M323 -194 C344 -194 361 -178 361 -153 C361 -130 344 -114 323 -114 C301 -114 285 -130 285 -153 C285 -178 301 -194 323 -194 L323 -194 Z " />
<glyph glyph-name="uni1ED9" unicode="&#x1ed9;" horiz-adv-x="535" d="M52 239 C52 80 152 -12 267 -12 C383 -12 483 80 483 239 C483 400 383 492 267 492 C152 492 52 400 52 239 L52 239 Z M98 239 C98 366 170 453 267 453 C364 453 437 366 437 239 C437 113 364 27 267 27 C170 27 98 113 98 239 L98 239 Z M154 572 L190 572 L265 671 L269 671 L344 572 L381 572 L287 708 L248 708 L154 572 Z M268 -194 C290 -194 306 -178 306 -153 C306 -130 290 -114 268 -114 C247 -114 230 -130 230 -153 C230 -178 247 -194 268 -194 L268 -194 Z " />
<glyph glyph-name="uni1EDA" unicode="&#x1eda;" horiz-adv-x="645" d="M435 815 L378 815 L285 709 L326 709 L435 815 Z M323 30 C189 30 99 149 99 332 C99 514 189 629 323 629 C456 629 546 514 546 332 C546 149 456 30 323 30 L323 30 Z M528 747 C537 733 542 721 542 708 C542 670 512 648 447 639 C411 660 369 671 323 671 C164 671 51 540 51 332 C51 123 164 -12 323 -12 C481 -12 594 123 594 332 C594 458 552 557 484 614 C545 628 582 658 582 711 C582 731 575 748 563 766 L528 747 Z " />
<glyph glyph-name="uni1EDB" unicode="&#x1edb;" horiz-adv-x="535" d="M356 708 L303 708 L212 572 L249 572 L356 708 Z M267 27 C170 27 98 113 98 239 C98 366 170 453 267 453 C364 453 437 366 437 239 C437 113 364 27 267 27 L267 27 Z M431 578 C441 565 446 552 446 539 C446 501 416 478 359 471 C331 485 300 492 267 492 C152 492 52 400 52 239 C52 80 152 -12 267 -12 C383 -12 483 80 483 239 C483 334 448 405 396 447 C442 460 486 485 486 542 C486 562 479 580 466 598 L431 578 Z " />
<glyph glyph-name="uni1EDC" unicode="&#x1edc;" horiz-adv-x="645" d="M360 709 L267 815 L210 815 L319 709 L360 709 Z M323 30 C189 30 99 149 99 332 C99 514 189 629 323 629 C456 629 546 514 546 332 C546 149 456 30 323 30 L323 30 Z M528 747 C537 733 542 721 542 708 C542 670 512 648 447 639 C411 660 369 671 323 671 C164 671 51 540 51 332 C51 123 164 -12 323 -12 C481 -12 594 123 594 332 C594 458 552 557 484 614 C545 628 582 658 582 711 C582 731 575 748 563 766 L528 747 Z " />
<glyph glyph-name="uni1EDD" unicode="&#x1edd;" horiz-adv-x="535" d="M323 572 L231 708 L179 708 L285 572 L323 572 Z M267 27 C170 27 98 113 98 239 C98 366 170 453 267 453 C364 453 437 366 437 239 C437 113 364 27 267 27 L267 27 Z M431 578 C441 565 446 552 446 539 C446 501 416 478 359 471 C331 485 300 492 267 492 C152 492 52 400 52 239 C52 80 152 -12 267 -12 C383 -12 483 80 483 239 C483 334 448 405 396 447 C442 460 486 485 486 542 C486 562 479 580 466 598 L431 578 Z " />
<glyph glyph-name="uni1EDE" unicode="&#x1ede;" horiz-adv-x="645" d="M299 702 C347 715 393 737 393 789 C393 839 339 861 273 863 L269 831 C323 829 354 814 354 783 C354 755 327 740 291 729 L299 702 Z M323 30 C189 30 99 149 99 332 C99 514 189 629 323 629 C456 629 546 514 546 332 C546 149 456 30 323 30 L323 30 Z M528 747 C537 733 542 721 542 708 C542 670 512 648 447 639 C411 660 369 671 323 671 C164 671 51 540 51 332 C51 123 164 -12 323 -12 C481 -12 594 123 594 332 C594 458 552 557 484 614 C545 628 582 658 582 711 C582 731 575 748 563 766 L528 747 Z " />
<glyph glyph-name="uni1EDF" unicode="&#x1edf;" horiz-adv-x="535" d="M244 551 C292 564 338 585 338 637 C338 688 283 709 217 712 L214 680 C268 678 299 662 299 632 C299 603 272 588 235 577 L244 551 Z M267 27 C170 27 98 113 98 239 C98 366 170 453 267 453 C364 453 437 366 437 239 C437 113 364 27 267 27 L267 27 Z M431 578 C441 565 446 552 446 539 C446 501 416 478 359 471 C331 485 300 492 267 492 C152 492 52 400 52 239 C52 80 152 -12 267 -12 C383 -12 483 80 483 239 C483 334 448 405 396 447 C442 460 486 485 486 542 C486 562 479 580 466 598 L431 578 Z " />
<glyph glyph-name="uni1EE0" unicode="&#x1ee0;" horiz-adv-x="645" d="M424 808 C419 774 404 752 382 752 C342 752 316 808 264 808 C219 808 196 761 193 716 L221 716 C226 750 242 773 263 773 C304 773 329 716 381 716 C426 716 449 764 452 808 L424 808 Z M323 30 C189 30 99 149 99 332 C99 514 189 629 323 629 C456 629 546 514 546 332 C546 149 456 30 323 30 L323 30 Z M528 747 C537 733 542 721 542 708 C542 670 512 648 447 639 C411 660 369 671 323 671 C164 671 51 540 51 332 C51 123 164 -12 323 -12 C481 -12 594 123 594 332 C594 458 552 557 484 614 C545 628 582 658 582 711 C582 731 575 748 563 766 L528 747 Z " />
<glyph glyph-name="uni1EE1" unicode="&#x1ee1;" horiz-adv-x="535" d="M361 670 C357 636 345 615 323 615 C289 615 261 670 212 670 C165 670 147 624 144 581 L174 581 C178 616 190 636 211 636 C248 636 274 581 322 581 C370 581 388 628 391 670 L361 670 Z M267 27 C170 27 98 113 98 239 C98 366 170 453 267 453 C364 453 437 366 437 239 C437 113 364 27 267 27 L267 27 Z M431 578 C441 565 446 552 446 539 C446 501 416 478 359 471 C331 485 300 492 267 492 C152 492 52 400 52 239 C52 80 152 -12 267 -12 C383 -12 483 80 483 239 C483 334 448 405 396 447 C442 460 486 485 486 542 C486 562 479 580 466 598 L431 578 Z " />
<glyph glyph-name="uni1EE2" unicode="&#x1ee2;" horiz-adv-x="645" d="M323 -114 C301 -114 285 -130 285 -153 C285 -178 301 -194 323 -194 C344 -194 361 -178 361 -153 C361 -130 344 -114 323 -114 L323 -114 Z M323 30 C189 30 99 149 99 332 C99 514 189 629 323 629 C456 629 546 514 546 332 C546 149 456 30 323 30 L323 30 Z M528 747 C537 733 542 721 542 708 C542 670 512 648 447 639 C411 660 369 671 323 671 C164 671 51 540 51 332 C51 123 164 -12 323 -12 C481 -12 594 123 594 332 C594 458 552 557 484 614 C545 628 582 658 582 711 C582 731 575 748 563 766 L528 747 Z " />
<glyph glyph-name="uni1EE3" unicode="&#x1ee3;" horiz-adv-x="535" d="M268 -114 C247 -114 230 -130 230 -153 C230 -178 247 -194 268 -194 C290 -194 306 -178 306 -153 C306 -130 290 -114 268 -114 L268 -114 Z M267 27 C170 27 98 113 98 239 C98 366 170 453 267 453 C364 453 437 366 437 239 C437 113 364 27 267 27 L267 27 Z M431 578 C441 565 446 552 446 539 C446 501 416 478 359 471 C331 485 300 492 267 492 C152 492 52 400 52 239 C52 80 152 -12 267 -12 C383 -12 483 80 483 239 C483 334 448 405 396 447 C442 460 486 485 486 542 C486 562 479 580 466 598 L431 578 Z " />
<glyph glyph-name="uni1EE4" unicode="&#x1ee4;" horiz-adv-x="627" d="M91 253 C91 47 199 -12 313 -12 C426 -12 536 47 536 253 L536 659 L492 659 L492 258 C492 83 408 30 313 30 C220 30 137 83 137 258 L137 659 L91 659 L91 253 Z M314 -194 C335 -194 352 -178 352 -153 C352 -130 335 -114 314 -114 C292 -114 275 -130 275 -153 C275 -178 292 -194 314 -194 L314 -194 Z " />
<glyph glyph-name="uni1EE5" unicode="&#x1ee5;" horiz-adv-x="529" d="M85 172 C85 48 131 -12 230 -12 C296 -12 346 25 393 80 L395 80 L400 0 L437 0 L437 480 L393 480 L393 126 C337 58 295 28 238 28 C161 28 129 76 129 178 L129 480 L85 480 L85 172 Z M283 -194 C304 -194 321 -178 321 -153 C321 -130 304 -114 283 -114 C261 -114 245 -130 245 -153 C245 -178 261 -194 283 -194 L283 -194 Z " />
<glyph glyph-name="uni1EE6" unicode="&#x1ee6;" horiz-adv-x="627" d="M91 253 C91 47 199 -12 313 -12 C426 -12 536 47 536 253 L536 659 L492 659 L492 258 C492 83 408 30 313 30 C220 30 137 83 137 258 L137 659 L91 659 L91 253 Z M290 702 C338 715 384 737 384 789 C384 839 330 861 264 863 L260 831 C314 829 345 814 345 783 C345 755 318 740 282 729 L290 702 Z " />
<glyph glyph-name="uni1EE7" unicode="&#x1ee7;" horiz-adv-x="529" d="M85 172 C85 48 131 -12 230 -12 C296 -12 346 25 393 80 L395 80 L400 0 L437 0 L437 480 L393 480 L393 126 C337 58 295 28 238 28 C161 28 129 76 129 178 L129 480 L85 480 L85 172 Z M241 551 C289 564 335 585 335 637 C335 688 281 709 215 712 L211 680 C265 678 296 662 296 632 C296 603 269 588 233 577 L241 551 Z " />
<glyph glyph-name="uni1EE8" unicode="&#x1ee8;" horiz-adv-x="638" d="M425 815 L368 815 L275 709 L316 709 L425 815 Z M582 767 C592 753 597 741 597 728 C597 687 567 668 506 659 L492 659 L492 258 C492 83 408 30 313 30 C220 30 137 83 137 258 L137 659 L91 659 L91 253 C91 47 199 -12 313 -12 C426 -12 536 47 536 253 L536 633 C588 645 637 669 637 731 C637 751 630 768 617 786 L582 767 Z " />
<glyph glyph-name="uni1EE9" unicode="&#x1ee9;" horiz-adv-x="529" d="M349 708 L297 708 L205 572 L243 572 L349 708 Z M472 588 C481 575 486 562 486 549 C486 508 452 487 400 480 L393 480 L393 126 C337 58 295 28 238 28 C161 28 129 76 129 178 L129 480 L85 480 L85 172 C85 48 131 -12 230 -12 C296 -12 346 25 393 80 L395 80 L400 0 L437 0 L437 457 C477 468 526 492 526 552 C526 572 519 590 507 608 L472 588 Z " />
<glyph glyph-name="uni1EEA" unicode="&#x1eea;" horiz-adv-x="638" d="M350 709 L257 815 L200 815 L309 709 L350 709 Z M582 767 C592 753 597 741 597 728 C597 687 567 668 506 659 L492 659 L492 258 C492 83 408 30 313 30 C220 30 137 83 137 258 L137 659 L91 659 L91 253 C91 47 199 -12 313 -12 C426 -12 536 47 536 253 L536 633 C588 645 637 669 637 731 C637 751 630 768 617 786 L582 767 Z " />
<glyph glyph-name="uni1EEB" unicode="&#x1eeb;" horiz-adv-x="529" d="M316 572 L225 708 L172 708 L279 572 L316 572 Z M472 588 C481 575 486 562 486 549 C486 508 452 487 400 480 L393 480 L393 126 C337 58 295 28 238 28 C161 28 129 76 129 178 L129 480 L85 480 L85 172 C85 48 131 -12 230 -12 C296 -12 346 25 393 80 L395 80 L400 0 L437 0 L437 457 C477 468 526 492 526 552 C526 572 519 590 507 608 L472 588 Z " />
<glyph glyph-name="uni1EEC" unicode="&#x1eec;" horiz-adv-x="638" d="M289 702 C337 715 383 737 383 789 C383 839 329 861 263 863 L259 831 C313 829 344 814 344 783 C344 755 317 740 281 729 L289 702 Z M582 767 C592 753 597 741 597 728 C597 687 567 668 506 659 L492 659 L492 258 C492 83 408 30 313 30 C220 30 137 83 137 258 L137 659 L91 659 L91 253 C91 47 199 -12 313 -12 C426 -12 536 47 536 253 L536 633 C588 645 637 669 637 731 C637 751 630 768 617 786 L582 767 Z " />
<glyph glyph-name="uni1EED" unicode="&#x1eed;" horiz-adv-x="529" d="M237 551 C285 564 331 585 331 637 C331 688 277 709 211 712 L207 680 C261 678 292 662 292 632 C292 603 265 588 229 577 L237 551 Z M472 588 C481 575 486 562 486 549 C486 508 452 487 400 480 L393 480 L393 126 C337 58 295 28 238 28 C161 28 129 76 129 178 L129 480 L85 480 L85 172 C85 48 131 -12 230 -12 C296 -12 346 25 393 80 L395 80 L400 0 L437 0 L437 457 C477 468 526 492 526 552 C526 572 519 590 507 608 L472 588 Z " />
<glyph glyph-name="uni1EEE" unicode="&#x1eee;" horiz-adv-x="638" d="M414 808 C409 774 394 752 372 752 C332 752 306 808 254 808 C209 808 186 761 183 716 L211 716 C216 750 232 773 253 773 C294 773 319 716 371 716 C416 716 439 764 442 808 L414 808 Z M582 767 C592 753 597 741 597 728 C597 687 567 668 506 659 L492 659 L492 258 C492 83 408 30 313 30 C220 30 137 83 137 258 L137 659 L91 659 L91 253 C91 47 199 -12 313 -12 C426 -12 536 47 536 253 L536 633 C588 645 637 669 637 731 C637 751 630 768 617 786 L582 767 Z " />
<glyph glyph-name="uni1EEF" unicode="&#x1eef;" horiz-adv-x="529" d="M354 670 C350 636 338 615 317 615 C283 615 254 670 206 670 C158 670 140 624 137 581 L167 581 C172 616 183 636 205 636 C241 636 267 581 316 581 C364 581 382 628 385 670 L354 670 Z M472 588 C481 575 486 562 486 549 C486 508 452 487 400 480 L393 480 L393 126 C337 58 295 28 238 28 C161 28 129 76 129 178 L129 480 L85 480 L85 172 C85 48 131 -12 230 -12 C296 -12 346 25 393 80 L395 80 L400 0 L437 0 L437 457 C477 468 526 492 526 552 C526 572 519 590 507 608 L472 588 Z " />
<glyph glyph-name="uni1EF0" unicode="&#x1ef0;" horiz-adv-x="638" d="M313 -114 C291 -114 275 -130 275 -153 C275 -178 291 -194 313 -194 C334 -194 351 -178 351 -153 C351 -130 334 -114 313 -114 L313 -114 Z M582 767 C592 753 597 741 597 728 C597 687 567 668 506 659 L492 659 L492 258 C492 83 408 30 313 30 C220 30 137 83 137 258 L137 659 L91 659 L91 253 C91 47 199 -12 313 -12 C426 -12 536 47 536 253 L536 633 C588 645 637 669 637 731 C637 751 630 768 617 786 L582 767 Z " />
<glyph glyph-name="uni1EF1" unicode="&#x1ef1;" horiz-adv-x="529" d="M280 -114 C258 -114 242 -130 242 -153 C242 -178 258 -194 280 -194 C301 -194 318 -178 318 -153 C318 -130 301 -114 280 -114 L280 -114 Z M472 588 C481 575 486 562 486 549 C486 508 452 487 400 480 L393 480 L393 126 C337 58 295 28 238 28 C161 28 129 76 129 178 L129 480 L85 480 L85 172 C85 48 131 -12 230 -12 C296 -12 346 25 393 80 L395 80 L400 0 L437 0 L437 457 C477 468 526 492 526 552 C526 572 519 590 507 608 L472 588 Z " />
<glyph glyph-name="Ygrave" unicode="&#x1ef2;" horiz-adv-x="440" d="M197 0 L243 0 L243 267 L441 659 L394 659 L294 453 C272 405 247 359 222 311 L218 311 C193 359 171 405 148 453 L48 659 L-1 659 L197 267 L197 0 Z M216 709 L257 709 L165 815 L107 815 L216 709 Z " />
<glyph glyph-name="ygrave" unicode="&#x1ef3;" horiz-adv-x="436" d="M34 -170 L24 -209 C37 -215 55 -219 73 -219 C159 -219 207 -140 234 -60 L424 480 L379 480 L276 178 C263 138 247 86 232 44 L228 44 C210 86 191 138 176 178 L60 480 L12 480 L209 -9 L196 -51 C172 -124 132 -178 73 -178 C59 -178 44 -174 34 -170 L34 -170 Z M247 572 L285 572 L193 708 L141 708 L247 572 Z " />
<glyph glyph-name="uni1EF4" unicode="&#x1ef4;" horiz-adv-x="440" d="M197 0 L243 0 L243 267 L441 659 L394 659 L294 453 C272 405 247 359 222 311 L218 311 C193 359 171 405 148 453 L48 659 L-1 659 L197 267 L197 0 Z M222 -194 C243 -194 260 -178 260 -153 C260 -130 243 -114 222 -114 C200 -114 184 -130 184 -153 C184 -178 200 -194 222 -194 L222 -194 Z " />
<glyph glyph-name="uni1EF5" unicode="&#x1ef5;" horiz-adv-x="436" d="M34 -170 L24 -209 C37 -215 55 -219 73 -219 C159 -219 207 -140 234 -60 L424 480 L379 480 L276 178 C263 138 247 86 232 44 L228 44 C210 86 191 138 176 178 L60 480 L12 480 L209 -9 L196 -51 C172 -124 132 -178 73 -178 C59 -178 44 -174 34 -170 L34 -170 Z M360 -193 C382 -193 398 -177 398 -152 C398 -129 382 -113 360 -113 C338 -113 322 -129 322 -152 C322 -177 338 -193 360 -193 L360 -193 Z " />
<glyph glyph-name="uni1EF6" unicode="&#x1ef6;" horiz-adv-x="440" d="M197 0 L243 0 L243 267 L441 659 L394 659 L294 453 C272 405 247 359 222 311 L218 311 C193 359 171 405 148 453 L48 659 L-1 659 L197 267 L197 0 Z M196 702 C244 715 290 737 290 789 C290 839 236 861 170 863 L166 831 C220 829 251 814 251 783 C251 755 224 740 188 729 L196 702 Z " />
<glyph glyph-name="uni1EF7" unicode="&#x1ef7;" horiz-adv-x="436" d="M34 -170 L24 -209 C37 -215 55 -219 73 -219 C159 -219 207 -140 234 -60 L424 480 L379 480 L276 178 C263 138 247 86 232 44 L228 44 C210 86 191 138 176 178 L60 480 L12 480 L209 -9 L196 -51 C172 -124 132 -178 73 -178 C59 -178 44 -174 34 -170 L34 -170 Z M206 551 C253 564 300 585 300 637 C300 688 245 709 179 712 L175 680 C230 678 261 662 261 632 C261 603 234 588 197 577 L206 551 Z " />
<glyph glyph-name="uni1EF8" unicode="&#x1ef8;" horiz-adv-x="440" d="M197 0 L243 0 L243 267 L441 659 L394 659 L294 453 C272 405 247 359 222 311 L218 311 C193 359 171 405 148 453 L48 659 L-1 659 L197 267 L197 0 Z M278 716 C323 716 346 764 349 808 L321 808 C317 774 301 752 279 752 C239 752 213 808 161 808 C116 808 93 761 90 716 L119 716 C123 750 139 773 160 773 C201 773 226 716 278 716 L278 716 Z " />
<glyph glyph-name="uni1EF9" unicode="&#x1ef9;" horiz-adv-x="436" d="M34 -170 L24 -209 C37 -215 55 -219 73 -219 C159 -219 207 -140 234 -60 L424 480 L379 480 L276 178 C263 138 247 86 232 44 L228 44 C210 86 191 138 176 178 L60 480 L12 480 L209 -9 L196 -51 C172 -124 132 -178 73 -178 C59 -178 44 -174 34 -170 L34 -170 Z M105 581 L136 581 C140 616 152 636 173 636 C209 636 236 581 284 581 C332 581 350 628 353 670 L323 670 C318 636 307 615 285 615 C251 615 223 670 174 670 C127 670 108 624 105 581 L105 581 Z " />
<glyph glyph-name="uni2007" unicode="&#x2007;" horiz-adv-x="479" d="" />
<glyph glyph-name="figuredash" unicode="&#x2012;" horiz-adv-x="479" d="M40 232 L440 232 L440 268 L40 268 L40 232 Z " />
<glyph glyph-name="endash" unicode="&#x2013;" horiz-adv-x="480" d="M40 232 L440 232 L440 268 L40 268 L40 232 Z " />
<glyph glyph-name="emdash" unicode="&#x2014;" horiz-adv-x="800" d="M40 232 L760 232 L760 268 L40 268 L40 232 Z " />
<glyph glyph-name="uni2015" unicode="&#x2015;" horiz-adv-x="800" d="M40 232 L760 232 L760 268 L40 268 L40 232 Z " />
<glyph glyph-name="quoteleft" unicode="&#x2018;" horiz-adv-x="219" d="M143 703 C90 668 58 618 58 547 C58 504 76 480 102 480 C125 480 142 495 142 520 C142 545 122 557 102 557 C99 557 96 557 94 556 C94 613 117 644 161 680 L143 703 Z " />
<glyph glyph-name="quoteright" unicode="&#x2019;" horiz-adv-x="219" d="M76 477 C130 512 162 562 162 633 C162 676 144 700 117 700 C94 700 78 685 78 660 C78 635 98 623 117 623 C120 623 123 623 125 624 C125 567 102 536 58 500 L76 477 Z " />
<glyph glyph-name="quotesinglbase" unicode="&#x201a;" horiz-adv-x="219" d="M76 -131 C130 -96 162 -46 162 25 C162 68 144 92 117 92 C94 92 78 77 78 52 C78 27 98 15 117 15 C120 15 123 15 125 16 C125 -41 102 -72 58 -108 L76 -131 Z " />
<glyph glyph-name="quotedblleft" unicode="&#x201c;" horiz-adv-x="360" d="M143 703 C90 668 58 618 58 547 C58 504 76 480 102 480 C125 480 142 495 142 520 C142 545 122 557 102 557 C99 557 96 557 94 556 C94 613 117 644 161 680 L143 703 Z M285 703 C231 668 199 618 199 547 C199 504 217 480 244 480 C267 480 283 495 283 520 C283 545 263 557 244 557 C241 557 238 557 235 556 C235 612 258 644 303 680 L285 703 Z " />
<glyph glyph-name="quotedblright" unicode="&#x201d;" horiz-adv-x="360" d="M76 477 C130 512 162 562 162 633 C162 676 144 700 117 700 C94 700 78 685 78 660 C78 635 98 623 117 623 C120 623 123 623 125 624 C125 567 102 536 58 500 L76 477 Z M217 477 C271 512 303 562 303 633 C303 676 285 700 258 700 C235 700 219 685 219 660 C219 635 239 623 258 623 C261 623 264 623 266 624 C266 567 243 536 199 500 L217 477 Z " />
<glyph glyph-name="quotedblbase" unicode="&#x201e;" horiz-adv-x="360" d="M76 -131 C130 -96 162 -46 162 25 C162 68 144 92 117 92 C94 92 78 77 78 52 C78 27 98 15 117 15 C120 15 123 15 125 16 C125 -41 102 -72 58 -108 L76 -131 Z M217 -131 C271 -96 303 -46 303 25 C303 68 285 92 258 92 C235 92 219 77 219 52 C219 27 239 15 258 15 C261 15 264 15 266 16 C266 -41 243 -72 199 -108 L217 -131 Z " />
<glyph glyph-name="dagger" unicode="&#x2020;" horiz-adv-x="420" d="M189 -80 L231 -80 L229 522 L361 520 L361 562 L229 559 L231 712 L189 712 L192 559 L60 562 L60 520 L192 522 L189 -80 Z " />
<glyph glyph-name="daggerdbl" unicode="&#x2021;" horiz-adv-x="420" d="M60 70 L192 73 L189 -80 L231 -80 L229 73 L361 70 L361 112 L229 109 L231 316 L229 523 L361 520 L361 562 L229 559 L231 712 L189 712 L192 559 L60 562 L60 520 L192 523 L189 316 L192 109 L60 112 L60 70 Z " />
<glyph glyph-name="bullet" unicode="&#x2022;" horiz-adv-x="281" d="M140 154 C192 154 241 196 241 264 C241 331 192 374 140 374 C89 374 40 331 40 264 C40 196 89 154 140 154 L140 154 Z " />
<glyph glyph-name="ellipsis" unicode="&#x2026;" horiz-adv-x="931" d="M104 33 C104 5 125 -12 147 -12 C169 -12 189 5 189 33 C189 62 169 79 147 79 C125 79 104 62 104 33 L104 33 Z M441 33 C441 5 462 -12 484 -12 C506 -12 526 5 526 33 C526 62 506 79 484 79 C462 79 441 62 441 33 L441 33 Z M779 33 C779 5 799 -12 821 -12 C843 -12 863 5 863 33 C863 62 843 79 821 79 C799 79 779 62 779 33 L779 33 Z " />
</font>
</svg>
