<?xml version="1.0" encoding="utf-8"?>
<!-- Generator: Adobe Illustrator 18.0.0, SVG Export Plug-In . SVG Version: 6.00 Build 0)  -->
<!DOCTYPE svg PUBLIC "-//W3C//DTD SVG 1.1//EN" "http://www.w3.org/Graphics/SVG/1.1/DTD/svg11.dtd">
<svg version="1.1" id="Layer_1" xmlns="http://www.w3.org/2000/svg" xmlns:xlink="http://www.w3.org/1999/xlink" x="0px" y="0px"
	 viewBox="0 0 900 300" enable-background="new 0 0 900 300" xml:space="preserve">
<path fill="#555555" stroke="#555555" stroke-width="12" stroke-miterlimit="10" d="M859.7,282.3H40.3c-11.8,0-21.4-9.6-21.4-21.4
	V39.1c0-11.8,9.6-21.4,21.4-21.4h819.4c11.8,0,21.4,9.6,21.4,21.4v221.7C881.1,272.7,871.5,282.3,859.7,282.3z"/>
<g>
	<path fill="#FFFFFF" d="M291.2,85.2c0-11.5,8.5-19.2,19.5-19.2c7.5,0,12.1,3.8,14.9,8.3l-5.5,2.9c-1.8-3.1-5.4-5.4-9.4-5.4
		c-7.4,0-12.8,5.6-12.8,13.4c0,7.7,5.5,13.4,12.8,13.4c4,0,7.6-2.3,9.4-5.4l5.6,2.8c-2.8,4.5-7.5,8.4-14.9,8.4
		C299.8,104.4,291.2,96.6,291.2,85.2z"/>
	<path fill="#FFFFFF" d="M331.9,90.2c0-7.7,5.2-14.1,13.8-14.1c8.6,0,13.8,6.4,13.8,14.1c0,7.7-5.2,14.2-13.8,14.2
		C337.1,104.4,331.9,97.9,331.9,90.2z M353.4,90.2c0-4.7-2.7-8.9-7.7-8.9c-5,0-7.7,4.2-7.7,8.9c0,4.8,2.8,9,7.7,9
		C350.7,99.2,353.4,95,353.4,90.2z"/>
	<path fill="#FFFFFF" d="M386.5,103.7V86.9c0-4.2-2.2-5.6-5.5-5.6c-3,0-5.5,1.8-6.9,3.6v18.8h-5.8V76.8h5.8v3.6
		c1.8-2.1,5.3-4.3,9.5-4.3c5.8,0,8.7,3.1,8.7,8.6v18.9H386.5z"/>
	<path fill="#FFFFFF" d="M400.4,100.2l2.7-4.2c1.9,2,5.6,3.7,9.1,3.7c3.5,0,5.3-1.4,5.3-3.6c0-5.3-16.3-1.5-16.3-11.9
		c0-4.4,3.8-8.1,10.6-8.1c4.6,0,8,1.6,10.4,3.7l-2.5,4.1c-1.6-1.8-4.6-3.2-8-3.2c-3.1,0-5,1.4-5,3.3c0,4.7,16.3,1.2,16.3,11.9
		c0,4.8-4,8.4-11.2,8.4C407.3,104.4,403.2,102.9,400.4,100.2z"/>
	<path fill="#FFFFFF" d="M434.7,72.8h-4.2l7.8-8h5.6L434.7,72.8z M431.7,103.7V76.8h5.8v26.9H431.7z"/>
	<path fill="#FFFFFF" d="M447.6,110.6l2.7-4.2c2.2,2.5,5,3.5,8.6,3.5c3.8,0,8-1.8,8-7.5v-3.1c-2.1,2.7-5.1,4.5-8.6,4.5
		c-6.9,0-11.9-5-11.9-13.8c0-8.7,5-13.8,11.9-13.8c3.4,0,6.5,1.5,8.6,4.4v-3.7h5.9v25.5c0,9.7-7.2,12.3-13.8,12.3
		C454.4,114.6,451,113.6,447.6,110.6z M466.9,95V84.9c-1.3-2-4.2-3.6-6.9-3.6c-4.7,0-7.6,3.5-7.6,8.6c0,5.2,3,8.6,7.6,8.6
		C462.7,98.5,465.6,96.9,466.9,95z"/>
	<path fill="#FFFFFF" d="M501.3,103.7v-3.6c-1.9,2.1-5.2,4.2-9.5,4.2c-5.8,0-8.7-3.1-8.7-8.5V76.8h5.8v16.9c0,4.2,2.1,5.5,5.5,5.5
		c3,0,5.5-1.7,6.9-3.5V76.8h5.8v26.9H501.3z"/>
	<path fill="#FFFFFF" d="M515.9,90.2c0-7.8,5.7-14.1,13.6-14.1c8.1,0,13.2,6.1,13.2,14.6v1.4H522c0.4,4,3.5,7.4,8.5,7.4
		c2.7,0,5.7-1.1,7.7-3l2.7,3.8c-2.7,2.6-6.7,4-10.9,4C521.8,104.4,515.9,98.8,515.9,90.2z M529.5,80.9c-5,0-7.3,3.8-7.5,7.1h15.2
		C536.9,84.8,534.8,80.9,529.5,80.9z"/>
	<path fill="#FFFFFF" d="M551.3,103.7V66.6h5.8v37.2H551.3z"/>
	<path fill="#FFFFFF" d="M565.9,90.2c0-7.7,5.2-14.1,13.8-14.1c8.6,0,13.8,6.4,13.8,14.1c0,7.7-5.2,14.2-13.8,14.2
		C571.1,104.4,565.9,97.9,565.9,90.2z M587.5,90.2c0-4.7-2.7-8.9-7.7-8.9c-5,0-7.7,4.2-7.7,8.9c0,4.8,2.8,9,7.7,9
		C584.7,99.2,587.5,95,587.5,90.2z"/>
	<path fill="#FFFFFF" d="M617.8,90.2c0-7.8,5.7-14.1,13.6-14.1c8.1,0,13.2,6.1,13.2,14.6v1.4h-20.7c0.4,4,3.5,7.4,8.5,7.4
		c2.7,0,5.7-1.1,7.7-3l2.7,3.8c-2.7,2.6-6.7,4-10.9,4C623.8,104.4,617.8,98.8,617.8,90.2z M631.4,80.9c-5,0-7.3,3.8-7.5,7.1H639
		C638.9,84.8,636.7,80.9,631.4,80.9z"/>
	<path fill="#FFFFFF" d="M671.5,103.7V86.9c0-4.2-2.2-5.6-5.5-5.6c-3,0-5.5,1.8-6.9,3.6v18.8h-5.8V76.8h5.8v3.6
		c1.8-2.1,5.3-4.3,9.5-4.3c5.8,0,8.7,3.1,8.7,8.6v18.9H671.5z"/>
	<path fill="#FFFFFF" d="M703.2,90.2c0-7.8,5.7-14.1,13.6-14.1c8.1,0,13.2,6.1,13.2,14.6v1.4h-20.7c0.4,4,3.5,7.4,8.5,7.4
		c2.7,0,5.7-1.1,7.7-3l2.7,3.8c-2.7,2.6-6.7,4-10.9,4C709.2,104.4,703.2,98.8,703.2,90.2z M716.8,80.9c-5,0-7.3,3.8-7.5,7.1h15.2
		C724.3,84.8,722.1,80.9,716.8,80.9z"/>
	<path fill="#FFFFFF" d="M738.7,103.7V66.6h5.8v37.2H738.7z"/>
</g>
<g>
	<path fill="#FFFFFF" d="M346.1,220.9l-5.9-15.5h-36.7l-5.9,15.5h-16l31.4-80h17.5l31.4,80H346.1z M321.9,154.9L307.5,193h28.8
		L321.9,154.9z"/>
	<path fill="#FFFFFF" d="M383,212.8V243h-12.6v-80H383v7.9c4.3-5.8,11-9.4,18.6-9.4c15,0,25.7,11.3,25.7,30.4
		c0,19.1-10.7,30.5-25.7,30.5C394.3,222.3,387.8,219,383,212.8z M414.3,191.8c0-11.3-6.5-19.2-16.4-19.2c-5.9,0-12,3.4-14.9,7.7
		v22.9c2.8,4.3,9,7.9,14.9,7.9C407.8,211.2,414.3,203.1,414.3,191.8z"/>
	<path fill="#FFFFFF" d="M452.5,212.8V243h-12.6v-80h12.6v7.9c4.3-5.8,11-9.4,18.6-9.4c15,0,25.7,11.3,25.7,30.4
		c0,19.1-10.7,30.5-25.7,30.5C463.7,222.3,457.3,219,452.5,212.8z M483.8,191.8c0-11.3-6.5-19.2-16.4-19.2c-5.9,0-12,3.4-14.9,7.7
		v22.9c2.8,4.3,9,7.9,14.9,7.9C477.3,211.2,483.8,203.1,483.8,191.8z"/>
	<path fill="#FFFFFF" d="M535.5,209.6l7.9-10.9c5.4,5.9,14.2,11.2,25.3,11.2c11.5,0,16-5.6,16-11c0-16.8-46.6-6.4-46.6-35.8
		c0-13.3,11.5-23.5,29.2-23.5c12.4,0,22.6,4.1,29.9,11.3l-7.9,10.4c-6.4-6.4-14.9-9.2-23.3-9.2c-8.2,0-13.4,4.1-13.4,10
		c0,15,46.6,5.8,46.6,35.5c0,13.3-9.5,24.8-31,24.8C553.4,222.3,542.7,217,535.5,209.6z"/>
	<path fill="#FFFFFF" d="M612.4,207.3v-33.5h-9.6v-10.9h9.6v-15.8H625v15.8h11.8v10.9H625v30.4c0,4,1.9,7,5.5,7
		c2.4,0,4.6-1.1,5.5-2.2l3,9.6c-2.3,2-6,3.7-11.8,3.7C617.5,222.3,612.4,217,612.4,207.3z"/>
	<path fill="#FFFFFF" d="M644.6,191.8c0-16.7,11.3-30.4,29.8-30.4s29.8,13.7,29.8,30.4c0,16.6-11.3,30.5-29.8,30.5
		S644.6,208.4,644.6,191.8z M691,191.8c0-10.2-5.9-19.2-16.7-19.2c-10.7,0-16.7,9-16.7,19.2c0,10.3,6,19.3,16.7,19.3
		C685.1,211.2,691,202.2,691,191.8z"/>
	<path fill="#FFFFFF" d="M716.9,220.9v-58h12.6v8.4c4.4-5.5,11.4-9.8,18.8-9.8V174c-1.1-0.2-2.3-0.4-3.8-0.4c-5.4,0-12.5,3.6-15,7.8
		v39.5H716.9z"/>
	<path fill="#FFFFFF" d="M755.1,191.8c0-16.8,12.2-30.4,29.4-30.4c17.4,0,28.4,13.2,28.4,31.4v3.1h-44.6c1,8.6,7.4,16,18.4,16
		c5.8,0,12.4-2.3,16.6-6.5l5.8,8.3c-5.9,5.5-14.4,8.5-23.5,8.5C767.9,222.3,755.1,210.2,755.1,191.8z M784.4,171.8
		c-10.7,0-15.7,8.3-16.2,15.2h32.6C800.4,180.2,795.8,171.8,784.4,171.8z"/>
</g>
<g>
	<path fill="#FFFFFF" d="M189.8,155.4c-0.2-21.6,17.6-32,18.4-32.5c-10-14.7-25.7-16.7-31.2-16.9c-13.3-1.4-26,7.8-32.7,7.8
		c-6.7,0-17.2-7.6-28.2-7.4c-14.5,0.2-27.9,8.4-35.3,21.4c-15.1,26.1-3.9,64.9,10.8,86.1c7.2,10.4,15.7,22,27,21.6
		c10.8-0.4,14.9-7,28-7s16.8,7,28.2,6.8c11.6-0.2,19-10.6,26.1-21c8.2-12,11.6-23.7,11.8-24.3C212.5,189.8,190.1,181.2,189.8,155.4z
		"/>
	<path fill="#FFFFFF" d="M168.3,91.9c6-7.2,10-17.3,8.9-27.3c-8.6,0.3-19,5.7-25.2,12.9c-5.5,6.4-10.4,16.6-9.1,26.4
		C152.5,104.7,162.3,99.1,168.3,91.9z"/>
</g>
</svg>
