<?xml version="1.0" encoding="utf-8"?>
<!-- Generator: Adobe Illustrator 18.0.0, SVG Export Plug-In . SVG Version: 6.00 Build 0)  -->
<!DOCTYPE svg PUBLIC "-//W3C//DTD SVG 1.1//EN" "http://www.w3.org/Graphics/SVG/1.1/DTD/svg11.dtd">
<svg version="1.1" id="Layer_1" xmlns="http://www.w3.org/2000/svg" xmlns:xlink="http://www.w3.org/1999/xlink" x="0px" y="0px"
	 viewBox="0 0 300 300" enable-background="new 0 0 300 300" xml:space="preserve">
<g>
	<path fill="#1ABC9C" d="M149.9,111.8c25.3,0,45.9-20.6,45.9-45.9S175.2,20,149.9,20S104,40.5,104,65.9
		C104,91.2,124.6,111.8,149.9,111.8z M149.9,30c19.8,0,35.9,16.1,35.9,35.9s-16.1,35.9-35.9,35.9S114,85.7,114,65.9
		S130.1,30,149.9,30z"/>
	<path fill="#1ABC9C" d="M206.7,123.4H93.3c-19.2,0-34.8,15.6-34.8,34.8v102.6c0,10.6,8.6,19.3,19.3,19.3h144.5
		c10.6,0,19.3-8.6,19.3-19.3V158.2C241.5,139,225.9,123.4,206.7,123.4z M150,174c-21.2,0-38.7-17.8-40.9-40.6h81.8
		C188.7,156.2,171.2,174,150,174z M231.5,260.8c0,5.1-4.2,9.3-9.3,9.3H77.7c-5.1,0-9.3-4.2-9.3-9.3V158.2
		c0-13.7,11.1-24.8,24.8-24.8h7.7c2.2,25.8,21.2,46.3,44.9,48.4v33.6c0,10.2-8.3,18.6-18.6,18.6c-9.8,0-17.8-7.6-18.5-17.2
		c2.2-1.5,3.6-4,3.6-6.9c0-4.6-3.8-8.4-8.4-8.4s-8.4,3.8-8.4,8.4c0,3.5,2.1,6.4,5.1,7.7c1.1,13.6,12.6,24.3,26.5,24.3l0,0l0,0l0,0
		l0,0c14.7,0,26.6-11.9,26.6-26.6v-33.6c23.7-2.1,42.7-22.6,44.9-48.4h7.7c13.7,0,24.8,11.1,24.8,24.8v102.7L231.5,260.8
		L231.5,260.8z"/>
</g>
</svg>
