<?xml version="1.0" encoding="utf-8"?>
<!-- Generator: Adobe Illustrator 18.0.0, SVG Export Plug-In . SVG Version: 6.00 Build 0)  -->
<!DOCTYPE svg PUBLIC "-//W3C//DTD SVG 1.1//EN" "http://www.w3.org/Graphics/SVG/1.1/DTD/svg11.dtd">
<svg version="1.1" id="Layer_1" xmlns="http://www.w3.org/2000/svg" xmlns:xlink="http://www.w3.org/1999/xlink" x="0px" y="0px"
	 viewBox="0 0 300 300" enable-background="new 0 0 300 300" xml:space="preserve">
<g>
	<path fill="#E74C3C" d="M114,103.9c21.3,0,38.6-17.3,38.6-38.6S135.3,26.7,114,26.7S75.4,43.9,75.4,65.3
		C75.4,86.6,92.7,103.9,114,103.9z M114,35.1c16.7,0,30.1,13.6,30.1,30.1S130.6,95.4,114,95.4S83.9,81.9,83.9,65.3
		S97.3,35.1,114,35.1z"/>
	<path fill="#E74C3C" d="M125.9,236.8H53.3c-4.3,0-7.8-3.5-7.8-7.8v-86.3c0-11.5,9.4-20.9,20.9-20.9h6.5
		c1.9,21.7,17.8,38.9,37.8,40.7v28.3c0,8.6-7,15.6-15.6,15.6c-8.2,0-15-6.4-15.5-14.5c1.9-1.3,3-3.3,3-5.8c0-3.9-3.2-7.1-7.1-7.1
		s-7.1,3.2-7.1,7.1c0,2.9,1.8,5.4,4.3,6.5C73.4,204,83.1,213,94.8,213c12.4,0,22.3-10,22.3-22.3v-28.3c19.9-1.8,35.9-19,37.8-40.7
		h6.5c11.5,0,20.9,9.4,20.9,20.9v28.9h8.9v-28.9c-0.1-16.2-13.2-29.3-29.3-29.3H66.4c-16.2,0-29.3,13.1-29.3,29.3v86.3
		c0,8.9,7.2,16.3,16.3,16.3h72.5V236.8L125.9,236.8L125.9,236.8z M148.4,121.9C146.6,141,131.9,156,114,156s-32.5-15-34.4-34.1
		H148.4z"/>
	<path fill="#E74C3C" d="M248.7,180.8h-99.2c-7.9,0-14.3,6.4-14.3,14.3V259c0,7.9,6.4,14.3,14.3,14.3h99.2c7.9,0,14.3-6.4,14.3-14.3
		v-63.9C263,187.3,256.5,180.8,248.7,180.8z M248.7,189.2c0.1,0,0.3,0,0.4,0l-44,29.7c-3.7,2.5-8.3,2.5-12,0l-44-29.7
		c0.1,0,0.3,0,0.4,0H248.7z M254.5,259c0,3.2-2.6,5.8-5.8,5.8h-99.2c-3.2,0-5.8-2.6-5.8-5.8v-63.9c0-0.4,0.1-0.9,0.1-1.4l45.6,30.8
		c2.9,2,6.4,3,9.8,3c3.4,0,6.8-1,9.8-3l45.6-30.8c0.1,0.4,0.1,0.8,0.1,1.4V259H254.5z"/>
</g>
</svg>
