<?xml version="1.0" encoding="utf-8"?>
<!-- Generator: Adobe Illustrator 18.0.0, SVG Export Plug-In . SVG Version: 6.00 Build 0)  -->
<!DOCTYPE svg PUBLIC "-//W3C//DTD SVG 1.1//EN" "http://www.w3.org/Graphics/SVG/1.1/DTD/svg11.dtd">
<svg version="1.1" id="Layer_1" xmlns="http://www.w3.org/2000/svg" xmlns:xlink="http://www.w3.org/1999/xlink" x="0px" y="0px"
	 viewBox="0 365.1 300 300" enable-background="new 0 365.1 300 300" xml:space="preserve">
<g>
	<path fill="#3B5998" d="M150,649.5c-74.1,0-134.4-60.3-134.4-134.4S75.9,380.7,150,380.7S284.4,441,284.4,515.1
		S224.1,649.5,150,649.5z"/>
	<path fill="#3B5998" d="M150,386.7c34.3,0,66.5,13.4,90.8,37.6c24.3,24.3,37.6,56.5,37.6,90.8s-13.4,66.5-37.6,90.8
		c-24.3,24.3-56.5,37.6-90.8,37.6s-66.5-13.4-90.8-37.6c-24.3-24.3-37.6-56.5-37.6-90.8s13.4-66.5,37.6-90.8
		C83.5,400.1,115.7,386.7,150,386.7 M150,374.7c-77.5,0-140.4,62.9-140.4,140.4S72.5,655.5,150,655.5s140.4-62.9,140.4-140.4
		S227.5,374.7,150,374.7L150,374.7z"/>
</g>
<path fill="#FFFFFF" d="M185.6,488.1h-24.3v-15.9c0-6,4-7.4,6.7-7.4c2.8,0,17.1,0,17.1,0v-26.3l-23.6-0.1
	c-26.2,0-32.1,19.6-32.1,32.1v17.5h-15.1v27.1h15.1c0,34.7,0,76.6,0,76.6h31.8c0,0,0-42.3,0-76.6h21.5L185.6,488.1z"/>
</svg>
