<?xml version="1.0" encoding="utf-8"?>
<!-- Generator: Adobe Illustrator 18.0.0, SVG Export Plug-In . SVG Version: 6.00 Build 0)  -->
<!DOCTYPE svg PUBLIC "-//W3C//DTD SVG 1.1//EN" "http://www.w3.org/Graphics/SVG/1.1/DTD/svg11.dtd">
<svg version="1.1" id="Layer_1" xmlns="http://www.w3.org/2000/svg" xmlns:xlink="http://www.w3.org/1999/xlink" x="0px" y="0px"
	 viewBox="0 0 300 300" enable-background="new 0 0 300 300" xml:space="preserve">
<g>
	<path fill="#555555" d="M150,21.6c34.3,0,66.5,13.4,90.8,37.6c24.3,24.3,37.6,56.5,37.6,90.8s-13.4,66.5-37.6,90.8
		c-24.3,24.3-56.5,37.6-90.8,37.6S83.5,265,59.2,240.8C35,216.5,21.6,184.3,21.6,150S35,83.5,59.2,59.2C83.5,35,115.7,21.6,150,21.6
		 M150,9.6C72.5,9.6,9.6,72.5,9.6,150S72.5,290.4,150,290.4S290.4,227.5,290.4,150S227.5,9.6,150,9.6L150,9.6z"/>
</g>
<path fill="#555555" d="M185.6,123h-24.3v-15.9c0-6,4-7.4,6.7-7.4c2.8,0,17.1,0,17.1,0V73.4l-23.6-0.1c-26.2,0-32.1,19.6-32.1,32.1
	V123h-15.1v27.1h15.1c0,34.7,0,76.6,0,76.6h31.8c0,0,0-42.3,0-76.6h21.5L185.6,123z"/>
</svg>
