<?xml version="1.0" encoding="utf-8"?>
<!-- Generator: Adobe Illustrator 18.0.0, SVG Export Plug-In . SVG Version: 6.00 Build 0)  -->
<!DOCTYPE svg PUBLIC "-//W3C//DTD SVG 1.1//EN" "http://www.w3.org/Graphics/SVG/1.1/DTD/svg11.dtd">
<svg version="1.1" id="Layer_1" xmlns="http://www.w3.org/2000/svg" xmlns:xlink="http://www.w3.org/1999/xlink" x="0px" y="0px"
	 viewBox="0 0 900 300" enable-background="new 0 0 900 300" xml:space="preserve">
<path fill="#555555" stroke="#555555" stroke-width="12" stroke-miterlimit="10" d="M859.7,282.3H40.3c-11.8,0-21.4-9.6-21.4-21.4
	V39.1c0-11.8,9.6-21.4,21.4-21.4h819.4c11.8,0,21.4,9.6,21.4,21.4v221.7C881.1,272.7,871.5,282.3,859.7,282.3z"/>
<g id="PLAY_1_">
	<g>
		<defs>
			<path id="SVGID_4_" d="M179.8,126.7l-34.8-20.1c0,0-63.5-36.7-67.2-38.8c-3.7-2.2-7.4-0.9-7.4,3.6c0,7.5,0,78.2,0,78.2
				s0,76.5,0,79.8c0,3.4,2.7,4.8,5.9,3c3.2-1.9,68.7-39.7,68.7-39.7l34.8-20.1c0,0,29.6-17.1,33.5-19.3c3.9-2.3,3.6-5.4,0.2-7.2
				C210.2,144.3,179.8,126.7,179.8,126.7z"/>
		</defs>
		<clipPath id="SVGID_5_">
			<use xlink:href="#SVGID_4_"  overflow="visible"/>
		</clipPath>
		<polygon clip-path="url(#SVGID_5_)" fill="#2CAFA2" points="70.3,64.1 70.3,149.6 70.3,235.2 156.6,149.6 		"/>
	</g>
	<g>
		<defs>
			<path id="SVGID_3_" d="M179.8,126.7l-34.8-20.1c0,0-63.5-36.7-67.2-38.8c-3.7-2.2-7.4-0.9-7.4,3.6c0,7.5,0,78.2,0,78.2
				s0,76.5,0,79.8c0,3.4,2.7,4.8,5.9,3c3.2-1.9,68.7-39.7,68.7-39.7l34.8-20.1c0,0,29.6-17.1,33.5-19.3c3.9-2.3,3.6-5.4,0.2-7.2
				C210.2,144.3,179.8,126.7,179.8,126.7z"/>
		</defs>
		<clipPath id="SVGID_6_">
			<use xlink:href="#SVGID_3_"  overflow="visible"/>
		</clipPath>
		<polygon clip-path="url(#SVGID_6_)" fill="#77E888" points="179.8,126.7 144.9,106.6 70.3,63.5 70.3,64.1 156.6,149.6 		"/>
	</g>
	<g>
		<defs>
			<path id="SVGID_2_" d="M179.8,126.7l-34.8-20.1c0,0-63.5-36.7-67.2-38.8c-3.7-2.2-7.4-0.9-7.4,3.6c0,7.5,0,78.2,0,78.2
				s0,76.5,0,79.8c0,3.4,2.7,4.8,5.9,3c3.2-1.9,68.7-39.7,68.7-39.7l34.8-20.1c0,0,29.6-17.1,33.5-19.3c3.9-2.3,3.6-5.4,0.2-7.2
				C210.2,144.3,179.8,126.7,179.8,126.7z"/>
		</defs>
		<clipPath id="SVGID_7_">
			<use xlink:href="#SVGID_2_"  overflow="visible"/>
		</clipPath>
		<polygon clip-path="url(#SVGID_7_)" fill="#CC3A72" points="70.3,235.2 70.3,235.8 144.9,192.7 179.8,172.6 156.6,149.6 		"/>
	</g>
	<g>
		<defs>
			<path id="SVGID_1_" d="M179.8,126.7l-34.8-20.1c0,0-63.5-36.7-67.2-38.8c-3.7-2.2-7.4-0.9-7.4,3.6c0,7.5,0,78.2,0,78.2
				s0,76.5,0,79.8c0,3.4,2.7,4.8,5.9,3c3.2-1.9,68.7-39.7,68.7-39.7l34.8-20.1c0,0,29.6-17.1,33.5-19.3c3.9-2.3,3.6-5.4,0.2-7.2
				C210.2,144.3,179.8,126.7,179.8,126.7z"/>
		</defs>
		<clipPath id="SVGID_8_">
			<use xlink:href="#SVGID_1_"  overflow="visible"/>
		</clipPath>
		<polygon clip-path="url(#SVGID_8_)" fill="#EA9053" points="179.8,126.7 156.6,149.6 179.8,172.6 219.6,149.6 		"/>
	</g>
</g>
<g>
	<path fill="#FFFFFF" d="M260.4,94.1V56.9h13.8c11.6,0,19.4,7.7,19.4,18.6c0,11-7.8,18.6-19.4,18.6H260.4z M286.9,75.5
		c0-7.1-4.5-12.8-12.7-12.8h-7.4v25.7h7.3C282.3,88.4,286.9,82.6,286.9,75.5z"/>
	<path fill="#FFFFFF" d="M302.7,94.1V56.9h6.5v37.2H302.7z"/>
	<path fill="#FFFFFF" d="M317.5,88.9l3.7-5.1c2.5,2.7,6.6,5.2,11.8,5.2c5.3,0,7.4-2.6,7.4-5.1c0-7.8-21.6-3-21.6-16.6
		c0-6.2,5.3-10.9,13.5-10.9c5.7,0,10.5,1.9,13.9,5.2l-3.7,4.8c-3-3-6.9-4.3-10.8-4.3c-3.8,0-6.2,1.9-6.2,4.6c0,7,21.6,2.7,21.6,16.5
		c0,6.2-4.4,11.5-14.4,11.5C325.8,94.8,320.9,92.3,317.5,88.9z"/>
	<path fill="#FFFFFF" d="M355.8,94.1V56.9h16.4c7.8,0,12.1,5.3,12.1,11.6c0,6.3-4.3,11.6-12.1,11.6h-9.9v13.9H355.8z M377.6,68.6
		c0-3.6-2.6-5.9-6.3-5.9h-9v11.8h9C375,74.4,377.6,72.1,377.6,68.6z"/>
	<path fill="#FFFFFF" d="M390.9,75.6c0-11.1,7.9-19.2,19-19.2c11.1,0,19,8.1,19,19.2c0,11.1-7.9,19.2-19,19.2
		C398.8,94.8,390.9,86.6,390.9,75.6z M422.2,75.6c0-7.7-4.8-13.4-12.3-13.4c-7.5,0-12.3,5.7-12.3,13.4c0,7.6,4.8,13.4,12.3,13.4
		C417.4,89,422.2,83.2,422.2,75.6z"/>
	<path fill="#FFFFFF" d="M463.8,94.1l-19.4-26.6v26.6h-6.5V56.9h6.7l19,25.7V56.9h6.5v37.2H463.8z"/>
	<path fill="#FFFFFF" d="M480.8,94.1V56.9h6.5v37.2H480.8z"/>
	<path fill="#FFFFFF" d="M498,94.1V56.9h18.3c6.9,0,10.6,4.2,10.6,9.5c0,4.6-3,7.8-6.5,8.5c4,0.6,7.2,4.6,7.2,9.1
		c0,5.8-3.8,10.1-10.8,10.1H498z M520.2,67.5c0-2.7-1.9-4.8-5.2-4.8h-10.5v9.6H515C518.3,72.3,520.2,70.3,520.2,67.5z M520.9,83.2
		c0-2.8-2-5.2-5.6-5.2h-10.8v10.4h10.8C518.8,88.4,520.9,86.4,520.9,83.2z"/>
	<path fill="#FFFFFF" d="M536.5,94.1V56.9h6.5v31.4h16.4v5.7H536.5z"/>
	<path fill="#FFFFFF" d="M568,94.1V56.9h25.5v5.7h-18.9v9.6H593V78h-18.6v10.4h18.9v5.7H568z"/>
	<path fill="#FFFFFF" d="M620,94.1V56.9h25.5v5.7h-18.9v9.6h18.6V78h-18.6v10.4h18.9v5.7H620z"/>
	<path fill="#FFFFFF" d="M680.9,94.1l-19.4-26.6v26.6H655V56.9h6.7l19,25.7V56.9h6.5v37.2H680.9z"/>
</g>
<g>
	<path fill="#FFFFFF" d="M651.6,200.6v28.3h-8.2v-73.4h8.2v7.9c3.9-5.4,10.5-9.2,17.9-9.2c14,0,23.6,10.6,23.6,27.8
		c0,17.2-9.7,27.9-23.6,27.9C662.3,209.9,656,206.4,651.6,200.6z M684.5,182c0-11.8-6.4-20.5-17-20.5c-6.5,0-13,3.8-15.8,8.5v24
		c2.9,4.6,9.4,8.6,15.8,8.6C678.1,202.5,684.5,193.7,684.5,182z"/>
	<path fill="#FFFFFF" d="M706.3,208.6v-73.4h8.2v73.4H706.3z"/>
	<path fill="#FFFFFF" d="M764.2,208.6v-6c-4.3,4.8-10.5,7.4-17.6,7.4c-8.9,0-18.5-6-18.5-17.6c0-12,9.5-17.5,18.5-17.5
		c7.3,0,13.3,2.3,17.6,7.1v-9.6c0-7-5.7-11.1-13.4-11.1c-6.4,0-11.6,2.2-16.3,7.4l-3.9-5.7c5.7-5.9,12.5-8.8,21.2-8.8
		c11.3,0,20.6,5.1,20.6,17.9v36.5H764.2z M764.2,197.4v-10.1c-3.2-4.3-8.8-6.5-14.5-6.5c-7.8,0-13.2,4.8-13.2,11.5
		c0,6.8,5.4,11.7,13.2,11.7C755.4,204,761,201.8,764.2,197.4z"/>
	<path fill="#FFFFFF" d="M787.4,221.9c1.2,0.5,3.2,0.9,4.5,0.9c3.6,0,6-1.2,7.9-5.6l3.5-8l-22.2-53.7h9l17.6,43.6l17.7-43.6h8.9
		l-26.6,63.9c-3.2,7.7-8.6,10.7-15.6,10.8c-1.8,0-4.5-0.3-5.9-0.8L787.4,221.9z"/>
</g>
<g>
	<g id="形状_1_22_" enable-background="new    ">
		<g id="形状_1_23_">
			<g>
				<path fill="#FFFFFF" d="M317.2,184.1l-9.4,5l17.7-0.9V207c-3.5,1.4-7.4,2.9-14.9,2.9c-25.6,0-41.5-20.6-41.5-42.6
					c0-20.4,14-34.4,32.5-34.4c13.8,0,21.1,7.1,25.1,11l-2.9,4.7l4.1-0.9l9.7-9.2c-2.6-1.8-6.7-4.8-15.5-7.2
					c-5.5-1.5-11.6-2.4-17.9-2.4c-29.9,0-47.4,21-47.4,43.6c0,18.5,12.3,42.2,44.7,42.2c6.5,0,12.6-0.9,19.4-2l16.8-3.8v-14.2
					c0-1.2,0.1-4.5,0.2-5.6c0.2-0.9,0.4-1.2,1.2-1.9l3-2.9L317.2,184.1L317.2,184.1z"/>
			</g>
		</g>
	</g>
	<g id="形状_1_20_" enable-background="new    ">
		<g id="形状_1_21_">
			<g>
				<path fill="#FFFFFF" d="M377.9,153.5c-19,0-32.4,13.9-32.4,30.2c0,13.9,10.6,29.4,30.5,29.4c20.4,0,31.8-15.6,31.8-30.2
					C407.8,167.8,396.3,153.5,377.9,153.5z M391.7,203c-2.9,4-7.9,6.3-12.8,6.3c-15.1,0-21.3-20.3-21.3-32.6
					c0-5.4,0.9-10.8,5.8-15.2c3-2.6,7.1-4.2,11.3-4.2c15.5,0,20.8,20.9,20.8,31.9C395.4,194,394.7,199,391.7,203z"/>
			</g>
		</g>
	</g>
	<g id="形状_1_18_" enable-background="new    ">
		<g id="形状_1_19_">
			<g>
				<path fill="#FFFFFF" d="M444.5,153.5c-19,0-32.4,13.9-32.4,30.2c0,13.9,10.6,29.4,30.5,29.4c20.4,0,31.8-15.6,31.8-30.2
					C474.4,167.8,462.9,153.5,444.5,153.5z M458.3,203c-2.9,4-7.9,6.3-12.8,6.3c-15.1,0-21.3-20.3-21.3-32.6
					c0-5.4,0.9-10.8,5.8-15.2c3-2.6,7.1-4.2,11.3-4.2c15.5,0,20.8,20.9,20.8,31.9C462,194,461.3,199,458.3,203z"/>
			</g>
		</g>
	</g>
	<g id="形状_1_16_" enable-background="new    ">
		<g id="形状_1_17_">
			<g>
				<path fill="#FFFFFF" d="M522.8,209l-4.5-3.5c-1.4-1.1-3.3-2.6-3.3-5.3c0-2.7,1.9-4.5,3.5-6.1c5.3-4.1,10.5-8.5,10.5-17.7
					c0-9.5-6-14.4-8.9-16.8h7.8l8-4.5h-25.8c-6.8,0-15.3,1-22.4,6.8c-5.4,4.6-8,10.9-8,16.7c0,9.7,7.5,19.5,20.8,19.5
					c1.3,0,2.6-0.1,4-0.2c-0.6,1.5-1.3,2.7-1.3,4.9c0,3.9,2,6.2,3.7,8.5c-5.6,0.4-16.1,1-23.9,5.7c-7.4,4.4-9.6,10.7-9.6,15.2
					c0,9.2,8.8,17.8,26.9,17.8c21.5,0,32.9-11.8,32.9-23.5C533.3,217.8,528.3,213.6,522.8,209z M506.4,194.7
					c-10.8,0-15.6-13.8-15.6-22.1c0-3.2,0.6-6.6,2.8-9.2c2-2.5,5.5-4.1,8.8-4.1c10.4,0,15.8,13.9,15.8,22.9c0,2.2-0.3,6.2-3.1,9.1
					C512.9,193.2,509.5,194.7,506.4,194.7z M506.5,244.7c-13.4,0-22-6.3-22-15.2c0-8.8,8-11.8,10.8-12.8c5.3-1.7,12-2,13.1-2
					c1.2,0,1.9,0,2.9,0.1c9.5,6.7,13.6,10.1,13.6,16.4C524.9,239,518.6,244.7,506.5,244.7z"/>
			</g>
		</g>
	</g>
	<g id="形状_1_14_" enable-background="new    ">
		<g id="形状_1_15_">
			<g>
				<path fill="#FFFFFF" d="M559.5,208.1c-4.1-0.4-5-1.1-5-6v-28.7c0-17.7,0.1-32.8,1.1-42.4c0.5-4.4,1.8-5.1,5.6-7.3h-17.9
					l-9.4,4.5h9.8c-0.1,5.7-0.6,13.7-0.8,20c-0.4,12.9-0.5,26.8-0.5,36.5v20.3c0,2.5-0.5,2.9-3.4,6.6h22.1l4.6-2.7
					C563.7,208.5,561.6,208.4,559.5,208.1z"/>
			</g>
		</g>
	</g>
	<g id="形状_1_12_" enable-background="new    ">
		<g id="形状_1_13_">
			<g>
				<path fill="#FFFFFF" d="M601.3,206.9c-11.9,0-22.6-9.2-25.8-25l9.6-0.7l29.4-11.8c-0.9-2.9-2.5-8.2-8.8-12.3
					c-3.8-2.4-8.4-3.5-12.9-3.5c-12.9,0-28.7,9.5-28.7,28.7c0,9.3,3.9,20,12.8,26.3c6.4,4.6,12.6,4.9,16.6,4.9c3.8,0,8-0.5,12.1-2.4
					c1.4-0.6,2.8-1.5,4.1-2.2l6.6-6.2C612.3,204.6,607.6,206.9,601.3,206.9z M575,174.9c0-13.4,9.4-17.3,14.4-17.3
					c6.8,0,12.4,5.7,12.4,10.7c0,1.7-1.3,2.5-3.6,3.4l-22.8,9.8C575.2,179.2,575,177,575,174.9z"/>
			</g>
		</g>
	</g>
</g>
</svg>
