<?xml version="1.0" encoding="utf-8"?>
<!-- Generator: Adobe Illustrator 18.0.0, SVG Export Plug-In . SVG Version: 6.00 Build 0)  -->
<!DOCTYPE svg PUBLIC "-//W3C//DTD SVG 1.1//EN" "http://www.w3.org/Graphics/SVG/1.1/DTD/svg11.dtd">
<svg version="1.1" id="Layer_1" xmlns="http://www.w3.org/2000/svg" xmlns:xlink="http://www.w3.org/1999/xlink" x="0px" y="0px"
	 viewBox="0 0 300 300" enable-background="new 0 0 300 300" xml:space="preserve">
<g>
	<path fill="#F39C12" d="M150,21.6c34.3,0,66.5,13.4,90.8,37.6c24.3,24.3,37.6,56.5,37.6,90.8s-13.4,66.5-37.6,90.8
		c-24.3,24.3-56.5,37.6-90.8,37.6S83.5,265,59.2,240.8C35,216.5,21.6,184.3,21.6,150S35,83.5,59.2,59.2C83.5,35,115.7,21.6,150,21.6
		 M150,9.6C72.5,9.6,9.6,72.5,9.6,150S72.5,290.4,150,290.4S290.4,227.5,290.4,150S227.5,9.6,150,9.6L150,9.6z"/>
</g>
<line fill="none" stroke="#F39C12" stroke-width="12" stroke-linecap="round" stroke-miterlimit="10" x1="131" y1="131" x2="217.1" y2="217.1"/>
<circle fill="#FFFFFF" cx="131" cy="131" r="54.8"/>
<g>
	<path fill="#F39C12" d="M131,193.7c-34.6,0-62.8-28.2-62.8-62.8c0-34.6,28.2-62.8,62.8-62.8c34.6,0,62.8,28.2,62.8,62.8
		C193.7,165.6,165.6,193.7,131,193.7z M131,84.2c-25.8,0-46.8,21-46.8,46.8c0,25.8,21,46.8,46.8,46.8c25.8,0,46.8-21,46.8-46.8
		C177.7,105.2,156.7,84.2,131,84.2z"/>
	<path fill="#FFFFFF" d="M131,72.2c32.4,0,58.8,26.4,58.8,58.8s-26.4,58.8-58.8,58.8S72.2,163.4,72.2,131S98.6,72.2,131,72.2
		 M131,181.7c28,0,50.8-22.8,50.8-50.8c0-28-22.8-50.8-50.8-50.8c-28,0-50.8,22.8-50.8,50.8C80.2,158.9,103,181.7,131,181.7
		 M131,64.2c-36.8,0-66.8,29.9-66.8,66.8c0,36.8,29.9,66.8,66.8,66.8c36.8,0,66.8-29.9,66.8-66.8C197.7,94.2,167.8,64.2,131,64.2
		L131,64.2z M131,173.7c-23.6,0-42.8-19.2-42.8-42.8c0-23.6,19.2-42.8,42.8-42.8c23.6,0,42.8,19.2,42.8,42.8
		C173.7,154.5,154.5,173.7,131,173.7L131,173.7z"/>
</g>
<path fill="none" stroke="#F39C12" stroke-width="8" stroke-linecap="round" stroke-miterlimit="10" d="M94.7,127
	c0-17.8,14.4-32.2,32.2-32.2"/>
</svg>
