<?xml version="1.0" encoding="utf-8"?>
<!-- Generator: Adobe Illustrator 18.0.0, SVG Export Plug-In . SVG Version: 6.00 Build 0)  -->
<!DOCTYPE svg PUBLIC "-//W3C//DTD SVG 1.1//EN" "http://www.w3.org/Graphics/SVG/1.1/DTD/svg11.dtd">
<svg version="1.1" id="Layer_1" xmlns="http://www.w3.org/2000/svg" xmlns:xlink="http://www.w3.org/1999/xlink" x="0px" y="0px"
	 viewBox="327 0 300 300" enable-background="new 327 0 300 300" xml:space="preserve">
<g>
	<circle fill="#3498DB" cx="477" cy="150" r="140.4"/>
</g>
<path fill="#FFFFFF" d="M515.9,224.5h-77.9c-19.6,0-35.6-15.9-35.6-35.6v-77.9c0-19.6,15.9-35.6,35.6-35.6h77.9
	c19.6,0,35.6,15.9,35.6,35.6v77.9C551.5,208.6,535.6,224.5,515.9,224.5z"/>
<path fill="#3498DB" d="M511.4,159.7c-0.3,0-0.7,0-1,0.1l-5.7-5.7c-0.1-3.6-3-6.4-6.6-6.4c-3.7,0-6.6,3-6.6,6.6c0,0,0,0.1,0,0.1
	l-26.2,26.2c-0.6-0.2-1.1-0.2-1.8-0.2c-0.3,0-0.6,0-0.9,0.1L449.2,167c0-0.2,0-0.4,0-0.7c0-3.7-3-6.6-6.6-6.6s-6.6,3-6.6,6.6
	s3,6.6,6.6,6.6c0.4,0,0.8,0,1.2-0.1l13.2,13.2c0,0.3-0.1,0.6-0.1,0.9c0,3.7,3,6.6,6.6,6.6c3.6,0,6.6-2.9,6.6-6.6l26.3-26.3
	c0.5,0.1,1.1,0.2,1.6,0.2c0.6,0,1.3-0.1,1.9-0.3l4.9,4.9c0,0.3-0.1,0.5-0.1,0.8c0,3.7,3,6.6,6.6,6.6s6.6-3,6.6-6.6
	S515.1,159.7,511.4,159.7z"/>
<line fill="none" stroke="#3498DB" stroke-width="8" stroke-linecap="round" stroke-miterlimit="10" x1="439.5" y1="112.5" x2="513.4" y2="112.5"/>
<line fill="none" stroke="#3498DB" stroke-width="8" stroke-linecap="round" stroke-miterlimit="10" x1="439.5" y1="133.5" x2="513.4" y2="133.5"/>
</svg>
