<?xml version="1.0" encoding="utf-8"?>
<!-- Generator: Adobe Illustrator 18.0.0, SVG Export Plug-In . SVG Version: 6.00 Build 0)  -->
<!DOCTYPE svg PUBLIC "-//W3C//DTD SVG 1.1//EN" "http://www.w3.org/Graphics/SVG/1.1/DTD/svg11.dtd">
<svg version="1.1" id="Layer_1" xmlns="http://www.w3.org/2000/svg" xmlns:xlink="http://www.w3.org/1999/xlink" x="0px" y="0px"
	 viewBox="327 0 300 300" enable-background="new 327 0 300 300" xml:space="preserve">
<g>
	<circle fill="#F39C12" cx="477" cy="150" r="140.4"/>
</g>
<line fill="none" stroke="#FFFFFF" stroke-width="12" stroke-linecap="round" stroke-miterlimit="10" x1="458" y1="131" x2="544.1" y2="217.1"/>
<circle fill="#FFFFFF" cx="458" cy="131" r="63.1"/>
<path fill="#F39C12" d="M458,72.2c32.4,0,58.8,26.4,58.8,58.8s-26.4,58.8-58.8,58.8s-58.8-26.4-58.8-58.8S425.6,72.2,458,72.2
	 M458,64.2c-36.8,0-66.8,29.9-66.8,66.8c0,36.8,29.9,66.8,66.8,66.8c36.8,0,66.8-29.9,66.8-66.8C524.7,94.2,494.8,64.2,458,64.2
	L458,64.2z"/>
<path fill="none" stroke="#F39C12" stroke-width="8" stroke-linecap="round" stroke-miterlimit="10" d="M421.7,127
	c0-17.8,14.4-32.2,32.2-32.2"/>
</svg>
