<?xml version="1.0" encoding="utf-8"?>
<!-- Generator: Adobe Illustrator 18.0.0, SVG Export Plug-In . SVG Version: 6.00 Build 0)  -->
<!DOCTYPE svg PUBLIC "-//W3C//DTD SVG 1.1//EN" "http://www.w3.org/Graphics/SVG/1.1/DTD/svg11.dtd">
<svg version="1.1" id="Layer_1" xmlns="http://www.w3.org/2000/svg" xmlns:xlink="http://www.w3.org/1999/xlink" x="0px" y="0px"
	 viewBox="0 0 300 300" enable-background="new 0 0 300 300" xml:space="preserve">
<g>
	<path fill="#9B59B6" d="M150,21.6c34.3,0,66.5,13.4,90.8,37.6c24.3,24.3,37.6,56.5,37.6,90.8s-13.4,66.5-37.6,90.8
		c-24.3,24.3-56.5,37.6-90.8,37.6S83.5,265,59.2,240.8C35,216.5,21.6,184.3,21.6,150S35,83.5,59.2,59.2C83.5,35,115.7,21.6,150,21.6
		 M150,9.6C72.5,9.6,9.6,72.5,9.6,150S72.5,290.4,150,290.4S290.4,227.5,290.4,150S227.5,9.6,150,9.6L150,9.6z"/>
</g>
<path fill="none" stroke="#9B59B6" stroke-width="6" stroke-miterlimit="10" d="M188.9,224.5h-77.9c-19.6,0-35.6-15.9-35.6-35.6
	v-77.9c0-19.6,15.9-35.6,35.6-35.6h77.9c19.6,0,35.6,15.9,35.6,35.6v77.9C224.5,208.6,208.6,224.5,188.9,224.5z"/>
<g>
	<path fill="#9B59B6" d="M184.3,116.1h-48c-2.2,0-4-1.8-4-4s1.8-4,4-4h48c2.2,0,4,1.8,4,4S186.5,116.1,184.3,116.1z"/>
	<circle fill="#9B59B6" cx="116.3" cy="112.1" r="4.6"/>
	<path fill="#9B59B6" d="M184.3,141.8h-48c-2.2,0-4-1.8-4-4s1.8-4,4-4h48c2.2,0,4,1.8,4,4S186.5,141.8,184.3,141.8z"/>
	<circle fill="#9B59B6" cx="116.3" cy="137.8" r="4.6"/>
	<path fill="#9B59B6" d="M184.3,166.2h-48c-2.2,0-4-1.8-4-4s1.8-4,4-4h48c2.2,0,4,1.8,4,4S186.5,166.2,184.3,166.2z"/>
	<circle fill="#9B59B6" cx="116.3" cy="162.2" r="4.6"/>
	<path fill="#9B59B6" d="M184.3,191.9h-48c-2.2,0-4-1.8-4-4s1.8-4,4-4h48c2.2,0,4,1.8,4,4S186.5,191.9,184.3,191.9z"/>
	<circle fill="#9B59B6" cx="116.3" cy="187.9" r="4.6"/>
</g>
</svg>
