<?xml version="1.0" encoding="utf-8"?>
<!-- Generator: Adobe Illustrator 18.0.0, SVG Export Plug-In . SVG Version: 6.00 Build 0)  -->
<!DOCTYPE svg PUBLIC "-//W3C//DTD SVG 1.1//EN" "http://www.w3.org/Graphics/SVG/1.1/DTD/svg11.dtd">
<svg version="1.1" id="Layer_1" xmlns="http://www.w3.org/2000/svg" xmlns:xlink="http://www.w3.org/1999/xlink" x="0px" y="0px"
	 viewBox="327 0 300 300" enable-background="new 327 0 300 300" xml:space="preserve">
<g>
	<circle fill="#9B59B6" cx="477" cy="150" r="140.4"/>
</g>
<path fill="#FFFFFF" d="M515.9,224.5h-77.9c-19.6,0-35.6-15.9-35.6-35.6v-77.9c0-19.6,15.9-35.6,35.6-35.6h77.9
	c19.6,0,35.6,15.9,35.6,35.6v77.9C551.5,208.6,535.6,224.5,515.9,224.5z"/>
<g>
	<path fill="#9B59B6" d="M511.3,116.1h-48c-2.2,0-4-1.8-4-4s1.8-4,4-4h48c2.2,0,4,1.8,4,4S513.5,116.1,511.3,116.1z"/>
	<circle fill="#9B59B6" cx="443.3" cy="112.1" r="4.6"/>
	<path fill="#9B59B6" d="M511.3,141.8h-48c-2.2,0-4-1.8-4-4s1.8-4,4-4h48c2.2,0,4,1.8,4,4S513.5,141.8,511.3,141.8z"/>
	<circle fill="#9B59B6" cx="443.3" cy="137.8" r="4.6"/>
	<path fill="#9B59B6" d="M511.3,166.2h-48c-2.2,0-4-1.8-4-4s1.8-4,4-4h48c2.2,0,4,1.8,4,4S513.5,166.2,511.3,166.2z"/>
	<circle fill="#9B59B6" cx="443.3" cy="162.2" r="4.6"/>
	<path fill="#9B59B6" d="M511.3,191.9h-48c-2.2,0-4-1.8-4-4s1.8-4,4-4h48c2.2,0,4,1.8,4,4S513.5,191.9,511.3,191.9z"/>
	<circle fill="#9B59B6" cx="443.3" cy="187.9" r="4.6"/>
</g>
</svg>
