<?xml version="1.0" encoding="utf-8"?>
<!-- Generator: Adobe Illustrator 18.0.0, SVG Export Plug-In . SVG Version: 6.00 Build 0)  -->
<!DOCTYPE svg PUBLIC "-//W3C//DTD SVG 1.1//EN" "http://www.w3.org/Graphics/SVG/1.1/DTD/svg11.dtd">
<svg version="1.1" id="Layer_1" xmlns="http://www.w3.org/2000/svg" xmlns:xlink="http://www.w3.org/1999/xlink" x="0px" y="0px"
	 viewBox="327 0 300 300" enable-background="new 327 0 300 300" xml:space="preserve">
<g>
	<circle fill="#E74C3C" cx="477" cy="150" r="140.4"/>
</g>
<path fill="#FFFFFF" d="M513.5,224.5h-66.3c-15.7,0-28.5-12.7-28.5-28.5v-92c0-15.7,12.7-28.5,28.5-28.5h66.3
	c15.7,0,28.5,12.7,28.5,28.5v92C542,211.8,529.2,224.5,513.5,224.5z"/>
<g>
	<path fill="#E74C3C" d="M489.7,147.2l-33.9-33.9c-1.6-1.6-4.1-1.6-5.7,0c-1.6,1.6-1.6,4.1,0,5.7l27,27h-58.5v8h58.5l-27.4,27.4
		c-1.6,1.6-1.6,4.1,0,5.7c0.8,0.8,1.8,1.2,2.8,1.2c1,0,2-0.4,2.8-1.2l34.2-34.2C491.2,151.3,491.2,148.7,489.7,147.2z"/>
</g>
<path fill="#FFFFFF" d="M393.7,146c-2.2,0-4,1.8-4,4s1.8,4,4,4h24.9v-8H393.7z"/>
</svg>
