<?xml version="1.0" encoding="utf-8"?>
<!-- Generator: Adobe Illustrator 18.0.0, SVG Export Plug-In . SVG Version: 6.00 Build 0)  -->
<!DOCTYPE svg PUBLIC "-//W3C//DTD SVG 1.1//EN" "http://www.w3.org/Graphics/SVG/1.1/DTD/svg11.dtd">
<svg version="1.1" id="Layer_1" xmlns="http://www.w3.org/2000/svg" xmlns:xlink="http://www.w3.org/1999/xlink" x="0px" y="0px"
	 viewBox="0 0 300 300" enable-background="new 0 0 300 300" xml:space="preserve">
<g>
	<path fill="#1ABC9C" d="M150,21.6c34.3,0,66.5,13.4,90.8,37.6c24.3,24.3,37.6,56.5,37.6,90.8s-13.4,66.5-37.6,90.8
		c-24.3,24.3-56.5,37.6-90.8,37.6S83.5,265,59.2,240.8C35,216.5,21.6,184.3,21.6,150S35,83.5,59.2,59.2C83.5,35,115.7,21.6,150,21.6
		 M150,9.6C72.5,9.6,9.6,72.5,9.6,150S72.5,290.4,150,290.4S290.4,227.5,290.4,150S227.5,9.6,150,9.6L150,9.6z"/>
</g>
<circle fill="none" stroke="#1ABC9C" stroke-width="8" stroke-miterlimit="10" cx="149.9" cy="86.8" r="29"/>
<path fill="none" stroke="#1ABC9C" stroke-width="6" stroke-miterlimit="10" d="M178.9,129.5c0,16-13,29-29,29s-29-13-29-29"/>
<path fill="none" stroke="#1ABC9C" stroke-width="8" stroke-miterlimit="10" d="M197.2,232.5h-94.5c-7.1,0-12.9-5.8-12.9-12.9v-64.9
	c0-13.9,11.2-25.1,25.1-25.1H185c13.9,0,25.1,11.2,25.1,25.1v64.9C210.2,226.7,204.4,232.5,197.2,232.5z"/>
<path fill="none" stroke="#1ABC9C" stroke-width="6" stroke-miterlimit="10" d="M118.1,190.5c0,8.8,7.2,16,16,16h-0.2
	c8.8,0,16-7.2,16-16v-32"/>
<circle fill="#1ABC9C" cx="118.1" cy="190.4" r="5.9"/>
</svg>
