<?xml version="1.0" encoding="utf-8"?>
<!-- Generator: Adobe Illustrator 18.0.0, SVG Export Plug-In . SVG Version: 6.00 Build 0)  -->
<!DOCTYPE svg PUBLIC "-//W3C//DTD SVG 1.1//EN" "http://www.w3.org/Graphics/SVG/1.1/DTD/svg11.dtd">
<svg version="1.1" id="Layer_1" xmlns="http://www.w3.org/2000/svg" xmlns:xlink="http://www.w3.org/1999/xlink" x="0px" y="0px"
	 viewBox="327 0 300 300" enable-background="new 327 0 300 300" xml:space="preserve">
<g>
	<path fill="#1ABC9C" d="M477,284.4c-74.1,0-134.4-60.3-134.4-134.4S402.9,15.6,477,15.6S611.4,75.9,611.4,150
		S551.1,284.4,477,284.4z"/>
	<path fill="#1ABC9C" d="M477,21.6c34.3,0,66.5,13.4,90.8,37.6c24.3,24.3,37.6,56.5,37.6,90.8s-13.4,66.5-37.6,90.8
		c-24.3,24.3-56.5,37.6-90.8,37.6s-66.5-13.4-90.8-37.6c-24.3-24.3-37.6-56.5-37.6-90.8s13.4-66.5,37.6-90.8
		C410.5,35,442.7,21.6,477,21.6 M477,9.6c-77.5,0-140.4,62.9-140.4,140.4S399.5,290.4,477,290.4S617.4,227.5,617.4,150
		S554.5,9.6,477,9.6L477,9.6z"/>
</g>
<circle fill="#FFFFFF" cx="476.9" cy="86.8" r="29"/>
<path fill="#FFFFFF" d="M524.2,232.5h-94.5c-7.1,0-12.9-5.8-12.9-12.9v-64.9c0-13.9,11.2-25.1,25.1-25.1H512
	c13.9,0,25.1,11.2,25.1,25.1v64.9C537.2,226.7,531.4,232.5,524.2,232.5z"/>
<path fill="none" stroke="#1ABC9C" stroke-width="6" stroke-miterlimit="10" d="M505.9,129.5c0,16-13,29-29,29s-29-13-29-29"/>
<path fill="none" stroke="#1ABC9C" stroke-width="6" stroke-miterlimit="10" d="M445.1,190.5c0,8.8,7.2,16,16,16h-0.2
	c8.8,0,16-7.2,16-16v-32"/>
<circle fill="#1ABC9C" cx="445.1" cy="190.4" r="5.9"/>
</svg>
