<?xml version="1.0" encoding="utf-8"?>
<!-- Generator: Adobe Illustrator 18.0.0, SVG Export Plug-In . SVG Version: 6.00 Build 0)  -->
<!DOCTYPE svg PUBLIC "-//W3C//DTD SVG 1.1//EN" "http://www.w3.org/Graphics/SVG/1.1/DTD/svg11.dtd">
<svg version="1.1" id="Layer_1" xmlns="http://www.w3.org/2000/svg" xmlns:xlink="http://www.w3.org/1999/xlink" x="0px" y="0px"
	 viewBox="0 0 300 300" enable-background="new 0 0 300 300" xml:space="preserve">
<g>
	<path fill="#E74C3C" d="M150,21.6c34.3,0,66.5,13.4,90.8,37.6c24.3,24.3,37.6,56.5,37.6,90.8s-13.4,66.5-37.6,90.8
		c-24.3,24.3-56.5,37.6-90.8,37.6S83.5,265,59.2,240.8C35,216.5,21.6,184.3,21.6,150S35,83.5,59.2,59.2C83.5,35,115.7,21.6,150,21.6
		 M150,9.6C72.5,9.6,9.6,72.5,9.6,150S72.5,290.4,150,290.4S290.4,227.5,290.4,150S227.5,9.6,150,9.6L150,9.6z"/>
</g>
<path fill="none" stroke="#E74C3C" stroke-width="8" stroke-miterlimit="10" d="M186.5,224.5h-66.3c-15.7,0-28.5-12.7-28.5-28.5v-92
	c0-15.7,12.7-28.5,28.5-28.5h66.3c15.7,0,28.5,12.7,28.5,28.5v92C215,211.8,202.2,224.5,186.5,224.5z"/>
<g>
	<path fill="#E74C3C" d="M125.7,192.2c-2.1,0-4.1-0.8-5.7-2.3c-1.5-1.5-2.3-3.5-2.3-5.7s0.8-4.1,2.3-5.7l20.5-20.5H66.7
		c-4.4,0-8-3.6-8-8s3.6-8,8-8h73.8l-20.2-20.2c-3.1-3.1-3.1-8.2,0-11.3c1.5-1.5,3.5-2.3,5.7-2.3s4.1,0.8,5.7,2.3l33.9,33.9
		c1.5,1.5,2.3,3.5,2.3,5.7c0,2.1-0.8,4.1-2.3,5.7l-34.2,34.2C129.8,191.4,127.8,192.2,125.7,192.2z"/>
	<path fill="#FFFFFF" d="M126,112.1c1,0,2,0.4,2.8,1.2l33.9,33.9c1.6,1.6,1.6,4.1,0,5.7L128.5,187c-0.8,0.8-1.8,1.2-2.8,1.2
		c-1,0-2-0.4-2.8-1.2c-1.6-1.6-1.6-4.1,0-5.7l27.4-27.4H66.7c-2.2,0-4-1.8-4-4c0-2.2,1.8-4,4-4h83.4l-27-27c-1.6-1.6-1.6-4.1,0-5.7
		C123.9,112.5,124.9,112.1,126,112.1 M126,104.1c-3.2,0-6.2,1.2-8.5,3.5c-4.7,4.7-4.7,12.3,0,17l13.4,13.4H66.7c-6.6,0-12,5.4-12,12
		s5.4,12,12,12h64.1l-13.7,13.7c-2.3,2.3-3.5,5.3-3.5,8.5c0,3.2,1.2,6.2,3.5,8.5c2.3,2.3,5.3,3.5,8.5,3.5c3.2,0,6.2-1.2,8.5-3.5
		l34.2-34.2c2.3-2.3,3.5-5.3,3.5-8.5c0-3.2-1.2-6.2-3.5-8.5l-33.9-33.9C132.2,105.4,129.2,104.1,126,104.1L126,104.1z"/>
</g>
</svg>
