<?xml version="1.0" encoding="utf-8"?>
<!-- Generator: Adobe Illustrator 18.0.0, SVG Export Plug-In . SVG Version: 6.00 Build 0)  -->
<!DOCTYPE svg PUBLIC "-//W3C//DTD SVG 1.1//EN" "http://www.w3.org/Graphics/SVG/1.1/DTD/svg11.dtd">
<svg version="1.1" id="Layer_1" xmlns="http://www.w3.org/2000/svg" xmlns:xlink="http://www.w3.org/1999/xlink" x="0px" y="0px"
	 viewBox="0 0 90 30" enable-background="new 0 0 90 30" xml:space="preserve">
<g>
	<g>
		<path fill="#2c5173" d="M9.5,15c0-1.9,1-2.6,2.2-2.6c1.3,0,2.2,0.7,2.2,2.6c0,1.9-1,2.6-2.2,2.6C10.4,17.7,9.5,17,9.5,15z
			 M10.8,15c0,1.3,0.4,1.6,0.9,1.6c0.5,0,0.9-0.3,0.9-1.6c0-1.3-0.4-1.6-0.8-1.6C11.2,13.5,10.8,13.7,10.8,15z"/>
		<path fill="#2c5173" d="M19.2,14.9c0,1.5-0.5,2.8-2.3,2.8c-0.3,0-0.6-0.1-0.8-0.2v2l-1.4,0.2v-7.2h1.2l0.1,0.4
			c0.2-0.1,0.6-0.5,1.3-0.5C18.6,12.4,19.2,13.4,19.2,14.9z M16.1,16.5c0.2,0,0.4,0.1,0.6,0.1c0.9,0,1.1-0.7,1.1-1.6
			c0-0.7-0.2-1.4-0.9-1.4c-0.3,0-0.6,0.1-0.8,0.2V16.5z"/>
		<path fill="#2c5173" d="M21.1,15.1c0,1.1,0.6,1.5,1.3,1.5c0.4,0,0.8-0.1,1.2-0.2l0.2,0.9c-0.5,0.2-1.1,0.3-1.7,0.3
			c-1.8,0-2.3-1.3-2.3-2.8c0-1.4,0.7-2.5,2.3-2.5c1.2,0,1.8,0.7,1.8,1.8c0,0.3-0.1,0.7-0.1,1H21.1z M22.8,14.4L22.8,14.4
			c0-0.7-0.2-1-0.7-1c-0.8,0-0.9,0.7-1,1H22.8z"/>
		<path fill="#2c5173" d="M29.1,14.1v3.5h-1.4v-3.2c0-0.4-0.1-0.8-0.6-0.8c-0.4,0-0.7,0.2-0.9,0.4v3.7h-1.4v-5.1h1.2L26,13
			c0.3-0.3,1-0.7,1.6-0.7C28.9,12.4,29.1,13.1,29.1,14.1z"/>
		<path fill="#2c5173" d="M33.1,13.7c-0.4-0.1-0.7-0.2-1.1-0.2c-0.5,0-0.7,0.2-0.7,0.4c0,0.9,2.2,0.6,2.2,2.1c0,0.9-0.6,1.7-2,1.7
			c-0.6,0-1.4-0.2-1.6-0.3l0.3-1c0.4,0.1,0.9,0.3,1.4,0.3c0.4,0,0.7-0.1,0.7-0.5c0-0.8-2.2-0.7-2.2-2.2c0-1,0.7-1.6,1.9-1.6
			c0.7,0,1.3,0.2,1.5,0.3L33.1,13.7z"/>
		<path fill="#2c5173" d="M36.9,17.2c-0.3,0.2-0.8,0.5-1.4,0.5c-0.9,0-1.5-0.6-1.5-1.4c0-1.3,1.2-1.5,1.8-1.5c0.3,0,0.6,0,0.9,0
			v-0.5c0-0.7-0.3-0.8-0.9-0.8c-0.4,0-0.8,0.1-1.2,0.2l-0.3-0.9c0.5-0.3,1.4-0.4,1.8-0.4c1.3,0,1.9,0.5,1.9,1.9v2.1
			c0,0.2,0.1,0.3,0.2,0.3c0.1,0,0.2,0,0.4-0.1l0.2,0.8c-0.4,0.2-0.9,0.3-1.1,0.3C37.3,17.6,37,17.5,36.9,17.2z M36.7,16.5v-1
			c-0.1,0-0.3,0-0.5,0c-0.6,0-1,0.2-1,0.6c0,0.5,0.3,0.7,0.7,0.7C36.1,16.7,36.4,16.7,36.7,16.5z"/>
		<path fill="#2c5173" d="M41.9,17.4c-0.4,0.2-0.8,0.2-1,0.2c-1.5,0-1.5-0.9-1.5-1.7v-5.3h1.4V16c0,0.4,0.1,0.5,0.4,0.5
			c0.1,0,0.3,0,0.6-0.1L41.9,17.4z"/>
		<path fill="#2c5173" d="M42.3,16v-3.5h1.4v3.3c0,0.4,0,0.8,0.6,0.8c0.4,0,0.7-0.1,0.9-0.3v-3.8h1.4v5.2h-1.1l-0.1-0.6
			c-0.4,0.3-1,0.6-1.6,0.6C42.6,17.7,42.3,16.9,42.3,16z"/>
		<path fill="#2c5173" d="M49.7,12.4c0.2,0,0.7,0.1,0.9,0.2v-2h1.4v7.1h-1.1l-0.1-0.4c-0.4,0.3-0.9,0.4-1.3,0.4
			c-1.3,0-1.9-1-1.9-2.5C47.5,13.6,48,12.4,49.7,12.4z M50.6,13.6c-0.2-0.1-0.4-0.1-0.7-0.1c-0.7,0-1,0.7-1,1.6
			c0,0.8,0.2,1.5,0.9,1.5c0.3,0,0.6-0.1,0.8-0.2V13.6z"/>
		<path fill="#2c5173" d="M54.5,16.8c0,0.5-0.4,0.8-0.8,0.8c-0.5,0-0.8-0.4-0.8-0.8c0-0.4,0.4-0.8,0.8-0.8
			C54.1,16,54.5,16.3,54.5,16.8z"/>
	</g>
	<g>
		<path fill="#2c5173" d="M61.7,0h-1.6H0v30h60.1h1.6H90V0H61.7z M60,29H1V1h59V29z M89,29H61V1h28V29z"/>
	</g>
	<g>
		<g>
			<path fill="#2c5173" d="M81.7,11c-0.7-0.7-1.7-1.1-2.8-1.1c-1,0-2,0.4-2.8,1.1l-0.4,0.4L75.4,11c-0.7-0.7-1.7-1.1-2.8-1.1
				c-1,0-2,0.4-2.8,1.1c-1.5,1.5-1.5,4,0,5.5l5.5,5.5c0.1,0.1,0.2,0.1,0.3,0.2c0,0,0.1,0,0.1,0c0.2,0,0.3-0.1,0.4-0.2l5.5-5.5
				C83.2,15,83.2,12.5,81.7,11z M80.8,15.7l-5.1,5.1l-5.1-5.1c-1.1-1.1-1.1-2.8,0-3.8c0.5-0.5,1.2-0.8,1.9-0.8
				c0.7,0,1.4,0.3,1.9,0.8l0.8,0.8c0.2,0.2,0.6,0.2,0.9,0l0.8-0.8c0.5-0.5,1.2-0.8,1.9-0.8c0.7,0,1.4,0.3,1.9,0.8
				C81.9,12.9,81.9,14.6,80.8,15.7z"/>
		</g>
	</g>
</g>
</svg>
