<?xml version="1.0" encoding="utf-8"?>
<!-- Generator: Adobe Illustrator 18.0.0, SVG Export Plug-In . SVG Version: 6.00 Build 0)  -->
<!DOCTYPE svg PUBLIC "-//W3C//DTD SVG 1.1//EN" "http://www.w3.org/Graphics/SVG/1.1/DTD/svg11.dtd">
<svg version="1.1" id="Layer_1" xmlns="http://www.w3.org/2000/svg" xmlns:xlink="http://www.w3.org/1999/xlink" x="0px" y="0px"
	 viewBox="327 0 300 300" enable-background="new 327 0 300 300" xml:space="preserve">
<g>
	<path fill="#555555" d="M477,21.6c34.3,0,66.5,13.4,90.8,37.6c24.3,24.3,37.6,56.5,37.6,90.8s-13.4,66.5-37.6,90.8
		c-24.3,24.3-56.5,37.6-90.8,37.6s-66.5-13.4-90.8-37.6c-24.3-24.3-37.6-56.5-37.6-90.8s13.4-66.5,37.6-90.8
		C410.5,35,442.7,21.6,477,21.6 M477,9.6c-77.5,0-140.4,62.9-140.4,140.4S399.5,290.4,477,290.4S617.4,227.5,617.4,150
		S554.5,9.6,477,9.6L477,9.6z"/>
</g>
<path fill="#555555" d="M552.7,103.1c-5.6,2.5-11.6,4.1-17.8,4.9c6.4-3.8,11.3-9.9,13.7-17.2c-6,3.6-12.6,6.1-19.7,7.5
	c-5.7-6-13.7-9.8-22.7-9.8c-17.1,0-31.1,13.9-31.1,31.1c0,2.4,0.3,4.8,0.8,7.1c-25.8-1.3-48.7-13.7-64-32.4
	c-2.7,4.6-4.2,9.9-4.2,15.6c0,10.8,5.5,20.3,13.8,25.8c-5.1-0.2-9.9-1.6-14.1-3.9c0,0.1,0,0.3,0,0.4c0,15,10.7,27.6,24.9,30.5
	c-2.6,0.7-5.3,1.1-8.2,1.1c-2,0-3.9-0.2-5.8-0.6c4,12.3,15.4,21.3,29,21.6c-10.6,8.3-24,13.3-38.6,13.3c-2.5,0-5-0.1-7.4-0.4
	c13.7,8.8,30.1,14,47.6,14c57.1,0,88.4-47.3,88.4-88.4c0-1.3,0-2.7-0.1-4C543.3,114.8,548.5,109.3,552.7,103.1z"/>
</svg>
