<?xml version="1.0" encoding="utf-8"?>
<!-- Generator: Adobe Illustrator 18.0.0, SVG Export Plug-In . SVG Version: 6.00 Build 0)  -->
<!DOCTYPE svg PUBLIC "-//W3C//DTD SVG 1.1//EN" "http://www.w3.org/Graphics/SVG/1.1/DTD/svg11.dtd">
<svg version="1.1" id="Layer_1" xmlns="http://www.w3.org/2000/svg" xmlns:xlink="http://www.w3.org/1999/xlink" x="0px" y="0px"
	 viewBox="0 0 300 300" enable-background="new 0 0 300 300" xml:space="preserve">
<g id="Layer_1_1_" display="none">
	<path display="inline" fill="#999999" d="M150,9.6C72.5,9.6,9.6,72.5,9.6,150S72.5,290.4,150,290.4S290.4,227.5,290.4,150
		S227.5,9.6,150,9.6L150,9.6z"/>
	<g display="inline">
		<g>
			<circle fill="#FFFFFF" cx="149.9" cy="87.6" r="29.5"/>
			<path fill="#FFFFFF" d="M150.1,149.2c12.6,0,23-10.5,23-23h-46C127,138.8,137.3,149.2,150.1,149.2z"/>
			<path fill="#FFFFFF" d="M184.4,126.5c-0.1,16.9-12.5,30.8-28.6,33.5v27.7c0,14.3-10.8,26.8-25,27.6c-14.7,0.8-27.1-10.5-28-24.9
				c-3.9-2.3-6.3-6.9-5.4-11.8c0.8-4.5,4.5-8.1,9-8.9c7.1-1.2,13.2,4.2,13.2,11c0,4.1-2.1,7.7-5.4,9.6c0.8,8.1,8,14.3,16.4,13.5
				c7.9-0.7,13.7-7.9,13.7-15.9v-28.1c-16.1-2.7-28.5-16.8-28.6-33.5c-15.9,2-28.1,15.6-28.1,32.1v59.4c0,7.9,6.4,14.2,14.2,14.2
				h96.4c7.9,0,14.2-6.4,14.2-14.2v-59.4C212.5,142.1,200.2,128.5,184.4,126.5z"/>
		</g>
	</g>
</g>
<g>
	<g>
		<path fill="#F39C12" d="M149.9,130.7c-15.1,0-27.4-12.3-27.4-27.4s12.3-27.4,27.4-27.4c15.1,0,27.4,12.3,27.4,27.4
			S165,130.7,149.9,130.7z M149.9,83.9c-10.7,0-19.4,8.7-19.4,19.4s8.7,19.4,19.4,19.4c10.7,0,19.4-8.7,19.4-19.4
			S160.6,83.9,149.9,83.9z"/>
		<path fill="#F39C12" d="M185.2,224h-70.4c-10.1,0-18.3-8.2-18.3-18.3V166c0-18.6,15.2-33.8,33.8-33.8h39.2
			c18.6,0,33.8,15.2,33.8,33.8v39.7c0.1,4.9-1.8,9.5-5.2,12.9C194.7,222.1,190.1,224,185.2,224z M130.3,140.2
			c-14.2,0-25.8,11.6-25.8,25.8v39.7c0,5.7,4.6,10.3,10.3,10.3h70.4c2.7,0,5.3-1.1,7.2-3c1.9-1.9,2.9-4.5,2.9-7.3V166
			c0-14.2-11.6-25.8-25.8-25.8H130.3z"/>
		<path fill="#F39C12" d="M150,168.6c-16.4,0-29.8-14.5-29.8-32.4h8c0,13.5,9.8,24.4,21.8,24.4V168.6z"/>
		<path fill="#F39C12" d="M150,168.6v-8c12,0,21.8-10.9,21.8-24.4h8C179.8,154.1,166.4,168.6,150,168.6z"/>
		<rect x="146" y="164.6" fill="#F39C12" width="8" height="21.4"/>
		<path fill="#F39C12" d="M137.1,202.9v-8c4.9,0,8.9-4,8.9-8.9h8C154,195.3,146.4,202.9,137.1,202.9z"/>
		<path fill="#F39C12" d="M137.1,202.9c-9.3,0-16.9-7.6-16.9-16.9h8c0,4.9,4,8.9,8.9,8.9V202.9z"/>
		<g>
			<circle fill="#F39C12" cx="123.8" cy="182.8" r="3.9"/>
			<path fill="#F39C12" d="M123.8,188.2c-3,0-5.4-2.4-5.4-5.4s2.4-5.4,5.4-5.4c3,0,5.4,2.4,5.4,5.4S126.8,188.2,123.8,188.2z
				 M123.8,180.4c-1.3,0-2.4,1.1-2.4,2.4s1.1,2.4,2.4,2.4c1.3,0,2.4-1.1,2.4-2.4S125.1,180.4,123.8,180.4z"/>
		</g>
	</g>
	<path fill="#F39C12" d="M226.9,281.2H73.1c-12.2,0-22.1-9.9-22.1-22.1V47.7c0-12.2,9.9-22.1,22.1-22.1h153.7
		c12.2,0,22.1,9.9,22.1,22.1v211.4C248.9,271.3,239,281.2,226.9,281.2z M73.1,33.6c-7.8,0-14.1,6.3-14.1,14.1v211.4
		c0,7.8,6.3,14.1,14.1,14.1h153.8c7.7,0,14-6.3,14-14.1V47.7c0-7.8-6.3-14.1-14.1-14.1H73.1z"/>
	<path fill="#F39C12" d="M227,241.7H72.3v-183H227V241.7z M76.3,237.7H223v-175H76.3V237.7z"/>
	<g>
		<circle fill="#F39C12" cx="150" cy="260.5" r="6.6"/>
		<path fill="#F39C12" d="M150,269.1c-4.7,0-8.6-3.9-8.6-8.6s3.9-8.6,8.6-8.6s8.6,3.9,8.6,8.6S154.7,269.1,150,269.1z M150,255.9
			c-2.5,0-4.6,2.1-4.6,4.6s2.1,4.6,4.6,4.6c2.5,0,4.6-2.1,4.6-4.6S152.5,255.9,150,255.9z"/>
	</g>
</g>
</svg>
